<svg width="18" height="18" viewBox="0 0 18 18" fill="none" xmlns="http://www.w3.org/2000/svg">
<path d="M2.8125 3.375C1.88719 3.375 1.125 4.13719 1.125 5.0625V12.9375C1.125 13.8628 1.88719 14.625 2.8125 14.625H15.1875C16.1128 14.625 16.875 13.8628 16.875 12.9375V5.0625C16.875 4.13719 16.1128 3.375 15.1875 3.375H2.8125ZM2.8125 4.5H15.1875C15.5059 4.5 15.75 4.74413 15.75 5.0625V12.9375C15.75 13.2559 15.5059 13.5 15.1875 13.5H2.8125C2.49413 13.5 2.25 13.2559 2.25 12.9375V5.0625C2.25 4.74413 2.49413 4.5 2.8125 4.5ZM3.97294 7.45312L2.8125 10.5469H3.51562L3.744 9.84375H5.0625L5.29087 10.5469H6.60938V8.22656L7.45312 10.5469H8.0685L8.92969 8.29688V10.5469H9.54506V7.45312H8.54269L7.76981 9.54506L6.99581 7.45312H5.90625V10.3888L4.81613 7.45312H3.97294ZM10.3888 7.45312V10.5469H12.8672L13.6406 9.54506L14.4141 10.5469H15.1875L14.0271 9L15.1875 7.45312H14.3438L13.5703 8.38462L12.9375 7.45312H10.3888ZM4.35938 8.0685L4.74637 9.15806H3.97237L4.35938 8.0685ZM11.0042 8.15625H12.5511L13.1839 9L12.4808 9.9315H11.0042V9.31669H12.4104V8.68388H11.0042V8.15625Z" fill="#4E525F"/>
</svg>
