<svg width="15" height="20" viewBox="0 0 15 20" fill="none" xmlns="http://www.w3.org/2000/svg">
    <path d="M8.75 0V5C8.75 5.69141 9.30859 6.25 10 6.25H15V17.5C15 18.8789 13.8789 20 12.5 20H2.5C1.11914 20 0 18.8789 0 17.5V2.5C0 1.11914 1.11914 0 2.5 0H8.75ZM3.125 8.75C2.26211 8.75 1.5625 9.44922 1.5625 10.3125V13.4375C1.5625 14.3008 2.26211 15 3.125 15H3.75C4.61328 15 5.3125 14.3008 5.3125 13.4375V13.125C5.3125 12.7812 5.03125 12.5 4.6875 12.5C4.34375 12.5 4.0625 12.7812 4.0625 13.125V13.4375C4.0625 13.6094 3.92188 13.75 3.75 13.75H3.125C2.95234 13.75 2.8125 13.6094 2.8125 13.4375V10.3125C2.8125 10.1406 2.95234 10 3.125 10H3.75C3.92188 10 4.0625 10.1406 4.0625 10.3125V10.625C4.0625 10.9688 4.34375 11.25 4.6875 11.25C5.03125 11.25 5.3125 10.9688 5.3125 10.625V10.3125C5.3125 9.44922 4.61328 8.75 3.75 8.75H3.125ZM6.85156 12.1328L7.84375 12.6992C8.01562 12.8008 8.125 12.9883 8.125 13.1875C8.125 13.5 7.875 13.75 7.5625 13.75H6.5625C6.21875 13.75 5.9375 14.0312 5.9375 14.375C5.9375 14.7188 6.21875 15 6.5625 15H7.5625C8.5625 15 9.375 14.1875 9.375 13.1875C9.375 12.5039 9.02734 11.9375 8.46094 11.6172L7.46875 11.0508C7.29688 10.9492 7.1875 10.7617 7.1875 10.5625C7.1875 10.25 7.4375 10 7.75 10H8.4375C8.78125 10 9.0625 9.71875 9.0625 9.375C9.0625 9.03125 8.78125 8.75 8.4375 8.75H7.75C6.75 8.75 5.9375 9.5625 5.9375 10.5625C5.9375 11.2109 6.28516 11.8125 6.85156 12.1328ZM10.9375 9.375C10.9375 9.03125 10.6562 8.75 10.3125 8.75C9.96875 8.75 9.6875 9.03125 9.6875 9.375V10.6094C9.6875 11.9648 10.0898 13.293 10.8438 14.4219L11.043 14.7227C11.1602 14.8945 11.3516 15 11.5625 15C11.7734 15 11.9648 14.8945 12.082 14.7227L12.2812 14.4219C13.0352 13.293 13.4375 11.9648 13.4375 10.6094V9.375C13.4375 9.03125 13.1562 8.75 12.8125 8.75C12.4688 8.75 12.1875 9.03125 12.1875 9.375V10.6094C12.1875 11.5078 11.9727 12.3906 11.5625 13.1836C11.1523 12.3906 10.9375 11.5078 10.9375 10.6094V9.375ZM10 0L15 5H10V0Z" fill="#ADDF45"/>
</svg>
