<svg width="20" height="20" viewBox="0 0 20 20" fill="none" xmlns="http://www.w3.org/2000/svg">
<path fill-rule="evenodd" clip-rule="evenodd" d="M10 0C15.5228 0 20 4.47719 20 10C20 15.5229 15.5228 20 10 20C4.47719 20 0 15.5229 0 10C0 4.47719 4.47719 0 10 0Z" fill="#4E525F"/>
<path fill-rule="evenodd" clip-rule="evenodd" d="M7.03305 9.28061L3.96571 10.6025C3.96102 10.5496 3.95836 10.4961 3.95836 10.442C3.95836 9.4717 4.74485 8.68521 5.71508 8.68521C6.24008 8.68521 6.71117 8.91561 7.03305 9.28061ZM5.71508 7.37139C7.1625 7.37139 8.37578 8.37295 8.70023 9.72076L7.46273 10.2619L7.46242 10.2593L6.19625 10.8155L3.15899 12.1437C2.82267 11.64 2.6436 11.0477 2.64453 10.442C2.64453 8.74615 4.01922 7.37139 5.71508 7.37139ZM7.8607 12.6386C6.76133 13.682 5.3068 13.7844 4.02883 13.0086L4.75094 11.9107C5.47813 12.3454 6.20875 12.2749 6.94266 11.6987L7.8607 12.6385V12.6386ZM9.11101 11.8784L9.1032 6.07178H10.2034V11.7217C10.2034 11.7758 10.2101 11.8236 10.2812 11.8512L11.2382 12.2234L10.807 13.3445L9.68594 12.8702C9.26086 12.6903 9.11172 12.4297 9.11094 11.8784H9.11101Z" fill="#222429"/>
<path fill-rule="evenodd" clip-rule="evenodd" d="M13.2529 11.7807C12.8405 11.46 12.575 10.9596 12.575 10.3968C12.575 9.89649 12.785 9.44547 13.1213 9.12617L12.4108 7.97461C11.6965 8.54047 11.2378 9.41485 11.2378 10.3968C11.2378 11.4553 11.7703 12.3891 12.5818 12.9459L13.2529 11.7807Z" fill="#222429"/>
<path fill-rule="evenodd" clip-rule="evenodd" d="M13.7349 8.74785C13.9252 8.67946 14.1258 8.64457 14.3279 8.64473C15.0781 8.64473 15.718 9.11653 15.9679 9.77942L17.3295 9.66567C17.0008 8.31254 15.7821 7.30762 14.3279 7.30762C13.9298 7.30735 13.5354 7.38429 13.1665 7.53418L13.7349 8.74785Z" fill="#222429"/>
<path fill-rule="evenodd" clip-rule="evenodd" d="M16.0779 10.4814C16.0335 11.4099 15.2669 12.149 14.3276 12.149C14.1803 12.149 14.0374 12.1305 13.9008 12.0964L13.3667 13.333C13.6769 13.4345 14.0012 13.4862 14.3276 13.4861C15.9913 13.4861 17.3472 12.1709 17.4139 10.5236L16.0779 10.4814Z" fill="#222429"/>
</svg>
