<svg width="20" height="20" viewBox="0 0 20 20" fill="none" xmlns="http://www.w3.org/2000/svg">
<path d="M5.49043 5.66406H3.41758C2.50172 5.70738 1.75305 6.07625 1.53688 6.83695C1.42418 7.23371 1.36215 7.66937 1.27398 8.08066C0.825937 10.1718 0.428594 12.3205 0 14.3698H16.1375C17.3851 14.3698 18.2417 14.1062 18.4732 13.1161C18.5807 12.6561 18.6838 12.135 18.7866 11.6297C19.1877 9.6593 19.5892 7.68898 20 5.66406H5.49043Z" fill="#4E525F"/>
<path d="M13.8163 10.8653C13.5925 11.0844 12.9642 11.1466 13.0285 10.6229C13.0819 10.1879 13.5555 10.0955 14.0688 10.1583C14.0306 10.3962 13.9869 10.6983 13.8163 10.8653V10.8653ZM13.1093 9.16851C13.088 9.28851 13.0551 9.3971 13.0285 9.51187C13.2848 9.44765 14.0828 9.25065 14.1597 9.59269C14.1853 9.70636 14.1412 9.82706 14.1092 9.91589C13.3876 9.84753 12.7994 9.96745 12.6447 10.4815C12.5411 10.8258 12.6563 11.1646 12.8771 11.2592C13.3021 11.4412 13.8191 11.2326 13.9981 10.9461C13.9795 11.0453 13.9619 11.1455 13.9678 11.2693H14.3415C14.3455 10.9114 14.3975 10.6217 14.4526 10.2997C14.4995 10.0255 14.5878 9.75394 14.5737 9.5119C14.5417 8.95761 13.6233 9.15366 13.1093 9.16855V9.16851ZM16.8563 11.0369C16.5639 11.0432 16.4186 10.8623 16.4119 10.5623C16.4003 10.0369 16.6307 9.45315 17.0987 9.40081C17.3166 9.37644 17.4743 9.4271 17.634 9.48163C17.4874 10.0718 17.5403 11.0223 16.8563 11.0369ZM17.8258 8.25956C17.7887 8.58589 17.7389 8.89976 17.6744 9.19878C16.6091 8.86163 15.9558 9.64538 15.9675 10.6128C15.9698 10.7999 16.002 10.9854 16.119 11.1177C16.3207 11.3458 16.8981 11.4004 17.1896 11.2087C17.2461 11.1716 17.3037 11.1041 17.3412 11.0572C17.3692 11.0219 17.4138 10.9296 17.4219 10.9561C17.4066 11.0587 17.3837 11.1536 17.3815 11.2693H17.7754C17.8513 10.1803 18.086 9.25022 18.2602 8.25952H17.8259L17.8258 8.25956ZM6.70615 10.8754C6.47377 11.1215 5.90256 11.1177 5.85779 10.7037C5.83826 10.5235 5.90541 10.3346 5.93857 10.1482C5.97217 9.95952 5.99631 9.77851 6.02943 9.61288C6.2583 9.33343 6.9308 9.29972 6.99904 9.7644C7.05826 10.1678 6.89857 10.6716 6.70615 10.8754ZM7.04955 9.16851C6.68197 9.03046 6.23396 9.19526 6.03979 9.35206C6.04045 9.35894 6.03518 9.35987 6.02943 9.36042C6.03275 9.35761 6.03635 9.35483 6.03979 9.35206C6.03976 9.35148 6.03968 9.35091 6.03955 9.35034C6.04283 9.28288 6.06658 9.23593 6.06986 9.16851H5.69619C5.54045 10.2046 5.3558 11.2116 5.16088 12.2085H5.59518C5.65803 11.8202 5.69955 11.4107 5.78709 11.0471C5.88627 11.4295 6.53385 11.3564 6.80713 11.2087C7.371 10.9038 7.80592 9.45265 7.04955 9.16851ZM9.10986 9.89569H8.08982C8.12209 9.6612 8.33307 9.40343 8.66549 9.39073C8.97834 9.37874 9.20232 9.50558 9.10986 9.89569ZM8.6958 9.12812C8.38197 9.15229 8.11674 9.24257 7.92822 9.4412C7.69697 9.68479 7.50975 10.2233 7.56459 10.7138C7.64287 11.4135 8.51404 11.3884 9.21088 11.2187C9.22272 11.096 9.25244 10.991 9.27147 10.8754C8.9844 10.9828 8.48604 11.1327 8.1908 10.9461C7.96791 10.8051 7.96658 10.4482 8.03932 10.1381C8.50764 10.1232 8.9944 10.126 9.46334 10.1381C9.49311 9.91823 9.57826 9.67854 9.50373 9.46144C9.40549 9.17476 9.05373 9.10058 8.6958 9.12812ZM4.87811 9.16851C4.86635 9.17022 4.86713 9.18452 4.86795 9.19878C4.77229 9.91444 4.64279 10.5963 4.50439 11.2693H4.93869C5.04303 10.5488 5.16256 9.84355 5.31236 9.16851H4.87811ZM16.21 9.17858C15.8262 8.98671 15.5066 9.3087 15.3819 9.50179C15.4174 9.40272 15.4194 9.27011 15.4525 9.16851H15.0687C14.9653 9.88987 14.8405 10.5899 14.695 11.2693H15.1394C15.1422 10.9908 15.1969 10.7849 15.2404 10.5118C15.3333 9.92874 15.4696 9.28937 16.1494 9.48163C16.1719 9.383 16.1813 9.27116 16.21 9.17858ZM11.3318 10.7744C11.2918 10.671 11.2814 10.5001 11.2914 10.3704C11.3138 10.0785 11.4202 9.72323 11.5843 9.56241C11.8108 9.34042 12.2579 9.37714 12.6144 9.50179C12.6255 9.38159 12.6497 9.2744 12.665 9.15843C12.0801 9.06292 11.5251 9.12233 11.2308 9.43108C10.9428 9.73339 10.7539 10.4281 10.8874 10.8653C11.0437 11.3768 11.7442 11.4046 12.3115 11.2087C12.3366 11.1058 12.3499 10.9912 12.3721 10.8855C12.0621 11.0465 11.4696 11.1302 11.3318 10.7744ZM11.0894 9.16851C10.7043 9.013 10.4016 9.27581 10.2613 9.52202C10.2931 9.41249 10.3062 9.28421 10.3319 9.16851H9.94814C9.85432 9.89616 9.71604 10.5793 9.58455 11.2693H10.0189C10.0797 10.8597 10.106 10.3076 10.241 9.91589C10.349 9.60284 10.6314 9.33612 11.0389 9.48163C11.0446 9.36612 11.0777 9.27796 11.0894 9.16851ZM4.09029 8.32015C4.02826 8.72269 3.95838 9.11741 3.8883 9.5119C3.43838 9.51663 2.979 9.53413 2.54506 9.50175C2.62701 9.11585 2.6858 8.70667 2.76721 8.32011H2.28244C2.10889 9.30476 1.95107 10.305 1.75732 11.2693H2.25217C2.32982 10.7746 2.4024 10.2749 2.50463 9.80487C2.92662 9.79444 3.43236 9.77636 3.83783 9.81495C3.75424 10.3037 3.65318 10.7749 3.57525 11.2693H4.07014C4.22912 10.2702 4.3967 9.27968 4.59533 8.32019H4.09033L4.09029 8.32015ZM5.32244 8.76452C5.40904 8.70491 5.52053 8.43323 5.39314 8.32015C5.35279 8.28433 5.28529 8.27394 5.19119 8.28987C5.10381 8.3046 5.05357 8.33425 5.01947 8.38073C4.96455 8.45546 4.91428 8.68081 4.99924 8.76452C5.08197 8.84604 5.26736 8.80241 5.32244 8.76452Z" fill="#222429"/>
</svg>
