<svg width="20" height="20" viewBox="0 0 20 20" fill="none" xmlns="http://www.w3.org/2000/svg">
<path d="M9.5448 14.1842C9.5848 14.2184 9.62814 14.2526 9.67064 14.2859C8.82597 14.8466 7.83446 15.1452 6.82064 15.1442C6.14486 15.1448 5.47561 15.0121 4.85115 14.7538C4.22669 14.4955 3.65927 14.1166 3.18135 13.6389C2.70343 13.1611 2.32438 12.5938 2.06587 11.9694C1.80737 11.3451 1.67448 10.6759 1.67481 10.0001C1.67472 9.06935 1.92706 8.15602 2.40497 7.35735C2.88287 6.55868 3.56844 5.90459 4.38867 5.46471C5.2089 5.02484 6.13307 4.81567 7.06277 4.85946C7.99247 4.90326 8.89289 5.19838 9.66814 5.71341C9.62647 5.74925 9.5848 5.78175 9.55314 5.81841C8.95245 6.33709 8.4705 6.97904 8.14005 7.70061C7.80961 8.42218 7.63843 9.20645 7.63814 10.0001C7.63814 11.6042 8.3323 13.1292 9.5448 14.1842ZM13.179 4.85508C12.166 4.85311 11.1753 5.15184 10.3323 5.71341C10.3731 5.74925 10.4148 5.78175 10.4465 5.81841C11.6648 6.87091 12.3623 8.39675 12.3623 10.0001C12.3623 11.6034 11.6665 13.1276 10.4556 14.1842C10.4148 14.2184 10.3715 14.2526 10.3298 14.2859C11.1738 14.8468 12.1648 15.1455 13.1781 15.1442C13.8592 15.153 14.5353 15.0264 15.1671 14.7718C15.7989 14.5172 16.3738 14.1396 16.8586 13.6611C17.3433 13.1826 17.7282 12.6125 17.9909 11.9841C18.2537 11.3556 18.389 10.6812 18.389 10.0001C18.3891 9.31893 18.2539 8.64453 17.9913 8.01603C17.7286 7.38754 17.3438 6.81744 16.8592 6.33882C16.3745 5.8602 15.7996 5.48259 15.1679 5.22789C14.5361 4.97319 13.8601 4.84647 13.179 4.85508ZM9.9998 5.95841C9.38714 6.4388 8.89194 7.05241 8.55176 7.75269C8.21158 8.45298 8.03536 9.22154 8.03647 10.0001C8.03486 10.7791 8.21084 11.5482 8.55104 12.2489C8.89125 12.9497 9.38672 13.5637 9.9998 14.0443C10.6127 13.5635 11.1081 12.9495 11.4484 12.2488C11.7887 11.5481 11.9651 10.7791 11.964 10.0001C11.9651 9.22145 11.7888 8.4528 11.4485 7.7525C11.1081 7.05219 10.6127 6.43863 9.9998 5.95841Z" fill="#4E525F"/>
</svg>
