<svg width="22" height="22" viewBox="0 0 22 22" fill="none" xmlns="http://www.w3.org/2000/svg">
<path d="M14.1623 15.1433L11.4032 12.3841C11.3023 12.2833 11.1832 12.2649 11.119 12.2649C11.0548 12.2649 10.9357 12.2833 10.8348 12.3841L8.06648 15.1524C7.75482 15.4641 7.26898 15.9683 5.64648 15.9683L9.04732 19.3599C9.56294 19.8749 10.2619 20.1642 10.9907 20.1642C11.7194 20.1642 12.4184 19.8749 12.934 19.3599L16.344 15.9591C15.5098 15.9591 14.8132 15.7941 14.1623 15.1433ZM8.06648 6.84744L10.8348 9.61577C10.9082 9.68911 11.0182 9.73494 11.119 9.73494C11.2198 9.73494 11.3298 9.68911 11.4032 9.61577L14.144 6.87494C14.7948 6.19661 15.5373 6.04077 16.3715 6.04077L12.9615 2.63994C12.4459 2.12496 11.7469 1.83569 11.0182 1.83569C10.2894 1.83569 9.59044 2.12496 9.07482 2.63994L5.67398 6.03161C7.28732 6.03161 7.78232 6.56327 8.06648 6.84744Z" fill="#4E525F"/>
<path d="M19.351 9.02921L17.2885 6.95754H16.1335C15.6385 6.95754 15.1435 7.15921 14.8043 7.51671L12.0543 10.2667C11.7977 10.5234 11.4585 10.6517 11.1194 10.6517C10.7701 10.6468 10.4358 10.5091 10.1844 10.2667L7.41602 7.48921C7.06768 7.14088 6.59102 6.93921 6.08685 6.93921H4.73935L2.64018 9.04754C2.1252 9.56317 1.83594 10.2621 1.83594 10.9909C1.83594 11.7196 2.1252 12.4186 2.64018 12.9342L4.73935 15.0425H6.09602C6.59102 15.0425 7.06768 14.8409 7.42518 14.4925L10.1935 11.7242C10.4502 11.4675 10.7894 11.3392 11.1285 11.3392C11.4677 11.3392 11.8069 11.4675 12.0635 11.7242L14.8227 14.4834C15.171 14.8317 15.6477 15.0334 16.1519 15.0334H17.3068L19.3694 12.9617C19.8865 12.4368 20.1749 11.7285 20.1714 10.9917C20.168 10.2548 19.873 9.54927 19.351 9.02921Z" fill="#4E525F"/>
</svg>
