<svg width="24" height="24" viewBox="0 0 24 24" fill="none" xmlns="http://www.w3.org/2000/svg">
    <path
        d="M15.3085 2H7.27568C6.10216 2 5.147 2.95512 5.147 4.12864V19.8714C5.147 21.0448 6.10216 22 7.27568 22H18.2361C19.4089 22 20.3642 21.0448 20.3642 19.8714V7.03792L15.3085 2ZM18.2361 20.6958H7.27568C6.82129 20.6958 6.45127 20.3264 6.45127 19.8714V4.12864C6.45127 3.67429 6.82129 3.30489 7.27568 3.30489L14.8208 3.29705V6.08538C14.8208 6.90062 15.4817 7.56225 16.297 7.56225L19.0291 7.55441L19.0598 19.8714C19.0598 20.3264 18.6904 20.6958 18.2361 20.6958Z"
        fill="#ADDF45" />
    <path fill-rule="evenodd" clip-rule="evenodd"
        d="M4.82964 11.624C4.37144 11.624 4 11.9955 4 12.4537V17.8048C4 18.263 4.37144 18.6345 4.82964 18.6345H16.6105C17.0687 18.6345 17.4401 18.263 17.4401 17.8048V12.4537C17.4401 11.9955 17.0687 11.624 16.6105 11.624H4.82964ZM7.87098 17.0166H7.08309V13.942H6.0741V13.2832H8.87997V13.942H7.87098V17.0166ZM12.4559 17.0166H11.5562L10.6921 15.6044L9.82797 17.0166H8.98418L10.2168 15.0912L9.06297 13.2832H9.93218L10.7328 14.6264L11.5181 13.2832H12.367L11.2004 15.1346L12.4559 17.0166ZM13.5691 17.0166H14.357V13.942H15.366V13.2832H12.5601V13.942H13.5691V17.0166Z"
        fill="#ADDF45" />
</svg>
