<svg width="20" height="20" viewBox="0 0 20 20" fill="none" xmlns="http://www.w3.org/2000/svg">
<g clip-path="url(#clip0_11_435)">
<path d="M16.3233 9.14255C16.3233 9.14255 16.587 10.4344 16.6464 10.705H15.487L16.0426 9.19442C16.0358 9.20505 16.157 8.87817 16.2264 8.67692L16.3233 9.14255ZM20.0001 3.8888V16.1113C20 16.5533 19.8243 16.9772 19.5117 17.2898C19.1992 17.6023 18.7753 17.778 18.3333 17.7782H1.66639C1.22435 17.778 0.800475 17.6023 0.487911 17.2898C0.175347 16.9772 -0.000322633 16.5533 -0.000488281 16.1113V3.8888C-0.000322633 3.44677 0.175347 3.02289 0.487911 2.71032C0.800475 2.39776 1.22435 2.22209 1.66639 2.22192H18.3333C18.7753 2.22209 19.1992 2.39776 19.5117 2.71032C19.8243 3.02289 20 3.44677 20.0001 3.8888ZM5.29514 12.6113L7.48951 7.22255H6.01389L4.64951 10.9032L4.50014 10.1569L4.01389 7.67755C3.93389 7.3338 3.68764 7.2363 3.38201 7.22255H1.13576L1.11139 7.33005C1.62581 7.45625 2.11926 7.65624 2.57639 7.9238L3.81951 12.6113H5.29514ZM8.57326 12.6182L9.44826 7.22255H8.05264L7.18139 12.6182H8.57326ZM13.4308 10.8544C13.4376 10.24 13.0626 9.7713 12.2608 9.38567C11.7714 9.1388 11.4726 8.97255 11.4726 8.7188C11.4795 8.48942 11.7264 8.25317 12.2745 8.25317C12.6315 8.2431 12.9863 8.31315 13.3126 8.45817L13.4376 8.51692L13.6289 7.35005C13.2299 7.19731 12.8061 7.11954 12.3789 7.12067C11.0001 7.12067 10.0314 7.85692 10.0245 8.90505C10.0139 9.67942 10.7189 10.11 11.247 10.37C11.7851 10.6338 11.9695 10.8075 11.9695 11.04C11.9626 11.4013 11.532 11.5675 11.1326 11.5675C10.577 11.5675 10.2783 11.4807 9.82326 11.2794L9.63951 11.1925L9.44514 12.4044C9.77139 12.5538 10.3758 12.6857 11.0008 12.6925C12.4658 12.6957 13.4208 11.97 13.4314 10.8525L13.4308 10.8544ZM18.3333 12.6182L17.2083 7.22255H16.1283C15.7951 7.22255 15.5414 7.32005 15.3989 7.67067L13.3258 12.6188H14.7908C14.7908 12.6188 15.0301 11.9519 15.0826 11.81H16.8745C16.9164 12.0013 17.0414 12.6188 17.0414 12.6188L18.3333 12.6182Z" fill="#4E525F"/>
</g>
<defs>
<clipPath id="clip0_11_435">
<rect width="20" height="20" fill="white"/>
</clipPath>
</defs>
</svg>
