<svg width="15" height="20" viewBox="0 0 15 20" fill="none" xmlns="http://www.w3.org/2000/svg">
    <path d="M8.75 5V0H1.875C0.839453 0 0 0.839453 0 1.875V18.125C0 19.1602 0.839453 20 1.875 20H13.125C14.1605 20 15 19.1605 15 18.125V6.25H10.0352C9.30859 6.25 8.75 5.69141 8.75 5ZM10.6289 10.3281L8.75 13.4375L10.6637 16.5473C10.9219 16.9648 10.6211 17.5 10.1328 17.5H9.10039C8.99363 17.5 8.88865 17.4726 8.79546 17.4205C8.70226 17.3684 8.62395 17.2934 8.56797 17.2025L7.5 15.4688L6.4332 17.2023C6.32031 17.3867 6.11719 17.5 5.90234 17.5H4.86719C4.37812 17.5 4.07852 16.9637 4.33477 16.5473L6.25 13.4375L4.33594 10.3281C4.07812 9.91016 4.37891 9.375 4.86719 9.375H5.89961C6.11668 9.375 6.31797 9.48762 6.43203 9.67238L7.5 11.4062L8.5668 9.67227C8.67969 9.48828 8.88281 9.375 9.09766 9.375H10.1301C10.6211 9.375 10.9219 9.91016 10.6289 10.3281ZM10 0V5H15L10 0Z" fill="#ADDF45"/>
</svg>
