<svg width="126" height="54" xmlns="http://www.w3.org/2000/svg">
  <path d="M52.633 53.982L0 54v-.125c0-.068.084-.513.187-.988.102-.475.262-1.23.354-1.679a892.728 892.728 0 01.722-3.48l.362-1.757c.094-.465.253-1.227.351-1.693a444.798 444.798 0 00.736-3.543c.092-.449.238-1.14.324-1.537.087-.397.197-.933.245-1.191.048-.26.205-1.021.347-1.694.143-.672.3-1.434.35-1.693.05-.259.208-1.02.352-1.693.143-.673.3-1.435.35-1.694.05-.258.208-1.02.352-1.693.145-.673.301-1.42.347-1.662.046-.242.173-.862.281-1.38.108-.517.313-1.49.456-2.163.142-.673.385-1.844.54-2.603a1092.924 1092.924 0 01.699-3.387l.349-1.662a976.809 976.809 0 00.737-3.543c.093-.449.25-1.197.35-1.662.1-.466.271-1.284.382-1.819.11-.535.294-1.353.41-1.819.115-.465.278-1.03.362-1.254.084-.224.316-.71.516-1.08l.362-.672.33-.426c.182-.233.505-.603.72-.82.214-.218.576-.546.803-.729.228-.182.558-.43.733-.548.175-.118.52-.326.764-.461.246-.136.59-.313.765-.394.175-.081.533-.23.796-.33S16.498.86 16.85.755c.35-.105 1.008-.263 1.461-.35.454-.09 1.17-.207 1.593-.263l.768-.102L73.335.02 126 0v.125c0 .068-.084.513-.188.988-.103.475-.276 1.287-.383 1.804-.108.518-.265 1.265-.35 1.662l-.354 1.693-.38 1.82a487.36 487.36 0 00-.35 1.693c-.096.465-.255 1.227-.354 1.693-.099.465-.252 1.2-.34 1.63l-.356 1.725c-.107.518-.28 1.336-.382 1.819-.104.483-.261 1.23-.35 1.662l-.356 1.725c-.107.517-.278 1.335-.382 1.818-.103.483-.257 1.217-.341 1.63a1767.662 1767.662 0 01-.712 3.45l-.342 1.63-.387 1.85c-.111.536-.27 1.298-.354 1.694a798.81 798.81 0 00-.346 1.662c-.107.518-.277 1.336-.379 1.819-.1.483-.26 1.245-.352 1.693a1309.856 1309.856 0 01-.738 3.544l-.346 1.662-.351 1.693c-.107.517-.28 1.333-.386 1.812l-.192.871-.228.603c-.126.331-.315.772-.42.979a10.3 10.3 0 01-.962 1.493c-.11.135-.442.485-.738.777l-.537.53-.517.362c-.284.2-.59.402-.68.45-.09.048-.433.22-.762.383-.329.162-.793.368-1.032.458-.239.09-.712.243-1.05.34-.34.098-.704.194-.809.213-.105.02-.47.094-.81.166-.342.07-1.03.177-1.53.235l-.909.107-52.632.019zM33.907 40.578h1.37l.038-.1a.996.996 0 00.039-.284c0-.103.045-.474.1-.826.055-.352.185-1.162.288-1.8l.343-2.133c.086-.534.19-1.219.232-1.52.042-.303.094-.55.114-.55.02 0 .11.134.197.297l.16.296.352.35.353.35.435.172.435.172.518.066.518.066.657-.04.658-.04.712-.181.712-.181.382-.172c.21-.095.583-.3.828-.458l.446-.286.416-.409c.229-.225.551-.586.717-.802.165-.216.3-.408.3-.427 0-.02.082-.153.181-.298.1-.144.303-.544.452-.889.15-.345.382-.966.518-1.38l.247-.752.128-.652c.07-.359.16-.951.2-1.317l.073-.665-.042-.565-.042-.564-.133-.565-.133-.564-.215-.423-.215-.422-.416-.434-.415-.434-.492-.25-.492-.25-.541-.128-.542-.128-.541-.039-.542-.039-.603.068-.603.069-.492.123-.493.124-.427.195a7.81 7.81 0 00-.76.405 3.84 3.84 0 00-.42.294 1.99 1.99 0 01-.255.193l-.167.108.117-.55a9.23 9.23 0 00.12-.63l.002-.079h-2.336l-.204 1.27a409.542 409.542 0 01-.746 4.469 1320.1 1320.1 0 01-.35 2.038c-.105.604-.277 1.563-.383 2.133a3783.494 3783.494 0 01-1.088 5.8 238.08 238.08 0 01-.38 1.945 61.512 61.512 0 01-.225 1.082l-.035.14h1.37zm5.896-7.251l-.532.031-.347-.06-.348-.06-.353-.16-.353-.158-.247-.232-.246-.232-.143-.313a4.379 4.379 0 01-.223-.651l-.081-.338.032-.54.033-.541.164-.847c.09-.465.252-1.34.36-1.944.108-.603.271-1.488.363-1.965l.167-.868.365-.3c.2-.164.519-.385.707-.49l.342-.19.445-.136.446-.136.574-.033.573-.034.467.098.467.098.33.15.329.15.276.273.276.273.15.29c.081.159.196.47.255.692l.107.403-.033 1.192-.033 1.192-.163.704c-.09.387-.262.98-.38 1.317l-.218.613-.266.496a8.695 8.695 0 01-.5.819c-.13.178-.336.408-.459.512-.122.103-.328.265-.456.36l-.234.171-.54.181-.54.181-.533.032zm13.228 1.724l.7.008.701-.063a35.435 35.435 0 001.402-.16 24.196 24.196 0 001.48-.266l.778-.169.039-.282c.021-.156.108-.619.194-1.029l.156-.746-.035-.033-.034-.034-.238.113c-.131.062-.539.21-.906.33l-.669.217-.701.134-.701.133-1.115.003-1.115.002-.382-.12a6.04 6.04 0 01-.687-.27l-.305-.148-.252-.224-.251-.223-.197-.338-.196-.338-.123-.424-.123-.423v-.785l-.002-.784.11-.7.109-.699.958-.044.959-.044 3.543.022 3.544.023.107-.447c.059-.246.149-.754.2-1.129l.093-.682.002-.574.002-.573-.101-.429-.101-.428-.167-.284a3.95 3.95 0 00-.36-.502 2.824 2.824 0 00-.42-.377 6.227 6.227 0 00-.545-.325l-.319-.167-.556-.132-.557-.132-.685-.064-.686-.065-.637.041-.637.04-.765.145-.764.145-.478.188a8.915 8.915 0 00-.892.42 6.261 6.261 0 00-.7.459 9.59 9.59 0 00-.607.543 5.688 5.688 0 00-.578.691c-.142.207-.36.574-.485.816-.124.241-.286.58-.36.752-.073.173-.207.525-.297.784s-.23.753-.313 1.098c-.083.345-.197.912-.253 1.261l-.101.635v.933l.002.934.097.407c.053.224.155.563.226.753.071.19.203.472.292.627.09.155.282.405.426.555.145.15.406.379.581.507.175.128.487.309.693.401l.375.168.522.124c.287.069.72.15.963.18s.756.06 1.142.064zm1.2-8.835c-1.764 0-3.207-.012-3.207-.028 0-.015.076-.234.167-.486.092-.252.254-.627.36-.834l.191-.375.422-.413.42-.412.415-.195c.228-.108.529-.224.669-.26.14-.035.541-.082.892-.104l.637-.04.489.061.489.062.356.16.355.16.195.208c.107.114.235.281.284.372l.09.166.058.368.059.367-.068.612-.067.611h-3.206zm19.057 8.835l.701.008.796-.093c.438-.051 1.02-.136 1.295-.188.274-.052.719-.156.987-.231.269-.075.512-.156.54-.18.029-.024.105-.308.169-.632.064-.324.145-.758.18-.965.035-.207.053-.388.04-.401-.013-.014-.06.004-.104.039-.045.035-.358.164-.695.287l-.613.225-.874.166-.873.167-.743-.025-.743-.025-.421-.144-.422-.144-.326-.28-.326-.281-.216-.388-.217-.388-.103-.519-.103-.518.001-.673v-.673l.126-.815.125-.816.132-.439c.073-.241.156-.523.183-.627.028-.103.145-.4.26-.658.115-.259.32-.659.456-.889l.246-.418.303-.309.303-.309.32-.196.321-.196.412-.124c.227-.07.627-.158.89-.199l.477-.073.701.035.7.034.829.164.828.163.337.123c.185.068.345.124.355.124.01 0 .054-.233.098-.517.045-.285.124-.753.176-1.04.052-.288.082-.536.067-.551-.015-.015-.264-.054-.553-.087a44.267 44.267 0 00-1.745-.128l-1.22-.069-.86.065-.86.065-.636.132-.637.132-.41.161a5.99 5.99 0 00-1.24.677c-.098.069-.399.338-.667.598l-.488.473-.273.392c-.15.217-.408.667-.575 1.002l-.304.608-.232.658c-.128.363-.307.955-.397 1.317l-.165.659-.06.596-.059.596v.783l.001.784.06.456.06.457.191.469.191.469.22.339.22.34.351.339.35.34.371.192.371.193.487.133c.268.073.655.157.86.187.205.03.689.057 1.074.061zm10.478-.023l.86-.024.542-.137.541-.136.35-.163c.193-.09.509-.267.701-.394.193-.126.491-.367.663-.535.172-.168.427-.454.566-.636.14-.182.263-.322.273-.312.01.01-.022.3-.071.644a9.29 9.29 0 00-.092 1.018v.392h2.338l.035-.893.036-.894.167-1.16c.091-.638.24-1.584.329-2.101a263.423 263.423 0 01.699-3.857l.171-.91.006-.785.005-.786-.18-.363-.18-.363-.245-.231-.245-.231-.401-.2-.402-.2-.598-.132-.599-.131-.824-.062-.824-.062-1.062.065c-.584.036-1.406.106-1.826.156l-.764.092-.521.001-.521.002-.076.361c-.042.198-.158.67-.258 1.047-.1.378-.172.696-.16.707.01.011.29-.051.619-.138a21.56 21.56 0 011.554-.32l.955-.16.86-.034.86-.035.554.095.554.096.37.18.37.18.206.303.207.304-.002.479-.003.479-.11.525-.11.526-2.292.008-2.292.008-.75.203c-.413.111-.87.26-1.015.328-.146.07-.292.127-.324.127-.033 0-.278.134-.546.297l-.486.298-.383.377c-.211.207-.48.517-.599.69-.118.172-.31.532-.427.8l-.212.487-.097.548-.097.548v1.149l.093.478.093.479.172.312c.095.171.269.423.387.558l.214.247.381.228.381.228.436.121c.24.067.605.148.812.18l.375.058.86-.024zm.797-1.754l-.51.027-.337-.085a3.622 3.622 0 01-.626-.23l-.289-.147-.157-.184a2.931 2.931 0 01-.294-.442l-.137-.259-.026-.602-.027-.603.108-.366c.06-.201.199-.55.31-.776l.201-.41.386-.377.386-.378.41-.194.41-.194.51-.12.51-.119h3.185l.1.041.101.041-.084.492c-.047.271-.158.76-.248 1.088-.089.328-.247.81-.35 1.07a5.993 5.993 0 00-.188.514c0 .02-.105.21-.233.422l-.232.385-.382.372c-.21.205-.405.373-.434.373-.028 0-.157.07-.286.157l-.235.157-.516.16-.517.161-.51.026zm20.734 1.776l.605.008.574-.092c.315-.05.716-.131.892-.18.175-.049.49-.176.7-.282l.382-.192.33-.285.328-.285.346-.455c.19-.25.363-.497.384-.549l.037-.094-.033.314a10.31 10.31 0 01-.088.627c-.03.173-.075.504-.098.737l-.042.423h2.5V33.9l.19-1.6c.104-.88.26-2.05.344-2.602.084-.552.215-1.342.29-1.756.075-.414.207-1.162.295-1.662.087-.5.245-1.375.35-1.944a779.81 779.81 0 01.723-3.857c.09-.483.253-1.33.36-1.882.109-.552.266-1.328.351-1.725.085-.396.154-.742.154-.768v-.047H112.444l-.04.392c-.022.216-.127.928-.232 1.584-.105.655-.277 1.7-.382 2.32-.105.621-.205 1.223-.224 1.338l-.034.21-.108-.046a10.07 10.07 0 00-.712-.195l-.605-.15-.829-.063-.828-.063-.7.064-.701.064-.637.159-.637.158-.605.291-.605.29-.446.326-.446.325-.385.406a9.183 9.183 0 00-.68.822l-.295.415-.346.71c-.19.39-.423.906-.515 1.148-.093.241-.257.777-.364 1.19l-.195.75-.096.974-.096.974.072.784.072.784.085.282c.047.156.146.432.22.615l.135.332.245.327.245.327.28.226.28.226.382.186c.21.103.563.236.784.295.22.06.579.132.796.16.217.027.667.053 1 .057zm1.086-1.779l-.48.025-.325-.057a3.577 3.577 0 01-.635-.189l-.31-.13-.262-.211-.26-.211-.195-.366-.194-.366-.088-.407-.088-.408.007-.815.007-.816.103-.72.103-.722.16-.502c.087-.276.16-.536.16-.578 0-.043.087-.268.193-.502.105-.234.281-.594.39-.801.11-.207.316-.53.457-.717a6.11 6.11 0 01.559-.627c.166-.158.43-.365.587-.46l.285-.172.5-.171.502-.17 1.05-.001h1.052l.605.165c.333.09.686.196.785.234l.18.07-.035.171c-.02.095-.095.511-.168.925a228.345 228.345 0 01-.672 3.606 24.53 24.53 0 01-.292 1.317l-.218.797c-.05.179-.17.49-.267.69-.097.2-.265.49-.375.646-.11.155-.296.37-.413.477-.117.108-.37.3-.563.425l-.35.23-.507.158-.507.158-.48.025zm-93.751 1.474h1.547l.111-.674c.062-.37.18-1.083.266-1.583l.35-2.07c.108-.638.27-1.584.36-2.101.09-.517.232-1.32.317-1.784.085-.463.17-.858.19-.878l.035-.035h8.324l.046.046.046.045-.072.362c-.04.2-.157.814-.26 1.366-.105.552-.279 1.483-.389 2.07-.109.586-.267 1.418-.351 1.85a246.38 246.38 0 00-.378 2.007 32.984 32.984 0 00-.225 1.3l.001.08h3.108l.07-.393c.037-.215.098-.603.134-.862.037-.259.125-.809.196-1.223.071-.414.213-1.232.316-1.819.103-.586.274-1.588.382-2.226.107-.638.266-1.57.353-2.07.088-.5.243-1.347.346-1.881a495.211 495.211 0 00.735-3.92l.358-1.944a44.7 44.7 0 01.305-1.52l.107-.456H25.813l-.042.298c-.024.164-.1.623-.17 1.02-.069.396-.195 1.102-.28 1.567-.085.466-.24 1.355-.344 1.976-.105.62-.239 1.443-.297 1.826l-.106.698-2.31.046-2.31.046-1.935-.045a90.615 90.615 0 01-1.948-.056c-.007-.007.03-.25.08-.542.052-.292.15-.799.217-1.127.068-.327.196-.976.285-1.442.09-.466.19-1.044.224-1.286.034-.241.106-.643.16-.893.053-.25.154-.777.225-1.17.07-.395.146-.762.167-.816l.039-.1h-3.122l-.1.55c-.055.3-.128.731-.163.956-.035.224-.15.943-.258 1.599a1189.753 1189.753 0 00-.703 4.327 130.129 130.129 0 01-.735 4.108l-.35 1.819c-.11.569-.272 1.373-.358 1.787-.086.414-.182.894-.212 1.066-.03.173-.129.67-.219 1.106-.09.435-.164.837-.164.893v.102h1.548zm17.134 0h1.37l.039-.099c.02-.054.038-.198.038-.318s.087-.746.192-1.39a614.294 614.294 0 01.739-4.402c.086-.5.24-1.332.341-1.85.102-.517.257-1.321.346-1.787.09-.466.264-1.352.389-1.969.124-.617.242-1.147.261-1.177l.035-.055-1.386.017-1.386.017-.115.815c-.063.449-.202 1.338-.308 1.976-.106.638-.267 1.611-.357 2.163-.09.552-.247 1.441-.35 1.976l-.346 1.819a312.713 312.713 0 01-.672 3.386c-.068.328-.14.66-.162.737l-.038.141h1.37zm32.046 0h1.36l.04-.566c.023-.312.1-.94.172-1.396.072-.456.218-1.365.326-2.02a82.09 82.09 0 01.444-2.424c.137-.678.291-1.352.344-1.498.052-.145.095-.303.095-.35 0-.048.102-.305.227-.573.125-.267.358-.677.517-.91l.29-.424.39-.354.388-.354.48-.226.478-.225.733.004.733.004.36.106c.198.058.377.106.398.106.02 0 .038-.067.038-.149 0-.081.072-.494.16-.918.087-.423.158-.787.158-.81 0-.02-.207-.101-.461-.177a5.902 5.902 0 00-.78-.177l-.32-.039-.413.072c-.228.04-.567.128-.753.195-.186.067-.493.22-.683.34-.19.119-.484.351-.655.516-.17.165-.458.497-.638.739l-.42.564-.09.126.055-.251c.03-.138.115-.59.189-1.003.073-.414.148-.802.167-.863l.033-.11H62.745v.152c0 .083-.071.584-.16 1.113l-.32 1.965c-.09.552-.247 1.512-.351 2.133-.104.62-.262 1.51-.351 1.975l-.351 1.819a437.184 437.184 0 01-.67 3.347c-.05.237-.09.456-.09.486v.055h1.36zm32.285 0h1.39v-.838l.16-1.039c.089-.571.234-1.476.324-2.011.09-.535.201-1.212.248-1.505.047-.293.171-.928.276-1.411.105-.483.236-1.005.291-1.16.056-.156.101-.319.102-.362 0-.044.119-.326.263-.627l.263-.546.346-.453.346-.453.38-.28c.208-.155.543-.36.744-.456l.366-.174.796.005.797.006.313.099.313.099.053-.032.053-.032.003-.2c.001-.11.07-.52.151-.91l.15-.71-.168-.065a9.998 9.998 0 00-.486-.163l-.319-.1-.573.002-.573.002-.468.161-.467.162-.35.209-.351.208-.456.47-.457.47-.245.365c-.134.201-.253.356-.263.345-.01-.01.063-.429.162-.929.1-.5.183-.973.185-1.05l.002-.142h-2.357v.04c0 .022-.058.425-.13.894-.072.47-.216 1.376-.32 2.014-.105.638-.276 1.668-.381 2.29-.105.62-.263 1.51-.352 1.975a303.047 303.047 0 01-1.034 5.252l-.118.58h1.39zM32.46 19.441l.387.002.307-.103.308-.104.272-.271.272-.272.143-.362.144-.362.005-.533.005-.533-.128-.208-.127-.209-.222-.135-.222-.135h-.958l-.325.144-.326.143-.19.2-.189.2-.149.345-.148.345-.028.537-.028.537.138.267.138.267.267.12.267.119.387.001z" fill="#B3131B" fill-rule="nonzero"/>
</svg>
