<svg width="105" height="82" xmlns="http://www.w3.org/2000/svg">
  <g fill-rule="nonzero" fill="none">
    <path d="M102.918 80.857v.22h.198c.044 0 .081-.01.108-.027a.098.098 0 00.04-.084.094.094 0 00-.04-.081.186.186 0 00-.108-.028h-.198zm.2-.154c.102 0 .181.023.238.07a.238.238 0 01.083.193c0 .069-.021.125-.067.17a.32.32 0 01-.19.081l.263.31h-.204l-.244-.308h-.079v.309h-.17v-.825h.37zm-.052 1.11a.682.682 0 00.668-.694.715.715 0 00-.196-.49.65.65 0 00-.473-.2.677.677 0 00-.263.051.674.674 0 00-.358.369.685.685 0 00-.052.27c0 .096.016.186.052.27a.652.652 0 00.358.368c.081.037.17.056.264.056zm0-1.584a.87.87 0 01.81.544.871.871 0 01.069.346.871.871 0 01-.07.345.922.922 0 01-.186.282.944.944 0 01-.28.191.844.844 0 01-.343.07.856.856 0 01-.347-.07.903.903 0 01-.281-.19.922.922 0 01-.188-.283.871.871 0 01-.069-.345c0-.123.023-.238.07-.345a.874.874 0 01.468-.474.856.856 0 01.347-.07zm-81.102-3.178c0-1.572 1-2.865 2.637-2.865 1.563 0 2.619 1.237 2.619 2.865 0 1.629-1.056 2.865-2.619 2.865-1.636 0-2.637-1.292-2.637-2.865zm7.038 0v-4.474h-1.89v1.087c-.6-.806-1.51-1.312-2.746-1.312-2.438 0-4.349 1.967-4.349 4.7 0 2.734 1.911 4.699 4.349 4.699 1.236 0 2.146-.506 2.746-1.312v1.087h1.89V77.05zm63.872 0c0-1.572 1.002-2.865 2.638-2.865 1.565 0 2.619 1.237 2.619 2.865 0 1.629-1.054 2.865-2.62 2.865-1.635 0-2.637-1.292-2.637-2.865zm7.04 0v-8.067h-1.892v4.68c-.6-.806-1.509-1.312-2.745-1.312-2.438 0-4.349 1.967-4.349 4.7 0 2.734 1.911 4.699 4.349 4.699 1.236 0 2.146-.506 2.745-1.312v1.087h1.893V77.05zm-47.45-2.957c1.218 0 2 .787 2.2 2.171h-4.51c.201-1.292.963-2.17 2.31-2.17zm.037-1.742c-2.548 0-4.33 1.91-4.33 4.7 0 2.845 1.855 4.699 4.457 4.699 1.31 0 2.509-.337 3.564-1.254l-.926-1.442c-.729.598-1.657.936-2.53.936-1.217 0-2.327-.58-2.6-2.192h6.456a9.5 9.5 0 00.037-.748c-.019-2.79-1.692-4.699-4.128-4.699zm22.823 4.7c0-1.573 1.002-2.866 2.638-2.866 1.563 0 2.618 1.237 2.618 2.865 0 1.629-1.055 2.865-2.618 2.865-1.636 0-2.638-1.292-2.638-2.865zm7.038 0v-4.475h-1.89v1.087c-.601-.806-1.51-1.312-2.746-1.312-2.437 0-4.348 1.967-4.348 4.7 0 2.734 1.91 4.699 4.348 4.699 1.237 0 2.145-.506 2.746-1.312v1.087h1.89V77.05zm-17.712 0c0 2.714 1.836 4.699 4.638 4.699 1.309 0 2.181-.3 3.126-1.067l-.907-1.573c-.71.525-1.456.805-2.276.805-1.509-.019-2.618-1.142-2.618-2.865 0-1.722 1.11-2.845 2.618-2.865.82 0 1.566.281 2.276.806l.907-1.573c-.945-.767-1.817-1.067-3.126-1.067-2.802 0-4.638 1.984-4.638 4.7zm24.37-4.7c-1.091 0-1.801.525-2.293 1.312v-1.087h-1.873v8.949h1.892v-5.017c0-1.48.618-2.303 1.855-2.303.383 0 .783.055 1.182.225l.583-1.835c-.418-.169-.964-.244-1.347-.244zm-50.67.937c-.91-.618-2.163-.937-3.545-.937-2.202 0-3.62 1.087-3.62 2.865 0 1.46 1.056 2.36 3 2.64l.893.13c1.037.15 1.526.432 1.526.937 0 .692-.691 1.087-1.982 1.087-1.31 0-2.254-.431-2.891-.937l-.891 1.515c1.036.787 2.346 1.162 3.763 1.162 2.51 0 3.966-1.217 3.966-2.921 0-1.573-1.145-2.396-3.037-2.676l-.891-.133c-.818-.112-1.474-.279-1.474-.879 0-.656.618-1.048 1.655-1.048 1.11 0 2.184.431 2.71.767l.818-1.572zm24.389-.937c-1.091 0-1.8.525-2.29 1.312v-1.087h-1.874v8.949h1.89v-5.017c0-1.48.619-2.303 1.855-2.303.383 0 .783.055 1.183.225l.583-1.835c-.419-.169-.964-.244-1.347-.244zm-16.13.225h-3.092v-2.715h-1.911v2.715h-1.763v1.779h1.763v4.082c0 2.076.783 3.313 3.018 3.313.82 0 1.766-.262 2.365-.692l-.545-1.668c-.564.337-1.183.506-1.674.506-.945 0-1.253-.6-1.253-1.498v-4.043h3.091v-1.779zm-28.263 8.949v-5.617c0-2.115-1.31-3.538-3.42-3.557-1.11-.02-2.255.337-3.056 1.592-.6-.992-1.545-1.592-2.873-1.592-.928 0-1.836.28-2.546 1.329v-1.104H4.56v8.949h1.909v-4.961c0-1.554.837-2.379 2.13-2.379 1.255 0 1.89.843 1.89 2.36v4.98h1.91v-4.961c0-1.554.873-2.379 2.128-2.379 1.29 0 1.909.843 1.909 2.36v4.98h1.91z" fill="#231F20"/>
    <path d="M104 53v-1.22h-.318l-.368.838-.366-.838h-.32V53h.226v-.92l.344.794h.234l.344-.796V53H104zm-2.018 0v-1.012h.408v-.206h-1.04v.206h.408V53h.224z" fill="#F79410"/>
    <path fill="#FF5F00" d="M67 58H38V7h29z"/>
    <path d="M40.481 33c0-10.348 4.872-19.565 12.46-25.505A32.595 32.595 0 0032.78.56C14.764.559.16 15.083.16 33s14.604 32.441 32.62 32.441c7.61 0 14.611-2.593 20.16-6.936C45.352 52.565 40.48 43.348 40.48 33" fill="#EB001B"/>
    <path d="M105 33c0 17.917-14.624 32.441-32.664 32.441a32.679 32.679 0 01-20.19-6.936c7.6-5.94 12.479-15.157 12.479-25.505 0-10.348-4.88-19.565-12.479-25.505A32.679 32.679 0 0172.336.56C90.376.559 105 15.083 105 33" fill="#F79E1B"/>
  </g>
</svg>
