<svg width="159" height="51" xmlns="http://www.w3.org/2000/svg">
  <g fill-rule="nonzero" fill="none">
    <path fill="#00579F" d="M68.92 51H56l8.08-50H77zM115 2.102c-2.564-1-6.632-2.102-11.661-2.102-12.84 0-21.88 6.722-21.936 16.333-.106 7.091 6.473 11.03 11.395 13.394 5.03 2.416 6.74 3.993 6.74 6.146-.052 3.308-4.065 4.832-7.808 4.832-5.19 0-7.972-.786-12.199-2.626l-1.712-.789L76 48.373c3.05 1.364 8.667 2.574 14.5 2.627 13.642 0 22.523-6.618 22.628-16.86.052-5.62-3.422-9.927-10.913-13.445-4.547-2.26-7.332-3.782-7.332-6.094.053-2.1 2.355-4.253 7.488-4.253 4.227-.105 7.332.892 9.685 1.89l1.176.525L115 2.102zM132.834 33.287c1.056-2.872 5.118-13.99 5.118-13.99-.053.107 1.054-2.925 1.687-4.787l.896 4.309s2.427 11.968 2.954 14.468h-10.655zM148.658 1h-9.916c-3.058 0-5.381.904-6.7 4.149L113 51h13.451s2.215-6.171 2.69-7.5h16.46c.368 1.755 1.53 7.5 1.53 7.5H159L148.658 1zM45.206 1L32.431 35.131l-1.396-6.922C28.673 20.222 21.266 11.544 13 7.23L24.702 51h13.794L59 1H45.206z"/>
    <path d="M20.754 1H.21L0 2.003C16.026 6.125 26.64 16.06 31 28L26.534 5.175c-.735-3.172-2.995-4.07-5.78-4.175z" fill="#FAA61A"/>
  </g>
</svg>
