<svg width="39" height="39" viewBox="0 0 39 39" fill="none" xmlns="http://www.w3.org/2000/svg">
<path d="M27.625 34.125L30.55 37.05C31.3625 37.8625 32.5 37.2125 32.5 36.2375V29.25L37.05 23.725C37.2311 23.4836 37.3413 23.1965 37.3684 22.8959C37.3955 22.5954 37.3384 22.2932 37.2034 22.0233C37.0685 21.7534 36.861 21.5263 36.6043 21.3677C36.3476 21.209 36.0518 21.125 35.75 21.125H24.375C23.075 21.125 22.2625 22.75 23.075 23.725L27.625 29.25V34.125ZM24.375 32.5H3.25V27.625C3.25 23.2375 11.8625 21.125 16.25 21.125C17.225 21.125 18.3625 21.2875 19.6625 21.45C19.3375 22.425 19.5 23.5625 19.825 24.5375C18.6875 24.375 17.3875 24.2125 16.25 24.2125C11.375 24.2125 6.3375 26.65 6.3375 27.625V29.4125H23.5625L24.375 30.3875V32.5ZM16.25 19.5C19.825 19.5 22.75 16.575 22.75 13C22.75 9.425 19.825 6.5 16.25 6.5C12.675 6.5 9.75 9.425 9.75 13C9.75 16.575 12.675 19.5 16.25 19.5ZM16.25 9.75C18.0375 9.75 19.5 11.2125 19.5 13C19.5 14.7875 18.0375 16.25 16.25 16.25C14.4625 16.25 13 14.7875 13 13C13 11.2125 14.4625 9.75 16.25 9.75Z" fill="#93BC1E"/>
</svg>
