<svg width="39" height="39" viewBox="0 0 39 39" fill="none" xmlns="http://www.w3.org/2000/svg">
<path d="M16.25 21.125C15.6813 22.0838 15.21 23.14 14.9338 24.2613C10.5625 24.635 6.3375 26.6825 6.3375 27.625V29.4125H14.95C15.2263 30.5175 15.6813 31.5575 16.25 32.5H3.25V27.625C3.25 23.3025 11.9113 21.125 16.25 21.125ZM16.25 6.5C17.9739 6.5 19.6272 7.18482 20.8462 8.40381C22.0652 9.62279 22.75 11.2761 22.75 13C22.75 14.4788 22.2463 15.8438 21.4175 16.9488C20.02 17.4688 18.7688 18.2975 17.7288 19.3375L16.25 19.5C14.5261 19.5 12.8728 18.8152 11.6538 17.5962C10.4348 16.3772 9.75 14.7239 9.75 13C9.75 11.2761 10.4348 9.62279 11.6538 8.40381C12.8728 7.18482 14.5261 6.5 16.25 6.5ZM16.25 9.5875C15.3449 9.5875 14.477 9.94703 13.837 10.587C13.197 11.227 12.8375 12.0949 12.8375 13C12.8375 13.9051 13.197 14.773 13.837 15.413C14.477 16.053 15.3449 16.4125 16.25 16.4125C17.1551 16.4125 18.023 16.053 18.663 15.413C19.303 14.773 19.6625 13.9051 19.6625 13C19.6625 12.0949 19.303 11.227 18.663 10.587C18.023 9.94703 17.1551 9.5875 16.25 9.5875ZM25.1875 19.5C29.25 19.5 32.5 22.75 32.5 26.8125C32.5 28.2425 32.0938 29.5913 31.3788 30.7125L36.3838 35.75L34.125 38.0088L29.055 33.02C27.9338 33.7188 26.6013 34.125 25.1875 34.125C21.125 34.125 17.875 30.875 17.875 26.8125C17.875 22.75 21.125 19.5 25.1875 19.5ZM25.1875 22.75C24.1101 22.75 23.0767 23.178 22.3149 23.9399C21.553 24.7017 21.125 25.7351 21.125 26.8125C21.125 27.8899 21.553 28.9233 22.3149 29.6851C23.0767 30.447 24.1101 30.875 25.1875 30.875C26.2649 30.875 27.2983 30.447 28.0601 29.6851C28.822 28.9233 29.25 27.8899 29.25 26.8125C29.25 25.7351 28.822 24.7017 28.0601 23.9399C27.2983 23.178 26.2649 22.75 25.1875 22.75Z" fill="#D04646"/>
</svg>
