<svg width="39" height="39" viewBox="0 0 39 39" fill="none" xmlns="http://www.w3.org/2000/svg">
<path d="M16.25 6.5C14.5261 6.5 12.8728 7.18482 11.6538 8.40381C10.4348 9.62279 9.75 11.2761 9.75 13C9.75 14.7239 10.4348 16.3772 11.6538 17.5962C12.8728 18.8152 14.5261 19.5 16.25 19.5C17.9739 19.5 19.6272 18.8152 20.8462 17.5962C22.0652 16.3772 22.75 14.7239 22.75 13C22.75 11.2761 22.0652 9.62279 20.8462 8.40381C19.6272 7.18482 17.9739 6.5 16.25 6.5ZM16.25 9.75C17.112 9.75 17.9386 10.0924 18.5481 10.7019C19.1576 11.3114 19.5 12.138 19.5 13C19.5 13.862 19.1576 14.6886 18.5481 15.2981C17.9386 15.9076 17.112 16.25 16.25 16.25C15.388 16.25 14.5614 15.9076 13.9519 15.2981C13.3424 14.6886 13 13.862 13 13C13 12.138 13.3424 11.3114 13.9519 10.7019C14.5614 10.0924 15.388 9.75 16.25 9.75ZM16.25 21.125C11.9113 21.125 3.25 23.2862 3.25 27.625V32.5H18.6875C18.2785 31.5153 18.021 30.4743 17.9238 29.4125H6.3375V27.625C6.3375 26.585 11.4238 24.2125 16.25 24.2125C17.0625 24.2125 17.875 24.2937 18.6875 24.4237C19.1045 23.3976 19.6803 22.4435 20.3938 21.5962C18.8663 21.2875 17.4038 21.125 16.25 21.125ZM28.4375 21.125C24.375 21.125 21.125 24.375 21.125 28.4375C21.125 32.5 24.375 35.75 28.4375 35.75C32.5 35.75 35.75 32.5 35.75 28.4375C35.75 24.375 32.5 21.125 28.4375 21.125ZM28.4375 23.5625C31.135 23.5625 33.3125 25.74 33.3125 28.4375C33.3125 29.3475 33.0688 30.1925 32.63 30.875L26 24.245C26.6825 23.8062 27.5275 23.5625 28.4375 23.5625ZM24.245 26L30.875 32.63C30.1925 33.0687 29.3475 33.3125 28.4375 33.3125C25.74 33.3125 23.5625 31.135 23.5625 28.4375C23.5625 27.5275 23.8063 26.6825 24.245 26Z" fill="#DAB535"/>
</svg>
