<svg width="39" height="39" viewBox="0 0 39 39" fill="none" xmlns="http://www.w3.org/2000/svg">
<path d="M32.5 19.5V11.375H35.75V21.125H32.5V19.5ZM32.5 27.625H35.75V24.375H32.5V27.625ZM16.25 21.125C20.5888 21.125 29.25 23.3025 29.25 27.625V32.5H3.25V27.625C3.25 23.3025 11.9113 21.125 16.25 21.125ZM16.25 6.5C17.9739 6.5 19.6272 7.18482 20.8462 8.40381C22.0652 9.62279 22.75 11.2761 22.75 13C22.75 14.7239 22.0652 16.3772 20.8462 17.5962C19.6272 18.8152 17.9739 19.5 16.25 19.5C14.5261 19.5 12.8728 18.8152 11.6538 17.5962C10.4348 16.3772 9.75 14.7239 9.75 13C9.75 11.2761 10.4348 9.62279 11.6538 8.40381C12.8728 7.18482 14.5261 6.5 16.25 6.5ZM16.25 24.2125C11.4237 24.2125 6.3375 26.585 6.3375 27.625V29.4125H26.1625V27.625C26.1625 26.585 21.0763 24.2125 16.25 24.2125ZM16.25 9.5875C15.3449 9.5875 14.477 9.94703 13.837 10.587C13.197 11.227 12.8375 12.0949 12.8375 13C12.8375 13.9051 13.197 14.773 13.837 15.413C14.477 16.053 15.3449 16.4125 16.25 16.4125C17.1551 16.4125 18.023 16.053 18.663 15.413C19.303 14.773 19.6625 13.9051 19.6625 13C19.6625 12.0949 19.303 11.227 18.663 10.587C18.023 9.94703 17.1551 9.5875 16.25 9.5875Z" fill="#E2E458"/>
</svg>
