<svg width="213" height="191" viewBox="0 0 213 191" fill="none" xmlns="http://www.w3.org/2000/svg">
<g clip-path="url(#clip0_755_1054)">
<path d="M109.071 0.4161L102.173 2.20182L17.1871 24.2023L10.289 25.988C6.9407 26.8588 4.07326 29.0273 2.31573 32.0177C0.558196 35.0082 0.054104 38.5764 0.914043 41.9394L30.8258 158.376C31.6932 161.737 33.8534 164.616 36.8324 166.38C39.8114 168.144 43.3659 168.65 46.7161 167.787L46.7339 167.782L145.481 142.22L145.498 142.215C148.847 141.344 151.714 139.176 153.472 136.185C155.229 133.195 155.733 129.627 154.873 126.264L124.962 9.8271C124.094 6.46597 121.934 3.5875 118.955 1.8232C115.976 0.0589026 112.421 -0.447138 109.071 0.4161Z" fill="#3D4353"/>
<path d="M110.01 4.06703L101.84 6.18209L19.3982 27.5239L11.228 29.6389C8.84358 30.2591 6.8016 31.8033 5.55002 33.9329C4.29843 36.0624 3.93945 38.6034 4.55183 40.9983L34.4635 157.435C35.0813 159.829 36.6196 161.878 38.741 163.135C40.8624 164.391 43.3937 164.752 45.7794 164.137L45.7973 164.132L144.544 138.57L144.562 138.565C146.946 137.945 148.988 136.4 150.24 134.271C151.491 132.141 151.85 129.6 151.238 127.206L121.326 10.7688C120.708 8.37531 119.17 6.3255 117.049 5.0691C114.927 3.8127 112.396 3.45232 110.01 4.06703Z" fill="#646D85"/>
<path d="M103.84 41.7723L53.8869 54.7038C53.3289 54.8483 52.7367 54.7643 52.2405 54.4704C51.7442 54.1765 51.3846 53.6967 51.2407 53.1366C51.0968 52.5766 51.1805 51.9821 51.4733 51.4839C51.766 50.9857 52.244 50.6247 52.8019 50.4803L102.755 37.5488C103.313 37.4049 103.905 37.4892 104.401 37.7832C104.897 38.0771 105.256 38.5567 105.4 39.1164C105.544 39.6762 105.46 40.2704 105.168 40.7684C104.875 41.2664 104.398 41.6275 103.84 41.7723Z" fill="#333844"/>
<path d="M114.349 46.6531L55.7179 61.831C55.16 61.9755 54.5678 61.8915 54.0715 61.5976C53.5753 61.3037 53.2156 60.8239 53.0718 60.2638C52.9279 59.7038 53.0115 59.1093 53.3043 58.6111C53.5971 58.1129 54.075 57.7519 54.6329 57.6075L113.264 42.4296C113.822 42.2851 114.414 42.3691 114.911 42.663C115.407 42.9569 115.766 43.4367 115.91 43.9967C116.054 44.5568 115.971 45.1513 115.678 45.6495C115.385 46.1477 114.907 46.5087 114.349 46.6531Z" fill="#333844"/>
<path d="M112.045 73.7127L62.0919 86.6442C61.8157 86.7158 61.5281 86.732 61.2456 86.6919C60.9631 86.6518 60.6913 86.5563 60.4455 86.4108C60.1998 86.2653 59.9851 86.0726 59.8135 85.8438C59.642 85.6149 59.517 85.3544 59.4458 85.0771C59.3745 84.7997 59.3584 84.5111 59.3983 84.2275C59.4382 83.9439 59.5334 83.671 59.6783 83.4243C59.8233 83.1777 60.0152 82.9621 60.2432 82.7899C60.4712 82.6177 60.7307 82.4922 61.007 82.4207L110.96 69.4892C111.237 69.4177 111.524 69.4015 111.807 69.4415C112.089 69.4816 112.361 69.5771 112.607 69.7226C112.853 69.8682 113.067 70.0608 113.239 70.2897C113.41 70.5185 113.535 70.7791 113.607 71.0564C113.678 71.3337 113.694 71.6224 113.654 71.906C113.614 72.1895 113.519 72.4625 113.374 72.7091C113.229 72.9558 113.037 73.1714 112.809 73.3436C112.581 73.5158 112.322 73.6412 112.045 73.7127Z" fill="#333844"/>
<path d="M122.554 78.5935L63.923 93.7714C63.6467 93.8429 63.3592 93.8591 63.0767 93.819C62.7942 93.779 62.5223 93.6835 62.2766 93.5379C62.0309 93.3924 61.8161 93.1997 61.6446 92.9709C61.473 92.742 61.3481 92.4815 61.2768 92.2042C61.2056 91.9269 61.1895 91.6382 61.2294 91.3546C61.2693 91.071 61.3644 90.7981 61.5094 90.5515C61.6543 90.3048 61.8463 90.0892 62.0743 89.917C62.3022 89.7448 62.5617 89.6194 62.838 89.5479L121.469 74.3699C122.027 74.2255 122.619 74.3095 123.116 74.6034C123.612 74.8973 123.972 75.377 124.115 75.9371C124.259 76.4972 124.176 77.0917 123.883 77.5899C123.59 78.088 123.112 78.449 122.554 78.5935Z" fill="#333844"/>
<path d="M120.251 105.653L70.2975 118.585C69.7398 118.729 69.1479 118.644 68.6519 118.35C68.156 118.056 67.7966 117.577 67.6528 117.017C67.509 116.457 67.5925 115.863 67.885 115.365C68.1775 114.867 68.655 114.506 69.2125 114.361L119.166 101.43C119.724 101.285 120.316 101.369 120.812 101.663C121.309 101.957 121.668 102.437 121.812 102.997C121.956 103.557 121.872 104.151 121.58 104.649C121.287 105.148 120.809 105.509 120.251 105.653Z" fill="#F2F2F2"/>
<path d="M130.76 110.534L72.129 125.712C71.8526 125.784 71.5649 125.8 71.2822 125.76C70.9995 125.72 70.7274 125.625 70.4815 125.479C70.2356 125.334 70.0207 125.141 69.849 124.912C69.6773 124.683 69.5522 124.423 69.4809 124.145C69.4097 123.868 69.3935 123.579 69.4335 123.295C69.4735 123.011 69.5688 122.738 69.714 122.492C69.8591 122.245 70.0513 122.029 70.2795 121.857C70.5077 121.685 70.7675 121.56 71.044 121.488L129.675 106.31C130.233 106.166 130.825 106.25 131.322 106.544C131.818 106.838 132.177 107.317 132.321 107.878C132.465 108.438 132.382 109.032 132.089 109.53C131.796 110.028 131.318 110.389 130.76 110.534Z" fill="#F2F2F2"/>
<path d="M45.3589 67.9632L27.6809 72.5396C27.4134 72.6085 27.1295 72.5681 26.8917 72.4272C26.6538 72.2863 26.4813 72.0565 26.412 71.7881L22.354 55.9917C22.2854 55.7231 22.3256 55.4382 22.466 55.1994C22.6063 54.9606 22.8353 54.7875 23.1026 54.7179L40.7807 50.1416C41.0482 50.0726 41.332 50.1131 41.5699 50.2539C41.8078 50.3948 41.9803 50.6247 42.0495 50.893L46.1075 66.6895C46.1762 66.958 46.136 67.2429 45.9956 67.4817C45.8553 67.7205 45.6263 67.8937 45.3589 67.9632Z" fill="#3D4353"/>
<path d="M53.565 99.9036L35.8869 104.48C35.6194 104.549 35.3356 104.509 35.0977 104.368C34.8598 104.227 34.6873 103.997 34.6181 103.729L30.5601 87.9321C30.4914 87.6635 30.5317 87.3786 30.672 87.1398C30.8124 86.901 31.0413 86.7279 31.3087 86.6584L48.9868 82.082C49.2543 82.0131 49.5381 82.0535 49.776 82.1944C50.0138 82.3352 50.1863 82.5651 50.2556 82.8335L54.3136 98.6299C54.3822 98.8985 54.342 99.1834 54.2017 99.4222C54.0613 99.6609 53.8324 99.8341 53.565 99.9036Z" fill="#3D4353"/>
<path d="M61.7701 131.844L44.092 136.42C43.8245 136.489 43.5407 136.449 43.3028 136.308C43.0649 136.167 42.8924 135.937 42.8232 135.669L38.7652 119.872C38.6965 119.604 38.7368 119.319 38.8771 119.08C39.0174 118.841 39.2464 118.668 39.5138 118.599L57.1918 114.022C57.4594 113.953 57.7432 113.994 57.9811 114.135C58.2189 114.276 58.3914 114.505 58.4607 114.774L62.5187 130.57C62.5873 130.839 62.5471 131.124 62.4068 131.363C62.2664 131.601 62.0374 131.774 61.7701 131.844Z" fill="#3D4353"/>
<path d="M177.968 29.9316H75.9541C72.4953 29.9356 69.1793 31.3166 66.7336 33.7717C64.2878 36.2269 62.9121 39.5556 62.9082 43.0278V163.274C62.9121 166.746 64.2878 170.075 66.7336 172.53C69.1793 174.985 72.4953 176.366 75.9541 176.37H177.968C181.427 176.366 184.743 174.985 187.189 172.53C189.634 170.075 191.01 166.746 191.014 163.274V43.0278C191.01 39.5556 189.634 36.2269 187.189 33.7717C184.743 31.3166 181.427 29.9356 177.968 29.9316Z" fill="#3D4353"/>
<path d="M177.968 33.7017H75.9534C73.4903 33.7045 71.1289 34.6879 69.3872 36.4363C67.6455 38.1847 66.6659 40.5552 66.6631 43.0277V163.274C66.6659 165.746 67.6455 168.117 69.3872 169.865C71.1289 171.614 73.4903 172.597 75.9534 172.6H177.968C180.431 172.597 182.792 171.614 184.534 169.865C186.275 168.117 187.255 165.746 187.258 163.274V43.0277C187.255 40.5552 186.275 38.1847 184.534 36.4364C182.792 34.688 180.431 33.7045 177.968 33.7017Z" fill="#646D85"/>
<path d="M188.685 191C201.838 191 212.5 180.297 212.5 167.094C212.5 153.89 201.838 143.187 188.685 143.187C175.532 143.187 164.87 153.89 164.87 167.094C164.87 180.297 175.532 191 188.685 191Z" fill="#ADDF45"/>
<path d="M200.075 163.975H191.792V155.66C191.792 154.833 191.464 154.04 190.882 153.455C190.299 152.87 189.509 152.542 188.685 152.542C187.862 152.542 187.072 152.87 186.489 153.455C185.906 154.04 185.579 154.833 185.579 155.66V163.975H177.296C176.472 163.975 175.682 164.304 175.099 164.889C174.517 165.473 174.189 166.267 174.189 167.094C174.189 167.921 174.517 168.714 175.099 169.299C175.682 169.883 176.472 170.212 177.296 170.212H185.579V178.527C185.579 179.354 185.906 180.147 186.489 180.732C187.072 181.317 187.862 181.645 188.685 181.645C189.509 181.645 190.299 181.317 190.882 180.732C191.464 180.147 191.792 179.354 191.792 178.527V170.212H200.075C200.899 170.212 201.689 169.883 202.272 169.299C202.854 168.714 203.181 167.921 203.181 167.094C203.181 166.267 202.854 165.473 202.272 164.889C201.689 164.304 200.899 163.975 200.075 163.975Z" fill="white"/>
<path d="M162.614 99.7766H111.026C110.741 99.7769 110.458 99.7208 110.194 99.6113C109.931 99.5019 109.691 99.3413 109.489 99.1387C109.287 98.9362 109.126 98.6957 109.017 98.4309C108.908 98.1662 108.852 97.8824 108.852 97.5958C108.852 97.3092 108.908 97.0254 109.017 96.7606C109.126 96.4959 109.287 96.2554 109.489 96.0528C109.691 95.8503 109.931 95.6897 110.194 95.5802C110.458 95.4708 110.741 95.4146 111.026 95.4149H162.614C163.19 95.4156 163.742 95.6456 164.149 96.0545C164.556 96.4635 164.784 97.0178 164.784 97.5958C164.784 98.1737 164.556 98.7281 164.149 99.137C163.742 99.5459 163.19 99.776 162.614 99.7766Z" fill="#333844"/>
<path d="M171.576 107.137H111.026C110.741 107.137 110.458 107.081 110.194 106.972C109.931 106.862 109.691 106.702 109.489 106.499C109.287 106.297 109.126 106.056 109.017 105.791C108.908 105.527 108.852 105.243 108.852 104.956C108.852 104.67 108.908 104.386 109.017 104.121C109.126 103.856 109.287 103.616 109.489 103.413C109.691 103.211 109.931 103.05 110.194 102.941C110.458 102.831 110.741 102.775 111.026 102.775H171.576C172.152 102.775 172.705 103.005 173.112 103.414C173.519 103.823 173.748 104.378 173.748 104.956C173.748 105.535 173.519 106.089 173.112 106.498C172.705 106.907 172.152 107.137 171.576 107.137Z" fill="#333844"/>
<path d="M162.614 132.762H111.026C110.741 132.762 110.458 132.706 110.194 132.597C109.931 132.487 109.691 132.327 109.489 132.124C109.287 131.922 109.126 131.681 109.017 131.416C108.908 131.152 108.852 130.868 108.852 130.581C108.852 130.295 108.908 130.011 109.017 129.746C109.126 129.481 109.287 129.241 109.489 129.038C109.691 128.836 109.931 128.675 110.194 128.566C110.458 128.456 110.741 128.4 111.026 128.4H162.614C163.19 128.4 163.743 128.63 164.151 129.039C164.558 129.448 164.787 130.003 164.787 130.581C164.787 131.16 164.558 131.714 164.151 132.123C163.743 132.532 163.19 132.762 162.614 132.762Z" fill="#333844"/>
<path d="M171.576 140.122H111.026C110.741 140.123 110.458 140.066 110.194 139.957C109.931 139.848 109.691 139.687 109.489 139.484C109.287 139.282 109.126 139.041 109.017 138.777C108.908 138.512 108.852 138.228 108.852 137.941C108.852 137.655 108.908 137.371 109.017 137.106C109.126 136.842 109.287 136.601 109.489 136.399C109.691 136.196 109.931 136.035 110.194 135.926C110.458 135.816 110.741 135.76 111.026 135.761H171.576C171.861 135.76 172.144 135.816 172.408 135.926C172.672 136.035 172.912 136.196 173.114 136.399C173.316 136.601 173.476 136.842 173.585 137.106C173.695 137.371 173.751 137.655 173.751 137.941C173.751 138.228 173.695 138.512 173.585 138.777C173.476 139.041 173.316 139.282 173.114 139.484C172.912 139.687 172.672 139.848 172.408 139.957C172.144 140.066 171.861 140.123 171.576 140.122Z" fill="#333844"/>
<path d="M99.471 110.478H81.2146C80.9384 110.478 80.6736 110.368 80.4783 110.172C80.283 109.976 80.1732 109.71 80.1729 109.433V93.1193C80.1732 92.8421 80.283 92.5763 80.4783 92.3802C80.6736 92.1842 80.9384 92.0739 81.2146 92.0736H99.471C99.7472 92.0739 100.012 92.1842 100.207 92.3802C100.403 92.5763 100.512 92.8421 100.513 93.1193V109.433C100.512 109.71 100.403 109.976 100.207 110.172C100.012 110.368 99.7472 110.478 99.471 110.478Z" fill="#3D4353"/>
<path d="M99.471 143.464H81.2146C80.9384 143.463 80.6736 143.353 80.4783 143.157C80.283 142.961 80.1732 142.695 80.1729 142.418V126.105C80.1732 125.827 80.283 125.562 80.4783 125.366C80.6736 125.17 80.9384 125.059 81.2146 125.059H99.471C99.7472 125.059 100.012 125.17 100.207 125.366C100.403 125.562 100.512 125.827 100.513 126.105V142.418C100.512 142.695 100.403 142.961 100.207 143.157C100.012 143.353 99.7472 143.463 99.471 143.464Z" fill="#3D4353"/>
<path d="M162.672 63.0574H124.638C124.062 63.0574 123.51 62.8276 123.102 62.4186C122.695 62.0096 122.466 61.4549 122.466 60.8765C122.466 60.2981 122.695 59.7434 123.102 59.3344C123.51 58.9254 124.062 58.6957 124.638 58.6957H162.672C163.248 58.6957 163.801 58.9254 164.208 59.3344C164.616 59.7434 164.844 60.2981 164.844 60.8765C164.844 61.4549 164.616 62.0096 164.208 62.4186C163.801 62.8276 163.248 63.0574 162.672 63.0574Z" fill="#333844"/>
<path d="M171.633 70.4177H124.638C124.353 70.4177 124.071 70.3613 123.807 70.2517C123.543 70.1421 123.304 69.9815 123.102 69.779C122.9 69.5765 122.74 69.336 122.631 69.0715C122.522 68.8069 122.466 68.5233 122.466 68.2369C122.466 67.9505 122.522 67.6669 122.631 67.4023C122.74 67.1377 122.9 66.8973 123.102 66.6948C123.304 66.4923 123.543 66.3316 123.807 66.222C124.071 66.1124 124.353 66.056 124.638 66.056H171.633C172.21 66.056 172.762 66.2858 173.17 66.6948C173.577 67.1038 173.806 67.6585 173.806 68.2369C173.806 68.8153 173.577 69.37 173.17 69.779C172.762 70.188 172.21 70.4177 171.633 70.4177Z" fill="#333844"/>
<path d="M116.221 79.3376H81.157C80.8808 79.3373 80.616 79.227 80.4207 79.031C80.2254 78.8349 80.1155 78.5691 80.1152 78.2919V50.8215C80.1155 50.5442 80.2254 50.2784 80.4207 50.0824C80.616 49.8863 80.8808 49.7761 81.157 49.7758H116.221C116.497 49.7761 116.762 49.8863 116.957 50.0824C117.152 50.2784 117.262 50.5442 117.262 50.8215V78.2919C117.262 78.5691 117.152 78.8349 116.957 79.031C116.762 79.227 116.497 79.3373 116.221 79.3376Z" fill="#ADDF45"/>
</g>
<defs>
<clipPath id="clip0_755_1054">
<rect width="212" height="191" fill="white" transform="translate(0.5)"/>
</clipPath>
</defs>
</svg>
