<svg width="85" height="80" viewBox="0 0 85 80" fill="none" xmlns="http://www.w3.org/2000/svg">
<g clip-path="url(#clip0_841_4392)">
<path d="M49.0987 4.09971C46.3718 1.57545 42.6382 0 38.2383 0C33.7262 0 30.0093 1.62373 28.6729 2.48288C27.4448 3.2711 26.6713 4.3608 26.2127 5.22979C19.7039 8.68912 15.0019 14.6234 13.2463 21.5735C12.5305 22.269 11.9361 23.0796 11.4877 23.9716C9.08651 27.756 9.3227 34.3258 11.9857 37.9299C12.6902 39.0906 13.4618 39.9005 14.2225 40.4512C12.5408 41.3678 11.1081 42.6815 10.0487 44.2784C8.9894 45.8753 8.33546 47.7069 8.14377 49.6143L7.49523 55.9675C7.11634 56.5309 6.7483 57.0964 6.39406 57.6588C4.97892 58.4691 3.91413 60.4284 3.21739 61.9036C0.861472 65.2268 -0.210203 68.635 0.0368044 72.034C0.517041 78.734 8.18412 80.1979 11.4523 76.3691C13.2237 76.8619 15.1417 76.1356 16.1198 74.7691C16.6438 74.8789 17.1738 74.9572 17.7071 75.0036C20.1064 76.6789 22.9967 77.801 26.3258 78.1289C33.7341 80.6196 48.4679 81.6541 51.5126 74.5376C52.0344 73.3149 52.4584 72.0531 52.78 70.7629C57.2086 71.8026 62.7193 69.5129 66.1275 62.4866C67.2364 62.0077 67.9512 61.0747 68.4025 59.9706C71.7267 59.0088 77.5771 54.9572 77.5771 49.8222C77.5771 46.8506 75.4658 42.5528 71.6454 42.5528C70.2823 42.5528 68.9428 43.1923 67.769 43.9007C65.9741 40.3941 60.9224 40.3074 59.6194 44.3322C59.4373 44.9232 59.3199 45.5325 59.2705 46.1491C59.2026 46.7895 59.1867 46.9422 58.7565 47.4753C57.6887 48.8004 56.6044 50.499 56.8072 52.5464C56.747 52.6144 56.6873 52.6845 56.6281 52.7593C55.8778 51.3272 55.0226 49.9529 54.0696 48.6477C70.2411 38.0107 68.7076 12.1109 49.0987 4.09971Z" fill="white"/>
<path d="M55.2696 68.1639C61.6866 67.9206 64.5317 59.068 64.5317 59.068C62.1502 57.6778 59.6359 55.2933 59.6359 55.2933C58.511 56.0876 55.7981 57.6139 55.7981 57.6139C52.6241 49.7355 48.7203 46.9402 48.7203 46.9402L43.6946 48.6871L48.7203 61.5546C48.7203 61.5546 48.8532 68.4072 55.2696 68.1639Z" fill="#E8EDEC"/>
<path d="M48.7203 46.9402L43.6946 48.6871L44.9533 51.9077C47.1656 51.4238 49.3098 50.668 51.337 49.6576C51.2337 49.5345 49.9455 47.8634 48.7203 46.9402Z" fill="#BEC9CE"/>
<path d="M55.2697 68.1639C61.6866 67.9206 64.5318 59.068 64.5318 59.068C64.1382 58.8412 63.7517 58.5881 63.3678 58.3232C62.2923 60.7954 58.7138 67.0469 54.6162 66.1067C50.7654 65.2268 50.4032 56.7222 50.4082 56.7129L47.3978 56.8345L47.5287 58.4985L48.7204 61.5526C48.7384 61.9552 48.7871 62.3557 48.8661 62.751C49.5422 66.268 51.7504 68.2969 55.2697 68.1639Z" fill="#D0DBE2"/>
<path d="M50.0767 59.9961C50.0915 59.9528 50.1063 59.9095 50.1201 59.8662C51.5164 55.591 50.9536 51.0224 50.4783 48.6282C49.4253 47.4459 48.7207 46.9395 48.7207 46.9395L45.17 48.174C45.484 50.0017 46.351 54.8569 47.3745 58.1064L48.2394 60.3193C48.8653 61.4987 49.504 61.6977 50.0767 59.9961Z" fill="#9DCC3C"/>
<path d="M50.4792 48.6321C49.9872 48.0745 49.3151 47.3878 48.7207 46.9395L45.17 48.174C45.301 48.9346 45.5283 50.2224 45.8225 51.7002C47.5023 51.2763 49.1383 50.694 50.7085 49.9613C50.6357 49.4686 50.557 49.0213 50.4792 48.6321Z" fill="#8BB92D"/>
<path d="M10.9143 49.8963L9.64581 62.3345C9.14166 67.2783 12.7357 71.6948 17.6732 72.1995L20.3576 72.4742C25.2952 72.9788 29.7066 69.3804 30.2107 64.4371L31.4792 51.9984C31.9834 47.0551 28.3894 42.6385 23.4518 42.1337L20.7674 41.8593C15.8299 41.3546 11.4185 44.9529 10.9143 49.8963Z" fill="#D0DBE2"/>
<path d="M24.5226 42.3095C23.3486 42.1895 22.1626 42.3022 21.0321 42.6412C19.9017 42.9802 18.849 43.5388 17.9342 44.2851C17.0193 45.0314 16.2603 45.9507 15.7004 46.9907C15.1404 48.0307 14.7906 49.171 14.6708 50.3463L13.4023 62.7825C13.1603 65.1562 13.8701 67.5294 15.3755 69.3789C16.8808 71.2289 19.0585 72.4046 21.4296 72.6469L24.1151 72.9206C25.2891 73.0407 26.4751 72.9278 27.6056 72.5892C28.7361 72.25 29.7888 71.6918 30.7035 70.9454C31.6184 70.199 32.3775 69.2794 32.9373 68.2397C33.4973 67.1995 33.8471 66.0593 33.9669 64.884L35.2354 52.4449C35.3552 51.2695 35.2426 50.082 34.9039 48.9501C34.5653 47.8183 34.0073 46.7643 33.2618 45.8484C32.5163 44.9324 31.5979 44.1725 30.559 43.6119C29.5202 43.0514 28.3812 42.7012 27.2072 42.5814L24.5226 42.3095Z" fill="#BEC9CE"/>
<path d="M14.2259 53.9093C14.3262 52.9253 13.7304 52.0583 12.895 51.9727C12.0597 51.8871 11.3011 52.616 11.2007 53.6C11.1004 54.584 11.6962 55.4511 12.5316 55.5366C13.3669 55.6222 14.1255 54.8933 14.2259 53.9093Z" fill="#9DCC3C"/>
<path d="M11.9373 52.2427C11.7272 52.405 11.5532 52.6087 11.4262 52.8422C11.2994 53.0752 11.2224 53.3319 11.2003 53.5968C11.1019 54.5819 11.6923 55.4478 12.5308 55.5329C13.2068 55.6014 13.8318 55.1386 14.0994 54.4401C13.8255 54.6478 13.484 54.7452 13.1419 54.7138C12.3064 54.6282 11.711 53.7612 11.8104 52.7767C11.8291 52.5942 11.8718 52.4143 11.9373 52.2427Z" fill="#8BB92D"/>
<path d="M11.2694 57.8557L10.7977 62.481C10.7587 62.8634 11.0366 63.2047 11.4183 63.2439L12.0683 63.3103C12.4501 63.349 12.7911 63.0712 12.8301 62.6887L13.3018 58.0634C13.3408 57.6815 13.063 57.3397 12.6812 57.3006L12.0311 57.2341C11.6494 57.1954 11.3084 57.4732 11.2694 57.8557Z" fill="#FDCC00"/>
<path d="M12.1299 57.2423L12.0315 57.2314C11.8483 57.2129 11.6653 57.268 11.5226 57.3845C11.38 57.501 11.2894 57.6696 11.2708 57.8531L10.7984 62.4778C10.78 62.6613 10.835 62.8448 10.9515 62.9876C11.0679 63.1309 11.2361 63.2216 11.4194 63.2407L12.0699 63.3077C12.1606 63.317 12.2524 63.3082 12.3398 63.2819C12.4272 63.2557 12.5086 63.2124 12.5794 63.1546C12.6501 63.0969 12.7088 63.0258 12.7521 62.9454C12.7953 62.8649 12.8224 62.7768 12.8316 62.6861L12.865 62.3608L12.3149 62.3046C12.2241 62.2953 12.136 62.268 12.0557 62.2247C11.9753 62.1814 11.9043 62.1227 11.8466 62.0521C11.7889 61.9814 11.7458 61.8995 11.7196 61.8124C11.6934 61.7247 11.6847 61.633 11.694 61.5417L12.1299 57.2423Z" fill="#FCA800"/>
<path d="M20.6521 70.8299C23.0356 77.3851 46.1637 79.9469 48.9458 73.4438C54.1612 61.2402 46.7326 47.8645 45.9532 47.7955L24.9565 44.6958C24.9565 44.6958 17.6575 62.5923 20.6521 70.8299Z" fill="#E8EDEC"/>
<path d="M38.9008 69.4879C42.9078 69.4879 46.1562 66.2349 46.1562 62.2221C46.1562 58.2094 42.9078 54.9564 38.9008 54.9564C34.8938 54.9564 31.6455 58.2094 31.6455 62.2221C31.6455 66.2349 34.8938 69.4879 38.9008 69.4879Z" fill="#D1D7DB"/>
<path d="M39.4792 68.174C43.1239 68.174 46.0784 65.2151 46.0784 61.5653C46.0784 57.9154 43.1239 54.9565 39.4792 54.9565C35.8346 54.9565 32.88 57.9154 32.88 61.5653C32.88 65.2151 35.8346 68.174 39.4792 68.174Z" fill="#EDF0EF"/>
<path d="M39.4559 62.6975L38.7137 61.9697C38.6339 61.8908 38.5845 61.7888 38.5765 61.6857C38.5684 61.5831 38.6025 61.4872 38.671 61.4202L41.9943 58.1604C42.0202 58.1347 42.0518 58.1156 42.0872 58.1032C42.1227 58.0913 42.1614 58.0867 42.201 58.0898C42.2408 58.0929 42.2807 58.1032 42.3185 58.1207C42.3563 58.1388 42.3913 58.163 42.4216 58.1929L43.3084 59.0625C43.3695 59.1223 43.4073 59.2001 43.4135 59.279C43.4197 59.3573 43.3939 59.4305 43.3416 59.4816L40.0183 62.7414C39.9842 62.7749 39.9426 62.8006 39.8958 62.8161C39.8491 62.8321 39.7981 62.8383 39.7459 62.8341C39.6936 62.83 39.6411 62.8161 39.5913 62.7924C39.5416 62.7692 39.4955 62.7367 39.4559 62.6975Z" fill="#567D22"/>
<path d="M43.1034 64.8347L42.0097 65.9074C41.9352 65.9806 41.8426 66.0301 41.7526 66.045C41.6625 66.06 41.5822 66.0394 41.5294 65.9878L38.154 62.677C38.0844 62.6084 38.0566 62.5048 38.0769 62.3883C38.0972 62.2713 38.1639 62.1517 38.2623 62.0553L39.1732 61.1615C39.2716 61.0651 39.3937 60.9997 39.5125 60.9801C39.6314 60.96 39.7373 60.9873 39.807 61.0553L43.1845 64.3687C43.2368 64.4198 43.2576 64.4976 43.2424 64.5852C43.2271 64.6724 43.1772 64.7621 43.1034 64.8347Z" fill="#567D22"/>
<path d="M35.3776 59.3713L36.5015 58.2687C36.5396 58.2316 36.5825 58.1997 36.6279 58.1754C36.6733 58.1512 36.7204 58.1347 36.7663 58.127C36.8122 58.1192 36.8561 58.1208 36.8955 58.1306C36.935 58.1409 36.9691 58.16 36.996 58.1863L40.4576 61.5816C40.4932 61.6167 40.5185 61.661 40.5321 61.7115C40.5457 61.7625 40.5474 61.8198 40.5371 61.879C40.5268 61.9383 40.5046 61.9991 40.4719 62.0579C40.4392 62.1167 40.3965 62.1723 40.3464 62.2213L39.4144 63.1357C39.3131 63.2347 39.1875 63.3022 39.0652 63.3229C38.9429 63.343 38.8339 63.3151 38.7622 63.245L35.2953 59.844C35.269 59.8182 35.2503 59.7857 35.2402 59.7481C35.2301 59.7105 35.2288 59.6682 35.2365 59.6244C35.2441 59.5806 35.2605 59.5357 35.2847 59.4919C35.309 59.4486 35.3405 59.4074 35.3776 59.3713Z" fill="#AAC225"/>
<path d="M39.5623 60.9938L40.5151 61.9283C40.5683 61.9804 40.6006 62.0484 40.6051 62.118C40.6096 62.1871 40.5859 62.252 40.5392 62.2979L36.6447 66.1175C36.5858 66.1758 36.5026 66.2051 36.4136 66.1995C36.3245 66.1938 36.2369 66.1536 36.1699 66.0881L35.1897 65.1263C35.1561 65.0938 35.1287 65.0551 35.1089 65.0139C35.0892 64.9721 35.0776 64.9283 35.0748 64.8845C35.072 64.8407 35.0779 64.7979 35.0923 64.7587C35.1068 64.7191 35.1294 64.684 35.159 64.6551L38.9314 60.9546C39.0097 60.8778 39.1201 60.8392 39.2384 60.8464C39.3566 60.8536 39.4731 60.9067 39.5623 60.9938Z" fill="#AAC225"/>
<path d="M39.267 62.8536L38.4652 62.067C38.3789 61.9825 38.3247 61.8727 38.3145 61.7629C38.3043 61.6531 38.3389 61.5521 38.4108 61.4815L41.8956 58.0634C41.9227 58.0366 41.956 58.0165 41.9936 58.0041C42.0312 57.9918 42.0723 57.9876 42.1146 57.9912C42.1569 57.9954 42.1995 58.0072 42.2401 58.0263C42.2806 58.0459 42.3183 58.0722 42.351 58.1046L43.3091 59.0443C43.3751 59.1088 43.4166 59.1923 43.4245 59.2763C43.4324 59.3598 43.406 59.4371 43.3512 59.4912L39.8664 62.9093C39.8306 62.9443 39.7868 62.9706 39.7373 62.9866C39.6877 63.0031 39.6336 63.0088 39.5779 63.0036C39.5222 62.9985 39.4661 62.9825 39.4128 62.9567C39.3594 62.9309 39.3099 62.8959 39.267 62.8536Z" fill="url(#paint0_linear_841_4392)"/>
<path d="M42.486 65.4655L43.146 64.818C43.2976 64.6691 43.2976 64.4284 43.146 64.2794L39.7322 60.9309C39.5806 60.782 39.3347 60.782 39.1831 60.9309L38.5231 61.5784C38.3715 61.7268 38.3715 61.968 38.5231 62.117L41.937 65.4655C42.0886 65.6139 42.3343 65.6139 42.486 65.4655Z" fill="url(#paint1_linear_841_4392)"/>
<path d="M43.2672 64.704L42.3436 65.6102C42.2806 65.6721 42.199 65.7102 42.1165 65.7169C42.0342 65.7231 41.9577 65.6973 41.9042 65.6448L38.481 62.287C38.4103 62.218 38.3755 62.119 38.3843 62.0123C38.3931 61.9056 38.4447 61.7999 38.5278 61.7185L39.297 60.9638C39.38 60.8824 39.4879 60.8319 39.5966 60.8231C39.7053 60.8144 39.8061 60.8489 39.8768 60.918L43.3023 64.2783C43.3552 64.3298 43.3813 64.404 43.3747 64.4839C43.3681 64.5638 43.3294 64.6432 43.2672 64.704Z" fill="url(#paint2_linear_841_4392)"/>
<path d="M35.8189 58.918L36.6204 58.1319C36.6475 58.1056 36.6797 58.0845 36.7151 58.07C36.7505 58.0556 36.7885 58.0479 36.8268 58.0479C36.8652 58.0479 36.9031 58.0556 36.9385 58.07C36.9739 58.0845 37.0062 58.1056 37.0332 58.1319L40.5175 61.5499C40.5533 61.585 40.5816 61.6267 40.601 61.6726C40.6203 61.718 40.6303 61.7674 40.6303 61.8169C40.6303 61.8664 40.6203 61.9154 40.601 61.9613C40.5816 62.0071 40.5533 62.0489 40.5175 62.0839L39.8529 62.736C39.7807 62.8066 39.6828 62.8463 39.5807 62.8463C39.4786 62.8463 39.3807 62.8066 39.3085 62.736L35.8189 59.3128C35.7924 59.287 35.7715 59.2561 35.7571 59.2221C35.7428 59.1886 35.7355 59.152 35.7355 59.1154C35.7355 59.0788 35.7428 59.0427 35.7571 59.0087C35.7715 58.9747 35.7924 58.9437 35.8189 58.918Z" fill="#B6D319"/>
<path d="M39.7434 60.7954L40.6901 61.7237C40.7429 61.7758 40.7763 61.8418 40.7831 61.9088C40.79 61.9753 40.7695 62.0361 40.7264 62.0784L37.1314 65.6046C37.077 65.6583 36.9984 65.6835 36.9128 65.6753C36.8273 65.6665 36.7418 65.6253 36.6752 65.5598L35.7013 64.6046C35.668 64.5722 35.6403 64.534 35.62 64.4938C35.5996 64.4531 35.5869 64.4108 35.5826 64.3691C35.5783 64.3268 35.5825 64.2861 35.5949 64.249C35.6073 64.2114 35.6277 64.1784 35.655 64.1521L39.1374 60.7361C39.2097 60.665 39.3141 60.6315 39.4277 60.6428C39.5413 60.6536 39.6548 60.7088 39.7434 60.7954Z" fill="#B6D319"/>
<path d="M23.5626 48.4822C30.3529 52.8284 39.81 53.832 47.9376 51.0745C47.0244 49.0379 46.1869 47.8113 45.9527 47.7905L24.9561 44.6958C24.9561 44.6958 24.3519 46.1767 23.5626 48.4822Z" fill="#BEC9CE"/>
<path d="M20.8075 58.3912C19.8835 62.9154 19.482 67.6103 20.6521 70.8299C21.1982 72.3304 22.8309 73.6211 25.0579 74.6422C21.0851 67.0149 23.8514 57.2273 23.8514 57.2273L20.8075 58.3912Z" fill="#D0DBE2"/>
<path d="M7.30884 61.5536L13.5933 67.1253C13.5933 67.1253 17.4962 61.4809 23.8515 57.2284C23.8515 57.2284 27.1816 48.4043 23.0819 42.8435C22.9402 42.6533 13.5273 50.5276 7.30884 61.5536Z" fill="#E8EDEC"/>
<path d="M11.9065 65.631L13.5932 67.1253C13.5932 67.1253 17.4961 61.481 23.8514 57.2273C24.3084 55.9201 24.645 54.5742 24.8572 53.2057L23.9833 51.584C23.9833 51.584 16.206 57.2768 11.9065 65.631Z" fill="#D0DBE2"/>
<path d="M23.0775 42.8417C23.0263 42.7717 21.6998 43.8122 19.7316 45.7098C21.0955 47.0665 24.2584 50.9317 23.8461 57.2275C23.851 57.2275 27.1772 48.4045 23.0775 42.8417Z" fill="#9DCC3C"/>
<path d="M22.888 42.9381C22.8604 42.9568 22.8417 42.9696 22.7895 43.008C22.018 43.5706 20.6157 44.8613 19.9032 45.5441C21.4398 47.0782 23.1956 48.3752 25.113 49.3926C25.0402 47.156 24.5225 44.7973 23.0769 42.8415C23.0641 42.8188 22.9106 42.9223 22.888 42.9381Z" fill="#8BB92D"/>
<path d="M19.8284 68.5789C19.5511 68.2923 19.1849 68.1077 18.7896 68.0562C18.3943 68.0046 17.9932 68.0881 17.6516 68.2938C17.4256 68.4309 17.2334 68.6165 17.0891 68.8381C16.9449 69.0593 16.8524 69.3103 16.8184 69.5721C16.7845 69.8345 16.81 70.101 16.8931 70.3515C16.9761 70.6026 17.1147 70.8314 17.2983 71.0211C18.863 72.6283 21.833 74.8639 26.5183 75.3453C30.8866 75.7917 35.0799 74.7118 37.9957 71.4263C39.6844 69.5216 40.2493 67.6484 40.3083 67.4407C39.4778 66.7804 37.5618 66.6526 36.5009 67.2752C36.5009 67.2752 35.2501 71.7732 28.6764 71.9062C23.9281 71.9984 21.1284 69.9129 19.8284 68.5789Z" fill="#6EA643"/>
<path d="M26.3116 74.0448C21.1313 73.5149 17.4764 70.45 16.8446 69.3995C16.7764 69.6856 16.7817 69.9845 16.8601 70.268C16.9383 70.5515 17.087 70.8108 17.2923 71.0211C18.857 72.6283 21.8271 74.8639 26.5123 75.3453C30.8807 75.7917 35.0739 74.7118 37.9897 71.4263C39.6785 69.5216 40.2433 67.6484 40.3024 67.4407C40.1282 67.3077 39.9352 67.2015 39.7296 67.1252C37.727 71.6319 33.0594 74.7335 26.3116 74.0448Z" fill="#5E9732"/>
<path d="M17.5685 71.2944C17.7781 71.4969 18.0093 71.7078 18.2632 71.9227C19.1657 71.1645 19.9783 70.3047 20.6851 69.3608C20.4214 69.1464 20.1931 68.9377 19.9883 68.7402C19.649 69.2031 19.2822 69.6454 18.8901 70.0645C18.4741 70.5 18.0328 70.9108 17.5685 71.2944Z" fill="#5E9732"/>
<path d="M20.9195 73.7033C21.7126 72.8167 22.3621 71.8125 22.9477 70.7723C22.6583 70.6373 22.3858 70.4961 22.1299 70.3486C21.136 72.1012 20.2906 73.0502 20.0997 73.2471C20.3595 73.3997 20.6331 73.5543 20.9195 73.7033Z" fill="#5E9732"/>
<path d="M24.2548 74.9557C24.7107 73.8629 25.0629 72.7304 25.3068 71.5722C24.9968 71.501 24.6977 71.4211 24.4123 71.3325C24.1752 72.4892 23.8224 73.6191 23.3593 74.7051C23.6446 74.7959 23.9497 74.8783 24.2548 74.9557Z" fill="#5E9732"/>
<path d="M27.4584 75.4146C27.6605 74.2512 27.7828 73.0754 27.8245 71.8955C27.5063 71.8836 27.1983 71.862 26.9004 71.8311C26.8568 73.0094 26.7335 74.1831 26.5314 75.345C26.8414 75.379 27.1504 75.4017 27.4584 75.4146Z" fill="#5E9732"/>
<path d="M29.8273 74.8133C29.8332 74.9916 29.8372 75.1798 29.8392 75.3741C30.1492 75.3452 30.4552 75.3081 30.7593 75.2607C30.74 74.0839 30.6476 72.9091 30.4828 71.7432C30.1875 71.7916 29.8834 71.8308 29.5626 71.8586C29.7056 72.838 29.794 73.8241 29.8273 74.8133Z" fill="#5E9732"/>
<path d="M32.9779 74.7248C33.2751 74.6258 33.5677 74.5155 33.8557 74.3938C33.6159 73.2521 33.27 72.1351 32.8224 71.0577C32.5395 71.1835 32.25 71.2943 31.9554 71.3897C32.4087 72.4639 32.7513 73.5815 32.9779 74.7248Z" fill="#5E9732"/>
<path d="M36.7427 72.6402C36.2142 71.5799 35.423 70.485 34.7538 69.8242C34.5203 70.032 34.2735 70.2242 34.0148 70.3995C34.5393 70.8923 35.1957 71.8015 35.5008 72.3021C35.6848 72.5948 35.8492 72.8995 35.9928 73.2144C36.2473 73.035 36.4973 72.8438 36.7427 72.6402Z" fill="#5E9732"/>
<path d="M39.1053 69.9584C38.1851 69.2336 37.1757 68.6306 36.1018 68.1641C35.9455 68.4393 35.7692 68.7027 35.5743 68.9522C35.9888 69.1244 36.3941 69.3177 36.7887 69.5316C37.4168 69.8764 38.0138 70.2754 38.5729 70.7239C38.7697 70.461 38.9458 70.2048 39.1053 69.9584Z" fill="#5E9732"/>
<path d="M39.6132 50.2211C52.5958 49.7558 62.7574 39.2332 62.3097 26.7181C61.8625 14.2031 50.9753 4.43479 37.9929 4.90005C25.0105 5.36528 14.8489 15.8879 15.2963 28.403C15.7438 40.918 26.6308 50.6863 39.6132 50.2211Z" fill="#E8EDEC"/>
<path d="M40.0042 4.91157C26.1522 4.27804 14.8243 15.1948 15.2966 28.4034C15.8064 42.6622 26.4257 51.6361 41.5532 50.0931C27.4925 49.7158 19.7398 40.199 19.3137 28.2595C18.8895 16.3969 27.9973 6.32541 40.0042 4.91157Z" fill="#D0DBE2"/>
<path d="M28.3457 7.27032C28.3457 7.27032 36.5658 7.11074 39.3675 15.5052L50.8706 15.0934C50.8706 15.0934 51.4611 8.40929 45.2022 4.64162C39.0172 0.917304 31.7625 3.77261 30.1279 4.86232C28.8368 5.72048 28.3457 7.27032 28.3457 7.27032Z" fill="#9DCC3C"/>
<path d="M30.1239 4.8623C28.8368 5.72046 28.3457 7.2703 28.3457 7.2703C28.3457 7.2703 36.5658 7.11072 39.3675 15.5052L41.4134 15.4323C41.3223 15.1387 41.2239 14.8329 41.1182 14.515C38.4612 6.76288 33.6391 4.9963 30.185 4.82782L30.1239 4.8623Z" fill="#8BB92D"/>
<path d="M23.506 25.0416C21.6628 31.2488 25.3531 46.5333 42.929 45.9038C63.3472 45.1727 62.4997 27.5777 60.8926 22.6937C58.334 14.9317 53.1048 13.2233 45.4857 12.973C33.5664 12.5819 26.0164 16.5801 23.506 25.0416Z" fill="#122A41"/>
<path d="M45.6467 48.5323C48.347 48.1382 53.2072 45.2149 49.5269 45.2001C48.8194 45.2001 50.1755 43.4079 47.171 43.5005C43.8162 43.599 44.2827 46.2593 40.6504 46.8504C37.0181 47.4416 40.987 49.2161 45.6467 48.5323Z" fill="#E8EDEC"/>
<path d="M17.9026 38.8744C20.5358 38.78 22.5402 35.0618 22.3796 30.5694C22.219 26.0771 19.9542 22.5118 17.321 22.6062C14.6878 22.7005 12.6833 26.4188 12.844 30.9112C13.0046 35.4035 15.2694 38.9688 17.9026 38.8744Z" fill="#9DCC3C"/>
<path d="M16.7495 37.5184C18.7626 37.4378 20.2721 34.3067 20.121 30.5248C19.9699 26.743 18.2155 23.7426 16.2024 23.8232C14.1892 23.9038 12.6798 27.0349 12.8309 30.8168C12.9819 34.5986 14.7364 37.5991 16.7495 37.5184Z" fill="#8BB92D"/>
<path d="M57.1698 20.9025C57.8028 20.462 57.9592 19.5914 57.5192 18.9577C57.0793 18.3241 56.2096 18.1675 55.5767 18.608C54.9437 19.0484 54.7878 19.9191 55.2272 20.5527C55.6672 21.1863 56.5369 21.3429 57.1698 20.9025Z" fill="#214160"/>
<path d="M56.1995 39.2236C56.1738 39.259 56.1624 39.303 56.1676 39.3465C56.1733 39.3901 56.1954 39.4298 56.2293 39.4576C56.2633 39.4854 56.3065 39.4991 56.3503 39.4959C56.394 39.4927 56.4347 39.4728 56.464 39.4403C60.1052 35.6658 61.6315 27.4654 59.0457 21.9784C58.9865 21.8401 58.8996 21.7154 58.7905 21.6119C58.6814 21.5084 58.5527 21.4283 58.4117 21.3765C58.2707 21.3247 58.1205 21.3024 57.9702 21.3108C57.8205 21.3193 57.6738 21.3583 57.5395 21.4256C57.4047 21.4929 57.2858 21.5869 57.1891 21.702C57.0923 21.8171 57.0198 21.9508 56.9765 22.0948C56.9333 22.2389 56.9199 22.3902 56.9374 22.5396C56.9544 22.6891 57.0023 22.8334 57.0774 22.9637C58.9834 26.5442 59.0936 31.3877 57.9913 35.2924C57.2781 37.8196 56.1779 39.2551 56.1995 39.2236Z" fill="#214160"/>
<path d="M24.9585 30.2468C25.1613 31.8109 25.5809 33.3389 26.2053 34.787C27.2878 37.3142 28.697 38.9379 28.6547 38.8847C28.7159 38.9662 28.7928 39.0345 28.8809 39.0855C28.9689 39.1366 29.0664 39.1694 29.1674 39.182C29.2684 39.1946 29.3709 39.1867 29.4688 39.1588C29.5667 39.1309 29.658 39.0836 29.7372 39.0197C29.8165 38.9557 29.8821 38.8765 29.9301 38.7866C29.9781 38.6968 30.0076 38.5982 30.0168 38.4967C30.026 38.3952 30.0146 38.2929 29.9836 38.1959C29.9524 38.0988 29.9021 38.0091 29.8356 37.9319C28.7777 36.8599 27.8718 35.6476 27.1432 34.3288C25.8835 32.0568 25.5076 30.0862 25.5214 30.1463C25.4397 29.7966 24.9152 29.8951 24.9585 30.2468Z" fill="#214160"/>
<path d="M30.9368 39.2374C30.7532 39.271 30.5837 39.3584 30.4497 39.4885C30.3157 39.6186 30.2233 39.7855 30.184 39.9682C30.1448 40.1509 30.1606 40.3411 30.2293 40.5149C30.2981 40.6886 30.4167 40.838 30.5703 40.9442C30.7238 41.0505 30.9054 41.1087 31.092 41.1116C31.2786 41.1145 31.4619 41.0619 31.6187 40.9606C31.7755 40.8592 31.8988 40.7135 31.9729 40.542C32.047 40.3705 32.0686 40.1809 32.0351 39.997C32.0129 39.8749 31.9669 39.7583 31.8997 39.654C31.8325 39.5497 31.7454 39.4597 31.6434 39.3891C31.5413 39.3185 31.4264 39.2688 31.3052 39.2428C31.1839 39.2167 31.0588 39.2149 30.9368 39.2374Z" fill="#214160"/>
<path d="M58.3793 55.4252C58.2748 56.3783 59.3498 57.3685 60.9811 58.6046C62.6129 59.8412 64.4592 60.1556 64.9944 59.9397C65.8985 59.5763 66.1074 57.649 66.3179 57.5546C66.5788 57.4371 67.9713 57.5546 70.4187 55.9113C73.4172 53.8984 74.785 51.8046 74.785 49.8182C74.785 47.8319 73.2598 44.8544 71.1252 45.4022C69.0962 45.9225 67.2874 47.9856 65.3922 48.1176C65.3922 48.1176 66.0092 45.8436 65.0386 44.7845C64.0681 43.7253 62.7014 43.8248 62.2604 45.1875C61.8199 46.5501 62.3262 47.4713 60.9152 49.2221C59.5042 50.9729 59.2834 52.035 59.8562 53.2402C60.0471 53.6402 58.511 54.2113 58.3793 55.4252Z" fill="#9DCC3C"/>
<path d="M69.6494 53.4428C69.6366 51.8273 69.1302 50.2541 68.1993 48.9344C68.1669 48.8825 68.116 48.8449 68.0573 48.8295C67.9981 48.8141 67.9353 48.822 67.8823 48.8516C67.8293 48.8829 67.7913 48.9337 67.7753 48.9931C67.7599 49.0525 67.7681 49.1157 67.7985 49.1689C68.6872 50.4179 69.1709 51.9098 69.1853 53.4428C69.1873 53.7386 69.6515 53.7386 69.6494 53.4428Z" fill="#8BB92D"/>
<path d="M66.3183 57.5547C66.5792 57.4371 67.9717 57.5547 70.4191 55.9114C72.5794 54.4609 74.8477 52.315 74.7834 49.7207C71.8312 55.6423 64.8085 55.6676 64.3392 56.1928C64.05 56.516 64.1545 57.8681 62.7589 59.6011C63.7747 59.9949 64.6521 60.0779 64.9948 59.9397C65.899 59.5763 66.1079 57.649 66.3183 57.5547Z" fill="#8BB92D"/>
<path d="M64.4077 48.2053C64.5318 48.3215 65.3922 48.1176 65.3922 48.1176C65.3922 48.1176 66.0091 45.8436 65.0386 44.7844C64.6738 44.3844 64.2513 44.1499 63.8438 44.0859C64.9656 45.287 64.328 48.1294 64.4077 48.2053Z" fill="#8BB92D"/>
<path d="M11.8852 63.2886C10.3824 61.999 8.90927 59.7742 7.97045 59.9959C7.00996 60.2216 5.63323 63.3103 5.63323 63.3103C3.91302 65.6752 2.58253 68.6051 2.81084 71.834C3.06571 75.3871 6.07505 76.0943 8.16924 75.3742C10.0547 74.7258 10.4848 71.9258 10.4848 71.9258C10.4848 71.9258 11.5102 74.4036 13.3288 73.5624C14.8404 72.8618 13.6683 70.7819 13.5935 69.4448C13.5187 68.1077 14.74 67.5933 15.0047 66.5995C15.1652 65.9943 14.0678 65.1608 11.8852 63.2886Z" fill="#9DCC3C"/>
<path d="M12.7956 64.0654C11.2126 65.6902 10.0801 67.7 9.50969 69.8969C9.242 70.9402 8.87988 74.035 6.34485 75.6185C6.96303 75.6587 7.58306 75.5763 8.16933 75.3763C10.0549 74.7278 10.4849 71.9278 10.4849 71.9278C10.4849 71.9278 11.5104 74.4056 13.3289 73.5644C14.8405 72.8639 13.6685 70.784 13.5937 69.4469C13.5189 68.1098 14.7401 67.5953 15.0049 66.6015C15.1416 66.085 14.3691 65.4051 12.7956 64.0654Z" fill="#8BB92D"/>
<path d="M69.8912 23.7713C71.0073 21.8357 73.7985 21.8357 74.9146 23.7713L84.0512 39.6138C85.1679 41.5494 83.7723 43.9691 81.5395 43.9691H63.2663C61.0335 43.9691 59.638 41.5495 60.7546 39.6138L69.8912 23.7713Z" fill="white"/>
<path d="M71.4761 27.3538C71.8667 26.6763 72.8434 26.6763 73.234 27.3538L80.2952 39.5969C80.6858 40.2744 80.1974 41.1213 79.4158 41.1213H65.2943C64.5127 41.1213 64.0243 40.2744 64.4149 39.5969L71.4761 27.3538Z" fill="#F4D554"/>
<path d="M70.7716 31.2477C70.7716 31.1675 70.8364 31.1025 70.9162 31.1025H73.0919C73.1717 31.1025 73.2365 31.1675 73.2365 31.2477V36.6193C73.2365 36.6994 73.1717 36.7644 73.0919 36.7644H70.9162C70.8364 36.7644 70.7716 36.6994 70.7716 36.6193V31.2477Z" fill="#EAEAEA"/>
<path d="M70.7717 37.781C70.7717 37.7008 70.8366 37.6358 70.9163 37.6358H73.092C73.1718 37.6358 73.2366 37.7008 73.2366 37.781V39.3779C73.2366 39.4581 73.1718 39.5231 73.092 39.5231H70.9163C70.8366 39.5231 70.7717 39.4581 70.7717 39.3779V37.781Z" fill="#EAEAEA"/>
<path d="M71.5695 31.2477C71.5695 31.1675 71.6343 31.1025 71.7141 31.1025H73.3093C73.3896 31.1025 73.4544 31.1675 73.4544 31.2477V36.6193C73.4544 36.6994 73.3896 36.7644 73.3093 36.7644H71.7141C71.6343 36.7644 71.5695 36.6994 71.5695 36.6193V31.2477Z" fill="white"/>
<path d="M71.5693 37.781C71.5693 37.7008 71.6342 37.6358 71.7139 37.6358H73.3092C73.3894 37.6358 73.4543 37.7008 73.4543 37.781V39.3779C73.4543 39.4581 73.3894 39.5231 73.3092 39.5231H71.7139C71.6342 39.5231 71.5693 39.4581 71.5693 39.3779V37.781Z" fill="white"/>
</g>
<defs>
<linearGradient id="paint0_linear_841_4392" x1="39.0641" y1="61.5" x2="43.0825" y2="58.7121" gradientUnits="userSpaceOnUse">
<stop offset="0.22" stop-color="#5E921C"/>
<stop offset="0.85" stop-color="#76B224"/>
</linearGradient>
<linearGradient id="paint1_linear_841_4392" x1="38.4094" y1="63.198" x2="43.2597" y2="63.198" gradientUnits="userSpaceOnUse">
<stop stop-color="#5E921C"/>
<stop offset="1" stop-color="#76B224"/>
</linearGradient>
<linearGradient id="paint2_linear_841_4392" x1="39.1263" y1="62.3164" x2="43.0984" y2="65.0467" gradientUnits="userSpaceOnUse">
<stop offset="0.22" stop-color="#5E921C"/>
<stop offset="0.85" stop-color="#76B224"/>
</linearGradient>
<clipPath id="clip0_841_4392">
<rect width="84.4444" height="80" fill="white"/>
</clipPath>
</defs>
</svg>
