<svg width="316" height="198" viewBox="0 0 316 198" fill="none" xmlns="http://www.w3.org/2000/svg">
<rect width="316" height="198" fill="#4B4B4B"/>
<rect x="45" y="11.9522" width="231.768" height="56.0478" rx="4" fill="#C4C4C4"/>
<rect x="50.5681" y="19.4922" width="112.752" height="16.0855" fill="#DFDFDF"/>
<rect x="50.5681" y="39.5991" width="71.688" height="16.0855" fill="#DFDFDF"/>
<rect x="125.04" y="39.5991" width="71.688" height="16.0855" fill="#DFDFDF"/>
<rect x="166.104" y="19.4922" width="105.096" height="16.0855" fill="#DFDFDF"/>
<rect x="199.512" y="39.5991" width="71.688" height="16.0855" fill="#DFDFDF"/>
<rect x="45" y="77" width="232" height="52" rx="4" fill="#C4C4C4"/>
<rect x="50.5681" y="82.6417" width="112.752" height="12.0355" fill="#DFDFDF"/>
<rect x="50.5681" y="97.6861" width="71.688" height="12.0355" fill="#DFDFDF"/>
<rect x="125.04" y="97.6861" width="71.688" height="12.0355" fill="#DFDFDF"/>
<rect x="166.104" y="82.6417" width="105.096" height="12.0355" fill="#DFDFDF"/>
<rect x="199.512" y="97.6861" width="71.688" height="12.0355" fill="#DFDFDF"/>
<rect x="45" y="138" width="231.768" height="50.7104" rx="4" fill="#C4C4C4"/>
<rect x="50.5681" y="144.822" width="112.752" height="14.5537" fill="#DFDFDF"/>
<rect x="50.5681" y="163.014" width="71.688" height="14.5537" fill="#DFDFDF"/>
<rect x="125.04" y="163.014" width="71.688" height="14.5537" fill="#DFDFDF"/>
<rect x="166.104" y="144.822" width="105.096" height="14.5537" fill="#DFDFDF"/>
<rect x="199.512" y="163.014" width="71.688" height="14.5537" fill="#DFDFDF"/>
</svg>
