<svg width="200" height="126" viewBox="0 0 200 126" fill="none" xmlns="http://www.w3.org/2000/svg">
<rect y="67" width="35.5286" height="58.7209" fill="#DFDFDF"/>
<rect x="2.73291" y="71.6512" width="30.0626" height="23.2558" fill="#4B4B4B"/>
<rect x="2.73291" y="99.5581" width="30.0626" height="4.65116" fill="#4B4B4B"/>
<rect x="2.73291" y="108.86" width="16.3978" height="4.65116" fill="#4B4B4B"/>
<rect x="40.9946" y="67" width="35.5286" height="58.7209" fill="#DFDFDF"/>
<rect x="43.7275" y="71.6512" width="30.0626" height="23.2558" fill="#4B4B4B"/>
<rect x="43.7275" y="99.5581" width="30.0626" height="4.65116" fill="#4B4B4B"/>
<rect x="43.7275" y="108.86" width="16.3978" height="4.65116" fill="#4B4B4B"/>
<rect x="81.9893" y="67" width="35.5286" height="58.7209" fill="#DFDFDF"/>
<rect x="84.7222" y="71.6512" width="30.0626" height="23.2558" fill="#4B4B4B"/>
<rect x="84.7222" y="99.5581" width="30.0626" height="4.65116" fill="#4B4B4B"/>
<rect x="84.7222" y="108.86" width="16.3978" height="4.65116" fill="#4B4B4B"/>
<rect x="123.23" y="67" width="35.5286" height="58.7209" fill="#DFDFDF"/>
<rect x="125.963" y="71.6512" width="30.0626" height="23.2558" fill="#4B4B4B"/>
<rect x="125.963" y="99.5581" width="30.0626" height="4.65116" fill="#4B4B4B"/>
<rect x="125.963" y="108.86" width="16.3978" height="4.65116" fill="#4B4B4B"/>
<rect x="164.472" y="67" width="35.5286" height="58.7209" fill="#DFDFDF"/>
<rect x="167.205" y="71.6512" width="30.0626" height="23.2558" fill="#4B4B4B"/>
<rect x="167.205" y="99.5581" width="30.0626" height="4.65116" fill="#4B4B4B"/>
<rect x="167.205" y="108.86" width="16.3978" height="4.65116" fill="#4B4B4B"/>
<rect width="200" height="59" fill="#DFDFDF"/>
</svg>
