<svg width="319" height="198" viewBox="0 0 319 198" fill="none" xmlns="http://www.w3.org/2000/svg">
<rect width="319" height="198" fill="#4B4B4B"/>
<rect x="42.5042" y="26.121" width="229.992" height="41.8659" rx="8" fill="#C4C4C4"/>
<rect x="42.5042" y="73.5001" width="229.992" height="84.4209" rx="5" fill="#C4C4C4"/>
<ellipse cx="76.3465" cy="46.9678" rx="13.8133" ry="13.783" fill="#4B4B4B"/>
<path d="M77.9321 51.5932H76.2388V45.0658L74.2173 45.6928V44.3158L77.7505 43.0502H77.9321V51.5932Z" fill="#DFDFDF"/>
<ellipse cx="156.637" cy="46.9678" rx="13.8133" ry="13.783" fill="#DFDFDF"/>
<path d="M159.957 51.5932H154.109V50.433L156.869 47.4916C157.248 47.0775 157.527 46.7162 157.707 46.4076C157.89 46.099 157.982 45.8061 157.982 45.5287C157.982 45.1498 157.886 44.8529 157.695 44.6381C157.503 44.4193 157.23 44.31 156.875 44.31C156.492 44.31 156.189 44.4428 155.966 44.7084C155.748 44.9701 155.638 45.3158 155.638 45.7455H153.939C153.939 45.226 154.062 44.7514 154.308 44.3217C154.558 43.892 154.91 43.5561 155.363 43.3139C155.816 43.0678 156.33 42.9447 156.904 42.9447C157.783 42.9447 158.464 43.1557 158.949 43.5775C159.437 43.9994 159.681 44.5951 159.681 45.3647C159.681 45.7865 159.572 46.2162 159.353 46.6537C159.134 47.0912 158.759 47.601 158.228 48.183L156.289 50.2279H159.957V51.5932Z" fill="#4B4B4B"/>
<ellipse cx="236.927" cy="46.9678" rx="13.8133" ry="13.783" fill="#DFDFDF"/>
<path d="M236.121 46.5775H237.024C237.453 46.5775 237.772 46.4701 237.979 46.2553C238.186 46.0404 238.289 45.7553 238.289 45.3998C238.289 45.0561 238.186 44.7885 237.979 44.5971C237.776 44.4057 237.494 44.31 237.135 44.31C236.811 44.31 236.539 44.3998 236.321 44.5795C236.102 44.7553 235.992 44.9857 235.992 45.2709H234.299C234.299 44.8256 234.418 44.4272 234.656 44.0756C234.899 43.7201 235.235 43.4428 235.664 43.2436C236.098 43.0443 236.574 42.9447 237.094 42.9447C237.996 42.9447 238.703 43.1615 239.215 43.5951C239.727 44.0248 239.983 44.6186 239.983 45.3764C239.983 45.767 239.864 46.1264 239.625 46.4545C239.387 46.7826 239.074 47.0346 238.688 47.2104C239.168 47.3822 239.526 47.64 239.76 47.9838C239.998 48.3275 240.117 48.7338 240.117 49.2025C240.117 49.9604 239.84 50.5678 239.285 51.0248C238.735 51.4818 238.004 51.7104 237.094 51.7104C236.242 51.7104 235.545 51.4857 235.002 51.0365C234.463 50.5873 234.194 49.9936 234.194 49.2553H235.887C235.887 49.5756 236.006 49.8373 236.244 50.0404C236.487 50.2436 236.783 50.3451 237.135 50.3451C237.537 50.3451 237.852 50.2397 238.078 50.0287C238.309 49.8139 238.424 49.5307 238.424 49.1791C238.424 48.3275 237.955 47.9018 237.018 47.9018H236.121V46.5775Z" fill="#4B4B4B"/>
<line x1="95.6853" y1="44.7955" x2="134.708" y2="44.7955" stroke="#9B9B9B" stroke-width="4"/>
<line x1="177.875" y1="44.7955" x2="216.897" y2="44.7955" stroke="#9B9B9B" stroke-width="4"/>
<rect x="48.0293" y="82.1145" width="111.888" height="11.0264" fill="#DFDFDF"/>
<rect x="48.0293" y="100.894" width="71.1387" height="11.0264" fill="#DFDFDF"/>
<rect x="48.0293" y="119.673" width="52.6633" height="11.0264" fill="#DFDFDF"/>
<rect x="103.455" y="119.673" width="52.6633" height="11.0264" fill="#DFDFDF"/>
<rect x="158.881" y="119.673" width="52.6633" height="11.0264" fill="#DFDFDF"/>
<rect x="214.307" y="119.673" width="52.6633" height="11.0264" fill="#DFDFDF"/>
<rect x="121.931" y="100.894" width="71.1387" height="11.0264" fill="#DFDFDF"/>
<rect x="162.68" y="82.1145" width="104.291" height="11.0264" fill="#DFDFDF"/>
<rect x="48.0293" y="138.452" width="218.941" height="11.0264" fill="#DFDFDF"/>
<rect x="195.832" y="100.894" width="71.1387" height="11.0264" fill="#DFDFDF"/>
</svg>
