<svg width="43" height="41" viewBox="0 0 43 41" fill="none" xmlns="http://www.w3.org/2000/svg">
<path d="M17.8594 2.74223L19.9406 0.660986C20.8219 -0.220266 22.2469 -0.220266 23.1188 0.660986L41.3438 18.8766C42.225 19.7579 42.225 21.1829 41.3438 22.0547L23.1188 40.2797C22.2375 41.161 20.8125 41.161 19.9406 40.2797L17.8594 38.1985C16.9688 37.3079 16.9875 35.8547 17.8969 34.9829L29.1938 24.2204L2.25002 24.2204C1.00314 24.2204 1.68082e-05 23.2172 1.69172e-05 21.9704L1.71795e-05 18.9704C1.72885e-05 17.7235 1.00315 16.7204 2.25002 16.7204L29.1938 16.7204L17.8969 5.95786C16.9781 5.08598 16.9594 3.63286 17.8594 2.74223Z" fill="#616981"/>
</svg>
