<svg width="14" height="14" viewBox="0 0 14 14" fill="none" xmlns="http://www.w3.org/2000/svg">
<path d="M1.79224 12.6875C1.79224 13.0356 1.9294 13.3694 2.17355 13.6156C2.41771 13.8617 2.74885 14 3.09413 14H10.9054C11.2507 14 11.5819 13.8617 11.826 13.6156C12.0702 13.3694 12.2073 13.0356 12.2073 12.6875V3.5H1.79224V12.6875ZM9.1696 5.6875C9.1696 5.57147 9.21532 5.46019 9.2967 5.37814C9.37809 5.2961 9.48847 5.25 9.60356 5.25C9.71865 5.25 9.82904 5.2961 9.91042 5.37814C9.9918 5.46019 10.0375 5.57147 10.0375 5.6875V11.8125C10.0375 11.9285 9.9918 12.0398 9.91042 12.1219C9.82904 12.2039 9.71865 12.25 9.60356 12.25C9.48847 12.25 9.37809 12.2039 9.2967 12.1219C9.21532 12.0398 9.1696 11.9285 9.1696 11.8125V5.6875ZM6.56583 5.6875C6.56583 5.57147 6.61155 5.46019 6.69293 5.37814C6.77431 5.2961 6.88469 5.25 6.99979 5.25C7.11488 5.25 7.22526 5.2961 7.30665 5.37814C7.38803 5.46019 7.43375 5.57147 7.43375 5.6875V11.8125C7.43375 11.9285 7.38803 12.0398 7.30665 12.1219C7.22526 12.2039 7.11488 12.25 6.99979 12.25C6.88469 12.25 6.77431 12.2039 6.69293 12.1219C6.61155 12.0398 6.56583 11.9285 6.56583 11.8125V5.6875ZM3.96205 5.6875C3.96205 5.57147 4.00777 5.46019 4.08916 5.37814C4.17054 5.2961 4.28092 5.25 4.39601 5.25C4.51111 5.25 4.62149 5.2961 4.70287 5.37814C4.78426 5.46019 4.82998 5.57147 4.82998 5.6875V11.8125C4.82998 11.9285 4.78426 12.0398 4.70287 12.1219C4.62149 12.2039 4.51111 12.25 4.39601 12.25C4.28092 12.25 4.17054 12.2039 4.08916 12.1219C4.00777 12.0398 3.96205 11.9285 3.96205 11.8125V5.6875ZM12.6413 0.875004H9.38658L9.13163 0.363677C9.07762 0.25436 8.99443 0.162405 8.89141 0.0981575C8.78839 0.0339095 8.66963 -8.27959e-05 8.54849 4.7941e-06H5.44837C5.32751 -0.000463619 5.20896 0.0334019 5.1063 0.0977214C5.00365 0.162041 4.92104 0.254213 4.86795 0.363677L4.613 0.875004H1.35828C1.24318 0.875004 1.1328 0.921098 1.05142 1.00315C0.970037 1.08519 0.924316 1.19647 0.924316 1.3125L0.924316 2.1875C0.924316 2.30354 0.970037 2.41482 1.05142 2.49686C1.1328 2.57891 1.24318 2.625 1.35828 2.625H12.6413C12.7564 2.625 12.8668 2.57891 12.9482 2.49686C13.0295 2.41482 13.0753 2.30354 13.0753 2.1875V1.3125C13.0753 1.19647 13.0295 1.08519 12.9482 1.00315C12.8668 0.921098 12.7564 0.875004 12.6413 0.875004Z" fill="white"/>
</svg>
