<svg width="22" height="20" viewBox="0 0 22 20" fill="none" xmlns="http://www.w3.org/2000/svg">
<path d="M6.41665 8.28125V11.7188C6.41665 12.2883 5.95495 12.75 5.3854 12.75H1.03125C0.461699 12.75 0 12.2883 0 11.7188V8.28125C0 7.7117 0.461699 7.25 1.03125 7.25H5.3854C5.95495 7.25 6.41665 7.7117 6.41665 8.28125ZM0 15.1562V18.5938C0 19.1633 0.461699 19.625 1.03125 19.625H5.3854C5.95495 19.625 6.41665 19.1633 6.41665 18.5938V15.1562C6.41665 14.5867 5.95495 14.125 5.3854 14.125H1.03125C0.461699 14.125 0 14.5867 0 15.1562ZM5.3854 0.375H1.03125C0.461699 0.375 0 0.836699 0 1.40625V4.84375C0 5.4133 0.461699 5.875 1.03125 5.875H5.3854C5.95495 5.875 6.41665 5.4133 6.41665 4.84375V1.40625C6.41665 0.836699 5.95495 0.375 5.3854 0.375ZM8.8229 19.625H20.9688C21.5383 19.625 22 19.1633 22 18.5938V15.1562C22 14.5867 21.5383 14.125 20.9688 14.125H8.8229C8.25335 14.125 7.79165 14.5867 7.79165 15.1562V18.5938C7.79165 19.1633 8.25335 19.625 8.8229 19.625ZM7.79165 1.40625V4.84375C7.79165 5.4133 8.25335 5.875 8.8229 5.875H20.9688C21.5383 5.875 22 5.4133 22 4.84375V1.40625C22 0.836699 21.5383 0.375 20.9688 0.375H8.8229C8.25335 0.375 7.79165 0.836699 7.79165 1.40625ZM8.8229 12.75H20.9688C21.5383 12.75 22 12.2883 22 11.7188V8.28125C22 7.7117 21.5383 7.25 20.9688 7.25H8.8229C8.25335 7.25 7.79165 7.7117 7.79165 8.28125V11.7188C7.79165 12.2883 8.25335 12.75 8.8229 12.75Z" fill="#BDE942"/>
</svg>
