<svg width="18" height="22" viewBox="0 0 18 22" fill="none" xmlns="http://www.w3.org/2000/svg">
<path d="M10.375 5.84375V0H1.78125C1.20977 0 0.75 0.459766 0.75 1.03125V20.9688C0.75 21.5402 1.20977 22 1.78125 22H16.2188C16.7902 22 17.25 21.5402 17.25 20.9688V6.875H11.4062C10.8391 6.875 10.375 6.41094 10.375 5.84375ZM13.125 15.9844C13.125 16.268 12.893 16.5 12.6094 16.5H5.39062C5.10703 16.5 4.875 16.268 4.875 15.9844V15.6406C4.875 15.357 5.10703 15.125 5.39062 15.125H12.6094C12.893 15.125 13.125 15.357 13.125 15.6406V15.9844ZM13.125 13.2344C13.125 13.518 12.893 13.75 12.6094 13.75H5.39062C5.10703 13.75 4.875 13.518 4.875 13.2344V12.8906C4.875 12.607 5.10703 12.375 5.39062 12.375H12.6094C12.893 12.375 13.125 12.607 13.125 12.8906V13.2344ZM13.125 10.1406V10.4844C13.125 10.768 12.893 11 12.6094 11H5.39062C5.10703 11 4.875 10.768 4.875 10.4844V10.1406C4.875 9.85703 5.10703 9.625 5.39062 9.625H12.6094C12.893 9.625 13.125 9.85703 13.125 10.1406ZM17.25 5.23789V5.5H11.75V0H12.0121C12.2871 0 12.5492 0.107422 12.7426 0.300781L16.9492 4.51172C17.1426 4.70508 17.25 4.96719 17.25 5.23789Z" fill="#9B9B9B"/>
</svg>
