<svg width="22" height="20" viewBox="0 0 22 20" fill="none" xmlns="http://www.w3.org/2000/svg">
<path d="M21.0833 2.44444H17.1111V0.916667C17.1111 0.408681 16.7024 0 16.1944 0H5.80556C5.29757 0 4.88889 0.408681 4.88889 0.916667V2.44444H0.916667C0.408681 2.44444 0 2.85312 0 3.36111V5.5C0 6.86354 0.859375 8.26528 2.36424 9.34618C3.56736 10.2132 5.03021 10.7632 6.56562 10.9389C7.76493 12.9288 9.16667 13.75 9.16667 13.75V16.5H7.33333C5.98507 16.5 4.88889 17.2906 4.88889 18.6389V19.0972C4.88889 19.3493 5.09514 19.5556 5.34722 19.5556H16.6528C16.9049 19.5556 17.1111 19.3493 17.1111 19.0972V18.6389C17.1111 17.2906 16.0149 16.5 14.6667 16.5H12.8333V13.75C12.8333 13.75 14.2351 12.9288 15.4344 10.9389C16.9736 10.7632 18.4365 10.2132 19.6358 9.34618C21.1368 8.26528 22 6.86354 22 5.5V3.36111C22 2.85312 21.5913 2.44444 21.0833 2.44444ZM3.79271 7.36389C2.86076 6.69167 2.44444 5.94306 2.44444 5.5V4.88889H4.89653C4.93472 6.13403 5.11806 7.22639 5.38542 8.18125C4.80868 7.98264 4.27014 7.70764 3.79271 7.36389ZM19.5556 5.5C19.5556 6.11493 18.8795 6.87882 18.2073 7.36389C17.7299 7.70764 17.1875 7.98264 16.6108 8.18125C16.8781 7.22639 17.0615 6.13403 17.0997 4.88889H19.5556V5.5Z" fill="#9B9B9B"/>
</svg>
