<svg width="36" height="36" viewBox="0 0 36 36" fill="none" xmlns="http://www.w3.org/2000/svg">
<path d="M31.3998 0H4.6002C2.0636 0 0 2.06367 0 4.60027V31.3998C0 33.9363 2.0636 36 4.6002 36H31.3998C33.9364 36 36 33.9363 36 31.3997V4.60027C36 2.06367 33.9364 0 31.3998 0ZM33.8795 31.3998C33.8795 32.7672 32.7671 33.8795 31.3998 33.8795H4.6002C3.23283 33.8795 2.12041 32.7671 2.12041 31.3998V27.5321L9.09928 21.5942C9.35395 21.3775 9.72548 21.3754 9.98255 21.5889L14.3542 25.219C14.7757 25.5689 15.3944 25.5402 15.7818 25.1525L26.169 14.7495C26.3567 14.5614 26.5756 14.5431 26.6898 14.5489C26.8038 14.5548 27.02 14.5954 27.1875 14.8018L33.8796 23.0417V31.3998H33.8795ZM33.8795 19.678L28.8335 13.4648C28.3331 12.8486 27.5913 12.4718 26.7985 12.4311C26.0062 12.391 25.2293 12.6893 24.6684 13.2511L14.9648 22.9698L11.3373 19.9576C10.2855 19.0842 8.76649 19.0933 7.72516 19.9793L2.12041 24.748V4.60027C2.12041 3.2329 3.23283 2.12048 4.6002 2.12048H31.3998C32.7672 2.12048 33.8795 3.2329 33.8795 4.60027V19.678Z" fill="#9B9B9B"/>
</svg>
