<svg width="22" height="16" viewBox="0 0 22 16" fill="none" xmlns="http://www.w3.org/2000/svg">
<path d="M21.0833 0.666748H3.36111C2.85484 0.666748 2.44444 1.07715 2.44444 1.58341V1.88897H0.916667C0.410399 1.88897 0 2.29937 0 2.80564V13.1945C0 14.3758 0.957611 15.3334 2.13889 15.3334H20.1667C21.1792 15.3334 22 14.5126 22 13.5001V1.58341C22 1.07715 21.5896 0.666748 21.0833 0.666748ZM2.13889 13.5001C2.05785 13.5001 1.98013 13.4679 1.92283 13.4106C1.86553 13.3533 1.83333 13.2756 1.83333 13.1945V3.7223H2.44444V13.1945C2.44444 13.2756 2.41225 13.3533 2.35495 13.4106C2.29765 13.4679 2.21993 13.5001 2.13889 13.5001ZM11.1528 12.889H5.34722C5.09411 12.889 4.88889 12.6838 4.88889 12.4306V12.1251C4.88889 11.872 5.09411 11.6667 5.34722 11.6667H11.1528C11.4059 11.6667 11.6111 11.872 11.6111 12.1251V12.4306C11.6111 12.6838 11.4059 12.889 11.1528 12.889ZM19.0972 12.889H13.2917C13.0386 12.889 12.8333 12.6838 12.8333 12.4306V12.1251C12.8333 11.872 13.0386 11.6667 13.2917 11.6667H19.0972C19.3503 11.6667 19.5556 11.872 19.5556 12.1251V12.4306C19.5556 12.6838 19.3503 12.889 19.0972 12.889ZM11.1528 9.2223H5.34722C5.09411 9.2223 4.88889 9.01708 4.88889 8.76397V8.45841C4.88889 8.2053 5.09411 8.00008 5.34722 8.00008H11.1528C11.4059 8.00008 11.6111 8.2053 11.6111 8.45841V8.76397C11.6111 9.01708 11.4059 9.2223 11.1528 9.2223ZM19.0972 9.2223H13.2917C13.0386 9.2223 12.8333 9.01708 12.8333 8.76397V8.45841C12.8333 8.2053 13.0386 8.00008 13.2917 8.00008H19.0972C19.3503 8.00008 19.5556 8.2053 19.5556 8.45841V8.76397C19.5556 9.01708 19.3503 9.2223 19.0972 9.2223ZM19.0972 5.55564H5.34722C5.09411 5.55564 4.88889 5.35042 4.88889 5.0973V3.56953C4.88889 3.31641 5.09411 3.11119 5.34722 3.11119H19.0972C19.3503 3.11119 19.5556 3.31641 19.5556 3.56953V5.0973C19.5556 5.35042 19.3503 5.55564 19.0972 5.55564Z" fill="#9B9B9B"/>
</svg>
