<svg width="22" height="18" viewBox="0 0 22 18" fill="none" xmlns="http://www.w3.org/2000/svg">
<path d="M19.9375 17.25H2.0625C0.923398 17.25 0 16.3266 0 15.1875V2.8125C0 1.6734 0.923398 0.75 2.0625 0.75H19.9375C21.0766 0.75 22 1.6734 22 2.8125V15.1875C22 16.3266 21.0766 17.25 19.9375 17.25ZM4.8125 3.15625C3.48356 3.15625 2.40625 4.23356 2.40625 5.5625C2.40625 6.89144 3.48356 7.96875 4.8125 7.96875C6.14144 7.96875 7.21875 6.89144 7.21875 5.5625C7.21875 4.23356 6.14144 3.15625 4.8125 3.15625ZM2.75 14.5H19.25V9.6875L15.4896 5.92709C15.2882 5.72574 14.9618 5.72574 14.7604 5.92709L8.9375 11.75L6.55209 9.36459C6.35074 9.16324 6.02426 9.16324 5.82287 9.36459L2.75 12.4375V14.5Z" fill="#9B9B9B"/>
</svg>
