<svg width="21" height="18" viewBox="0 0 21 18" fill="none" xmlns="http://www.w3.org/2000/svg">
<path d="M19.95 0H5.25C4.97152 0 4.70445 0.118526 4.50754 0.329505C4.31062 0.540483 4.2 0.826631 4.2 1.125V4.5H9.45V2.25H15.75V13.5H19.95C20.2285 13.5 20.4955 13.3815 20.6925 13.1705C20.8894 12.9595 21 12.6734 21 12.375V1.125C21 0.826631 20.8894 0.540483 20.6925 0.329505C20.4955 0.118526 20.2285 0 19.95 0V0ZM7.6125 3.62109C7.6125 3.70501 7.58139 3.78549 7.526 3.84483C7.47062 3.90416 7.39551 3.9375 7.31719 3.9375H6.33281C6.25449 3.9375 6.17938 3.90416 6.12399 3.84483C6.06861 3.78549 6.0375 3.70501 6.0375 3.62109V2.56641C6.0375 2.48249 6.06861 2.40201 6.12399 2.34267C6.17938 2.28334 6.25449 2.25 6.33281 2.25H7.31719C7.39551 2.25 7.47062 2.28334 7.526 2.34267C7.58139 2.40201 7.6125 2.48249 7.6125 2.56641V3.62109ZM19.1625 10.9336C19.1625 11.0175 19.1314 11.098 19.076 11.1573C19.0206 11.2167 18.9455 11.25 18.8672 11.25H17.8828C17.8045 11.25 17.7294 11.2167 17.674 11.1573C17.6186 11.098 17.5875 11.0175 17.5875 10.9336V9.87891C17.5875 9.79499 17.6186 9.71451 17.674 9.65517C17.7294 9.59584 17.8045 9.5625 17.8828 9.5625H18.8672C18.9455 9.5625 19.0206 9.59584 19.076 9.65517C19.1314 9.71451 19.1625 9.79499 19.1625 9.87891V10.9336ZM19.1625 7.27734C19.1625 7.36126 19.1314 7.44174 19.076 7.50108C19.0206 7.56041 18.9455 7.59375 18.8672 7.59375H17.8828C17.8045 7.59375 17.7294 7.56041 17.674 7.50108C17.6186 7.44174 17.5875 7.36126 17.5875 7.27734V6.22266C17.5875 6.13874 17.6186 6.05826 17.674 5.99892C17.7294 5.93959 17.8045 5.90625 17.8828 5.90625H18.8672C18.9455 5.90625 19.0206 5.93959 19.076 5.99892C19.1314 6.05826 19.1625 6.13874 19.1625 6.22266V7.27734ZM19.1625 3.62109C19.1625 3.70501 19.1314 3.78549 19.076 3.84483C19.0206 3.90416 18.9455 3.9375 18.8672 3.9375H17.8828C17.8045 3.9375 17.7294 3.90416 17.674 3.84483C17.6186 3.78549 17.5875 3.70501 17.5875 3.62109V2.56641C17.5875 2.48249 17.6186 2.40201 17.674 2.34267C17.7294 2.28334 17.8045 2.25 17.8828 2.25H18.8672C18.9455 2.25 19.0206 2.28334 19.076 2.34267C19.1314 2.40201 19.1625 2.48249 19.1625 2.56641V3.62109ZM13.65 5.625H1.05C0.771523 5.625 0.504451 5.74353 0.307538 5.9545C0.110625 6.16548 0 6.45163 0 6.75L0 16.875C0 17.1734 0.110625 17.4595 0.307538 17.6705C0.504451 17.8815 0.771523 18 1.05 18H13.65C13.9285 18 14.1955 17.8815 14.3925 17.6705C14.5894 17.4595 14.7 17.1734 14.7 16.875V6.75C14.7 6.45163 14.5894 6.16548 14.3925 5.9545C14.1955 5.74353 13.9285 5.625 13.65 5.625ZM3.15 7.875C3.35767 7.875 3.56068 7.94098 3.73335 8.0646C3.90602 8.18821 4.0406 8.36391 4.12007 8.56948C4.19955 8.77505 4.22034 9.00125 4.17982 9.21948C4.13931 9.43771 4.03931 9.63816 3.89246 9.7955C3.74562 9.95283 3.55852 10.06 3.35484 10.1034C3.15116 10.1468 2.94004 10.1245 2.74818 10.0394C2.55632 9.95422 2.39233 9.81002 2.27696 9.62502C2.16158 9.44001 2.1 9.2225 2.1 9C2.1 8.70163 2.21062 8.41548 2.40754 8.2045C2.60445 7.99353 2.87152 7.875 3.15 7.875ZM12.6 15.75H2.1V14.625L4.2 12.375L5.25 13.5L9.45 9L12.6 12.375V15.75Z" fill="#9B9B9B"/>
</svg>
