<svg width="22" height="20" viewBox="0 0 22 20" fill="none" xmlns="http://www.w3.org/2000/svg">
<path d="M1.375 18.25C1.375 19.0105 1.98945 19.625 2.75 19.625H19.25C20.0105 19.625 20.625 19.0105 20.625 18.25V5.875H1.375V18.25ZM8.25 9.14062C8.25 8.85703 8.48203 8.625 8.76562 8.625H13.2344C13.518 8.625 13.75 8.85703 13.75 9.14062V9.48438C13.75 9.76797 13.518 10 13.2344 10H8.76562C8.48203 10 8.25 9.76797 8.25 9.48438V9.14062ZM20.625 0.375H1.375C0.614453 0.375 0 0.989453 0 1.75V3.8125C0 4.19062 0.309375 4.5 0.6875 4.5H21.3125C21.6906 4.5 22 4.19062 22 3.8125V1.75C22 0.989453 21.3855 0.375 20.625 0.375Z" fill="#9B9B9B"/>
</svg>
