<svg width="22" height="14" viewBox="0 0 22 14" fill="none" xmlns="http://www.w3.org/2000/svg">
<path d="M21.3929 3.26629L11.8044 0.32035C11.2819 0.159818 10.7181 0.159818 10.1959 0.32035L0.607043 3.26629C-0.202144 3.51482 -0.202144 4.58491 0.607043 4.83344L2.2787 5.34701C1.91192 5.80041 1.68642 6.35351 1.66407 6.95919C1.33304 7.14894 1.09998 7.49132 1.09998 7.90004C1.09998 8.2706 1.29523 8.58238 1.57642 8.78176L0.698825 12.7308C0.622512 13.0742 0.883762 13.4 1.23542 13.4H3.1642C3.5162 13.4 3.77745 13.0742 3.70114 12.7308L2.82354 8.78176C3.10473 8.58238 3.29998 8.2706 3.29998 7.90004C3.29998 7.50232 3.07757 7.16957 2.76167 6.97638C2.78779 6.46007 3.05179 6.00357 3.47289 5.71413L10.1956 7.77973C10.507 7.87529 11.1045 7.99457 11.804 7.77973L21.3929 4.83379C22.2024 4.58491 22.2024 3.51516 21.3929 3.26629ZM12.1271 8.83126C11.1464 9.13238 10.3108 8.96601 9.87248 8.83126L4.88742 7.29985L4.39998 11.2C4.39998 12.4152 7.35486 13.4 11 13.4C14.6451 13.4 17.6 12.4152 17.6 11.2L17.1125 7.29951L12.1271 8.83126Z" fill="#9B9B9B"/>
</svg>
