<svg width="22" height="16" viewBox="0 0 22 16" fill="none" xmlns="http://www.w3.org/2000/svg">
<path d="M3.3 6.7001C4.51344 6.7001 5.5 5.71354 5.5 4.5001C5.5 3.28666 4.51344 2.3001 3.3 2.3001C2.08656 2.3001 1.1 3.28666 1.1 4.5001C1.1 5.71354 2.08656 6.7001 3.3 6.7001ZM18.7 6.7001C19.9134 6.7001 20.9 5.71354 20.9 4.5001C20.9 3.28666 19.9134 2.3001 18.7 2.3001C17.4866 2.3001 16.5 3.28666 16.5 4.5001C16.5 5.71354 17.4866 6.7001 18.7 6.7001ZM19.8 7.8001H17.6C16.995 7.8001 16.4484 8.04416 16.0497 8.43947C17.435 9.19916 18.4181 10.5707 18.6313 12.2001H20.9C21.5084 12.2001 22 11.7085 22 11.1001V10.0001C22 8.78666 21.0134 7.8001 19.8 7.8001ZM11 7.8001C13.1278 7.8001 14.85 6.07791 14.85 3.9501C14.85 1.82229 13.1278 0.100098 11 0.100098C8.87219 0.100098 7.15 1.82229 7.15 3.9501C7.15 6.07791 8.87219 7.8001 11 7.8001ZM13.64 8.9001H13.3547C12.6397 9.24385 11.8456 9.4501 11 9.4501C10.1544 9.4501 9.36375 9.24385 8.64531 8.9001H8.36C6.17375 8.9001 4.4 10.6738 4.4 12.8601V13.8501C4.4 14.761 5.13906 15.5001 6.05 15.5001H15.95C16.8609 15.5001 17.6 14.761 17.6 13.8501V12.8601C17.6 10.6738 15.8263 8.9001 13.64 8.9001ZM5.95031 8.43947C5.55156 8.04416 5.005 7.8001 4.4 7.8001H2.2C0.986563 7.8001 0 8.78666 0 10.0001V11.1001C0 11.7085 0.491562 12.2001 1.1 12.2001H3.36531C3.58188 10.5707 4.565 9.19916 5.95031 8.43947Z" fill="#9B9B9B"/>
</svg>
