<svg width="21" height="21" viewBox="0 0 21 21" fill="none" xmlns="http://www.w3.org/2000/svg">
<path d="M10.5 2.625C14.8313 2.625 18.375 6.16875 18.375 10.5C18.375 14.8313 14.8313 18.375 10.5 18.375C6.16875 18.375 2.625 14.8313 2.625 10.5C2.625 6.16875 6.16875 2.625 10.5 2.625ZM10.5 1.3125C5.44688 1.3125 1.3125 5.44688 1.3125 10.5C1.3125 15.5531 5.44688 19.6875 10.5 19.6875C15.5531 19.6875 19.6875 15.5531 19.6875 10.5C19.6875 5.44688 15.5531 1.3125 10.5 1.3125Z" fill="white"/>
<path d="M15.75 9.84375H11.1562V5.25H9.84375V9.84375H5.25V11.1562H9.84375V15.75H11.1562V11.1562H15.75V9.84375Z" fill="white"/>
</svg>
