<svg width="22" height="22" viewBox="0 0 22 22" fill="none" xmlns="http://www.w3.org/2000/svg">
<path d="M0.533228 6.36031L10.5424 10.9008C10.8346 11.0336 11.165 11.0336 11.4572 10.9008L21.4663 6.36031C22.1774 6.03762 22.1774 4.96297 21.4663 4.64027L11.4576 0.0993344C11.314 0.0337172 11.158 -0.000244141 11.0002 -0.000244141C10.8424 -0.000244141 10.6864 0.0337172 10.5428 0.0993344L0.533228 4.63984C-0.177905 4.96254 -0.177905 6.03762 0.533228 6.36031ZM21.4667 10.1536L18.9707 9.02222L12.0252 12.1705C11.7004 12.3179 11.3553 12.3927 11 12.3927C10.6446 12.3927 10.3 12.3179 9.97475 12.1705L3.02971 9.02222L0.533228 10.1536C-0.177905 10.4759 -0.177905 11.5501 0.533228 11.8723L10.5424 16.4094C10.8346 16.5418 11.165 16.5418 11.4572 16.4094L21.4667 11.8723C22.1779 11.5501 22.1779 10.4759 21.4667 10.1536ZM21.4667 15.645L18.9801 14.5179L12.0252 17.6705C11.7004 17.8179 11.3553 17.8927 11 17.8927C10.6446 17.8927 10.3 17.8179 9.97475 17.6705L3.02026 14.5179L0.533228 15.645C-0.177905 15.9673 -0.177905 17.0415 0.533228 17.3637L10.5424 21.9008C10.8346 22.0332 11.165 22.0332 11.4572 21.9008L21.4667 17.3637C22.1779 17.0415 22.1779 15.9673 21.4667 15.645Z" fill="#9B9B9B"/>
</svg>
