<svg width="118" height="118" viewBox="0 0 118 118" fill="none" xmlns="http://www.w3.org/2000/svg">
    <g opacity="0.7">
        <path d="M116.387 1.61328H1.61328V25.1275H116.387V1.61328Z" fill="#3D4353"/>
        <path d="M15.7871 8.98828H11.7539C10.2265 8.98828 8.98828 10.2265 8.98828 11.7539V14.9869C8.98828 16.5143 10.2265 17.7525 11.7539 17.7525H15.7871C17.3145 17.7525 18.5527 16.5143 18.5527 14.9869V11.7539C18.5527 10.2265 17.3145 8.98828 15.7871 8.98828Z" fill="#FFE274"/>
        <path d="M32.7321 8.98828H28.6989C27.1715 8.98828 25.9333 10.2265 25.9333 11.7539V14.9869C25.9333 16.5143 27.1715 17.7525 28.6989 17.7525H32.7321C34.2595 17.7525 35.4977 16.5143 35.4977 14.9869V11.7539C35.4977 10.2265 34.2595 8.98828 32.7321 8.98828Z" fill="#ADE6EA"/>
        <path d="M49.678 8.98828H45.6448C44.1174 8.98828 42.8792 10.2265 42.8792 11.7539V14.9869C42.8792 16.5143 44.1174 17.7525 45.6448 17.7525H49.678C51.2054 17.7525 52.4436 16.5143 52.4436 14.9869V11.7539C52.4436 10.2265 51.2054 8.98828 49.678 8.98828Z" fill="#A4D95E"/>
        <path d="M116.387 25.1275H1.61328V116.387H116.387V25.1275Z" fill="#F0F6FE"/>
        <path d="M90.3333 33H27V109H90.3333V33Z" fill="#B0C0D1"/>
        <path d="M84.2289 39.1044H33.1044V96.7863H84.2289V39.1044Z" fill="#F0F6FE"/>
        <path d="M84.2289 83.1728H33.1044V96.7869H84.2289V83.1728Z" fill="#BFE436"/>
        <path d="M33.1044 83.1728L52.8675 62.6845L75.3012 83.1728H33.1044Z" fill="#FFE274"/>
        <path d="M64.7778 73.562L74.0419 64.4017L84.2289 74.7029V83.1728H75.3012L64.7778 73.562Z" fill="#FFB62A"/>
        <path d="M63.5881 58.8693C66.3061 58.8693 68.5094 56.6659 68.5094 53.9479C68.5094 51.2299 66.3061 49.0266 63.5881 49.0266C60.87 49.0266 58.6667 51.2299 58.6667 53.9479C58.6667 56.6659 60.87 58.8693 63.5881 58.8693Z" fill="#FFE274"/>
    </g>
</svg>
