<svg width="118" height="118" viewBox="0 0 118 118" fill="none" xmlns="http://www.w3.org/2000/svg">
    <path d="M116.387 1.61328H1.61328V25.1275H116.387V1.61328Z" fill="#3D4353"/>
    <path d="M15.7871 8.98828H11.7539C10.2265 8.98828 8.98828 10.2265 8.98828 11.7539V14.9869C8.98828 16.5143 10.2265 17.7525 11.7539 17.7525H15.7871C17.3145 17.7525 18.5527 16.5143 18.5527 14.9869V11.7539C18.5527 10.2265 17.3145 8.98828 15.7871 8.98828Z" fill="#FFE274"/>
    <path d="M32.7321 8.98828H28.6989C27.1715 8.98828 25.9333 10.2265 25.9333 11.7539V14.9869C25.9333 16.5143 27.1715 17.7525 28.6989 17.7525H32.7321C34.2595 17.7525 35.4977 16.5143 35.4977 14.9869V11.7539C35.4977 10.2265 34.2595 8.98828 32.7321 8.98828Z" fill="#ADE6EA"/>
    <path d="M49.678 8.98828H45.6448C44.1174 8.98828 42.8792 10.2265 42.8792 11.7539V14.9869C42.8792 16.5143 44.1174 17.7525 45.6448 17.7525H49.678C51.2054 17.7525 52.4436 16.5143 52.4436 14.9869V11.7539C52.4436 10.2265 51.2054 8.98828 49.678 8.98828Z" fill="#A4D95E"/>
    <path d="M116.387 25.1275H1.61328V116.387H116.387V25.1275Z" fill="#F0F6FE"/>
    <path d="M110 50H22V60H110V50Z" fill="#C9DFF7"/>
    <path d="M16.9266 50H9.07336C8.48056 50 8 51.0534 8 52.3529V57.6471C8 58.9466 8.48056 60 9.07336 60H16.9266C17.5194 60 18 58.9466 18 57.6471V52.3529C18 51.0534 17.5194 50 16.9266 50Z" fill="#646D85"/>
    <path d="M110 66H22V76H110V66Z" fill="#C9DFF7"/>
    <path d="M16.9266 66H9.07336C8.48056 66 8 67.0534 8 68.3529V73.6471C8 74.9466 8.48056 76 9.07336 76H16.9266C17.5194 76 18 74.9466 18 73.6471V68.3529C18 67.0534 17.5194 66 16.9266 66Z" fill="#646D85"/>
    <path d="M110 82H22V92H110V82Z" fill="#C9DFF7"/>
    <path d="M16.9266 82H9.07336C8.48056 82 8 83.0534 8 84.3529V89.6471C8 90.9466 8.48056 92 9.07336 92H16.9266C17.5194 92 18 90.9466 18 89.6471V84.3529C18 83.0534 17.5194 82 16.9266 82Z" fill="#646D85"/>
</svg>
