<svg width="118" height="118" viewBox="0 0 118 118" fill="none" xmlns="http://www.w3.org/2000/svg">
    <g opacity="0.7">
        <path d="M116.387 1.61328H1.61328V25.1275H116.387V1.61328Z" fill="#3D4353"/>
        <path d="M15.7871 8.98828H11.7539C10.2265 8.98828 8.98828 10.2265 8.98828 11.7539V14.9869C8.98828 16.5143 10.2265 17.7525 11.7539 17.7525H15.7871C17.3145 17.7525 18.5527 16.5143 18.5527 14.9869V11.7539C18.5527 10.2265 17.3145 8.98828 15.7871 8.98828Z" fill="#FFE274"/>
        <path d="M32.7321 8.98828H28.6989C27.1715 8.98828 25.9333 10.2265 25.9333 11.7539V14.9869C25.9333 16.5143 27.1715 17.7525 28.6989 17.7525H32.7321C34.2595 17.7525 35.4977 16.5143 35.4977 14.9869V11.7539C35.4977 10.2265 34.2595 8.98828 32.7321 8.98828Z" fill="#ADE6EA"/>
        <path d="M49.678 8.98828H45.6448C44.1174 8.98828 42.8792 10.2265 42.8792 11.7539V14.9869C42.8792 16.5143 44.1174 17.7525 45.6448 17.7525H49.678C51.2054 17.7525 52.4436 16.5143 52.4436 14.9869V11.7539C52.4436 10.2265 51.2054 8.98828 49.678 8.98828Z" fill="#A4D95E"/>
        <path d="M116.387 25.1275H1.61328V116.387H116.387V25.1275Z" fill="#F0F6FE"/>
        <path d="M54.3869 32.5025H8.98828V66.1445H54.3869V32.5025Z" fill="#A4D95E"/>
        <path d="M109.012 75.3698H63.6131V109.012H109.012V75.3698Z" fill="#A4D95E"/>
        <path d="M109.012 32.5025H63.6131V39.8775H109.012V32.5025Z" fill="#ADE6EA"/>
        <path d="M109.012 50.9364H63.6094C63.1815 50.9364 62.7712 50.7664 62.4686 50.4639C62.1661 50.1613 61.9961 49.751 61.9961 49.3231C61.9961 48.8952 62.1661 48.4849 62.4686 48.1823C62.7712 47.8798 63.1815 47.7098 63.6094 47.7098H109.012C109.44 47.7098 109.85 47.8798 110.152 48.1823C110.455 48.4849 110.625 48.8952 110.625 49.3231C110.625 49.751 110.455 50.1613 110.152 50.4639C109.85 50.7664 109.44 50.9364 109.012 50.9364Z" fill="#C9DFF7"/>
        <path d="M109.012 58.3141H63.6094C63.1815 58.3141 62.7712 58.1441 62.4686 57.8416C62.1661 57.5391 61.9961 57.1287 61.9961 56.7008C61.9961 56.273 62.1661 55.8626 62.4686 55.5601C62.7712 55.2575 63.1815 55.0876 63.6094 55.0876H109.012C109.44 55.0876 109.85 55.2575 110.152 55.5601C110.455 55.8626 110.625 56.273 110.625 56.7008C110.625 57.1287 110.455 57.5391 110.152 57.8416C109.85 58.1441 109.44 58.3141 109.012 58.3141Z" fill="#C9DFF7"/>
        <path d="M109.012 65.6928H63.6094C63.1815 65.6928 62.7712 65.5228 62.4686 65.2203C62.1661 64.9177 61.9961 64.5074 61.9961 64.0795C61.9961 63.6517 62.1661 63.2413 62.4686 62.9388C62.7712 62.6362 63.1815 62.4662 63.6094 62.4662H109.012C109.44 62.4662 109.85 62.6362 110.152 62.9388C110.455 63.2413 110.625 63.6517 110.625 64.0795C110.625 64.5074 110.455 64.9177 110.152 65.2203C109.85 65.5228 109.44 65.6928 109.012 65.6928Z" fill="#C9DFF7"/>
        <path d="M54.3869 75.3698H8.98828V82.7448H54.3869V75.3698Z" fill="#ADE6EA"/>
        <path d="M54.3906 93.8045H8.98828C8.56041 93.8045 8.15007 93.6345 7.84752 93.332C7.54497 93.0294 7.375 92.6191 7.375 92.1912C7.375 91.7633 7.54497 91.353 7.84752 91.0504C8.15007 90.7479 8.56041 90.5779 8.98828 90.5779H54.3906C54.8185 90.5779 55.2288 90.7479 55.5314 91.0504C55.8339 91.353 56.0039 91.7633 56.0039 92.1912C56.0039 92.6191 55.8339 93.0294 55.5314 93.332C55.2288 93.6345 54.8185 93.8045 54.3906 93.8045Z" fill="#C9DFF7"/>
        <path d="M54.3906 101.182H8.98828C8.56041 101.182 8.15007 101.012 7.84752 100.71C7.54497 100.407 7.375 99.9968 7.375 99.569C7.375 99.1411 7.54497 98.7308 7.84752 98.4282C8.15007 98.1257 8.56041 97.9557 8.98828 97.9557H54.3906C54.8185 97.9557 55.2288 98.1257 55.5314 98.4282C55.8339 98.7308 56.0039 99.1411 56.0039 99.569C56.0039 99.9968 55.8339 100.407 55.5314 100.71C55.2288 101.012 54.8185 101.182 54.3906 101.182Z" fill="#C9DFF7"/>
        <path d="M54.3906 108.56H8.98828C8.56041 108.56 8.15007 108.39 7.84752 108.087C7.54497 107.785 7.375 107.375 7.375 106.947C7.375 106.519 7.54497 106.108 7.84752 105.806C8.15007 105.503 8.56041 105.333 8.98828 105.333H54.3906C54.8185 105.333 55.2288 105.503 55.5314 105.806C55.8339 106.108 56.0039 106.519 56.0039 106.947C56.0039 107.375 55.8339 107.785 55.5314 108.087C55.2288 108.39 54.8185 108.56 54.3906 108.56Z" fill="#C9DFF7"/>
    </g>
</svg>
