<svg width="118" height="118" viewBox="0 0 118 118" fill="none" xmlns="http://www.w3.org/2000/svg">
    <g opacity="0.7">
        <path d="M116.387 1.61328H1.61328V25.1275H116.387V1.61328Z" fill="#3D4353"/>
        <path d="M15.7871 8.98828H11.7539C10.2265 8.98828 8.98828 10.2265 8.98828 11.7539V14.9869C8.98828 16.5143 10.2265 17.7525 11.7539 17.7525H15.7871C17.3145 17.7525 18.5527 16.5143 18.5527 14.9869V11.7539C18.5527 10.2265 17.3145 8.98828 15.7871 8.98828Z" fill="#FFE274"/>
        <path d="M32.7321 8.98828H28.6989C27.1715 8.98828 25.9333 10.2265 25.9333 11.7539V14.9869C25.9333 16.5143 27.1715 17.7525 28.6989 17.7525H32.7321C34.2595 17.7525 35.4977 16.5143 35.4977 14.9869V11.7539C35.4977 10.2265 34.2595 8.98828 32.7321 8.98828Z" fill="#ADE6EA"/>
        <path d="M49.678 8.98828H45.6448C44.1174 8.98828 42.8792 10.2265 42.8792 11.7539V14.9869C42.8792 16.5143 44.1174 17.7525 45.6448 17.7525H49.678C51.2054 17.7525 52.4436 16.5143 52.4436 14.9869V11.7539C52.4436 10.2265 51.2054 8.98828 49.678 8.98828Z" fill="#A4D95E"/>
        <path d="M116.387 25.1275H1.61328V116.387H116.387V25.1275Z" fill="#F0F6FE"/>
        <path d="M91.2688 48.3487L81.1195 38.1994L27.0258 92.2931L37.1751 102.442L91.2688 48.3487Z" fill="#ACB7C5"/>
        <path d="M89.3681 46.4479L83.0196 40.0994L89.4438 33.6763C89.7571 33.3633 90.1819 33.1875 90.6247 33.1875C91.0676 33.1875 91.4923 33.3633 91.8056 33.6763L95.7918 37.6625C96.1048 37.9758 96.2806 38.4005 96.2806 38.8434C96.2806 39.2862 96.1048 39.711 95.7918 40.0243L89.3681 46.4479Z" fill="#ADE6EA"/>
        <path d="M22.9318 108.985L20.2812 109.187L20.4827 106.536C20.8917 101.159 23.2132 96.1059 27.0266 92.293L37.1751 102.442C33.362 106.255 28.3091 108.577 22.9318 108.985Z" fill="#D2DDE9"/>
        <path d="M69.9104 83.5466C69.639 83.2753 69.4236 82.9531 69.2767 82.5985C69.1298 82.2439 69.0542 81.8638 69.0542 81.48C69.0542 81.0962 69.1298 80.7161 69.2767 80.3615C69.4236 80.0069 69.639 79.6847 69.9104 79.4134L90.2991 59.0248C90.5704 58.7533 90.8926 58.538 91.2472 58.3911C91.6018 58.2441 91.9819 58.1685 92.3657 58.1685C92.7495 58.1685 93.1296 58.2441 93.4842 58.3911C93.8388 58.538 94.161 58.7533 94.4323 59.0248C94.7038 59.2961 94.9191 59.6183 95.066 59.9729C95.2129 60.3275 95.2886 60.7076 95.2886 61.0914C95.2886 61.4752 95.2129 61.8553 95.066 62.2099C94.9191 62.5645 94.7038 62.8867 94.4323 63.158L74.0437 83.5466C73.7723 83.8181 73.4502 84.0334 73.0956 84.1803C72.741 84.3273 72.3609 84.4029 71.9771 84.4029C71.5932 84.4029 71.2132 84.3273 70.8586 84.1803C70.504 84.0334 70.1818 83.8181 69.9104 83.5466Z" fill="#A4D95E"/>
        <path d="M83.2287 56.389L79.0952 60.5224L83.9482 65.3754L88.0817 61.2419L83.2287 56.389Z" fill="#BFE436"/>
    </g>
</svg>
