<svg width="139" height="22" xmlns="http://www.w3.org/2000/svg">
    <path
        d="M2.975 6.554l.21 2.215c1.964-1.764 3.887-2.646 5.77-2.646 1.983 0 3.235.841 3.756 2.523 1.843-1.682 3.706-2.523 5.59-2.523 1.301 0 2.293.359 2.974 1.077s1.022 1.754 1.022 3.108V21.63H18.72V11.446c-.02-.78-.16-1.333-.42-1.661-.261-.329-.732-.493-1.413-.493-.581 0-1.132.123-1.653.37-.5.246-1.272.728-2.314 1.446V21.63H9.406V11.446c.02-.8-.12-1.354-.421-1.661-.28-.329-.751-.493-1.412-.493-.561 0-1.102.123-1.623.37-.521.246-1.292.717-2.314 1.415V21.63H0V6.554h2.975zM34.317 15.662h-6.01c.14 1.312.5 2.194 1.082 2.646.58.43 1.532.646 2.854.646 1.503 0 3.266-.123 5.29-.37l.33 2.4C36.48 21.662 34.457 22 31.793 22c-2.665 0-4.558-.605-5.68-1.815-1.122-1.21-1.683-3.252-1.683-6.123 0-2.934.551-4.985 1.653-6.154 1.102-1.19 2.925-1.785 5.47-1.785 2.343 0 4.046.441 5.108 1.323 1.061.862 1.592 2.164 1.592 3.908 0 2.872-1.312 4.308-3.936 4.308zm-6.07-2.616h5.048c.881 0 1.322-.585 1.322-1.754 0-.82-.21-1.395-.63-1.723-.422-.328-1.183-.492-2.285-.492-1.282 0-2.173.277-2.674.83-.48.534-.741 1.58-.781 3.14zM43.327 6.554l.21 2.215c1.964-1.764 3.887-2.646 5.77-2.646 1.983 0 3.235.841 3.756 2.523 1.843-1.682 3.706-2.523 5.59-2.523 1.302 0 2.293.359 2.974 1.077.682.718 1.022 1.754 1.022 3.108V21.63h-3.576V11.446c-.02-.78-.16-1.333-.42-1.661-.26-.329-.732-.493-1.413-.493a3.82 3.82 0 0 0-1.653.37c-.5.246-1.272.728-2.313 1.446V21.63h-3.516V11.446c.02-.8-.12-1.354-.42-1.661-.281-.329-.752-.493-1.413-.493-.561 0-1.102.123-1.623.37-.52.246-1.292.717-2.314 1.415V21.63h-3.636V6.554h2.975zM69.05.092V5.17c0 1.457-.12 2.626-.36 3.508 1.562-1.703 3.365-2.554 5.408-2.554 1.863 0 3.225.615 4.087 1.846.861 1.231 1.292 3.241 1.292 6.031 0 2.626-.51 4.615-1.533 5.97C76.943 21.322 75.15 22 72.565 22c-1.141 0-2.403-.103-3.786-.308-1.382-.184-2.514-.461-3.395-.83V.091h3.666zm0 10.862v7.692a12.35 12.35 0 0 0 3.425.37c1.182-.021 2.014-.39 2.495-1.108.48-.718.73-2.02.75-3.908-.02-1.846-.22-3.097-.6-3.754-.38-.656-1.182-.984-2.404-.984a3.64 3.64 0 0 0-1.683.4c-.52.266-1.182.697-1.983 1.292zM90.927 15.662h-6.01c.14 1.312.501 2.194 1.082 2.646.581.43 1.533.646 2.855.646 1.503 0 3.266-.123 5.289-.37l.33 2.4c-1.382.677-3.405 1.016-6.07 1.016-2.664 0-4.557-.605-5.679-1.815-1.122-1.21-1.683-3.252-1.683-6.123 0-2.934.551-4.985 1.653-6.154 1.102-1.19 2.925-1.785 5.469-1.785 2.344 0 4.047.441 5.108 1.323 1.062.862 1.593 2.164 1.593 3.908 0 2.872-1.312 4.308-3.937 4.308zm-6.07-2.616h5.049c.881 0 1.322-.585 1.322-1.754 0-.82-.21-1.395-.631-1.723-.42-.328-1.182-.492-2.284-.492-1.282 0-2.173.277-2.674.83-.481.534-.741 1.58-.781 3.14zM106.94 6.123l-.391 3.508h-1.052c-1.042 0-2.664.451-4.868 1.354V21.63h-3.666V6.554h2.855l.33 2.215c2.104-1.764 4.127-2.646 6.07-2.646h.722zM113.283 14.43h-1.623c.12 1.067.18 1.837.18 2.308v4.893h-3.666V.092h3.696v9.17c0 .964-.07 1.846-.21 2.646h1.593l4.026-5.354h4.147l-4.117 5.354c-.32.513-.731.933-1.232 1.261v.062c.401.266.812.748 1.232 1.446l4.598 6.954h-4.147l-4.477-7.2zM124.106 0h1.683c.701 0 1.051.359 1.051 1.077v1.692c0 .718-.35 1.077-1.051 1.077h-1.683c-.701 0-1.052-.359-1.052-1.077V1.077c0-.718.351-1.077 1.052-1.077zm2.674 21.63h-3.636V6.555h3.636V21.63zM134.673 9.262v7.661c0 .657.13 1.118.39 1.385.261.246.722.369 1.383.369h2.013l.391 2.77c-1.062.348-2.324.522-3.787.522-1.282 0-2.273-.38-2.974-1.138-.682-.76-1.022-1.846-1.022-3.262V9.262h-2.675V6.708l2.645-.154V2.215h3.636v4.339H139v2.708h-4.327z"
        fill="#FFFFFF"></path>
</svg>
