<svg width="18" height="18" viewBox="0 0 18 18" fill="none" xmlns="http://www.w3.org/2000/svg">
    <path d="M9.00002 15C6.91669 15 5.07502 13.9333 4.00002 12.3333C4.02502 10.6666 7.33335 9.74996 9.00002 9.74996C10.6667 9.74996 13.975 10.6666 14 12.3333C13.4491 13.1536 12.7049 13.8259 11.833 14.2909C10.9611 14.756 9.98819 14.9995 9.00002 15ZM9.00002 3.16663C9.66306 3.16663 10.2989 3.43002 10.7678 3.89886C11.2366 4.3677 11.5 5.00358 11.5 5.66663C11.5 6.32967 11.2366 6.96555 10.7678 7.43439C10.2989 7.90323 9.66306 8.16663 9.00002 8.16663C8.33698 8.16663 7.70109 7.90323 7.23225 7.43439C6.76341 6.96555 6.50002 6.32967 6.50002 5.66663C6.50002 5.00358 6.76341 4.3677 7.23225 3.89886C7.70109 3.43002 8.33698 3.16663 9.00002 3.16663ZM9.00002 0.666626C7.90567 0.666626 6.82204 0.882174 5.81099 1.30096C4.79994 1.71975 3.88129 2.33358 3.10746 3.1074C1.54466 4.67021 0.666687 6.78982 0.666687 8.99996C0.666687 11.2101 1.54466 13.3297 3.10746 14.8925C3.88129 15.6663 4.79994 16.2802 5.81099 16.699C6.82204 17.1177 7.90567 17.3333 9.00002 17.3333C11.2102 17.3333 13.3298 16.4553 14.8926 14.8925C16.4554 13.3297 17.3334 11.2101 17.3334 8.99996C17.3334 4.39163 13.5834 0.666626 9.00002 0.666626Z" fill="#646D85"/>
</svg>
