<svg width="895" height="218" viewBox="0 0 895 218" fill="none" xmlns="http://www.w3.org/2000/svg">
<path d="M75.8 85.9V77.6C72.8 76.8 69.8 76.8 66.7 76.8C30.4 76.8 0.899994 106.3 0.899994 142.6C0.899994 164.5 12.2 184.9 28.9 196.3C17.6 184.2 11.5 169.1 11.5 151.7C11.6 116.2 40.3 86.7 75.8 85.9Z" fill="#25F4EE"/>
<path d="M77.4 182C93.3 182 106.9 169.1 107.6 153.3V9.60001H134.1C133.3 6.60001 133.3 3.6 133.3 0.5H97.8V144.1C97 160 84.2 172.8 67.6 172.8C62.3 172.8 57.8 171.3 54 169C58.5 176.7 67.5 182 77.4 182Z" fill="#25F4EE"/>
<path d="M182.4 58V50.4C172.6 50.4 163.5 47.4 155.2 42.1C162 50.4 171.9 55.7 182.4 58Z" fill="#25F4EE"/>
<path d="M155.2 42.1C147.6 33 143.1 21.7 143.1 9.60001H133.3C136.3 23.2 143.9 35.3 155.2 42.1Z" fill="#FE2C55"/>
<path d="M66.8 112.4C50.2 112.4 36.6 126 36.6 142.6C36.6 153.9 43.4 164.5 52.5 169.1C48.7 163.8 46.5 157.8 46.5 151.7C46.5 135.1 60.1 121.5 76.7 121.5C79.7 121.5 82.7 122.3 85.8 123V86.7C82.8 85.9 79.8 85.9 76.7 85.9C75.9 85.9 75.9 85.9 75.2 85.9V113.9C72.8 113.2 69.8 112.4 66.8 112.4Z" fill="#FE2C55"/>
<path d="M182.4 58V86C163.5 86 146.9 80 132.5 70.1V142.7C132.5 179 103 208.5 66.7 208.5C52.3 208.5 39.5 204 28.9 196.4C41 209.3 58.4 217.6 77.3 217.6C113.6 217.6 143.1 188.1 143.1 151.8V79.2C157.5 89 174.1 95.1 193 95.1V59.6C189.2 59.5 185.5 58.7 182.4 58Z" fill="#FE2C55"/>
<path d="M132.5 142.6V70C146.9 79.8 163.5 85.9 182.4 85.9V57.9C171.8 55.6 162 49.6 155.2 42C143.9 34.4 136.3 23.1 133.3 9.5H106.8V153.1C106 169 93.2 181.8 76.6 181.8C66.8 181.8 57.7 176.5 52.4 168.9C42.6 163.6 36.5 153.8 36.5 142.4C36.5 125.8 50.1 112.2 66.7 112.2C69.7 112.2 72.7 113 75.8 113.7V85.7C40.3 86.5 11.5 115.9 11.5 151.5C11.5 168.9 18.3 184.8 28.9 196.1C39.5 203.7 52.3 208.2 66.7 208.2C103.1 208.4 132.5 178.9 132.5 142.6Z" fill="white"/>
<path d="M227.8 58.7H339.7L329.1 90.5H300.4V208.4H264.1V90.5H227.8V58.7Z" fill="white"/>
<path d="M522.6 58.7H636.8L626.2 90.5H594.4V208.4H558.1V90.5H521.8L522.6 58.7Z" fill="white"/>
<path d="M346.5 106.4H382V209.2H346.5V106.4Z" fill="white"/>
<path d="M396.4 58H431.9V128.3L467.4 93.5H509.7L465.9 136.6L515.8 208.4H476.5L443.2 158.5L432.6 169.1V208.4H397.1L396.4 58Z" fill="white"/>
<path d="M775.9 58H811.4V128.3L846.9 93.5H889.2L844.6 137.3L894.5 209.1H855.2L822 159.3L811.4 169.9V209.2H775.9C775.9 209.2 775.9 58 775.9 58Z" fill="white"/>
<path d="M364.6 94.3C374.4 94.3 382.7 86 382.7 76.2C382.7 66.4 374.4 58.1 364.6 58.1C354.8 58.1 346.5 66.4 346.5 76.2C346.5 86.7 354.8 94.3 364.6 94.3Z" fill="white"/>
<path d="M632.3 147.2C632.3 114.7 657.2 88.2 689 86C687.5 86 685.2 86 683.7 86C649.7 86 622.5 113.2 622.5 147.2C622.5 181.2 649.7 208.4 683.7 208.4C685.2 208.4 687.5 208.4 689 208.4C657.2 206.1 632.3 179.7 632.3 147.2Z" fill="#25F4EE"/>
<path d="M703.3 85.9C701.8 85.9 699.5 85.9 698 85.9C729.8 88.2 754.7 114.6 754.7 147.1C754.7 179.6 729.8 206.1 698 208.3C699.5 208.3 701.8 208.3 703.3 208.3C737.3 208.3 764.5 181.1 764.5 147.1C764.5 113.1 736.6 85.9 703.3 85.9Z" fill="#FE2C55"/>
<path d="M693.5 177.4C676.9 177.4 664 163.8 664 147.9C664 131.3 677.6 118.4 693.5 118.4C709.4 118.4 723 132 723 147.9C723 163.8 710.1 177.4 693.5 177.4ZM693.5 85.9C659.5 85.9 632.3 113.1 632.3 147.1C632.3 181.1 659.5 208.3 693.5 208.3C727.5 208.3 754.7 181.1 754.7 147.1C754.7 113.1 727.5 85.9 693.5 85.9Z" fill="white"/>
</svg>
