<svg width="193" height="142" viewBox="0 0 193 142" fill="none" xmlns="http://www.w3.org/2000/svg">
<path opacity="0.8" d="M193 0H0V142H193V0Z" fill="#121212"/>
<path d="M71.3442 79.3555V70.0752H72.4233V79.3555H71.3442ZM83.6841 79.3555V74.8296C83.6841 74.2752 83.5656 73.8605 83.3286 73.5854C83.0916 73.3062 82.7235 73.1665 82.2241 73.1665C81.5682 73.1665 81.0837 73.3548 80.7705 73.7314C80.4574 74.1081 80.3008 74.6878 80.3008 75.4707V79.3555H79.2471V74.8296C79.2471 74.2752 79.1286 73.8605 78.8916 73.5854C78.6546 73.3062 78.2843 73.1665 77.7808 73.1665C77.1206 73.1665 76.6361 73.3654 76.3271 73.7632C76.0225 74.1567 75.8701 74.8042 75.8701 75.7056V79.3555H74.8164V72.3984H75.6733L75.8447 73.3506H75.8955C76.0944 73.012 76.3737 72.7476 76.7334 72.5571C77.0973 72.3667 77.5036 72.2715 77.9521 72.2715C79.0397 72.2715 79.7507 72.665 80.085 73.4521H80.1357C80.3431 73.0882 80.6436 72.8005 81.0371 72.5889C81.4307 72.3773 81.8792 72.2715 82.3828 72.2715C83.1699 72.2715 83.7581 72.4746 84.1475 72.8809C84.541 73.2829 84.7378 73.9282 84.7378 74.8169V79.3555H83.6841ZM91.1934 79.3555L90.9839 78.3652H90.9331C90.5861 78.8011 90.2391 79.0973 89.8921 79.2539C89.5493 79.4062 89.1198 79.4824 88.6035 79.4824C87.9137 79.4824 87.3721 79.3047 86.9785 78.9492C86.5892 78.5938 86.3945 78.0881 86.3945 77.4321C86.3945 76.0272 87.5181 75.2909 89.7651 75.2231L90.9458 75.1851V74.7534C90.9458 74.2075 90.8273 73.8055 90.5903 73.5474C90.3576 73.285 89.9831 73.1538 89.4668 73.1538C88.887 73.1538 88.2311 73.3315 87.499 73.687L87.1753 72.8809C87.5181 72.6947 87.8926 72.5487 88.2988 72.4429C88.7093 72.3371 89.1198 72.2842 89.5303 72.2842C90.3597 72.2842 90.9733 72.4683 91.3711 72.8364C91.7731 73.2046 91.9741 73.7949 91.9741 74.6074V79.3555H91.1934ZM88.813 78.6128C89.4689 78.6128 89.9831 78.4329 90.3555 78.0732C90.7321 77.7135 90.9204 77.21 90.9204 76.5625V75.9341L89.8667 75.9785C89.0288 76.0081 88.4237 76.1393 88.0513 76.3721C87.6831 76.6006 87.499 76.9582 87.499 77.4448C87.499 77.8257 87.6133 78.1156 87.8418 78.3145C88.0745 78.5133 88.3983 78.6128 88.813 78.6128ZM99.8452 72.3984V73.0649L98.5566 73.2173C98.6751 73.3654 98.7809 73.5601 98.874 73.8013C98.9671 74.0382 99.0137 74.307 99.0137 74.6074C99.0137 75.2887 98.7809 75.8325 98.3154 76.2388C97.8499 76.645 97.2109 76.8481 96.3984 76.8481C96.1911 76.8481 95.9964 76.8312 95.8145 76.7974C95.3659 77.0343 95.1416 77.3327 95.1416 77.6924C95.1416 77.8828 95.2199 78.0246 95.3765 78.1177C95.533 78.2065 95.8018 78.251 96.1826 78.251H97.4141C98.1673 78.251 98.745 78.4097 99.147 78.7271C99.5532 79.0444 99.7563 79.5057 99.7563 80.1108C99.7563 80.881 99.4474 81.4671 98.8296 81.8691C98.2118 82.2754 97.3104 82.4785 96.1255 82.4785C95.2157 82.4785 94.5132 82.3092 94.0181 81.9707C93.5272 81.6322 93.2817 81.154 93.2817 80.5361C93.2817 80.113 93.4172 79.7469 93.688 79.438C93.9588 79.1291 94.3397 78.9196 94.8306 78.8096C94.6528 78.7292 94.5026 78.6043 94.3799 78.4351C94.2614 78.2658 94.2021 78.069 94.2021 77.8447C94.2021 77.5908 94.2699 77.3687 94.4053 77.1782C94.5407 76.9878 94.7544 76.8037 95.0464 76.626C94.6867 76.4779 94.3926 76.2261 94.1641 75.8706C93.9398 75.5151 93.8276 75.1089 93.8276 74.6519C93.8276 73.8901 94.0562 73.304 94.5132 72.8936C94.9702 72.4788 95.6177 72.2715 96.4556 72.2715C96.8195 72.2715 97.1475 72.3138 97.4395 72.3984H99.8452ZM94.2974 80.5234C94.2974 80.9001 94.4561 81.1857 94.7734 81.3804C95.0908 81.575 95.5457 81.6724 96.1382 81.6724C97.0226 81.6724 97.6764 81.5391 98.0996 81.2725C98.527 81.0101 98.7407 80.6525 98.7407 80.1997C98.7407 79.8231 98.6243 79.5607 98.3916 79.4126C98.1589 79.2687 97.7209 79.1968 97.0776 79.1968H95.8145C95.3363 79.1968 94.9639 79.311 94.6973 79.5396C94.4307 79.7681 94.2974 80.096 94.2974 80.5234ZM94.8687 74.6265C94.8687 75.1131 95.0062 75.4813 95.2812 75.731C95.5563 75.9806 95.9393 76.1055 96.4302 76.1055C97.4585 76.1055 97.9727 75.6061 97.9727 74.6074C97.9727 73.5622 97.4521 73.0396 96.4111 73.0396C95.916 73.0396 95.5352 73.1729 95.2686 73.4395C95.002 73.7061 94.8687 74.1017 94.8687 74.6265ZM104.212 79.4824C103.184 79.4824 102.372 79.1693 101.775 78.543C101.182 77.9167 100.886 77.047 100.886 75.9341C100.886 74.8127 101.161 73.9219 101.711 73.2617C102.266 72.6016 103.008 72.2715 103.939 72.2715C104.811 72.2715 105.501 72.5592 106.009 73.1348C106.517 73.7061 106.771 74.4614 106.771 75.4009V76.0674H101.978C101.999 76.8841 102.204 77.5041 102.594 77.9272C102.987 78.3504 103.54 78.562 104.25 78.562C105 78.562 105.74 78.4054 106.472 78.0923V79.0317C106.1 79.1925 105.746 79.3068 105.412 79.3745C105.082 79.4465 104.682 79.4824 104.212 79.4824ZM103.927 73.1538C103.368 73.1538 102.922 73.3358 102.587 73.6997C102.257 74.0636 102.063 74.5672 102.003 75.2104H105.641C105.641 74.5461 105.493 74.0382 105.196 73.687C104.9 73.3315 104.477 73.1538 103.927 73.1538ZM117.441 79.3555V74.8296C117.441 74.2752 117.322 73.8605 117.085 73.5854C116.848 73.3062 116.48 73.1665 115.981 73.1665C115.325 73.1665 114.84 73.3548 114.527 73.7314C114.214 74.1081 114.058 74.6878 114.058 75.4707V79.3555H113.004V74.8296C113.004 74.2752 112.885 73.8605 112.648 73.5854C112.411 73.3062 112.041 73.1665 111.538 73.1665C110.877 73.1665 110.393 73.3654 110.084 73.7632C109.779 74.1567 109.627 74.8042 109.627 75.7056V79.3555H108.573V72.3984H109.43L109.602 73.3506H109.652C109.851 73.012 110.131 72.7476 110.49 72.5571C110.854 72.3667 111.26 72.2715 111.709 72.2715C112.797 72.2715 113.507 72.665 113.842 73.4521H113.893C114.1 73.0882 114.4 72.8005 114.794 72.5889C115.188 72.3773 115.636 72.2715 116.14 72.2715C116.927 72.2715 117.515 72.4746 117.904 72.8809C118.298 73.2829 118.495 73.9282 118.495 74.8169V79.3555H117.441ZM60.7437 93.3882C60.7437 91.5643 61.097 90.2017 61.8037 89.3003C62.5146 88.3947 63.5641 87.9419 64.9521 87.9419C65.4303 87.9419 65.807 87.9821 66.082 88.0625V88.9702C65.7562 88.8644 65.3838 88.8115 64.9648 88.8115C63.9704 88.8115 63.2108 89.1226 62.686 89.7446C62.1613 90.3625 61.8735 91.3358 61.8228 92.6646H61.8989C62.3644 91.9367 63.1007 91.5728 64.1079 91.5728C64.9416 91.5728 65.5975 91.8245 66.0757 92.3281C66.5581 92.8317 66.7993 93.5151 66.7993 94.3784C66.7993 95.3433 66.5348 96.1029 66.0059 96.6572C65.4811 97.2074 64.7702 97.4824 63.873 97.4824C62.9124 97.4824 62.1507 97.1227 61.5879 96.4033C61.0251 95.6797 60.7437 94.6746 60.7437 93.3882ZM63.8604 96.5874C64.4613 96.5874 64.9268 96.3991 65.2568 96.0225C65.5911 95.6416 65.7583 95.0936 65.7583 94.3784C65.7583 93.7648 65.6038 93.2824 65.2949 92.9312C64.986 92.5799 64.5247 92.4043 63.9111 92.4043C63.5303 92.4043 63.1812 92.4826 62.8638 92.6392C62.5464 92.7957 62.2925 93.0116 62.1021 93.2866C61.9159 93.5617 61.8228 93.8473 61.8228 94.1436C61.8228 94.5794 61.9074 94.9857 62.0767 95.3623C62.2459 95.7389 62.485 96.0373 62.7939 96.2573C63.1071 96.4774 63.4626 96.5874 63.8604 96.5874ZM74.2261 92.7026C74.2261 94.3065 73.9722 95.5041 73.4644 96.2954C72.9608 97.0868 72.1885 97.4824 71.1475 97.4824C70.1488 97.4824 69.3892 97.0783 68.8687 96.27C68.3481 95.4575 68.0879 94.2684 68.0879 92.7026C68.0879 91.0861 68.3397 89.8864 68.8433 89.1035C69.3468 88.3206 70.1149 87.9292 71.1475 87.9292C72.1546 87.9292 72.9185 88.3376 73.439 89.1543C73.9637 89.971 74.2261 91.1538 74.2261 92.7026ZM69.1543 92.7026C69.1543 94.0526 69.313 95.0365 69.6304 95.6543C69.9478 96.2679 70.4535 96.5747 71.1475 96.5747C71.8499 96.5747 72.3577 96.2637 72.6709 95.6416C72.9883 95.0153 73.147 94.0356 73.147 92.7026C73.147 91.3696 72.9883 90.3942 72.6709 89.7764C72.3577 89.1543 71.8499 88.8433 71.1475 88.8433C70.4535 88.8433 69.9478 89.1501 69.6304 89.7637C69.313 90.373 69.1543 91.3527 69.1543 92.7026ZM81.6655 92.7026C81.6655 94.3065 81.4116 95.5041 80.9038 96.2954C80.4002 97.0868 79.6279 97.4824 78.5869 97.4824C77.5882 97.4824 76.8286 97.0783 76.3081 96.27C75.7876 95.4575 75.5273 94.2684 75.5273 92.7026C75.5273 91.0861 75.7791 89.8864 76.2827 89.1035C76.7863 88.3206 77.5544 87.9292 78.5869 87.9292C79.5941 87.9292 80.3579 88.3376 80.8784 89.1543C81.4032 89.971 81.6655 91.1538 81.6655 92.7026ZM76.5938 92.7026C76.5938 94.0526 76.7524 95.0365 77.0698 95.6543C77.3872 96.2679 77.8929 96.5747 78.5869 96.5747C79.2894 96.5747 79.7972 96.2637 80.1104 95.6416C80.4277 95.0153 80.5864 94.0356 80.5864 92.7026C80.5864 91.3696 80.4277 90.3942 80.1104 89.7764C79.7972 89.1543 79.2894 88.8433 78.5869 88.8433C77.8929 88.8433 77.3872 89.1501 77.0698 89.7637C76.7524 90.373 76.5938 91.3527 76.5938 92.7026ZM88.4893 93.7944L86.0708 90.3984H87.2705L89.105 93.0645L90.9331 90.3984H92.1201L89.7017 93.7944L92.2471 97.3555H91.0537L89.105 94.5371L87.1372 97.3555H85.9438L88.4893 93.7944ZM96.6333 93.3882C96.6333 91.5643 96.9867 90.2017 97.6934 89.3003C98.4043 88.3947 99.4538 87.9419 100.842 87.9419C101.32 87.9419 101.697 87.9821 101.972 88.0625V88.9702C101.646 88.8644 101.273 88.8115 100.854 88.8115C99.86 88.8115 99.1004 89.1226 98.5757 89.7446C98.0509 90.3625 97.7632 91.3358 97.7124 92.6646H97.7886C98.2541 91.9367 98.9904 91.5728 99.9976 91.5728C100.831 91.5728 101.487 91.8245 101.965 92.3281C102.448 92.8317 102.689 93.5151 102.689 94.3784C102.689 95.3433 102.424 96.1029 101.896 96.6572C101.371 97.2074 100.66 97.4824 99.7627 97.4824C98.8021 97.4824 98.0404 97.1227 97.4775 96.4033C96.9147 95.6797 96.6333 94.6746 96.6333 93.3882ZM99.75 96.5874C100.351 96.5874 100.816 96.3991 101.146 96.0225C101.481 95.6416 101.648 95.0936 101.648 94.3784C101.648 93.7648 101.493 93.2824 101.185 92.9312C100.876 92.5799 100.414 92.4043 99.8008 92.4043C99.4199 92.4043 99.0708 92.4826 98.7534 92.6392C98.436 92.7957 98.1821 93.0116 97.9917 93.2866C97.8055 93.5617 97.7124 93.8473 97.7124 94.1436C97.7124 94.5794 97.797 94.9857 97.9663 95.3623C98.1356 95.7389 98.3747 96.0373 98.6836 96.2573C98.9967 96.4774 99.3522 96.5874 99.75 96.5874ZM110.116 92.7026C110.116 94.3065 109.862 95.5041 109.354 96.2954C108.85 97.0868 108.078 97.4824 107.037 97.4824C106.038 97.4824 105.279 97.0783 104.758 96.27C104.238 95.4575 103.978 94.2684 103.978 92.7026C103.978 91.0861 104.229 89.8864 104.733 89.1035C105.236 88.3206 106.005 87.9292 107.037 87.9292C108.044 87.9292 108.808 88.3376 109.329 89.1543C109.853 89.971 110.116 91.1538 110.116 92.7026ZM105.044 92.7026C105.044 94.0526 105.203 95.0365 105.52 95.6543C105.837 96.2679 106.343 96.5747 107.037 96.5747C107.74 96.5747 108.247 96.2637 108.561 95.6416C108.878 95.0153 109.037 94.0356 109.037 92.7026C109.037 91.3696 108.878 90.3942 108.561 89.7764C108.247 89.1543 107.74 88.8433 107.037 88.8433C106.343 88.8433 105.837 89.1501 105.52 89.7637C105.203 90.373 105.044 91.3527 105.044 92.7026ZM117.555 92.7026C117.555 94.3065 117.301 95.5041 116.793 96.2954C116.29 97.0868 115.518 97.4824 114.477 97.4824C113.478 97.4824 112.718 97.0783 112.198 96.27C111.677 95.4575 111.417 94.2684 111.417 92.7026C111.417 91.0861 111.669 89.8864 112.172 89.1035C112.676 88.3206 113.444 87.9292 114.477 87.9292C115.484 87.9292 116.248 88.3376 116.768 89.1543C117.293 89.971 117.555 91.1538 117.555 92.7026ZM112.483 92.7026C112.483 94.0526 112.642 95.0365 112.959 95.6543C113.277 96.2679 113.783 96.5747 114.477 96.5747C115.179 96.5747 115.687 96.2637 116 95.6416C116.317 95.0153 116.476 94.0356 116.476 92.7026C116.476 91.3696 116.317 90.3942 116 89.7764C115.687 89.1543 115.179 88.8433 114.477 88.8433C113.783 88.8433 113.277 89.1501 112.959 89.7637C112.642 90.373 112.483 91.3527 112.483 92.7026ZM122.563 97.4824C122.111 97.4824 121.696 97.3999 121.319 97.2349C120.947 97.0656 120.634 96.8075 120.38 96.4604H120.304C120.354 96.8667 120.38 97.2518 120.38 97.6157V100.479H119.326V90.3984H120.183L120.329 91.3506H120.38C120.651 90.9697 120.966 90.6947 121.326 90.5254C121.685 90.3561 122.098 90.2715 122.563 90.2715C123.486 90.2715 124.197 90.5868 124.696 91.2173C125.2 91.8478 125.452 92.7323 125.452 93.8706C125.452 95.0132 125.196 95.9019 124.684 96.5366C124.176 97.1672 123.469 97.4824 122.563 97.4824ZM122.411 91.1665C121.7 91.1665 121.186 91.3633 120.869 91.7568C120.551 92.1504 120.388 92.7767 120.38 93.6357V93.8706C120.38 94.8481 120.543 95.5485 120.869 95.9717C121.194 96.3906 121.717 96.6001 122.437 96.6001C123.037 96.6001 123.507 96.3568 123.846 95.8701C124.188 95.3835 124.36 94.7127 124.36 93.8579C124.36 92.9904 124.188 92.326 123.846 91.8647C123.507 91.3993 123.029 91.1665 122.411 91.1665ZM128.975 93.7944L126.556 90.3984H127.756L129.59 93.0645L131.418 90.3984H132.605L130.187 93.7944L132.732 97.3555H131.539L129.59 94.5371L127.623 97.3555H126.429L128.975 93.7944Z" fill="#717171"/>
<path d="M104.295 43H92.5493C91.4376 43 90.5332 43.9044 90.5332 45.0162V56.7616C90.5332 57.8733 91.4376 58.7778 92.5493 58.7778H104.295C105.407 58.7778 106.311 57.8733 106.311 56.7616V45.0162C106.311 43.9044 105.407 43 104.295 43ZM105.382 56.7616C105.382 57.3609 104.894 57.8484 104.295 57.8484H92.5493C91.9501 57.8484 91.4625 57.3609 91.4625 56.7616V55.0665L94.5212 52.4641C94.6328 52.3691 94.7956 52.3682 94.9083 52.4618L96.8242 54.0528C97.009 54.2061 97.2801 54.1936 97.4499 54.0236L102.002 49.4643C102.085 49.3818 102.181 49.3738 102.231 49.3764C102.281 49.3789 102.375 49.3967 102.449 49.4872L105.382 53.0985V56.7616ZM105.382 51.6243L103.17 48.9012C102.951 48.6312 102.626 48.466 102.278 48.4482C101.931 48.4306 101.59 48.5614 101.345 48.8076L97.0918 53.067L95.502 51.7469C95.0411 51.3641 94.3753 51.368 93.9189 51.7564L91.4625 53.8464V45.0162C91.4625 44.4169 91.9501 43.9293 92.5493 43.9293H104.295C104.894 43.9293 105.382 44.4169 105.382 45.0162V51.6243Z" fill="#9B9B9B"/>
<path d="M95.5 44.9414C94.2644 44.9414 93.2593 45.9466 93.2593 47.1821C93.2593 48.4177 94.2645 49.4228 95.5 49.4228C96.7355 49.4228 97.7407 48.4177 97.7407 47.1821C97.7407 45.9466 96.7356 44.9414 95.5 44.9414ZM95.5 48.4935C94.7769 48.4935 94.1886 47.9052 94.1886 47.1821C94.1886 46.459 94.7769 45.8707 95.5 45.8707C96.2231 45.8707 96.8114 46.459 96.8114 47.1821C96.8114 47.9052 96.2231 48.4935 95.5 48.4935Z" fill="#9B9B9B"/>
</svg>
