<svg width="193" height="142" viewBox="0 0 193 142" fill="none" xmlns="http://www.w3.org/2000/svg">
<path opacity="0.8" d="M193 0H0V142H193V0Z" fill="#121212"/>
<path d="M107.911 55H84.089C81.8343 55 80 56.8343 80 59.0892V82.9108C80 85.1655 81.8343 87 84.089 87H107.911C110.167 87 112 85.1655 112 82.9108V59.0892C112 56.8343 110.167 55 107.911 55ZM110.116 82.9108C110.116 84.1263 109.126 85.115 107.911 85.115H84.089C82.8737 85.115 81.8848 84.1263 81.8848 82.9108V79.4729L88.0883 74.1948C88.3147 74.0021 88.6449 74.0003 88.8734 74.1901L92.7592 77.4169C93.134 77.7278 93.6838 77.7025 94.0282 77.3577L103.261 68.1107C103.429 67.9434 103.624 67.9271 103.725 67.9324C103.826 67.9375 104.017 67.9736 104.167 68.1571L110.116 75.4814V82.9108ZM110.116 72.4915L105.63 66.9686C105.185 66.421 104.526 66.086 103.82 66.0499C103.117 66.0142 102.425 66.2794 101.928 66.7788L93.3019 75.4176L90.0775 72.7402C89.1428 71.9638 87.7924 71.9717 86.8668 72.7594L81.8848 76.9983V59.0892C81.8848 57.8737 82.8737 56.8848 84.089 56.8848H107.911C109.126 56.8848 110.116 57.8737 110.116 59.0892V72.4915Z" fill="#9B9B9B"/>
<path d="M90.0735 58.9375C87.5675 58.9375 85.529 60.9762 85.529 63.482C85.529 65.988 87.5677 68.0265 90.0735 68.0265C92.5793 68.0265 94.618 65.988 94.618 63.482C94.618 60.9762 92.5795 58.9375 90.0735 58.9375ZM90.0735 66.1418C88.6069 66.1418 87.4138 64.9486 87.4138 63.482C87.4138 62.0154 88.6069 60.8223 90.0735 60.8223C91.5401 60.8223 92.7332 62.0154 92.7332 63.482C92.7332 64.9486 91.5401 66.1418 90.0735 66.1418Z" fill="#9B9B9B"/>
</svg>
