<svg width="271" height="203" viewBox="0 0 271 203" fill="none" xmlns="http://www.w3.org/2000/svg">
<g style="mix-blend-mode:multiply">
<path d="M224.546 184.348H39.6972C39.6348 184.341 39.5772 184.311 39.5356 184.263C39.4937 184.218 39.4707 184.157 39.4707 184.094C39.4707 184.031 39.4937 183.971 39.5356 183.925C39.5772 183.878 39.6348 183.847 39.6972 183.84H224.546C224.609 183.847 224.666 183.878 224.708 183.925C224.749 183.971 224.773 184.031 224.773 184.094C224.773 184.157 224.749 184.218 224.708 184.263C224.666 184.311 224.609 184.341 224.546 184.348Z" fill="#9B9B9B"/>
<path d="M212.653 55.5967H68.2445C67.3091 55.5967 66.5508 56.3542 66.5508 57.2883V157.105C66.5508 158.039 67.3091 158.797 68.2445 158.797H212.653C213.588 158.797 214.347 158.039 214.347 157.105V57.2883C214.347 56.3542 213.588 55.5967 212.653 55.5967Z" fill="white"/>
<path d="M212.794 158.953H68.1018C67.6491 158.952 67.2152 158.772 66.895 158.453C66.5749 158.133 66.395 157.7 66.3945 157.247V57.1481C66.395 56.6961 66.5749 56.2625 66.895 55.9429C67.2152 55.6232 67.6491 55.4434 68.1018 55.4429H212.794C213.246 55.4434 213.68 55.6232 214 55.9429C214.32 56.2625 214.501 56.6961 214.501 57.1481V157.247C214.501 157.7 214.32 158.133 214 158.453C213.68 158.772 213.246 158.952 212.794 158.953ZM68.1018 55.7609C67.7314 55.7614 67.3762 55.9086 67.1142 56.1703C66.8524 56.4318 66.705 56.7866 66.7045 57.1565V157.247C66.705 157.617 66.8524 157.972 67.1142 158.234C67.3762 158.495 67.7314 158.643 68.1018 158.643H212.794C213.165 158.643 213.519 158.495 213.781 158.234C214.044 157.972 214.191 157.617 214.191 157.247V57.1481C214.191 56.7781 214.044 56.4234 213.781 56.1618C213.519 55.9001 213.165 55.753 212.794 55.7524L68.1018 55.7609Z" fill="#4A5365"/>
<g opacity="0.5">
<path opacity="0.5" d="M212.794 158.953H68.1018C67.6491 158.952 67.2152 158.772 66.895 158.453C66.5749 158.133 66.395 157.7 66.3945 157.247V57.1481C66.395 56.6961 66.5749 56.2625 66.895 55.9429C67.2152 55.6232 67.6491 55.4434 68.1018 55.4429H212.794C213.246 55.4434 213.68 55.6232 214 55.9429C214.32 56.2625 214.501 56.6961 214.501 57.1481V157.247C214.501 157.7 214.32 158.133 214 158.453C213.68 158.772 213.246 158.952 212.794 158.953ZM68.1018 55.7609C67.7314 55.7614 67.3762 55.9086 67.1142 56.1703C66.8524 56.4318 66.705 56.7866 66.7045 57.1565V157.247C66.705 157.617 66.8524 157.972 67.1142 158.234C67.3762 158.495 67.7314 158.643 68.1018 158.643H212.794C213.165 158.643 213.519 158.495 213.781 158.234C214.044 157.972 214.191 157.617 214.191 157.247V57.1481C214.191 56.7781 214.044 56.4234 213.781 56.1618C213.519 55.9001 213.165 55.753 212.794 55.7524L68.1018 55.7609Z" fill="white"/>
</g>
<path d="M68.2445 55.5239H212.653C213.102 55.5239 213.534 55.7021 213.851 56.0194C214.169 56.3366 214.347 56.767 214.347 57.2156V63.6642H66.5508V57.2156C66.5508 56.767 66.7291 56.3366 67.0469 56.0194C67.3645 55.7021 67.7953 55.5239 68.2445 55.5239Z" fill="#4A5365"/>
<path d="M169.79 68.6274H71.9844V137.008H169.79V68.6274Z" fill="#4A5365"/>
<path opacity="0.7" d="M169.79 68.6274H71.9844V137.008H169.79V68.6274Z" fill="white"/>
<path d="M209.379 68.1978H172.74V149.8H209.379V68.1978Z" fill="white"/>
<path d="M183.919 71.8823H175.069V78.084H183.919V71.8823Z" fill="#4A5365"/>
<path opacity="0.4" d="M183.919 71.8823H175.069V78.084H183.919V71.8823Z" fill="white"/>
<path d="M207.049 72.3477H185.314V72.9837H207.049V72.3477Z" fill="#9B9B9B"/>
<path d="M202.393 74.271H185.314V74.907H202.393V74.271Z" fill="#9B9B9B"/>
<path d="M196.492 76.3804H185.314V77.6204H196.492V76.3804Z" fill="#4A5365"/>
<path opacity="0.6" d="M196.492 76.3804H185.314V77.6204H196.492V76.3804Z" fill="white"/>
<path d="M180.458 74.985L178.574 73.8989V76.0693L180.458 74.985Z" fill="white"/>
<path d="M183.919 81.4961H175.069V87.6977H183.919V81.4961Z" fill="#4A5365"/>
<path opacity="0.4" d="M183.919 81.4961H175.069V87.6977H183.919V81.4961Z" fill="white"/>
<path d="M207.049 81.9614H185.314V82.5975H207.049V81.9614Z" fill="#9B9B9B"/>
<path d="M202.393 83.8848H185.314V84.5208H202.393V83.8848Z" fill="#9B9B9B"/>
<path d="M196.492 85.9927H185.314V87.2327H196.492V85.9927Z" fill="#4A5365"/>
<path opacity="0.6" d="M196.492 85.9927H185.314V87.2327H196.492V85.9927Z" fill="white"/>
<path d="M180.458 84.597L178.574 83.5127V85.6831L180.458 84.597Z" fill="white"/>
<path d="M183.919 91.1099H175.069V97.3115H183.919V91.1099Z" fill="#4A5365"/>
<path opacity="0.4" d="M183.919 91.1099H175.069V97.3115H183.919V91.1099Z" fill="white"/>
<path d="M207.049 91.5752H185.314V92.2113H207.049V91.5752Z" fill="#9B9B9B"/>
<path d="M202.393 93.4985H185.314V94.1346H202.393V93.4985Z" fill="#9B9B9B"/>
<path d="M196.492 95.6064H185.314V96.8464H196.492V95.6064Z" fill="#4A5365"/>
<path opacity="0.6" d="M196.492 95.6064H185.314V96.8464H196.492V95.6064Z" fill="white"/>
<path d="M180.458 94.2108L178.574 93.1265V95.2969L180.458 94.2108Z" fill="white"/>
<path d="M183.919 100.724H175.069V106.925H183.919V100.724Z" fill="#4A5365"/>
<path opacity="0.4" d="M183.919 100.724H175.069V106.925H183.919V100.724Z" fill="white"/>
<path d="M207.049 101.189H185.314V101.825H207.049V101.189Z" fill="#9B9B9B"/>
<path d="M202.393 103.112H185.314V103.748H202.393V103.112Z" fill="#9B9B9B"/>
<path d="M196.492 105.22H185.314V106.46H196.492V105.22Z" fill="#4A5365"/>
<path opacity="0.6" d="M196.492 105.22H185.314V106.46H196.492V105.22Z" fill="white"/>
<path d="M180.458 103.825L178.574 102.74V104.911L180.458 103.825Z" fill="white"/>
<path d="M183.919 110.337H175.069V116.539H183.919V110.337Z" fill="#4A5365"/>
<path opacity="0.4" d="M183.919 110.337H175.069V116.539H183.919V110.337Z" fill="white"/>
<path d="M207.049 110.802H185.314V111.438H207.049V110.802Z" fill="#9B9B9B"/>
<path d="M202.393 112.726H185.314V113.362H202.393V112.726Z" fill="#9B9B9B"/>
<path d="M196.492 114.833H185.314V116.074H196.492V114.833Z" fill="#4A5365"/>
<path opacity="0.6" d="M196.492 114.833H185.314V116.074H196.492V114.833Z" fill="white"/>
<path d="M180.458 113.438L178.574 112.352V114.524L180.458 113.438Z" fill="white"/>
<path d="M183.919 119.951H175.069V126.153H183.919V119.951Z" fill="#4A5365"/>
<path opacity="0.4" d="M183.919 119.951H175.069V126.153H183.919V119.951Z" fill="white"/>
<path d="M207.049 120.416H185.314V121.052H207.049V120.416Z" fill="#9B9B9B"/>
<path d="M202.393 122.338H185.314V122.974H202.393V122.338Z" fill="#9B9B9B"/>
<path d="M196.492 124.447H185.314V125.687H196.492V124.447Z" fill="#4A5365"/>
<path opacity="0.6" d="M196.492 124.447H185.314V125.687H196.492V124.447Z" fill="white"/>
<path d="M180.458 123.052L178.574 121.966V124.138L180.458 123.052Z" fill="white"/>
<path d="M183.919 129.565H175.069V135.767H183.919V129.565Z" fill="#4A5365"/>
<path opacity="0.4" d="M183.919 129.565H175.069V135.767H183.919V129.565Z" fill="white"/>
<path d="M207.049 130.03H185.314V130.666H207.049V130.03Z" fill="#9B9B9B"/>
<path d="M202.393 131.952H185.314V132.588H202.393V131.952Z" fill="#9B9B9B"/>
<path d="M196.492 134.061H185.314V135.301H196.492V134.061Z" fill="#4A5365"/>
<path opacity="0.6" d="M196.492 134.061H185.314V135.301H196.492V134.061Z" fill="white"/>
<path d="M180.458 132.666L178.574 131.58V133.75L180.458 132.666Z" fill="white"/>
<path d="M183.919 139.179H175.069V145.381H183.919V139.179Z" fill="#4A5365"/>
<path opacity="0.4" d="M183.919 139.179H175.069V145.381H183.919V139.179Z" fill="white"/>
<path d="M207.049 139.644H185.314V140.28H207.049V139.644Z" fill="#9B9B9B"/>
<path d="M202.393 141.565H185.314V142.202H202.393V141.565Z" fill="#9B9B9B"/>
<path d="M196.492 143.675H185.314V144.915H196.492V143.675Z" fill="#4A5365"/>
<path opacity="0.6" d="M196.492 143.675H185.314V144.915H196.492V143.675Z" fill="white"/>
<path d="M180.458 142.279L178.574 141.193V143.364L180.458 142.279Z" fill="white"/>
<path d="M161.64 140.65H71.9844V141.813H161.64V140.65Z" fill="#9B9B9B"/>
<path d="M128.357 142.976H71.9844V144.138H128.357V142.976Z" fill="#9B9B9B"/>
<path d="M149.321 150.991H148.325C148.305 150.992 148.285 150.988 148.267 150.981C148.249 150.973 148.233 150.961 148.22 150.947C148.207 150.932 148.197 150.914 148.191 150.896C148.186 150.877 148.184 150.857 148.187 150.837V150.797C148.19 150.775 148.194 150.754 148.199 150.732L148.291 150.156C148.297 150.112 148.297 150.067 148.291 150.024C148.291 150.007 148.291 149.985 148.291 149.959C148.283 149.912 148.264 149.868 148.235 149.831L148.182 149.77C148.165 149.75 148.143 149.735 148.118 149.726H148.072C148.039 149.724 148.006 149.73 147.977 149.745C147.947 149.76 147.921 149.782 147.903 149.809L146.929 150.878C146.877 150.931 146.848 151.002 146.848 151.076V153.307C146.848 153.382 146.877 153.454 146.93 153.507C146.983 153.56 147.055 153.59 147.131 153.59H148.755C148.81 153.589 148.863 153.573 148.909 153.543C148.955 153.513 148.992 153.471 149.014 153.42L149.612 152.067C149.638 152.006 149.657 151.943 149.669 151.878C149.682 151.801 149.687 151.724 149.685 151.646V151.308C149.685 151.26 149.671 151.212 149.644 151.172C149.611 151.116 149.563 151.07 149.507 151.038C149.45 151.006 149.386 150.99 149.321 150.991Z" fill="#4A5365"/>
<path d="M146.401 151.184H145.822C145.789 151.184 145.763 151.211 145.763 151.243V153.529C145.763 153.561 145.789 153.588 145.822 153.588H146.401C146.434 153.588 146.46 153.561 146.46 153.529V151.243C146.46 151.211 146.434 151.184 146.401 151.184Z" fill="#4A5365"/>
<path d="M154.978 152.355H155.976C155.995 152.354 156.015 152.358 156.033 152.366C156.051 152.374 156.067 152.386 156.08 152.4C156.093 152.415 156.103 152.432 156.108 152.451C156.114 152.47 156.116 152.489 156.113 152.509V152.55C156.11 152.571 156.106 152.593 156.099 152.614L156.008 153.191C156.002 153.234 156.002 153.279 156.008 153.323C156.008 153.34 156.008 153.361 156.016 153.387C156.023 153.434 156.042 153.478 156.072 153.515L156.125 153.576C156.142 153.597 156.164 153.612 156.189 153.62H156.233C156.266 153.622 156.299 153.616 156.329 153.601C156.358 153.587 156.384 153.565 156.403 153.537L157.378 152.468C157.429 152.415 157.458 152.344 157.459 152.27V150.041C157.459 149.966 157.429 149.894 157.376 149.841C157.322 149.788 157.25 149.758 157.175 149.758H155.537C155.482 149.758 155.428 149.775 155.382 149.804C155.336 149.835 155.3 149.877 155.278 149.927L154.682 151.281C154.655 151.341 154.635 151.405 154.622 151.47C154.61 151.547 154.604 151.626 154.607 151.704V152.042C154.607 152.09 154.621 152.137 154.648 152.177C154.683 152.233 154.731 152.279 154.789 152.31C154.847 152.341 154.912 152.357 154.978 152.355Z" fill="#9B9B9B"/>
<path d="M158.481 149.758H157.902C157.869 149.758 157.843 149.785 157.843 149.818V152.103C157.843 152.136 157.869 152.162 157.902 152.162H158.481C158.514 152.162 158.541 152.136 158.541 152.103V149.818C158.541 149.785 158.514 149.758 158.481 149.758Z" fill="#9B9B9B"/>
<path d="M165.603 151.939C165.536 151.939 165.471 151.919 165.415 151.882C165.359 151.845 165.316 151.792 165.29 151.73C165.265 151.668 165.258 151.6 165.271 151.535C165.284 151.469 165.317 151.409 165.364 151.361C165.411 151.314 165.472 151.282 165.537 151.269C165.603 151.256 165.671 151.262 165.733 151.288C165.795 151.314 165.848 151.357 165.885 151.413C165.922 151.468 165.942 151.534 165.942 151.601C165.942 151.69 165.907 151.776 165.843 151.84C165.779 151.903 165.693 151.939 165.603 151.939Z" fill="#9B9B9B"/>
<path d="M164.384 151.939C164.317 151.939 164.251 151.919 164.195 151.882C164.14 151.845 164.096 151.792 164.071 151.73C164.045 151.668 164.038 151.6 164.051 151.535C164.064 151.469 164.097 151.409 164.144 151.361C164.191 151.314 164.252 151.282 164.317 151.269C164.383 151.256 164.451 151.262 164.513 151.288C164.575 151.314 164.628 151.357 164.665 151.413C164.702 151.468 164.722 151.534 164.722 151.601C164.722 151.69 164.687 151.776 164.623 151.84C164.56 151.903 164.473 151.939 164.384 151.939Z" fill="#9B9B9B"/>
<path d="M163.166 151.94C163.357 151.94 163.511 151.786 163.511 151.595C163.511 151.404 163.357 151.25 163.166 151.25C162.975 151.25 162.82 151.404 162.82 151.595C162.82 151.786 162.975 151.94 163.166 151.94Z" fill="#9B9B9B"/>
<path d="M75.7514 155.473C77.8525 155.473 79.5556 153.771 79.5556 151.673C79.5556 149.575 77.8525 147.874 75.7514 147.874C73.6505 147.874 71.9473 149.575 71.9473 151.673C71.9473 153.771 73.6505 155.473 75.7514 155.473Z" fill="#4A5365"/>
<path d="M77.7092 153.424C77.7092 152.177 76.8335 151.166 75.7512 151.166C74.6689 151.166 73.7949 152.181 73.7949 153.424C74.3784 153.799 75.0579 153.999 75.752 153.999C76.4463 153.999 77.1257 153.799 77.7092 153.424Z" fill="#DADDDF"/>
<path d="M75.7512 151.47C76.3385 151.47 76.8148 150.994 76.8148 150.408C76.8148 149.821 76.3385 149.345 75.7512 149.345C75.1638 149.345 74.6875 149.821 74.6875 150.408C74.6875 150.994 75.1638 151.47 75.7512 151.47Z" fill="white"/>
<path d="M112.426 149.163H81.209V149.734H112.426V149.163Z" fill="#9B9B9B"/>
<path d="M101.196 151.719H81.1777V152.291H101.196V151.719Z" fill="#9B9B9B"/>
<path d="M125.361 107.285C127.974 104.675 128.09 100.558 125.618 98.0899C123.147 95.6218 119.025 95.7368 116.412 98.347C113.799 100.957 113.683 105.074 116.155 107.542C118.626 110.01 122.747 109.895 125.361 107.285Z" fill="white"/>
<path d="M124.606 102.816L118.597 99.3516V106.282L124.606 102.816Z" fill="#4A5365"/>
<path d="M71.6998 60.9086C72.4266 60.9086 73.0159 60.3201 73.0159 59.5942C73.0159 58.8683 72.4266 58.2798 71.6998 58.2798C70.9731 58.2798 70.3838 58.8683 70.3838 59.5942C70.3838 60.3201 70.9731 60.9086 71.6998 60.9086Z" fill="white"/>
<path d="M75.8805 60.9086C76.6074 60.9086 77.1965 60.3201 77.1965 59.5942C77.1965 58.8683 76.6074 58.2798 75.8805 58.2798C75.1537 58.2798 74.5645 58.8683 74.5645 59.5942C74.5645 60.3201 75.1537 60.9086 75.8805 60.9086Z" fill="white"/>
<path d="M80.0602 60.9086C80.787 60.9086 81.3762 60.3201 81.3762 59.5942C81.3762 58.8683 80.787 58.2798 80.0602 58.2798C79.3334 58.2798 78.7441 58.8683 78.7441 59.5942C78.7441 60.3201 79.3334 60.9086 80.0602 60.9086Z" fill="white"/>
<path d="M165.273 133.364H165.113V134.159H165.273V133.364Z" fill="white"/>
<path d="M165.9 133.364H165.122V133.523H165.9V133.364Z" fill="white"/>
<path d="M167.229 133.369H166.433V133.528H167.229V133.369Z" fill="white"/>
<path d="M167.228 133.378H167.068V134.154H167.228V133.378Z" fill="white"/>
<path d="M167.228 134.614H167.068V135.409H167.228V134.614Z" fill="white"/>
<path d="M167.221 135.249H166.443V135.408H167.221V135.249Z" fill="white"/>
<path d="M165.909 135.244H165.113V135.403H165.909V135.244Z" fill="white"/>
<path d="M165.273 134.62H165.113V135.396H165.273V134.62Z" fill="white"/>
<path d="M167.763 131.187H74.166C74.0322 131.187 73.9238 131.295 73.9238 131.429V131.451C73.9238 131.585 74.0322 131.693 74.166 131.693H167.763C167.896 131.693 168.005 131.585 168.005 131.451V131.429C168.005 131.295 167.896 131.187 167.763 131.187Z" fill="white"/>
<path d="M124.824 131.187H74.166C74.0322 131.187 73.9238 131.295 73.9238 131.429V131.451C73.9238 131.585 74.0322 131.693 74.166 131.693H124.824C124.958 131.693 125.067 131.585 125.067 131.451V131.429C125.067 131.295 124.958 131.187 124.824 131.187Z" fill="#4A5365"/>
<path opacity="0.1" d="M124.824 131.187H74.166C74.0322 131.187 73.9238 131.295 73.9238 131.429V131.451C73.9238 131.585 74.0322 131.693 74.166 131.693H124.824C124.958 131.693 125.067 131.585 125.067 131.451V131.429C125.067 131.295 124.958 131.187 124.824 131.187Z" fill="#1C1D1F"/>
<path d="M159.177 134.432V134.584H158.602V134.432H159.177Z" fill="white"/>
<path d="M159.89 134.432V134.584H159.312V134.432H159.89Z" fill="white"/>
<path d="M159.963 135.232L160.615 133.54H160.774L160.119 135.232H159.963Z" fill="white"/>
<path d="M161.414 134.432V134.584H160.837V134.432H161.414Z" fill="white"/>
<path d="M162.131 134.432V134.584H161.555V134.432H162.131Z" fill="white"/>
<path d="M80.6075 134.386L78.8867 133.393V135.379L80.6075 134.386Z" fill="white"/>
<path d="M84.1974 134.401L82.4766 133.408V135.393L84.1974 134.401Z" fill="white"/>
<path d="M84.4826 133.351H84.3438V135.421H84.4826V133.351Z" fill="white"/>
<path d="M75.2939 134.401L77.0165 133.408V135.393L75.2939 134.401Z" fill="white"/>
<path d="M75.1506 133.351H75.0117V135.421H75.1506V133.351Z" fill="white"/>
<path d="M217.686 57.1782L217.209 49.3475L211.037 54.1992L210.561 46.3685L204.387 51.2219L203.911 43.3911L197.739 48.2428L197.261 40.4121L193.489 55.3512L215.198 65.0749L223.858 52.3248L217.686 57.1782Z" fill="#4A5365"/>
<path opacity="0.5" d="M217.686 57.1782L217.209 49.3475L211.037 54.1992L210.561 46.3685L204.387 51.2219L203.911 43.3911L197.739 48.2428L197.261 40.4121L193.489 55.3512L215.198 65.0749L223.858 52.3248L217.686 57.1782Z" fill="white"/>
<path opacity="0.15" d="M210.56 46.3687L211.036 54.1994L217.208 49.3477L217.686 57.1784L223.858 52.325L215.198 65.0751L204.454 60.2995L210.56 46.3687Z" fill="#1C1D1F"/>
<path d="M202.784 42.8853C202.684 43.1078 202.652 43.3551 202.693 43.5957C202.734 43.8362 202.844 44.0595 203.011 44.2371C203.179 44.4148 203.396 44.5388 203.635 44.5934C203.872 44.6481 204.121 44.631 204.349 44.5444C204.578 44.4576 204.775 44.3051 204.917 44.1064C205.059 43.9076 205.137 43.6713 205.145 43.4275C205.152 43.1836 205.086 42.943 204.957 42.7363C204.827 42.5296 204.639 42.366 204.415 42.2662C204.268 42.1999 204.109 42.1632 203.946 42.1582C203.785 42.1535 203.623 42.1806 203.472 42.2381C203.32 42.2956 203.182 42.3824 203.064 42.4934C202.945 42.6045 202.85 42.7376 202.784 42.8853Z" fill="#4A5365"/>
<path d="M209.434 45.8647C209.334 46.0873 209.302 46.3345 209.342 46.575C209.383 46.8156 209.495 47.0385 209.662 47.216C209.83 47.3935 210.047 47.5171 210.284 47.5716C210.523 47.6261 210.772 47.6086 211.001 47.5218C211.227 47.4349 211.426 47.2825 211.566 47.0835C211.709 46.8846 211.788 46.6483 211.795 46.4045C211.802 46.1606 211.736 45.9202 211.605 45.7136C211.476 45.5071 211.288 45.3435 211.065 45.2439C210.918 45.1775 210.757 45.1408 210.596 45.1363C210.433 45.1315 210.272 45.1588 210.12 45.2165C209.969 45.2741 209.83 45.3611 209.712 45.4722C209.595 45.5835 209.5 45.7168 209.434 45.8647Z" fill="#4A5365"/>
<path d="M216.084 48.8434C215.984 49.0657 215.953 49.3123 215.994 49.5524C216.035 49.7924 216.146 50.0149 216.314 50.1918C216.482 50.3688 216.697 50.4923 216.934 50.5464C217.173 50.6007 217.42 50.5835 217.649 50.4967C217.876 50.4099 218.074 50.2578 218.214 50.0594C218.355 49.8608 218.435 49.6251 218.441 49.3817C218.45 49.1383 218.384 48.8984 218.255 48.692C218.125 48.4856 217.937 48.3224 217.715 48.2226C217.567 48.1559 217.408 48.1192 217.246 48.1143C217.083 48.1096 216.922 48.1368 216.77 48.1945C216.619 48.2522 216.48 48.3391 216.362 48.4504C216.245 48.5619 216.15 48.6954 216.084 48.8434Z" fill="#4A5365"/>
<path d="M222.728 51.8208C222.628 52.0435 222.596 52.2906 222.638 52.531C222.679 52.7714 222.789 52.9943 222.957 53.1716C223.124 53.3489 223.341 53.4726 223.58 53.527C223.817 53.5815 224.066 53.5643 224.295 53.4775C224.522 53.3907 224.72 53.2384 224.861 53.0397C225.003 52.8409 225.082 52.6047 225.089 52.361C225.096 52.1172 225.032 51.8768 224.901 51.6703C224.772 51.4636 224.584 51.3 224.361 51.2C224.063 51.0664 223.722 51.0567 223.416 51.1731C223.109 51.2895 222.862 51.5224 222.728 51.8208Z" fill="#4A5365"/>
<path d="M196.136 39.9082C196.036 40.1309 196.004 40.378 196.047 40.6186C196.087 40.8591 196.197 41.0821 196.365 41.2596C196.533 41.4368 196.749 41.5607 196.988 41.6151C197.225 41.6694 197.474 41.6522 197.703 41.5654C197.932 41.4785 198.128 41.3259 198.27 41.1271C198.411 40.9282 198.491 40.6918 198.497 40.4481C198.504 40.2041 198.438 39.9637 198.309 39.7572C198.179 39.5505 197.991 39.387 197.767 39.2874C197.469 39.1538 197.129 39.1441 196.824 39.2605C196.517 39.3771 196.27 39.61 196.136 39.9082Z" fill="#4A5365"/>
<path opacity="0.1" d="M211.065 45.2437C211.363 45.3783 211.597 45.626 211.712 45.932C211.829 46.2382 211.819 46.5777 211.683 46.8761C211.55 47.1745 211.301 47.4071 210.994 47.523C210.687 47.6387 210.347 47.6282 210.049 47.4936L211.065 45.2437Z" fill="#1C1D1F"/>
<path opacity="0.1" d="M216.084 48.8434C215.984 49.0657 215.953 49.3123 215.994 49.5524C216.035 49.7924 216.146 50.0149 216.314 50.1918C216.482 50.3688 216.697 50.4923 216.934 50.5464C217.173 50.6007 217.42 50.5835 217.649 50.4967C217.876 50.4099 218.074 50.2578 218.214 50.0594C218.355 49.8608 218.435 49.6251 218.441 49.3817C218.45 49.1383 218.384 48.8984 218.255 48.692C218.125 48.4856 217.937 48.3224 217.715 48.2226C217.567 48.1559 217.408 48.1192 217.246 48.1143C217.083 48.1096 216.922 48.1368 216.77 48.1945C216.619 48.2522 216.48 48.3391 216.362 48.4504C216.245 48.5619 216.15 48.6954 216.084 48.8434Z" fill="#1C1D1F"/>
<path opacity="0.1" d="M222.728 51.8208C222.628 52.0435 222.596 52.2906 222.638 52.531C222.679 52.7714 222.789 52.9943 222.957 53.1716C223.124 53.3489 223.341 53.4726 223.58 53.527C223.817 53.5815 224.066 53.5643 224.295 53.4775C224.522 53.3907 224.72 53.2384 224.861 53.0397C225.003 52.8409 225.082 52.6047 225.089 52.361C225.096 52.1172 225.032 51.8768 224.901 51.6703C224.772 51.4636 224.584 51.3 224.361 51.2C224.063 51.0664 223.722 51.0567 223.416 51.1731C223.109 51.2895 222.862 51.5224 222.728 51.8208Z" fill="#1C1D1F"/>
<path d="M194.092 52.9155L193.081 55.166L215.586 65.2437L216.595 62.9933L194.092 52.9155Z" fill="#9B9B9B"/>
<path d="M194.092 52.9155L193.081 55.166L215.586 65.2437L216.595 62.9933L194.092 52.9155Z" fill="#4A5365"/>
<path opacity="0.1" d="M194.092 52.9155L193.081 55.166L215.586 65.2437L216.595 62.9933L194.092 52.9155Z" fill="#1C1D1F"/>
<path opacity="0.2" d="M205.389 57.9736L204.378 60.2242L215.585 65.2434L216.597 62.9928L205.389 57.9736Z" fill="#1C1D1F"/>
<path d="M208.691 54.3431L206.047 56.4204L205.842 53.0659L208.486 50.9868L208.691 54.3431Z" fill="#4A5365"/>
<g opacity="0.1">
<path opacity="0.1" d="M206.047 56.4204L208.691 54.3431L208.486 50.9868L206.047 56.4204Z" fill="#1C1D1F"/>
</g>
<path d="M184.479 178.533H163.74V181.162H184.479V178.533Z" fill="#4A5365"/>
<path opacity="0.2" d="M167.642 178.533H163.697V181.162H167.642V178.533Z" fill="#1C1D1F"/>
<path opacity="0.2" d="M182.01 178.533H179.117V181.162H182.01V178.533Z" fill="white"/>
<path d="M184.479 173.276H163.74V175.905H184.479V173.276Z" fill="#4A5365"/>
<path opacity="0.2" d="M167.642 173.276H163.697V175.905H167.642V173.276Z" fill="#1C1D1F"/>
<path opacity="0.2" d="M182.01 173.276H179.117V175.905H182.01V173.276Z" fill="white"/>
<path d="M184.479 165.389H163.74V168.018H184.479V165.389Z" fill="#4A5365"/>
<path opacity="0.2" d="M167.642 165.389H163.697V168.018H167.642V165.389Z" fill="#1C1D1F"/>
<path opacity="0.2" d="M182.01 165.389H179.117V168.018H182.01V165.389Z" fill="white"/>
<path d="M186.946 181.162H166.208V183.791H186.946V181.162Z" fill="#4A5365"/>
<path opacity="0.2" d="M170.258 181.017H166.313V183.645H170.258V181.017Z" fill="#1C1D1F"/>
<path opacity="0.2" d="M184.478 181.162H181.585V183.791H184.478V181.162Z" fill="white"/>
<path d="M186.946 170.647H166.208V173.276H186.946V170.647Z" fill="#4A5365"/>
<path opacity="0.2" d="M170.258 170.647H166.313V173.276H170.258V170.647Z" fill="#1C1D1F"/>
<path opacity="0.2" d="M184.478 170.647H181.585V173.276H184.478V170.647Z" fill="white"/>
<path d="M186.946 168.018H166.208V170.647H186.946V168.018Z" fill="#4A5365"/>
<path opacity="0.2" d="M170.258 168.018H166.313V170.647H170.258V168.018Z" fill="#1C1D1F"/>
<path opacity="0.2" d="M184.478 168.018H181.585V170.647H184.478V168.018Z" fill="white"/>
<path d="M186.946 175.905H166.208V178.534H186.946V175.905Z" fill="#4A5365"/>
<path opacity="0.2" d="M170.258 175.905H166.313V178.534H170.258V175.905Z" fill="#1C1D1F"/>
<path opacity="0.2" d="M184.478 175.905H181.585V178.534H184.478V175.905Z" fill="white"/>
<g opacity="0.3">
<path opacity="0.3" d="M184.478 181.08H166.208V181.245H184.478V181.08Z" fill="#1C1D1F"/>
</g>
<g opacity="0.3">
<path opacity="0.3" d="M184.478 178.451H166.208V178.616H184.478V178.451Z" fill="#1C1D1F"/>
</g>
<g opacity="0.3">
<path opacity="0.3" d="M184.478 175.822H166.208V175.988H184.478V175.822Z" fill="#1C1D1F"/>
</g>
<g opacity="0.3">
<path opacity="0.3" d="M184.478 173.193H166.208V173.359H184.478V173.193Z" fill="#1C1D1F"/>
</g>
<g opacity="0.3">
<path opacity="0.3" d="M186.946 170.564H166.208V170.73H186.946V170.564Z" fill="#1C1D1F"/>
</g>
<g opacity="0.3">
<path opacity="0.3" d="M186.946 167.935H166.208V168.101H186.946V167.935Z" fill="#1C1D1F"/>
</g>
<path d="M163.807 183.339C168.627 181.687 171.191 176.442 169.536 171.63C167.88 166.815 162.631 164.254 157.811 165.907C152.991 167.561 150.426 172.804 152.082 177.618C153.738 182.431 158.988 184.994 163.807 183.339Z" fill="#4A5365"/>
<path opacity="0.2" d="M163.807 183.339C168.627 181.687 171.191 176.442 169.536 171.63C167.88 166.815 162.631 164.254 157.811 165.907C152.991 167.561 150.426 172.804 152.082 177.618C153.738 182.431 158.988 184.994 163.807 183.339Z" fill="#1C1D1F"/>
<path d="M160.344 184.977C165.44 184.62 169.282 180.205 168.925 175.115C168.569 170.024 164.148 166.188 159.052 166.544C153.956 166.9 150.114 171.315 150.47 176.405C150.827 181.496 155.247 185.332 160.344 184.977Z" fill="#4A5365"/>
<path opacity="0.2" d="M160.344 184.977C165.44 184.62 169.282 180.205 168.925 175.115C168.569 170.024 164.148 166.188 159.052 166.544C153.956 166.9 150.114 171.315 150.47 176.405C150.827 181.496 155.247 185.332 160.344 184.977Z" fill="white"/>
<path d="M163.818 180.892C167.344 178.826 168.526 174.296 166.459 170.774C164.39 167.252 159.856 166.072 156.329 168.137C152.803 170.202 151.621 174.732 153.689 178.254C155.757 181.776 160.292 182.957 163.818 180.892Z" fill="#4A5365"/>
<path opacity="0.2" d="M153.056 174.21C153.22 172.256 154.155 170.447 155.654 169.182C157.154 167.917 159.095 167.298 161.051 167.462C162.575 167.59 164.099 168.324 165.217 169.214C164.518 168.54 163.693 168.009 162.789 167.653C161.885 167.297 160.92 167.123 159.948 167.139C158.977 167.156 158.017 167.364 157.126 167.75C156.235 168.137 155.429 168.695 154.753 169.393C154.078 170.092 153.547 170.916 153.19 171.819C152.834 172.721 152.659 173.685 152.676 174.656C152.693 175.627 152.9 176.585 153.288 177.474C153.675 178.364 154.234 179.169 154.933 179.844C154.253 179.026 153.757 178.072 153.478 177.046C153.232 176.199 152.978 175.142 153.056 174.21Z" fill="#1C1D1F"/>
<path d="M159.194 179.587L159.282 178.53C158.096 178.376 157.527 177.917 157.648 176.48C157.672 176.17 157.721 175.864 157.793 175.563L159.302 175.69C159.272 175.827 159.251 175.967 159.24 176.107C159.187 176.732 159.197 177.089 159.809 177.139C160.42 177.19 160.486 176.97 160.561 176.177C160.593 175.784 160.605 175.647 160.403 175.439C159.99 174.981 158.901 174.603 158.403 174.179C157.954 173.813 157.885 173.343 157.991 172.081C158.113 170.628 158.589 170.176 159.98 170.22L160.051 169.375L160.898 169.446L160.827 170.291C162.101 170.461 162.51 170.938 162.402 172.227C162.38 172.504 162.339 172.78 162.278 173.051L160.784 172.925C160.81 172.773 160.827 172.619 160.837 172.465C160.884 171.895 160.827 171.604 160.256 171.555C159.767 171.514 159.617 171.667 159.56 172.345C159.501 173.051 159.536 173.122 159.982 173.36C160.464 173.632 160.94 173.824 161.359 174.064C161.945 174.414 162.341 174.583 162.224 175.98C162.055 177.948 161.635 178.596 160.131 178.579L160.041 179.65L159.194 179.587Z" fill="white"/>
<path d="M65.6401 120.071C65.4098 120.046 65.1794 120.022 64.9491 119.99C64.1225 119.868 61.5616 119.762 58.4637 122.287C54.7849 125.293 54.419 134.74 52.9793 136.178C51.5397 137.615 48.0675 137.003 47.7643 144.443C47.4611 151.883 49.1447 152.506 47.1325 155.826C45.1203 159.147 47.9794 162.473 47.9794 162.473C47.9794 162.473 46.8056 160.639 47.3019 159.316C47.3019 159.316 47.7897 162.236 49.6477 162.921C51.5058 163.606 51.7802 164.105 52.0783 165.112C52.0783 165.112 67.9267 157 67.9436 151.24C67.9606 145.48 71.0635 139.788 69.5392 137.296C69.5392 137.296 70.2167 138.361 70.3014 139.547C70.3014 139.547 71.216 137.8 69.6238 136.164C68.0317 134.528 71.487 131.167 70.9789 127.264C70.6537 124.694 69.2563 120.475 65.6401 120.071Z" fill="#1C1D1F"/>
<path d="M67.2656 138.833L70.9529 139.261C71.913 139.373 72.8269 139.734 73.6037 140.309L79.3624 144.578L75.167 149.963L72.0522 147.933L67.2656 138.833Z" fill="#4A5365"/>
<path opacity="0.2" d="M76.6578 148.06L71.1006 144.458L72.0592 148.048L75.174 149.963L76.6578 148.06Z" fill="#1C1D1F"/>
<path d="M94.2275 153.076L94.1072 150.947L87.3983 150.321L79.0989 144.937L75.459 149.609L84.5189 155.464C84.8451 155.683 85.2248 155.809 85.6174 155.828C86.0099 155.847 86.4001 155.759 86.7462 155.572L94.2275 153.076Z" fill="#BE7878"/>
<path d="M58.8786 138.593L54.2496 138.931C53.2928 139.002 52.4031 139.448 51.7734 140.171C51.1438 140.894 50.8254 141.836 50.8875 142.792C51.0925 145.98 51.7768 151.302 53.8448 158.82C53.9261 159.12 54.0142 159.417 54.1124 159.713C54.2818 160.27 54.6358 161.743 54.1497 163.687C54.0328 164.161 53.9109 164.631 53.8109 165.106C53.3215 167.27 52.3018 173.226 52.1172 175.747L68.7718 175.388L73.5059 151.991C73.5059 151.991 74.1054 150.315 73.2569 148.18C72.7318 146.857 71.4666 145.459 71.2328 144.057L71.4022 139.364L65.2912 138.519L58.8786 138.593Z" fill="#4A5365"/>
<path opacity="0.2" d="M60.7103 142.827L72.2989 151.16L73.6911 150.861L73.6522 151.279L72.2972 151.639L62.9494 145.888L58.2764 141.817H58.2933C59.1697 141.952 59.9994 142.298 60.7103 142.827Z" fill="#1C1D1F"/>
<path d="M60.0773 130.353L58.9053 138.586L59.5201 138.964C61.8507 140.331 65.2348 140.72 65.9411 138.656L65.4652 133.026L60.0773 130.353Z" fill="#BE7878"/>
<path opacity="0.15" d="M65.6535 134.995C64.976 135.298 65.0556 135.43 64.3205 135.372L63.8123 135.322C63.7498 135.319 63.6882 135.306 63.6294 135.284H63.5939C63.5024 135.257 63.4109 135.247 63.3025 135.215C63.267 135.215 63.2297 135.19 63.1941 135.186C62.696 135.052 62.227 134.827 61.8103 134.523C61.7991 134.512 61.7851 134.505 61.7697 134.501C61.7541 134.498 61.738 134.498 61.7223 134.501C61.7065 134.504 61.6911 134.509 61.6765 134.516C61.6633 134.525 61.6518 134.536 61.6426 134.548C61.6228 134.575 61.6133 134.607 61.6155 134.64C61.6201 134.672 61.6364 134.702 61.6613 134.723C62.1999 135.121 62.8181 135.398 63.4736 135.535C64.0434 136.069 64.7715 136.404 65.5484 136.489C65.8567 136.523 65.3486 136.513 65.6569 136.467L65.6535 134.995Z" fill="#1C1D1F"/>
<path fill-rule="evenodd" clip-rule="evenodd" d="M68.5201 131.245C68.5356 131.176 68.6048 131.132 68.6747 131.147C68.852 131.186 69.0166 131.269 69.154 131.388L69.1541 131.388C69.2911 131.506 69.3971 131.656 69.4619 131.826C69.5287 131.996 69.5537 132.181 69.5342 132.363L69.534 132.365L69.534 132.365C69.512 132.547 69.4468 132.722 69.3439 132.874C69.2444 133.026 69.1091 133.152 68.9496 133.239M68.5201 131.245C68.5046 131.315 68.5486 131.384 68.6185 131.4L68.5201 131.245ZM68.6185 131.4C68.7538 131.43 68.8795 131.493 68.9846 131.584L68.6185 131.4ZM68.9846 131.584C69.0896 131.674 69.1706 131.789 69.22 131.918L69.22 131.918L69.2204 131.92C69.2722 132.052 69.2915 132.194 69.2766 132.335C69.2594 132.476 69.2086 132.612 69.1286 132.73L69.1286 132.73L69.1275 132.732C69.051 132.849 68.9471 132.945 68.8247 133.012L68.8246 133.013C68.6424 133.113 68.429 133.14 68.2271 133.09C68.0254 133.039 67.8505 132.914 67.7374 132.739C67.6985 132.679 67.6183 132.662 67.5582 132.701C67.4981 132.74 67.481 132.82 67.5198 132.88C67.6686 133.109 67.8985 133.274 68.1639 133.341C68.4292 133.407 68.7099 133.371 68.9495 133.239" fill="white"/>
<path d="M67.3627 134.252C66.9655 134.619 66.4992 134.904 65.9909 135.09C65.4828 135.275 64.9427 135.358 64.402 135.333L64.0887 135.321C63.5506 135.291 63.024 135.153 62.5406 134.915C62.0543 134.676 61.6212 134.341 61.2669 133.931C60.9087 133.517 60.6343 133.037 60.459 132.518C60.2843 131.995 60.2113 131.443 60.2439 130.893L60.5826 124.999C60.5941 124.815 60.6402 124.635 60.7181 124.468C60.7979 124.303 60.9083 124.154 61.0433 124.03C61.1775 123.907 61.3346 123.813 61.5057 123.752C61.6749 123.692 61.8546 123.666 62.0342 123.676L67.4118 123.965C67.6456 123.98 67.874 124.041 68.0837 124.145C68.2934 124.249 68.4802 124.394 68.633 124.571C68.9462 124.935 69.1047 125.406 69.0751 125.885L68.7482 131.358C68.6769 132.465 68.1804 133.502 67.3627 134.252Z" fill="#BE7878"/>
<path d="M92.9496 176.013L93.6406 177.808C93.7202 177.999 94.0183 178.675 94.0844 178.872C94.1386 179.041 94.3825 179.169 94.5468 179.234L100.983 181.871C101.554 182.076 102.044 182.456 102.384 182.959C102.678 183.402 102.787 183.877 102.045 184.009L90.5563 183.903C90.3427 183.901 90.1319 183.855 89.9369 183.767C89.742 183.681 89.5673 183.554 89.424 183.395C89.2807 183.238 89.172 183.052 89.1044 182.849C89.037 182.646 89.0123 182.433 89.0319 182.219C89.0949 181.671 89.213 181.132 89.3842 180.607C89.5013 180.235 89.5314 179.841 89.4723 179.455L89.3436 178.227L92.9496 176.013Z" fill="#BE7878"/>
<path opacity="0.15" d="M89.2911 177.566L89.4893 179.455C89.5484 179.841 89.5183 180.235 89.4012 180.608C89.2248 181.145 89.1055 181.7 89.0455 182.264C89.0293 182.473 89.0569 182.683 89.1262 182.883C89.1956 183.081 89.3052 183.262 89.4485 183.416C89.5916 183.57 89.7652 183.693 89.9581 183.778C90.1512 183.861 90.3594 183.903 90.5699 183.903L102.052 184.009C102.153 184.011 102.251 183.977 102.331 183.916C102.411 183.856 102.467 183.769 102.492 183.671L91.3626 183.182C90.1363 183.172 90.1431 181.951 90.3074 181.074C90.4478 180.289 90.482 179.489 90.409 178.696L90.2532 176.921" fill="#1C1D1F"/>
<path d="M99.3808 181.152L100.98 181.866C101.554 182.072 102.048 182.455 102.391 182.959C102.685 183.402 102.794 183.877 102.052 184.009L90.5631 183.903C90.3506 183.904 90.14 183.86 89.9452 183.774C89.7506 183.689 89.5758 183.564 89.4322 183.409C89.2887 183.251 89.1795 183.067 89.1117 182.866C89.044 182.664 89.0191 182.451 89.0387 182.24C89.0995 181.685 89.2183 181.138 89.3927 180.607C89.4593 180.392 89.4969 180.171 89.5045 179.946C98.9031 183.028 99.3808 181.152 99.3808 181.152Z" fill="#4A5365"/>
<path opacity="0.3" d="M102.587 183.686C102.528 183.837 102.369 183.954 102.057 184.009L90.5683 183.903C90.3234 183.903 90.0821 183.845 89.8644 183.734C89.6468 183.62 89.4596 183.458 89.3184 183.258L102.587 183.686Z" fill="#1C1D1F"/>
<path opacity="0.15" d="M91.4717 177.73C91.5653 178.136 91.7537 178.513 92.0211 178.833C92.2887 179.153 92.628 179.403 93.0113 179.567L98.0163 181.7C98.0163 181.7 100.338 183.115 99.6203 183.952H93.157L90.2217 178.288L91.4717 177.73Z" fill="#1C1D1F"/>
<path d="M65.0606 129.436C65.0672 129.349 65.0477 129.262 65.0049 129.185C64.962 129.109 64.8975 129.047 64.8196 129.007C64.7415 128.967 64.6534 128.951 64.5663 128.961C64.4791 128.971 64.397 129.006 64.3297 129.062C64.2626 129.119 64.2137 129.193 64.189 129.278C64.1642 129.362 64.1649 129.451 64.1908 129.535C64.2167 129.618 64.2669 129.692 64.3348 129.748C64.4027 129.803 64.4856 129.837 64.5728 129.846C64.6917 129.856 64.8097 129.818 64.901 129.741C64.9925 129.665 65.0498 129.555 65.0606 129.436Z" fill="#1C1D1F"/>
<path d="M64.9151 129.473C64.9166 129.456 64.9129 129.437 64.9042 129.422C64.8954 129.406 64.8824 129.393 64.8663 129.384C64.8504 129.376 64.8323 129.373 64.8143 129.375C64.7963 129.377 64.7794 129.384 64.7655 129.395C64.7516 129.407 64.7415 129.422 64.7362 129.439C64.7311 129.457 64.7311 129.475 64.7364 129.492C64.7418 129.51 64.7521 129.525 64.766 129.536C64.7801 129.548 64.797 129.555 64.8151 129.556C64.8392 129.558 64.8633 129.551 64.8819 129.535C64.9005 129.52 64.9124 129.498 64.9151 129.473Z" fill="white"/>
<path d="M68.4991 129.781C68.5055 129.694 68.4862 129.606 68.4433 129.53C68.4005 129.454 68.3359 129.392 68.2579 129.352C68.18 129.312 68.0919 129.296 68.0047 129.306C67.9176 129.315 67.8353 129.351 67.7682 129.407C67.7011 129.463 67.6522 129.538 67.6274 129.622C67.6027 129.706 67.6034 129.796 67.6293 129.879C67.6552 129.963 67.7054 130.037 67.7733 130.093C67.8412 130.148 67.9239 130.182 68.0113 130.19C68.1302 130.2 68.2482 130.163 68.3395 130.086C68.431 130.009 68.4882 129.9 68.4991 129.781Z" fill="#1C1D1F"/>
<path d="M68.3547 129.798C68.3573 129.786 68.3569 129.773 68.3542 129.761C68.3514 129.748 68.3461 129.736 68.3385 129.726C68.3309 129.716 68.3214 129.708 68.3102 129.701C68.2992 129.695 68.287 129.691 68.2743 129.69C68.2618 129.689 68.2489 129.69 68.2369 129.694C68.2248 129.698 68.2137 129.704 68.2042 129.713C68.1947 129.721 68.1871 129.731 68.1818 129.743C68.1766 129.754 68.1737 129.767 68.1735 129.78C68.1711 129.792 68.1713 129.805 68.1742 129.817C68.1769 129.83 68.1823 129.841 68.1899 129.852C68.1974 129.862 68.2071 129.87 68.2181 129.876C68.2291 129.883 68.2413 129.887 68.254 129.888C68.2667 129.889 68.2794 129.888 68.2914 129.884C68.3036 129.88 68.3148 129.874 68.3243 129.865C68.3337 129.857 68.3414 129.846 68.3466 129.835C68.3519 129.823 68.3546 129.811 68.3547 129.798Z" fill="white"/>
<path opacity="0.15" d="M60.0553 130.385L60.6786 130.448L59.8555 131.657L60.0553 130.385Z" fill="#1C1D1F"/>
<g opacity="0.15">
<path opacity="0.15" d="M66.6491 131.339C66.627 131.407 66.5899 131.469 66.5407 131.52C66.4944 131.573 66.4363 131.613 66.3713 131.639C66.3069 131.665 66.2375 131.677 66.168 131.672H65.5735C65.5552 131.678 65.5359 131.678 65.5176 131.672C65.4997 131.668 65.4829 131.66 65.4685 131.649C65.4544 131.636 65.4429 131.622 65.4346 131.605C65.4258 131.588 65.4211 131.568 65.4211 131.549C65.4201 131.53 65.4236 131.512 65.4312 131.495C65.4377 131.477 65.4482 131.461 65.4617 131.447C65.4753 131.434 65.4922 131.424 65.5108 131.419C65.5286 131.414 65.5473 131.414 65.565 131.419H66.1596C66.1944 131.419 66.229 131.412 66.2612 131.398C66.294 131.384 66.3239 131.363 66.3493 131.338C66.3743 131.312 66.394 131.281 66.4068 131.248C66.4204 131.214 66.4273 131.178 66.4272 131.141C66.4241 131.069 66.3947 130.999 66.3442 130.947C66.2967 130.893 66.2307 130.86 66.1596 130.854C66.1306 130.847 66.1047 130.832 66.085 130.81C66.0654 130.786 66.054 130.757 66.0528 130.727C66.0505 130.697 66.0586 130.666 66.0759 130.641C66.0932 130.617 66.1186 130.598 66.1477 130.59C66.2175 130.592 66.2861 130.608 66.3496 130.637C66.4129 130.666 66.4699 130.708 66.5169 130.759C66.6159 130.862 66.6706 131 66.6694 131.143C66.676 131.209 66.669 131.276 66.6491 131.339Z" fill="#1C1D1F"/>
</g>
<path opacity="0.2" d="M51.1006 145.201C51.4529 148.383 52.2083 152.84 53.7818 158.602C53.8885 158.989 54.0054 159.373 54.1205 159.756C54.3001 160.338 54.6287 161.786 54.1459 163.694C54.0291 164.168 53.9071 164.638 53.8072 165.113C53.3177 167.277 52.2981 173.233 52.1134 175.754L59.9386 175.206L59.3779 164.599C56.7696 166.044 56.7018 165.315 56.5697 164.653C56.4935 164.281 56.6662 163.934 56.8102 163.584C57.4403 162.048 56.9491 160.877 56.6408 159.751C56.0616 157.596 52.9146 149.641 52.5216 147.447L51.1006 145.201Z" fill="#1C1D1F"/>
<path d="M63.6026 127.406C62.9353 128.061 62.1697 128.59 61.3415 128.736C58.6315 129.228 57.5322 128.435 57.5322 128.435C57.5322 128.435 59.6884 126.603 60.3134 123.81C60.3134 123.81 62.7439 121.161 66.0721 123.302C66.5125 122.978 67.6304 122.769 68.523 124.025C69.8627 125.904 69.0311 128.837 69.0311 128.837C68.4247 128.865 67.3746 127.861 67.1307 126.836C66.9512 126.082 66.2449 125.275 65.8824 124.901L63.6026 127.406Z" fill="#1C1D1F"/>
<path d="M61.874 183.833C61.874 183.833 68.583 184.551 71.7147 182.627C72.36 182.23 72.9291 181.722 73.2272 181.027L77.404 167.061L86.5503 173.565L89.3162 178.689L93.747 176.779L83.2204 153.164L70.7408 155.349L61.874 183.833Z" fill="#222429"/>
<path opacity="0.3" d="M61.874 183.833C61.874 183.833 68.3442 184.551 71.7147 182.627C72.3802 182.274 72.9114 181.71 73.2272 181.027L77.404 167.061L86.5503 173.565L89.3162 178.689L93.747 176.779L83.2204 153.164L70.7408 155.349L61.874 183.833Z" fill="#1C1D1F"/>
<path d="M89.3536 176.013L90.0464 177.808C90.126 177.999 90.4241 178.675 90.4884 178.872C90.5426 179.041 90.7865 179.169 90.9525 179.234L97.3888 181.871C97.9599 182.076 98.4509 182.456 98.7912 182.959C99.0842 183.402 99.1943 183.877 98.4525 184.009L86.9637 183.903C86.7502 183.901 86.5391 183.855 86.344 183.769C86.149 183.681 85.9743 183.554 85.831 183.395C85.6875 183.238 85.5788 183.052 85.5113 182.849C85.4439 182.646 85.4194 182.433 85.4394 182.219C85.5017 181.671 85.6197 181.132 85.7917 180.607C85.908 180.235 85.938 179.841 85.8797 179.455L85.751 178.227L89.3536 176.013Z" fill="#BE7878"/>
<path opacity="0.15" d="M85.7042 177.566L85.9023 179.455C85.9606 179.841 85.9305 180.235 85.8143 180.608C85.6369 181.145 85.5177 181.7 85.4586 182.264C85.4425 182.473 85.4699 182.683 85.5392 182.883C85.6086 183.081 85.7184 183.262 85.8615 183.416C86.0046 183.57 86.1782 183.693 86.3713 183.778C86.5643 183.861 86.7726 183.903 86.9829 183.903L98.4649 184.009C98.5657 184.011 98.6639 183.977 98.7439 183.916C98.8236 183.856 98.8805 183.769 98.9053 183.671L87.7756 183.182C86.5477 183.172 86.5561 181.951 86.7187 181.074C86.8608 180.289 86.8951 179.489 86.8204 178.696L86.6662 176.921" fill="#1C1D1F"/>
<path d="M95.7843 181.152L97.3849 181.866C97.9587 182.072 98.4525 182.455 98.7958 182.959C99.0888 183.402 99.1989 183.877 98.457 184.009L86.9684 183.903C86.7558 183.904 86.5455 183.86 86.3507 183.774C86.1559 183.689 85.9811 183.564 85.8376 183.409C85.694 183.251 85.5849 183.067 85.517 182.866C85.4493 182.664 85.4244 182.451 85.444 182.24C85.505 181.685 85.6236 181.138 85.798 180.607C85.8641 180.392 85.9012 180.171 85.9081 179.946C95.3084 183.028 95.7843 181.152 95.7843 181.152Z" fill="#4A5365"/>
<path opacity="0.3" d="M98.9915 183.686C98.9322 183.837 98.7747 183.954 98.463 184.009L86.9743 183.903C86.7293 183.905 86.4876 183.845 86.2696 183.734C86.0518 183.622 85.8641 183.458 85.7227 183.258L98.9915 183.686Z" fill="#1C1D1F"/>
<path d="M51.3288 146.612L59.4165 151.22L63.2511 145.475L57.1993 141.107L50.9697 143.381L51.3288 146.612Z" fill="#4A5365"/>
<path d="M67.8639 131.305C67.627 131.299 67.3939 131.245 67.1781 131.147C66.9623 131.049 66.7682 130.909 66.6072 130.735C66.2769 130.38 66.0989 129.909 66.1109 129.424C66.118 129.144 66.1874 128.868 66.3141 128.617C66.1586 128.575 65.9964 128.563 65.8365 128.584C65.8668 128.723 65.8832 128.865 65.8856 129.008V129.044C65.8719 129.529 65.6717 129.99 65.3267 130.331C65.1585 130.498 64.9588 130.629 64.7393 130.718C64.5196 130.806 64.2847 130.85 64.0479 130.847C63.9259 130.851 63.8042 130.839 63.6854 130.812C63.3457 130.734 63.0367 130.557 62.7979 130.304C62.5547 130.051 62.3899 129.733 62.3237 129.389C62.2944 129.253 62.2813 129.114 62.2847 128.974C62.2928 128.685 62.3663 128.401 62.4998 128.144C62.6334 127.888 62.8255 127.667 63.0604 127.499C63.3672 127.274 63.7396 127.155 64.1207 127.161C64.2435 127.161 64.3662 127.173 64.4866 127.198C64.5479 127.212 64.6084 127.229 64.6678 127.251C64.8941 127.329 65.1021 127.453 65.2793 127.614C65.4319 127.753 65.5597 127.918 65.657 128.1C65.9674 128.034 66.2903 128.062 66.5851 128.179C66.8006 127.945 67.0729 127.77 67.3761 127.672C67.5575 127.615 67.7465 127.585 67.9368 127.584C68.4213 127.608 68.8773 127.821 69.2074 128.176C69.5377 128.531 69.7162 129.001 69.705 129.485C69.6944 129.877 69.5611 130.256 69.3239 130.568C69.0919 130.877 68.7665 131.105 68.3958 131.216C68.2552 131.26 68.1093 131.285 67.9622 131.29L67.8639 131.305ZM67.449 127.922C67.1614 128.014 66.9059 128.185 66.7122 128.416L66.6715 128.465H66.6935L66.6122 128.595C66.4249 128.896 66.3416 129.249 66.3749 129.601C66.4083 129.953 66.5565 130.284 66.7969 130.544C66.9342 130.692 67.0997 130.812 67.2838 130.895C67.4679 130.979 67.6668 131.025 67.869 131.031C68.0199 131.033 68.1703 131.011 68.3145 130.965C68.6336 130.87 68.9137 130.675 69.1139 130.409C69.3182 130.139 69.433 129.813 69.4425 129.475C69.4496 129.206 69.3885 128.939 69.2647 128.7C69.1 128.377 68.8282 128.12 68.4957 127.975C68.317 127.893 68.1244 127.847 67.9283 127.838H67.8758C67.7299 127.85 67.5865 127.881 67.449 127.931V127.922ZM65.513 128.401L65.4656 128.303C65.379 128.114 65.255 127.945 65.1014 127.805C64.9495 127.666 64.7708 127.56 64.5763 127.492C64.5281 127.475 64.4788 127.461 64.429 127.45C64.3248 127.428 64.2186 127.418 64.1123 127.418C63.7872 127.409 63.4685 127.507 63.2061 127.699C63.0035 127.843 62.8375 128.033 62.7217 128.254C62.6069 128.478 62.5444 128.724 62.5388 128.976C62.5354 129.095 62.5467 129.215 62.5726 129.331C62.6295 129.628 62.7706 129.902 62.9791 130.121C63.1849 130.336 63.4493 130.486 63.7396 130.553C63.8391 130.575 63.9408 130.585 64.0428 130.581C64.2462 130.585 64.4483 130.547 64.6372 130.472C64.8258 130.396 64.9976 130.283 65.1421 130.14C65.4405 129.845 65.6139 129.446 65.6265 129.027V129.005C65.6241 128.837 65.599 128.67 65.5519 128.509L65.5181 128.399L65.513 128.401Z" fill="white"/>
<path d="M59.8368 152.715C59.7421 152.715 59.6492 152.687 59.5705 152.635C59.4917 152.582 59.4302 152.507 59.394 152.42C59.3576 152.332 59.3481 152.236 59.3667 152.143C59.3852 152.05 59.4308 151.965 59.4978 151.898C59.5649 151.831 59.6503 151.785 59.7433 151.767C59.8362 151.749 59.9326 151.758 60.0202 151.794C60.1078 151.83 60.1826 151.892 60.2353 151.971C60.288 152.049 60.3161 152.142 60.3161 152.237C60.3161 152.363 60.2656 152.485 60.1757 152.575C60.0859 152.665 59.964 152.715 59.8368 152.715ZM59.8368 151.87C59.7653 151.869 59.6953 151.89 59.6357 151.93C59.5761 151.969 59.5297 152.025 59.5021 152.091C59.4746 152.157 59.4673 152.23 59.4812 152.3C59.4951 152.37 59.5295 152.434 59.58 152.485C59.6306 152.535 59.695 152.569 59.7651 152.583C59.8352 152.597 59.9079 152.59 59.9739 152.562C60.04 152.535 60.0962 152.488 60.1357 152.429C60.1753 152.369 60.1962 152.3 60.1958 152.228C60.1936 152.134 60.1548 152.045 60.0878 151.98C60.0207 151.915 59.9306 151.878 59.8368 151.878V151.87Z" fill="white"/>
<path d="M60.4668 130.553C60.4668 130.553 58.5088 130.696 58.1294 128.692C57.75 126.687 60.1517 126.361 60.4583 128.374L60.6819 130.573L60.4668 130.553Z" fill="#BE7878"/>
<path d="M69.0634 147.451C68.9685 147.451 68.8759 147.423 68.7971 147.37C68.7182 147.317 68.6567 147.243 68.6204 147.155C68.5842 147.068 68.5747 146.971 68.5932 146.879C68.6116 146.786 68.6574 146.7 68.7244 146.633C68.7915 146.566 68.8769 146.521 68.9699 146.502C69.0629 146.484 69.1592 146.493 69.2468 146.53C69.3344 146.566 69.4092 146.627 69.4619 146.706C69.5146 146.785 69.5427 146.877 69.5427 146.972C69.5427 147.099 69.4922 147.221 69.4023 147.31C69.3123 147.4 69.1904 147.451 69.0634 147.451ZM69.0634 146.605C68.9921 146.605 68.9223 146.626 68.863 146.666C68.8035 146.705 68.7573 146.761 68.73 146.827C68.7028 146.893 68.6956 146.966 68.7095 147.035C68.7234 147.105 68.7578 147.17 68.8083 147.22C68.8588 147.27 68.9229 147.305 68.9929 147.319C69.063 147.332 69.1355 147.325 69.2014 147.298C69.2673 147.271 69.3237 147.225 69.3633 147.165C69.403 147.106 69.4241 147.036 69.4241 146.965C69.4223 146.871 69.3835 146.781 69.3161 146.715C69.2487 146.649 69.1579 146.612 69.0634 146.612V146.605Z" fill="white"/>
<path d="M75.4149 147.683C75.3201 147.683 75.2274 147.655 75.1487 147.602C75.0697 147.549 75.0083 147.475 74.972 147.387C74.9358 147.3 74.9263 147.203 74.9447 147.111C74.9632 147.018 75.0089 146.932 75.076 146.865C75.1431 146.798 75.2284 146.753 75.3214 146.734C75.4144 146.716 75.5108 146.725 75.5984 146.762C75.6859 146.798 75.7608 146.859 75.8135 146.938C75.8661 147.017 75.8943 147.109 75.8943 147.204C75.8943 147.331 75.8438 147.453 75.7538 147.542C75.6639 147.632 75.542 147.683 75.4149 147.683ZM75.4149 146.845C75.344 146.845 75.2745 146.866 75.2154 146.906C75.1563 146.945 75.1104 147.001 75.0831 147.067C75.056 147.132 75.0489 147.204 75.0628 147.274C75.0765 147.343 75.1107 147.407 75.161 147.457C75.2112 147.508 75.2752 147.542 75.3448 147.556C75.4146 147.569 75.4867 147.562 75.5523 147.535C75.618 147.508 75.6741 147.462 75.7135 147.403C75.753 147.344 75.774 147.275 75.774 147.204C75.7721 147.11 75.7335 147.021 75.6664 146.955C75.5994 146.889 75.5089 146.852 75.4149 146.852V146.845Z" fill="white"/>
<path d="M53.9647 141.466C53.87 141.466 53.7772 141.438 53.6984 141.385C53.6197 141.333 53.5582 141.258 53.5219 141.17C53.4855 141.083 53.476 140.987 53.4947 140.894C53.5131 140.801 53.5587 140.716 53.6257 140.649C53.6928 140.582 53.7782 140.536 53.8712 140.517C53.9642 140.499 54.0605 140.509 54.1481 140.545C54.2357 140.581 54.3105 140.642 54.3632 140.721C54.4159 140.8 54.444 140.892 54.444 140.987C54.444 141.114 54.3935 141.236 54.3036 141.326C54.2138 141.415 54.0919 141.466 53.9647 141.466ZM53.9647 140.62C53.8937 140.62 53.8243 140.641 53.7651 140.68C53.7062 140.72 53.6601 140.776 53.633 140.841C53.6058 140.907 53.5987 140.979 53.6125 141.048C53.6264 141.118 53.6606 141.182 53.7108 141.232C53.7611 141.282 53.8249 141.316 53.8947 141.33C53.9643 141.344 54.0365 141.337 54.1022 141.31C54.1677 141.283 54.2238 141.237 54.2633 141.178C54.3027 141.119 54.3237 141.049 54.3237 140.979C54.3215 140.885 54.2827 140.796 54.2157 140.73C54.1486 140.665 54.0585 140.628 53.9647 140.628V140.62Z" fill="white"/>
<path d="M58.2782 145.895C58.1834 145.895 58.0907 145.866 58.0119 145.814C57.933 145.761 57.8717 145.686 57.8353 145.599C57.799 145.511 57.7896 145.415 57.808 145.322C57.8266 145.229 57.8722 145.144 57.9393 145.077C58.0064 145.01 58.0917 144.965 58.1847 144.946C58.2777 144.928 58.3741 144.937 58.4616 144.973C58.5492 145.01 58.6241 145.071 58.6767 145.15C58.7294 145.229 58.7575 145.321 58.7575 145.416C58.7575 145.543 58.7071 145.664 58.6171 145.754C58.5272 145.844 58.4054 145.895 58.2782 145.895ZM58.2782 145.057C58.2072 145.057 58.1378 145.078 58.0787 145.118C58.0197 145.157 57.9737 145.213 57.9464 145.278C57.9193 145.344 57.9122 145.416 57.9261 145.486C57.94 145.555 57.974 145.619 58.0243 145.669C58.0744 145.719 58.1385 145.754 58.2081 145.768C58.2779 145.781 58.35 145.774 58.4156 145.747C58.4813 145.72 58.5373 145.674 58.5768 145.615C58.6163 145.556 58.6373 145.487 58.6373 145.416C58.6373 145.321 58.5995 145.229 58.5321 145.162C58.4647 145.095 58.3734 145.057 58.2782 145.057Z" fill="white"/>
<path d="M59.8338 131.926H59.8524C60.0502 131.913 60.2409 131.847 60.4045 131.735C60.5677 131.622 60.6984 131.468 60.784 131.289C60.799 131.258 60.8012 131.222 60.79 131.19C60.7789 131.158 60.7553 131.131 60.7247 131.116C60.6938 131.101 60.6584 131.099 60.6259 131.11C60.5936 131.121 60.567 131.145 60.5519 131.175C60.4853 131.315 60.3839 131.434 60.2572 131.522C60.1341 131.607 59.9903 131.657 59.841 131.666C59.6918 131.675 59.5428 131.644 59.4103 131.575C59.2752 131.503 59.1618 131.397 59.0817 131.267C59.0018 131.134 58.9574 130.983 58.953 130.828C58.9491 130.673 58.9854 130.519 59.058 130.382C59.1315 130.247 59.2389 130.134 59.3697 130.054C59.4981 129.975 59.6456 129.932 59.7965 129.93C59.8136 129.931 59.8305 129.927 59.8465 129.921C59.8622 129.914 59.8766 129.905 59.8886 129.892C59.9007 129.88 59.9101 129.866 59.9164 129.85C59.9227 129.834 59.9256 129.817 59.9252 129.8C59.9247 129.766 59.9108 129.733 59.8864 129.709C59.862 129.685 59.829 129.671 59.7948 129.671C59.5958 129.675 59.4018 129.734 59.2342 129.841C59.0639 129.943 58.9229 130.086 58.8243 130.258C58.7308 130.436 58.6842 130.635 58.6888 130.835C58.6957 131.035 58.754 131.23 58.8582 131.4C58.9618 131.57 59.11 131.709 59.2867 131.801C59.4545 131.891 59.6434 131.935 59.8338 131.926Z" fill="white"/>
<path opacity="0.15" d="M58.6697 127.817C58.6596 127.787 58.6596 127.754 58.6697 127.724C58.6799 127.695 58.6989 127.669 58.7239 127.65C58.8066 127.584 58.9024 127.537 59.0051 127.511C59.1065 127.486 59.2121 127.482 59.315 127.499C59.4173 127.524 59.5125 127.573 59.5928 127.641C59.6756 127.709 59.7427 127.794 59.7893 127.89C59.9272 128.128 59.9958 128.399 59.9875 128.673V128.883C59.9959 129.035 59.73 129.088 59.73 128.897L59.7165 128.667C59.7149 128.442 59.6611 128.222 59.5589 128.022C59.5278 127.958 59.4848 127.901 59.4319 127.853C59.3806 127.804 59.3193 127.767 59.2524 127.745C59.1814 127.735 59.1093 127.74 59.0403 127.76C58.9714 127.779 58.907 127.812 58.851 127.856C58.8218 127.873 58.7876 127.879 58.7544 127.873C58.7204 127.866 58.6901 127.847 58.6697 127.819V127.817Z" fill="#1C1D1F"/>
<path d="M56.3612 159.897C56.2664 159.897 56.1737 159.868 56.0948 159.816C56.016 159.763 55.9545 159.688 55.9183 159.601C55.882 159.514 55.8726 159.417 55.891 159.324C55.9095 159.232 55.9552 159.146 56.0223 159.079C56.0892 159.012 56.1747 158.967 56.2677 158.948C56.3607 158.93 56.4571 158.939 56.5446 158.975C56.6322 159.012 56.7071 159.073 56.7598 159.152C56.8124 159.23 56.8405 159.323 56.8405 159.418C56.8405 159.481 56.828 159.543 56.804 159.601C56.7799 159.659 56.7447 159.712 56.7001 159.756C56.6556 159.801 56.6027 159.836 56.5446 159.86C56.4864 159.884 56.4241 159.897 56.3612 159.897ZM56.3612 159.051C56.2901 159.051 56.2208 159.072 56.1617 159.111C56.1026 159.15 56.0567 159.206 56.0294 159.272C56.0023 159.338 55.9952 159.41 56.0089 159.479C56.0228 159.549 56.057 159.613 56.1073 159.663C56.1575 159.713 56.2215 159.747 56.2911 159.761C56.3607 159.775 56.433 159.768 56.4986 159.741C56.5641 159.713 56.6202 159.667 56.6597 159.609C56.6991 159.55 56.7203 159.48 56.7203 159.409C56.7181 159.316 56.6793 159.227 56.6121 159.161C56.545 159.096 56.4549 159.059 56.3612 159.059V159.051Z" fill="white"/>
<path d="M53.9647 152.715C53.87 152.715 53.7772 152.687 53.6984 152.635C53.6197 152.582 53.5582 152.507 53.5219 152.42C53.4855 152.332 53.476 152.236 53.4947 152.143C53.5131 152.05 53.5587 151.965 53.6257 151.898C53.6928 151.831 53.7782 151.785 53.8712 151.767C53.9642 151.749 54.0605 151.758 54.1481 151.794C54.2357 151.83 54.3105 151.892 54.3632 151.971C54.4159 152.049 54.444 152.142 54.444 152.237C54.444 152.363 54.3935 152.485 54.3036 152.575C54.2138 152.665 54.0919 152.715 53.9647 152.715ZM53.9647 151.87C53.8932 151.869 53.8232 151.89 53.7636 151.93C53.704 151.969 53.6576 152.025 53.63 152.091C53.6025 152.157 53.5953 152.23 53.6091 152.3C53.623 152.37 53.6574 152.434 53.7079 152.485C53.7585 152.535 53.8229 152.569 53.893 152.583C53.9631 152.597 54.0358 152.59 54.1019 152.562C54.1679 152.535 54.2241 152.488 54.2636 152.429C54.3032 152.369 54.3241 152.3 54.3237 152.228C54.3215 152.134 54.2827 152.045 54.2157 151.98C54.1486 151.915 54.0585 151.878 53.9647 151.878V151.87Z" fill="white"/>
<path d="M63.6718 142.064C63.5769 142.064 63.4843 142.036 63.4055 141.984C63.3266 141.931 63.2651 141.856 63.2288 141.769C63.1926 141.681 63.1831 141.585 63.2016 141.492C63.22 141.399 63.2658 141.314 63.3328 141.247C63.3999 141.18 63.4853 141.135 63.5783 141.116C63.6712 141.098 63.7676 141.107 63.8552 141.143C63.9428 141.18 64.0176 141.241 64.0703 141.32C64.123 141.398 64.1511 141.491 64.1511 141.586C64.1511 141.713 64.1006 141.834 64.0107 141.924C63.9207 142.014 63.7988 142.064 63.6718 142.064ZM63.6718 141.227C63.6008 141.226 63.531 141.246 63.4712 141.284C63.4114 141.322 63.3643 141.377 63.3359 141.442C63.3076 141.507 63.2991 141.579 63.3117 141.649C63.3242 141.719 63.3571 141.783 63.4063 141.834C63.4556 141.885 63.519 141.921 63.5883 141.936C63.6577 141.951 63.73 141.945 63.7961 141.919C63.8623 141.894 63.9192 141.849 63.9597 141.791C64.0003 141.732 64.0227 141.663 64.0241 141.592C64.0254 141.497 63.9892 141.406 63.9231 141.337C63.8572 141.269 63.7668 141.229 63.6718 141.227Z" fill="white"/>
<path d="M63.5507 157.863C63.4558 157.863 63.3632 157.835 63.2844 157.782C63.2055 157.729 63.1442 157.655 63.1077 157.567C63.0715 157.48 63.062 157.383 63.0805 157.29C63.0989 157.198 63.1447 157.112 63.2117 157.045C63.2788 156.979 63.3642 156.933 63.4572 156.914C63.5502 156.896 63.6465 156.905 63.7341 156.942C63.8217 156.978 63.8965 157.039 63.9492 157.118C64.0019 157.197 64.03 157.289 64.03 157.384C64.03 157.511 63.9795 157.633 63.8896 157.723C63.7996 157.812 63.6777 157.863 63.5507 157.863ZM63.5507 157.017C63.4792 157.017 63.4092 157.037 63.3498 157.077C63.2902 157.116 63.2438 157.172 63.2161 157.238C63.1885 157.304 63.1813 157.376 63.195 157.446C63.2087 157.516 63.2429 157.581 63.2932 157.631C63.3437 157.682 63.4079 157.716 63.478 157.73C63.548 157.745 63.6206 157.737 63.6867 157.71C63.7526 157.683 63.8091 157.637 63.8488 157.578C63.8886 157.518 63.9097 157.448 63.9097 157.377C63.9084 157.283 63.8699 157.193 63.8027 157.127C63.7356 157.061 63.645 157.024 63.5507 157.024V157.017Z" fill="white"/>
<path opacity="0.15" d="M78.751 149.465L84.5351 148.467L85.3397 149.066L80.4549 150.611L78.751 149.465Z" fill="#1C1D1F"/>
<path d="M57.08 167.198C56.9851 167.198 56.8925 167.17 56.8137 167.117C56.7348 167.064 56.6733 166.99 56.637 166.902C56.6008 166.815 56.5913 166.718 56.6098 166.626C56.6282 166.533 56.674 166.447 56.741 166.38C56.8081 166.313 56.8935 166.268 56.9865 166.25C57.0795 166.231 57.1758 166.24 57.2634 166.277C57.351 166.313 57.4258 166.374 57.4785 166.453C57.5312 166.532 57.5593 166.624 57.5593 166.719C57.5593 166.846 57.5088 166.968 57.4189 167.057C57.3289 167.147 57.207 167.198 57.08 167.198ZM57.08 166.352C57.009 166.352 56.9395 166.373 56.8804 166.412C56.8213 166.452 56.7754 166.508 56.7482 166.573C56.7211 166.639 56.7139 166.711 56.7278 166.781C56.7415 166.85 56.7758 166.914 56.8261 166.964C56.8762 167.014 56.9402 167.048 57.0098 167.062C57.0796 167.076 57.1518 167.069 57.2173 167.042C57.283 167.015 57.3391 166.969 57.3786 166.91C57.418 166.851 57.439 166.781 57.439 166.71C57.4363 166.617 57.3974 166.528 57.3305 166.463C57.2634 166.398 57.1736 166.361 57.08 166.36V166.352Z" fill="white"/>
<path d="M71.5799 141.592C71.4852 141.592 71.3924 141.564 71.3136 141.512C71.2349 141.459 71.1734 141.384 71.1372 141.297C71.1007 141.209 71.0913 141.113 71.1099 141.02C71.1284 140.927 71.1739 140.842 71.241 140.775C71.3081 140.708 71.3934 140.662 71.4864 140.644C71.5794 140.626 71.6758 140.635 71.7633 140.671C71.8509 140.707 71.9258 140.769 71.9785 140.848C72.0311 140.926 72.0592 141.019 72.0592 141.114C72.0592 141.24 72.0088 141.362 71.9188 141.452C71.8291 141.542 71.7071 141.592 71.5799 141.592ZM71.5799 140.746C71.5089 140.746 71.4395 140.767 71.3804 140.807C71.3214 140.846 71.2754 140.902 71.2483 140.968C71.221 141.033 71.2139 141.105 71.2278 141.175C71.2417 141.245 71.2759 141.308 71.326 141.359C71.3763 141.409 71.4402 141.443 71.51 141.457C71.5796 141.471 71.6517 141.464 71.7174 141.436C71.783 141.409 71.8391 141.363 71.8785 141.304C71.918 141.245 71.939 141.176 71.939 141.105C71.939 141.01 71.9012 140.919 71.8338 140.852C71.7666 140.784 71.6751 140.746 71.5799 140.746Z" fill="white"/>
<path d="M66.4201 132.439C66.4335 132.44 66.4464 132.445 66.4574 132.453C66.4681 132.46 66.4767 132.47 66.4828 132.481C66.4897 132.493 66.4928 132.507 66.4913 132.52C66.4926 132.534 66.4896 132.547 66.4828 132.559C66.3581 132.767 66.1774 132.935 65.9611 133.045C65.7491 133.155 65.5094 133.2 65.2718 133.175C65.0328 133.151 64.8057 133.059 64.618 132.909C64.4298 132.758 64.2879 132.557 64.2081 132.329C64.1962 132.272 64.2183 132.218 64.2911 132.226L66.4201 132.439Z" fill="white"/>
<path d="M68.4866 153.58L66.5642 155.346C61.3136 160.201 56.9471 167.154 53.1378 173.207C51.9453 175.079 51.4991 177.329 51.8879 179.515C52.1487 180.917 52.772 182.321 54.1134 183.179C54.702 183.548 55.3682 183.776 56.0596 183.844C57.3536 183.981 61.4186 184.351 63.3715 183.893L74.3961 162.948L85.7798 179.696L90.4528 177.666L78.8286 151.819L68.4866 153.58Z" fill="#222429"/>
<path opacity="0.15" d="M86.6244 155.569L94.226 153.075L94.1481 151.697L94.1057 151.639L85.9757 153.651C85.7887 153.731 85.5843 153.763 85.3815 153.743C85.1788 153.723 84.9847 153.651 84.8172 153.536L76.6617 148.06L75.4541 149.609L84.3988 155.464C84.725 155.683 85.1048 155.808 85.497 155.826C85.8893 155.845 86.2792 155.756 86.6244 155.569Z" fill="#1C1D1F"/>
<path d="M93.7882 153.076L102.284 150.322C102.401 150.324 102.515 150.279 102.599 150.197C102.684 150.116 102.732 150.004 102.735 149.887V141.366C102.732 141.249 102.684 141.137 102.599 141.056C102.515 140.974 102.401 140.929 102.284 140.931L93.7882 143.443C93.6703 143.441 93.5565 143.486 93.4718 143.568C93.3869 143.65 93.3381 143.762 93.3359 143.88V152.639C93.3381 152.757 93.3869 152.869 93.4718 152.951C93.5565 153.033 93.6703 153.078 93.7882 153.076Z" fill="#222429"/>
<path d="M94.3032 153.076L102.433 150.322C102.549 150.322 102.659 150.276 102.741 150.194C102.823 150.113 102.868 150.002 102.868 149.887V141.366C102.868 141.251 102.823 141.14 102.741 141.059C102.659 140.977 102.549 140.931 102.433 140.931L94.3032 143.443C94.1875 143.444 94.0766 143.49 93.9948 143.572C93.913 143.653 93.8667 143.764 93.8662 143.88V152.639C93.8667 152.755 93.913 152.866 93.9948 152.947C94.0766 153.029 94.1875 153.075 94.3032 153.076Z" fill="#252932"/>
<path d="M99.1845 146.916C99.1974 146.42 98.9052 146.01 98.5323 146C98.1591 145.991 97.8461 146.385 97.8334 146.881C97.8205 147.377 98.1126 147.787 98.4857 147.796C98.8588 147.806 99.1717 147.412 99.1845 146.916Z" fill="#DADDDF"/>
<path d="M98.8742 147.75C98.7924 147.672 98.6839 147.629 98.5711 147.63H98.361V147.618C98.3973 147.559 98.4161 147.49 98.4154 147.42C98.4146 147.351 98.3942 147.283 98.3566 147.224C98.319 147.165 98.2657 147.118 98.2027 147.088C98.1397 147.058 98.0695 147.047 98.0003 147.055L95.9576 147.27H93.7744C93.5903 147.272 93.4075 147.239 93.2358 147.173C92.438 146.859 93.3882 146.373 93.3882 146.373V145.416L91.3845 145.923C91.1258 145.985 90.883 146.1 90.6714 146.261L88.4136 147.995L72.2383 151.573L62.9701 145.906L59.7842 150.812L70.4853 157.02C70.7719 157.187 71.0915 157.289 71.4218 157.32C71.7521 157.351 72.085 157.309 72.3975 157.198L89.291 151.237L93.3255 151.1H97.2787C97.4396 151.047 97.4481 150.946 97.4261 150.849C97.4029 150.782 97.3609 150.723 97.305 150.679C97.2491 150.636 97.1817 150.609 97.1111 150.602L94.1639 150.264C93.9844 150.205 93.9844 150.115 94.0284 150.039C94.0554 149.997 94.0924 149.962 94.1361 149.938C94.1798 149.914 94.229 149.901 94.2791 149.9L96.6808 149.785L98.3746 149.22C98.4608 149.194 98.537 149.142 98.5931 149.071C98.8319 148.755 98.3543 148.469 98.3543 148.469L98.7252 148.376C98.8151 148.356 98.8954 148.306 98.9522 148.234C99.1029 148.043 98.9877 147.863 98.8742 147.75Z" fill="#BE7878"/>
<path opacity="0.15" fill-rule="evenodd" clip-rule="evenodd" d="M96.138 148.108L98.4083 147.63L98.4331 147.748L96.1505 148.228H94.1084V148.108H96.138Z" fill="#1C1D1F"/>
<path opacity="0.15" fill-rule="evenodd" clip-rule="evenodd" d="M96.5548 148.887L98.4665 148.409L98.4957 148.526L96.5727 149.006L94.2905 149.126L94.2842 149.006L96.5548 148.887Z" fill="#1C1D1F"/>
<path opacity="0.15" d="M89.074 150.8L72.8394 155.803C72.4409 155.925 72.0218 155.966 71.607 155.923C71.1924 155.88 70.7906 155.754 70.4258 155.552L60.8223 149.249L59.7891 150.824L70.4902 157.032C70.7768 157.199 71.0964 157.301 71.4267 157.332C71.7569 157.363 72.0899 157.321 72.4024 157.21L89.2959 151.249L93.3253 151.1H97.2785C97.298 151.094 97.3166 151.086 97.3344 151.076V151.04L89.074 150.8Z" fill="#1C1D1F"/>
<path opacity="0.2" d="M51.0293 143.917L51.3291 146.612L59.4167 151.22L60.7514 149.222L51.0293 143.917Z" fill="#1C1D1F"/>
<path opacity="0.2" d="M74.4552 163.009L73.3763 161.691L72.4346 166.673L74.4552 163.009Z" fill="#1C1D1F"/>
<path d="M101.755 144.774L102.903 143.793C102.968 143.738 103.05 143.706 103.135 143.702C103.192 143.7 103.247 143.71 103.299 143.733C103.351 143.755 103.396 143.788 103.434 143.83C103.471 143.872 103.498 143.922 103.514 143.976C103.529 144.03 103.532 144.086 103.523 144.142C103.506 144.251 103.465 144.355 103.403 144.446C103.341 144.538 103.26 144.615 103.166 144.673L101.748 145.537C101.714 145.558 101.675 145.568 101.635 145.567C101.596 145.565 101.557 145.552 101.525 145.529C101.494 145.507 101.47 145.477 101.455 145.442C101.441 145.407 101.436 145.368 101.442 145.331C101.478 145.115 101.589 144.918 101.755 144.774Z" fill="#BE7878"/>
<path d="M101.712 145.61L103.214 144.832C103.286 144.786 103.371 144.766 103.456 144.774C103.512 144.78 103.566 144.798 103.614 144.827C103.662 144.855 103.703 144.895 103.734 144.941C103.765 144.988 103.785 145.041 103.794 145.096C103.802 145.151 103.798 145.208 103.781 145.262C103.749 145.367 103.693 145.465 103.619 145.547C103.545 145.63 103.454 145.696 103.353 145.74L101.6 146.363C101.563 146.379 101.522 146.384 101.483 146.377C101.443 146.37 101.407 146.352 101.378 146.324C101.35 146.298 101.331 146.265 101.322 146.228C101.312 146.192 101.314 146.153 101.325 146.118C101.39 145.908 101.527 145.728 101.712 145.61Z" fill="#BE7878"/>
<path d="M101.568 146.431L103.15 145.822C103.227 145.784 103.314 145.774 103.397 145.793C103.452 145.805 103.504 145.828 103.548 145.863C103.593 145.897 103.629 145.94 103.654 145.99C103.68 146.04 103.694 146.095 103.696 146.151C103.698 146.207 103.687 146.262 103.665 146.314C103.62 146.415 103.554 146.505 103.472 146.579C103.389 146.652 103.291 146.707 103.186 146.74L101.372 147.175C101.333 147.186 101.293 147.186 101.254 147.175C101.216 147.164 101.182 147.141 101.156 147.111C101.132 147.082 101.117 147.046 101.111 147.009C101.106 146.972 101.111 146.934 101.126 146.899C101.212 146.695 101.369 146.529 101.568 146.431Z" fill="#BE7878"/>
<path d="M101.625 147.111L102.93 147.028C102.995 147.018 103.062 147.03 103.119 147.062C103.157 147.083 103.189 147.112 103.214 147.148C103.239 147.183 103.256 147.223 103.263 147.266C103.271 147.309 103.268 147.352 103.257 147.394C103.245 147.436 103.224 147.474 103.196 147.507C103.14 147.572 103.071 147.624 102.993 147.659C102.915 147.695 102.831 147.713 102.745 147.713L101.312 147.61C101.281 147.61 101.251 147.601 101.225 147.584C101.199 147.567 101.179 147.542 101.168 147.513C101.155 147.486 101.15 147.455 101.155 147.425C101.16 147.395 101.173 147.367 101.194 147.344C101.306 147.218 101.458 147.136 101.625 147.111Z" fill="#BE7878"/>
<path fill-rule="evenodd" clip-rule="evenodd" d="M218.716 175.76C218.716 175.76 218.716 175.76 218.663 175.754C218.61 175.747 218.61 175.747 218.61 175.747L218.611 175.74L218.614 175.72C218.616 175.702 218.62 175.676 218.624 175.641C218.633 175.571 218.647 175.469 218.666 175.336C218.703 175.071 218.759 174.688 218.835 174.211C218.987 173.258 219.217 171.934 219.53 170.451C220.158 167.486 221.121 163.88 222.464 161.33L222.559 161.379C221.223 163.916 220.262 167.509 219.635 170.473C219.321 171.954 219.092 173.276 218.94 174.228C218.865 174.704 218.809 175.087 218.772 175.351C218.753 175.483 218.739 175.586 218.73 175.655C218.725 175.69 218.722 175.716 218.72 175.734L218.717 175.754L218.716 175.76Z" fill="#9B9B9B"/>
<path fill-rule="evenodd" clip-rule="evenodd" d="M216.642 159.76C216.642 159.76 216.642 159.76 216.693 159.747C216.745 159.735 216.745 159.735 216.745 159.735L216.747 159.74L216.751 159.757C216.754 159.771 216.759 159.792 216.766 159.821C216.779 159.877 216.798 159.96 216.823 160.068C216.872 160.283 216.942 160.597 217.025 160.989C217.191 161.773 217.41 162.873 217.619 164.135C218.037 166.658 218.419 169.833 218.271 172.429L218.164 172.423C218.311 169.839 217.931 166.674 217.513 164.152C217.305 162.892 217.087 161.794 216.921 161.011C216.838 160.619 216.768 160.306 216.719 160.091C216.694 159.984 216.675 159.901 216.662 159.845C216.655 159.817 216.65 159.796 216.647 159.781L216.643 159.765L216.642 159.76Z" fill="#9B9B9B"/>
<path d="M222.264 161.813C222.264 161.813 222.284 156.784 226.688 156.498C226.688 156.478 227.052 160.896 222.264 161.813Z" fill="#4A5365"/>
<path d="M211.719 160.723C211.719 160.723 210.533 155.943 205.323 157.301C205.323 157.301 206.319 160.799 211.719 160.723Z" fill="#4A5365"/>
<path d="M217.364 162.693C217.364 162.693 218.914 158.619 215.315 156.498C215.315 156.478 213.726 160.494 217.364 162.693Z" fill="#4A5365"/>
<path fill-rule="evenodd" clip-rule="evenodd" d="M211.679 160.759C211.679 160.759 211.679 160.759 211.719 160.724C211.759 160.689 211.759 160.689 211.759 160.689L211.759 160.689L211.76 160.69L211.763 160.693C211.765 160.696 211.769 160.7 211.773 160.705C211.782 160.716 211.796 160.732 211.814 160.754C211.849 160.797 211.901 160.86 211.967 160.945C212.098 161.114 212.286 161.366 212.511 161.698C212.961 162.362 213.561 163.347 214.161 164.631C215.36 167.199 216.559 170.965 216.559 175.754H216.452C216.452 170.983 215.258 167.233 214.064 164.676C213.467 163.398 212.87 162.418 212.423 161.758C212.199 161.428 212.013 161.178 211.882 161.01C211.817 160.927 211.766 160.864 211.731 160.822C211.714 160.801 211.701 160.785 211.692 160.774C211.687 160.769 211.684 160.765 211.682 160.763L211.679 160.76L211.679 160.759L211.679 160.759Z" fill="#9B9B9B"/>
<path fill-rule="evenodd" clip-rule="evenodd" d="M219.802 161.093C219.892 160.739 219.987 160.367 220.088 159.965L220.192 159.991C220.091 160.394 219.995 160.767 219.905 161.121C219.522 162.615 219.225 163.773 218.965 165.458C218.642 167.542 218.374 170.432 218.067 175.757L217.961 175.751C218.268 170.426 218.536 167.531 218.859 165.442C219.121 163.752 219.419 162.588 219.802 161.093Z" fill="#9B9B9B"/>
<path fill-rule="evenodd" clip-rule="evenodd" d="M209.95 156.032C209.051 155.036 208.246 154.428 207.729 154.193L207.774 154.096C208.31 154.339 209.125 154.96 210.029 155.961C210.934 156.962 211.93 158.349 212.825 160.128C214.615 163.687 216 168.817 215.444 175.588L215.337 175.579C215.892 168.828 214.511 163.717 212.729 160.176C211.839 158.405 210.848 157.027 209.95 156.032Z" fill="#9B9B9B"/>
<path fill-rule="evenodd" clip-rule="evenodd" d="M214.639 175.589C214.639 175.589 214.639 175.589 214.586 175.582C214.533 175.574 214.533 175.574 214.533 175.574L214.534 175.572L214.534 175.567C214.535 175.563 214.536 175.556 214.537 175.547C214.54 175.53 214.543 175.503 214.547 175.469C214.556 175.4 214.568 175.298 214.581 175.167C214.607 174.906 214.638 174.529 214.658 174.067C214.696 173.142 214.687 171.876 214.498 170.514C214.118 167.788 213.016 164.688 210.139 163.142L210.189 163.048C213.113 164.619 214.222 167.762 214.603 170.5C214.794 171.87 214.803 173.142 214.764 174.071C214.745 174.536 214.714 174.915 214.687 175.178C214.674 175.31 214.662 175.412 214.653 175.482C214.649 175.517 214.645 175.544 214.643 175.562C214.642 175.571 214.641 175.578 214.64 175.582L214.639 175.587L214.639 175.589Z" fill="#9B9B9B"/>
<path fill-rule="evenodd" clip-rule="evenodd" d="M218.907 174.356C218.907 174.356 218.907 174.356 218.856 174.34C218.806 174.323 218.806 174.323 218.806 174.323L218.806 174.322L218.806 174.321L218.807 174.318C218.808 174.315 218.81 174.31 218.812 174.304C218.816 174.293 218.823 174.276 218.831 174.254C218.848 174.21 218.874 174.146 218.911 174.065C218.983 173.904 219.097 173.677 219.261 173.41C219.589 172.877 220.12 172.188 220.931 171.562L220.996 171.646C220.197 172.263 219.675 172.942 219.352 173.466C219.19 173.728 219.079 173.951 219.008 174.109C218.972 174.188 218.947 174.25 218.931 174.292C218.922 174.313 218.916 174.33 218.912 174.341C218.911 174.346 218.909 174.35 218.908 174.353L218.907 174.356L218.907 174.356Z" fill="#9B9B9B"/>
<path fill-rule="evenodd" clip-rule="evenodd" d="M219.408 171.472C219.408 171.472 219.408 171.472 219.373 171.432C219.338 171.392 219.338 171.392 219.338 171.392L219.34 171.39L219.347 171.384C219.354 171.378 219.363 171.37 219.375 171.359C219.4 171.338 219.436 171.307 219.482 171.267C219.575 171.187 219.71 171.072 219.876 170.932C220.21 170.654 220.671 170.278 221.184 169.886C221.698 169.495 222.263 169.088 222.803 168.749C223.343 168.411 223.861 168.138 224.28 168.016L224.31 168.118C223.906 168.236 223.398 168.502 222.86 168.839C222.323 169.176 221.761 169.581 221.249 169.971C220.738 170.361 220.277 170.736 219.945 171.014C219.779 171.153 219.645 171.268 219.552 171.347C219.506 171.387 219.47 171.418 219.445 171.44C219.433 171.45 219.424 171.458 219.418 171.464L219.411 171.47L219.408 171.472Z" fill="#9B9B9B"/>
<path d="M212.767 165.465C212.767 165.465 211.485 160.559 206.354 161.698C206.354 161.698 207.235 165.886 212.767 165.465Z" fill="#4A5365"/>
<g opacity="0.4">
<g opacity="0.4">
<path opacity="0.4" d="M212.767 165.465C212.767 165.465 211.485 160.559 206.354 161.698C206.354 161.698 207.235 165.886 212.767 165.465Z" fill="white"/>
</g>
</g>
<path d="M215.391 170.52C215.391 170.52 214.51 167.02 209.82 168.187C209.839 168.167 211.37 171.667 215.391 170.52Z" fill="#4A5365"/>
<path d="M218.589 168.24C218.589 168.24 219.029 162.75 224.754 162.082C224.735 162.082 225.022 167.455 218.589 168.24Z" fill="#4A5365"/>
<path fill-rule="evenodd" clip-rule="evenodd" d="M217.214 151.526C217.214 151.525 217.214 151.525 217.267 151.526C217.321 151.526 217.321 151.527 217.321 151.527L217.284 154.758C217.262 156.722 217.232 159.381 217.201 162.164C217.138 167.728 217.072 173.785 217.053 175.754L216.946 175.753C216.965 173.784 217.032 167.727 217.094 162.162C217.125 159.38 217.155 156.721 217.177 154.757L217.214 151.526Z" fill="#9B9B9B"/>
<path d="M218.109 166.785C218.109 166.785 213.228 167.033 213.228 161.642C213.228 161.642 217.956 161.698 218.109 166.785Z" fill="#4A5365"/>
<g opacity="0.4">
<g opacity="0.4">
<path opacity="0.4" d="M218.109 166.785C218.109 166.785 213.228 167.033 213.228 161.642C213.228 161.642 217.956 161.698 218.109 166.785Z" fill="white"/>
</g>
</g>
<path d="M222.743 168.87C222.743 168.87 224.064 165.161 228.277 166.096C228.258 166.096 227.569 169.232 222.743 168.87Z" fill="#4A5365"/>
<g opacity="0.4">
<g opacity="0.4">
<path opacity="0.4" d="M222.743 168.87C222.743 168.87 224.064 165.161 228.277 166.096C228.258 166.096 227.569 169.232 222.743 168.87Z" fill="white"/>
</g>
</g>
<path d="M220.791 175.659H212.136V176.749H220.791V175.659Z" fill="#9B9B9B"/>
<path d="M219.7 183.825H213.228L212.749 176.73H220.178L219.7 183.825Z" fill="#9B9B9B"/>
<path d="M219.7 183.825H213.228L212.749 176.73H220.178L219.7 183.825Z" fill="#9B9B9B"/>
<path d="M220.791 175.659H219.394V176.73H218.091H212.749L212.768 177.036H218.091L218.11 183.825H219.7L220.178 176.73H220.791V175.659Z" fill="#4A5365"/>
<path d="M217.21 155.713C217.21 155.713 214.816 152.099 217.938 148.638C217.918 148.638 219.986 152.157 217.21 155.713Z" fill="#4A5365"/>
<g opacity="0.4">
<g opacity="0.4">
<path opacity="0.4" d="M217.21 155.713C217.21 155.713 214.816 152.099 217.938 148.638C217.918 148.638 219.986 152.157 217.21 155.713Z" fill="white"/>
</g>
</g>
<path d="M219.373 162.98C219.373 162.98 216.751 157.378 221.441 153.935C221.441 153.935 224.678 159.01 219.373 162.98Z" fill="#4A5365"/>
<g opacity="0.4">
<g opacity="0.4">
<path opacity="0.4" d="M219.373 162.98C219.373 162.98 216.751 157.378 221.441 153.935C221.441 153.935 224.678 159.01 219.373 162.98Z" fill="white"/>
</g>
</g>
<path d="M220.006 172.56C220.006 172.56 220.638 170.112 223.988 170.63C223.988 170.63 223.432 173.115 220.006 172.56Z" fill="#4A5365"/>
<path d="M215.445 173.67C215.445 173.67 214.716 168.947 219.044 168.392C219.044 168.392 220.079 172.503 215.445 173.67Z" fill="#4A5365"/>
<g opacity="0.4">
<g opacity="0.4">
<path opacity="0.4" d="M215.445 173.67C215.445 173.67 214.716 168.947 219.044 168.392C219.044 168.392 220.079 172.503 215.445 173.67Z" fill="white"/>
</g>
</g>
<path d="M206.564 153.419C206.564 153.419 209.168 153.15 209.666 155.655C209.686 155.637 207.33 155.924 206.564 153.419Z" fill="#4A5365"/>
<g opacity="0.3">
<g opacity="0.3">
<path opacity="0.3" d="M206.564 153.419C206.564 153.419 209.168 153.15 209.666 155.655C209.686 155.637 207.33 155.924 206.564 153.419Z" fill="white"/>
</g>
</g>
<path d="M212.921 153.15C212.921 153.15 209.685 156.516 212.845 160.189C212.845 160.189 216.043 156.592 212.921 153.15Z" fill="#4A5365"/>
<g opacity="0.4">
<g opacity="0.4">
<path opacity="0.4" d="M212.921 153.15C212.921 153.15 209.685 156.516 212.845 160.189C212.845 160.189 216.043 156.592 212.921 153.15Z" fill="white"/>
</g>
</g>
</g>
</svg>
