<svg width="39" height="39" viewBox="0 0 39 39" fill="none" xmlns="http://www.w3.org/2000/svg">
<path d="M34.2875 20.3125L36.5625 22.6038L25.9513 33.3125L20.3125 27.625L22.5875 25.3337L25.9513 28.7138L34.2875 20.3125ZM17.875 6.5C19.5989 6.5 21.2522 7.18482 22.4712 8.40381C23.6902 9.62279 24.375 11.2761 24.375 13C24.375 14.7239 23.6902 16.3772 22.4712 17.5962C21.2522 18.8152 19.5989 19.5 17.875 19.5C16.1511 19.5 14.4978 18.8152 13.2788 17.5962C12.0598 16.3772 11.375 14.7239 11.375 13C11.375 11.2761 12.0598 9.62279 13.2788 8.40381C14.4978 7.18482 16.1511 6.5 17.875 6.5ZM17.875 9.75C17.013 9.75 16.1864 10.0924 15.5769 10.7019C14.9674 11.3114 14.625 12.138 14.625 13C14.625 13.862 14.9674 14.6886 15.5769 15.2981C16.1864 15.9076 17.013 16.25 17.875 16.25C18.737 16.25 19.5636 15.9076 20.1731 15.2981C20.7826 14.6886 21.125 13.862 21.125 13C21.125 12.138 20.7826 11.3114 20.1731 10.7019C19.5636 10.0924 18.737 9.75 17.875 9.75ZM17.875 21.125C18.98 21.125 20.3125 21.2713 21.7913 21.5475L19.0775 24.2612L17.875 24.2125C13.0487 24.2125 7.9625 26.585 7.9625 27.625V29.4125H18.0375L21.125 32.5H4.875V27.625C4.875 23.3025 13.5363 21.125 17.875 21.125Z" fill="#6ECC41"/>
</svg>
