<svg width="40" height="40" viewBox="0 0 40 40" fill="none" xmlns="http://www.w3.org/2000/svg">
    <path
        d="M20.0002 32C15.8335 32 12.1502 29.8667 10.0002 26.6667C10.0502 23.3334 16.6668 21.5 20.0002 21.5C23.3335 21.5 29.9502 23.3334 30.0002 26.6667C28.8983 28.3074 27.4099 29.652 25.6661 30.582C23.9223 31.512 21.9765 31.999 20.0002 32ZM20.0002 8.33337C21.3262 8.33337 22.598 8.86016 23.5357 9.79784C24.4734 10.7355 25.0002 12.0073 25.0002 13.3334C25.0002 14.6595 24.4734 15.9312 23.5357 16.8689C22.598 17.8066 21.3262 18.3334 20.0002 18.3334C18.6741 18.3334 17.4023 17.8066 16.4646 16.8689C15.5269 15.9312 15.0002 14.6595 15.0002 13.3334C15.0002 12.0073 15.5269 10.7355 16.4646 9.79784C17.4023 8.86016 18.6741 8.33337 20.0002 8.33337ZM20.0002 3.33337C17.8115 3.33337 15.6442 3.76447 13.6221 4.60205C11.6 5.43963 9.76269 6.66728 8.21505 8.21493C5.08944 11.3405 3.3335 15.5798 3.3335 20C3.3335 24.4203 5.08944 28.6595 8.21505 31.7852C9.76269 33.3328 11.6 34.5605 13.6221 35.398C15.6442 36.2356 17.8115 36.6667 20.0002 36.6667C24.4204 36.6667 28.6597 34.9108 31.7853 31.7852C34.9109 28.6595 36.6668 24.4203 36.6668 20C36.6668 10.7834 29.1668 3.33337 20.0002 3.33337Z"
        fill="#C1C5CF" />
</svg>
