<svg width="200" height="124" viewBox="0 0 200 124" fill="none" xmlns="http://www.w3.org/2000/svg">
<rect width="200" height="124" fill="#DFDFDF"/>
<path d="M185.444 93H170.556C169.146 93 168 94.1465 168 95.5557V110.444C168 111.854 169.146 113 170.556 113H185.444C186.854 113 188 111.854 188 110.444V95.5557C188 94.1465 186.854 93 185.444 93ZM186.822 110.444C186.822 111.204 186.204 111.822 185.444 111.822H170.556C169.796 111.822 169.178 111.204 169.178 110.444V108.296L173.055 104.997C173.197 104.876 173.403 104.875 173.546 104.994L175.975 107.011C176.209 107.205 176.552 107.189 176.768 106.974L182.538 101.194C182.643 101.09 182.764 101.079 182.828 101.083C182.891 101.086 183.011 101.109 183.104 101.223L186.822 105.801V110.444H186.822ZM186.822 103.932L184.019 100.48C183.741 100.138 183.329 99.9288 182.888 99.9062C182.448 99.8839 182.016 100.05 181.705 100.362L176.314 105.761L174.299 104.088C173.714 103.602 172.87 103.607 172.292 104.1L169.178 106.749V95.5557C169.178 94.7961 169.796 94.178 170.556 94.178H185.444C186.204 94.178 186.822 94.7961 186.822 95.5557V103.932Z" fill="#4B4B4B"/>
<path d="M174.296 95.4607C172.73 95.4607 171.456 96.7349 171.456 98.301C171.456 99.8672 172.73 101.141 174.296 101.141C175.862 101.141 177.136 99.8672 177.136 98.301C177.136 96.7349 175.862 95.4607 174.296 95.4607ZM174.296 99.9634C173.379 99.9634 172.634 99.2176 172.634 98.301C172.634 97.3844 173.379 96.6387 174.296 96.6387C175.213 96.6387 175.958 97.3844 175.958 98.301C175.958 99.2176 175.213 99.9634 174.296 99.9634Z" fill="#4B4B4B"/>
<rect x="88" y="83" width="25" height="9" fill="#4B4B4B"/>
<rect x="76" y="57" width="48" height="5.85366" fill="#4B4B4B"/>
<rect x="76" y="69" width="48" height="5.85366" fill="#4B4B4B"/>
<g clip-path="url(#clip0)">
<path d="M94.9038 40.1823L90.0727 32.1304C89.8133 31.6981 89.1867 31.6981 88.9273 32.1304L84.0962 40.1823C83.8291 40.6275 84.1498 41.1938 84.6689 41.1938H94.3311C94.8502 41.1938 95.1709 40.6275 94.9038 40.1823Z" fill="#4B4B4B"/>
</g>
<path d="M99.8594 41H98.6396V34.7775H99.8594V41Z" fill="#4B4B4B"/>
<path d="M102.115 38.7566C102.115 39.1991 102.187 39.5337 102.331 39.7603C102.477 39.9869 102.715 40.1002 103.043 40.1002C103.368 40.1002 103.601 39.9883 103.742 39.7643C103.886 39.5377 103.958 39.2018 103.958 38.7566C103.958 38.314 103.886 37.9821 103.742 37.7608C103.598 37.5395 103.362 37.4289 103.035 37.4289C102.709 37.4289 102.475 37.5395 102.331 37.7608C102.187 37.9794 102.115 38.3113 102.115 38.7566ZM105.206 38.7566C105.206 39.4844 105.014 40.0536 104.63 40.4641C104.246 40.8747 103.712 41.08 103.027 41.08C102.597 41.08 102.219 40.9867 101.891 40.8001C101.563 40.6108 101.311 40.3402 101.135 39.9883C100.959 39.6363 100.871 39.2258 100.871 38.7566C100.871 38.0261 101.062 37.4582 101.443 37.053C101.824 36.6477 102.36 36.4451 103.051 36.4451C103.48 36.4451 103.858 36.5384 104.186 36.7251C104.514 36.9117 104.766 37.1796 104.942 37.5289C105.118 37.8781 105.206 38.2873 105.206 38.7566Z" fill="#4B4B4B"/>
<path d="M110.105 36.5291V37.1489L109.405 37.3289C109.533 37.5289 109.597 37.7528 109.597 38.0007C109.597 38.4806 109.429 38.8552 109.093 39.1245C108.76 39.3911 108.296 39.5244 107.701 39.5244L107.481 39.5124L107.302 39.4924C107.176 39.5884 107.114 39.695 107.114 39.8123C107.114 39.9883 107.338 40.0762 107.785 40.0762H108.545C109.036 40.0762 109.409 40.1815 109.665 40.3922C109.924 40.6028 110.053 40.912 110.053 41.3199C110.053 41.8425 109.834 42.2477 109.397 42.5356C108.962 42.8236 108.337 42.9675 107.521 42.9675C106.898 42.9675 106.42 42.8582 106.09 42.6396C105.762 42.4237 105.598 42.1197 105.598 41.7278C105.598 41.4586 105.682 41.2333 105.85 41.052C106.018 40.8707 106.264 40.7414 106.59 40.6641C106.464 40.6108 106.355 40.5241 106.262 40.4042C106.168 40.2815 106.122 40.1522 106.122 40.0162C106.122 39.8456 106.171 39.7043 106.27 39.5924C106.368 39.4777 106.511 39.3657 106.698 39.2564C106.463 39.1551 106.276 38.9925 106.138 38.7686C106.002 38.5446 105.934 38.2807 105.934 37.9767C105.934 37.4889 106.092 37.1116 106.41 36.845C106.727 36.5784 107.18 36.4451 107.769 36.4451C107.895 36.4451 108.043 36.4571 108.213 36.4811C108.387 36.5024 108.497 36.5184 108.545 36.5291H110.105ZM106.654 41.6319C106.654 41.7998 106.734 41.9318 106.894 42.0278C107.056 42.1237 107.283 42.1717 107.573 42.1717C108.011 42.1717 108.353 42.1117 108.601 41.9918C108.849 41.8718 108.973 41.7078 108.973 41.4999C108.973 41.3319 108.9 41.216 108.753 41.152C108.607 41.088 108.38 41.056 108.073 41.056H107.441C107.218 41.056 107.03 41.108 106.878 41.212C106.728 41.3186 106.654 41.4586 106.654 41.6319ZM107.098 37.9927C107.098 38.2353 107.152 38.4273 107.262 38.5686C107.374 38.7099 107.543 38.7805 107.769 38.7805C107.999 38.7805 108.167 38.7099 108.273 38.5686C108.38 38.4273 108.433 38.2353 108.433 37.9927C108.433 37.4542 108.212 37.1849 107.769 37.1849C107.322 37.1849 107.098 37.4542 107.098 37.9927Z" fill="#4B4B4B"/>
<path d="M111.816 38.7566C111.816 39.1991 111.888 39.5337 112.032 39.7603C112.179 39.9869 112.416 40.1002 112.744 40.1002C113.069 40.1002 113.303 39.9883 113.444 39.7643C113.588 39.5377 113.66 39.2018 113.66 38.7566C113.66 38.314 113.588 37.9821 113.444 37.7608C113.3 37.5395 113.064 37.4289 112.736 37.4289C112.411 37.4289 112.176 37.5395 112.032 37.7608C111.888 37.9794 111.816 38.3113 111.816 38.7566ZM114.908 38.7566C114.908 39.4844 114.716 40.0536 114.332 40.4641C113.948 40.8747 113.413 41.08 112.728 41.08C112.299 41.08 111.92 40.9867 111.592 40.8001C111.265 40.6108 111.013 40.3402 110.837 39.9883C110.661 39.6363 110.573 39.2258 110.573 38.7566C110.573 38.0261 110.763 37.4582 111.145 37.053C111.526 36.6477 112.062 36.4451 112.752 36.4451C113.181 36.4451 113.56 36.5384 113.888 36.7251C114.216 36.9117 114.468 37.1796 114.644 37.5289C114.82 37.8781 114.908 38.2873 114.908 38.7566Z" fill="#4B4B4B"/>
<defs>
<clipPath id="clip0">
<rect width="11" height="11" fill="white" transform="translate(84 31)"/>
</clipPath>
</defs>
</svg>
