<svg width="200" height="124" viewBox="0 0 200 124" fill="none" xmlns="http://www.w3.org/2000/svg">
<rect width="200" height="124" fill="#DFDFDF"/>
<path d="M75.4443 52H60.5557C59.1464 52 58 53.1465 58 54.5557V69.4443C58 70.8535 59.1464 72 60.5557 72H75.4443C76.8536 72 78 70.8535 78 69.4443V54.5557C78 53.1465 76.8536 52 75.4443 52ZM76.822 69.4443C76.822 70.204 76.2039 70.822 75.4443 70.822H60.5557C59.796 70.822 59.178 70.2039 59.178 69.4443V67.2956L63.0552 63.9968C63.1966 63.8764 63.403 63.8752 63.5459 63.9938L65.9745 66.0105C66.2087 66.205 66.5525 66.189 66.7677 65.9736L72.5383 60.1941C72.6426 60.0896 72.7642 60.0795 72.8277 60.0827C72.891 60.086 73.0111 60.1086 73.1042 60.2232L76.822 64.8009V69.4443H76.822ZM76.822 62.9322L74.0186 59.4804C73.7406 59.1381 73.3285 58.9288 72.888 58.9062C72.4479 58.8839 72.0163 59.0496 71.7047 59.3617L66.3138 64.761L64.2985 63.0876C63.7142 62.6023 62.8703 62.6074 62.2918 63.0996L59.178 65.7489V54.5557C59.178 53.7961 59.796 53.178 60.5557 53.178H75.4443C76.204 53.178 76.822 53.7961 76.822 54.5557V62.9322Z" fill="#4B4B4B"/>
<path d="M64.2959 54.4607C62.7297 54.4607 61.4556 55.7349 61.4556 57.301C61.4556 58.8672 62.7297 60.1414 64.2959 60.1414C65.8621 60.1414 67.1363 58.8672 67.1363 57.301C67.1363 55.7349 65.8621 54.4607 64.2959 54.4607ZM64.2959 58.9634C63.3793 58.9634 62.6336 58.2176 62.6336 57.301C62.6336 56.3844 63.3793 55.6387 64.2959 55.6387C65.2126 55.6387 65.9583 56.3844 65.9583 57.301C65.9583 58.2176 65.2126 58.9634 64.2959 58.9634Z" fill="#4B4B4B"/>
<rect x="136" width="64" height="124" fill="#9B9B9B"/>
<rect x="144" y="70" width="25" height="9" fill="#4B4B4B"/>
<g clip-path="url(#clip0)">
<path d="M154.904 29.1823L150.073 21.1304C149.813 20.6981 149.187 20.6981 148.927 21.1304L144.096 29.1823C143.829 29.6275 144.15 30.1938 144.669 30.1938H154.331C154.85 30.1938 155.171 29.6275 154.904 29.1823Z" fill="#4B4B4B"/>
</g>
<path d="M159.859 30H158.64V23.7775H159.859V30Z" fill="#4B4B4B"/>
<path d="M162.115 27.7566C162.115 28.1991 162.187 28.5337 162.331 28.7603C162.477 28.9869 162.715 29.1002 163.043 29.1002C163.368 29.1002 163.601 28.9883 163.742 28.7643C163.886 28.5377 163.958 28.2018 163.958 27.7566C163.958 27.314 163.886 26.9821 163.742 26.7608C163.598 26.5395 163.362 26.4289 163.035 26.4289C162.709 26.4289 162.475 26.5395 162.331 26.7608C162.187 26.9794 162.115 27.3113 162.115 27.7566ZM165.206 27.7566C165.206 28.4844 165.014 29.0536 164.63 29.4641C164.246 29.8747 163.712 30.08 163.027 30.08C162.597 30.08 162.219 29.9867 161.891 29.8001C161.563 29.6108 161.311 29.3402 161.135 28.9883C160.959 28.6363 160.871 28.2258 160.871 27.7566C160.871 27.0261 161.062 26.4582 161.443 26.053C161.824 25.6477 162.36 25.4451 163.051 25.4451C163.48 25.4451 163.858 25.5384 164.186 25.7251C164.514 25.9117 164.766 26.1796 164.942 26.5289C165.118 26.8781 165.206 27.2873 165.206 27.7566Z" fill="#4B4B4B"/>
<path d="M170.105 25.5291V26.1489L169.405 26.3289C169.533 26.5289 169.597 26.7528 169.597 27.0007C169.597 27.4806 169.429 27.8552 169.093 28.1245C168.76 28.3911 168.296 28.5244 167.701 28.5244L167.481 28.5124L167.302 28.4924C167.176 28.5884 167.114 28.695 167.114 28.8123C167.114 28.9883 167.338 29.0762 167.785 29.0762H168.545C169.036 29.0762 169.409 29.1815 169.665 29.3922C169.924 29.6028 170.053 29.912 170.053 30.3199C170.053 30.8425 169.834 31.2477 169.397 31.5356C168.962 31.8236 168.337 31.9675 167.521 31.9675C166.898 31.9675 166.42 31.8582 166.09 31.6396C165.762 31.4237 165.598 31.1197 165.598 30.7278C165.598 30.4586 165.682 30.2333 165.85 30.052C166.018 29.8707 166.264 29.7414 166.59 29.6641C166.464 29.6108 166.355 29.5241 166.262 29.4042C166.168 29.2815 166.122 29.1522 166.122 29.0162C166.122 28.8456 166.171 28.7043 166.27 28.5924C166.368 28.4777 166.511 28.3657 166.698 28.2564C166.463 28.1551 166.276 27.9925 166.138 27.7686C166.002 27.5446 165.934 27.2807 165.934 26.9767C165.934 26.4889 166.092 26.1116 166.41 25.845C166.727 25.5784 167.18 25.4451 167.769 25.4451C167.895 25.4451 168.043 25.4571 168.213 25.4811C168.387 25.5024 168.497 25.5184 168.545 25.5291H170.105ZM166.654 30.6319C166.654 30.7998 166.734 30.9318 166.894 31.0278C167.056 31.1237 167.283 31.1717 167.573 31.1717C168.011 31.1717 168.353 31.1117 168.601 30.9918C168.849 30.8718 168.973 30.7078 168.973 30.4999C168.973 30.3319 168.9 30.216 168.753 30.152C168.607 30.088 168.38 30.056 168.073 30.056H167.441C167.218 30.056 167.03 30.108 166.878 30.212C166.728 30.3186 166.654 30.4586 166.654 30.6319ZM167.098 26.9927C167.098 27.2353 167.152 27.4273 167.262 27.5686C167.374 27.7099 167.543 27.7805 167.769 27.7805C167.999 27.7805 168.167 27.7099 168.273 27.5686C168.38 27.4273 168.433 27.2353 168.433 26.9927C168.433 26.4542 168.212 26.1849 167.769 26.1849C167.322 26.1849 167.098 26.4542 167.098 26.9927Z" fill="#4B4B4B"/>
<path d="M171.816 27.7566C171.816 28.1991 171.888 28.5337 172.032 28.7603C172.179 28.9869 172.416 29.1002 172.744 29.1002C173.069 29.1002 173.303 28.9883 173.444 28.7643C173.588 28.5377 173.66 28.2018 173.66 27.7566C173.66 27.314 173.588 26.9821 173.444 26.7608C173.3 26.5395 173.064 26.4289 172.736 26.4289C172.411 26.4289 172.176 26.5395 172.032 26.7608C171.888 26.9794 171.816 27.3113 171.816 27.7566ZM174.908 27.7566C174.908 28.4844 174.716 29.0536 174.332 29.4641C173.948 29.8747 173.413 30.08 172.728 30.08C172.299 30.08 171.92 29.9867 171.592 29.8001C171.265 29.6108 171.013 29.3402 170.837 28.9883C170.661 28.6363 170.573 28.2258 170.573 27.7566C170.573 27.0261 170.763 26.4582 171.145 26.053C171.526 25.6477 172.062 25.4451 172.752 25.4451C173.181 25.4451 173.56 25.5384 173.888 25.7251C174.216 25.9117 174.468 26.1796 174.644 26.5289C174.82 26.8781 174.908 27.2873 174.908 27.7566Z" fill="#4B4B4B"/>
<rect x="144" y="44" width="48" height="5.85366" fill="#4B4B4B"/>
<rect x="144" y="56" width="48" height="5.85366" fill="#4B4B4B"/>
<defs>
<clipPath id="clip0">
<rect width="11" height="11" fill="white" transform="translate(144 20)"/>
</clipPath>
</defs>
</svg>
