<svg width="148" height="57" viewBox="0 0 148 57" fill="none" xmlns="http://www.w3.org/2000/svg">
<path fill-rule="evenodd" clip-rule="evenodd" d="M37.0506 9.18111C35.1888 8.10117 32.8912 8.10117 31.0294 9.18111L23.799 13.3752L34.394 24.0201L44.7301 13.6357L37.0506 9.18111ZM50.3281 17.1605C50.3264 17.1622 50.3247 17.164 50.323 17.1657L38.9337 28.6083L49.9802 39.6806C51.241 38.555 51.984 36.9327 51.984 35.2049V21.2995C51.984 19.7371 51.3766 18.2611 50.3281 17.1605ZM44.2807 43.1293L34.394 33.1962L24.2484 43.3898L31.0294 47.3233C32.8912 48.4032 35.1888 48.4032 37.0506 47.3233L44.2807 43.1293ZM18.4892 40L29.801 28.5813L18.2236 16.9495C18.1826 16.9065 18.1443 16.8619 18.1087 16.8158C16.8425 17.9417 16.096 19.5676 16.096 21.2995V35.2049C16.096 37.1038 16.9934 38.8752 18.4892 40Z" fill="#88A846"/>
<path d="M64.4836 33.8846C65.3146 33.8846 66.1204 33.7648 66.9009 33.5252C67.6813 33.2784 68.2848 32.9662 68.7111 32.5886V30.4649H64.9822V28.0907H71.6379V33.7322C70.8285 34.5671 69.7734 35.2206 68.4726 35.6925C67.1791 36.1644 65.8205 36.4004 64.3969 36.4004C61.9109 36.4004 59.9995 35.7107 58.6626 34.3312C57.3257 32.9444 56.6572 30.9804 56.6572 28.4392C56.6572 25.9126 57.3293 23.9777 58.6734 22.6345C60.0176 21.284 61.9507 20.6088 64.4727 20.6088C68.0571 20.6088 70.3371 21.9411 71.3127 24.6057L68.3642 25.4987C68.0463 24.7219 67.5476 24.1338 66.8684 23.7344C66.1891 23.3351 65.3905 23.1354 64.4727 23.1354C62.9696 23.1354 61.8278 23.5928 61.0474 24.5077C60.2669 25.4225 59.8767 26.733 59.8767 28.4392C59.8767 30.1745 60.2777 31.5177 61.0799 32.4688C61.8892 33.4127 63.0238 33.8846 64.4836 33.8846Z" fill="white"/>
<path d="M85.0034 36.1826L81.4588 30.356H77.7082V36.1826H74.5104V20.8375H82.1417C83.9628 20.8375 85.3683 21.2332 86.3584 22.0246C87.3484 22.8087 87.8434 23.9377 87.8434 25.4116C87.8434 26.4862 87.5399 27.4155 86.9329 28.1996C86.3259 28.9765 85.5057 29.4884 84.4723 29.7353L88.6022 36.1826H85.0034ZM84.624 25.5423C84.624 24.0684 83.6846 23.3315 81.8057 23.3315H77.7082V27.862H81.8924C82.7885 27.862 83.4678 27.6587 83.9303 27.2521C84.3928 26.8456 84.624 26.2756 84.624 25.5423Z" fill="white"/>
<path d="M105.404 28.4392C105.404 30.0366 105.09 31.4415 104.461 32.654C103.832 33.8665 102.933 34.7958 101.762 35.442C100.591 36.081 99.2253 36.4004 97.6643 36.4004C95.2651 36.4004 93.3826 35.6925 92.0168 34.2767C90.6582 32.8536 89.9789 30.9078 89.9789 28.4392C89.9789 25.9779 90.6582 24.0575 92.0168 22.678C93.3754 21.2985 95.2651 20.6088 97.686 20.6088C100.107 20.6088 101.997 21.3058 103.355 22.6998C104.721 24.0938 105.404 26.007 105.404 28.4392ZM102.141 28.4392C102.141 26.7838 101.751 25.4878 100.97 24.5512C100.19 23.6074 99.0952 23.1354 97.686 23.1354C96.2552 23.1354 95.1495 23.6037 94.369 24.5403C93.5886 25.4697 93.1983 26.7693 93.1983 28.4392C93.1983 30.1237 93.5958 31.4524 94.3907 32.4253C95.1929 33.3909 96.2841 33.8738 97.6643 33.8738C99.0952 33.8738 100.197 33.4018 100.97 32.4579C101.751 31.5141 102.141 30.1745 102.141 28.4392Z" fill="white"/>
<path d="M123.333 36.1826H119.539L117.469 27.3066C117.216 26.2611 117.003 25.1684 116.829 24.0285C116.656 24.9796 116.515 25.7057 116.406 26.2066C116.298 26.7003 115.528 30.0257 114.098 36.1826H110.304L106.369 20.8375H109.61L111.821 30.7481L112.32 33.1441C112.522 32.1349 112.717 31.1728 112.905 30.258C113.1 29.3359 113.823 26.1957 115.073 20.8375H118.65L120.58 29.0056C120.732 29.6155 120.988 30.995 121.349 33.1441L121.62 31.8807L122.195 29.3759L124.038 20.8375H127.279L123.333 36.1826Z" fill="white"/>
<path d="M60.3145 44.0536C60.717 44.0536 60.9967 43.8398 61.1535 43.4123L61.7346 43.6444C61.6095 43.9698 61.4256 44.2123 61.1828 44.3718C60.9416 44.5297 60.6522 44.6087 60.3145 44.6087C59.8019 44.6087 59.4054 44.4556 59.125 44.1493C58.8461 43.8414 58.7067 43.4115 58.7067 42.8596C58.7067 42.306 58.8416 41.8809 59.1114 41.5842C59.3813 41.2875 59.7725 41.1391 60.2851 41.1391C60.659 41.1391 60.9635 41.2189 61.1987 41.3784C61.4339 41.5363 61.5989 41.7692 61.6939 42.0771L61.106 42.247C61.0562 42.0779 60.9582 41.9439 60.812 41.845C60.6673 41.7445 60.4962 41.6943 60.2987 41.6943C59.9971 41.6943 59.768 41.7932 59.6112 41.991C59.4559 42.1888 59.3783 42.4783 59.3783 42.8596C59.3783 43.2472 59.4582 43.5431 59.618 43.7473C59.7793 43.9515 60.0115 44.0536 60.3145 44.0536Z" fill="white"/>
<path d="M64.3623 44.5608L63.6229 43.2807H62.8404V44.5608H62.1733V41.1894H63.7653C64.1452 41.1894 64.4384 41.2763 64.645 41.4502C64.8515 41.6225 64.9548 41.8705 64.9548 42.1944C64.9548 42.4304 64.8915 42.6346 64.7648 42.8069C64.6382 42.9776 64.4671 43.0901 64.2515 43.1443L65.1131 44.5608H64.3623ZM64.2832 42.2231C64.2832 41.8992 64.0872 41.7373 63.6952 41.7373H62.8404V42.7327H63.7133C63.9002 42.7327 64.042 42.6881 64.1384 42.5987C64.2349 42.5094 64.2832 42.3842 64.2832 42.2231Z" fill="white"/>
<path d="M65.5201 44.5608V41.1894H68.0257V41.7349H66.1872V42.582H67.8878V43.1276H66.1872V44.0153H68.1184V44.5608H65.5201Z" fill="white"/>
<path d="M71.2074 43.5894C71.2074 43.9196 71.0914 44.1724 70.8592 44.3479C70.6285 44.5218 70.2893 44.6087 69.8416 44.6087C69.433 44.6087 69.1127 44.5321 68.8805 44.379C68.6483 44.2258 68.4991 43.9937 68.4328 43.6827L69.0772 43.5702C69.121 43.7489 69.2061 43.8789 69.3328 43.9602C69.4594 44.04 69.635 44.0799 69.8597 44.0799C70.3255 44.0799 70.5584 43.9299 70.5584 43.63C70.5584 43.5343 70.5313 43.4554 70.477 43.3932C70.4243 43.3309 70.3489 43.2791 70.2509 43.2376C70.1544 43.1961 69.9682 43.1459 69.6923 43.0869C69.4541 43.0278 69.2883 42.9808 69.1948 42.9457C69.1014 42.909 69.0169 42.8667 68.9416 42.8189C68.8662 42.7694 68.8021 42.7104 68.7493 42.6418C68.6966 42.5732 68.6551 42.4927 68.625 42.4001C68.5963 42.3076 68.582 42.2015 68.582 42.0819C68.582 41.7772 68.6898 41.5443 68.9054 41.3832C69.1225 41.2205 69.4375 41.1391 69.8506 41.1391C70.2456 41.1391 70.5418 41.2045 70.7393 41.3353C70.9383 41.4661 71.0665 41.6823 71.1238 41.9838L70.477 42.0771C70.4439 41.9319 70.376 41.8227 70.2735 41.7493C70.1725 41.6759 70.027 41.6392 69.8371 41.6392C69.433 41.6392 69.231 41.7732 69.231 42.0412C69.231 42.129 69.2521 42.2007 69.2943 42.2566C69.338 42.3124 69.4021 42.3603 69.4865 42.4001C69.571 42.4384 69.7421 42.4871 69.9999 42.5461C70.3059 42.6147 70.5245 42.6785 70.6557 42.7375C70.7883 42.795 70.8931 42.8627 70.97 42.9409C71.0469 43.0175 71.1057 43.11 71.1464 43.2185C71.1871 43.3254 71.2074 43.449 71.2074 43.5894Z" fill="white"/>
<path d="M73.1861 44.0536C73.5886 44.0536 73.8683 43.8398 74.0251 43.4123L74.6063 43.6444C74.4811 43.9698 74.2972 44.2123 74.0545 44.3718C73.8133 44.5297 73.5238 44.6087 73.1861 44.6087C72.6735 44.6087 72.2771 44.4556 71.9966 44.1493C71.7177 43.8414 71.5783 43.4115 71.5783 42.8596C71.5783 42.306 71.7132 41.8809 71.9831 41.5842C72.2529 41.2875 72.6442 41.1391 73.1567 41.1391C73.5306 41.1391 73.8351 41.2189 74.0703 41.3784C74.3055 41.5363 74.4706 41.7692 74.5655 42.0771L73.9776 42.247C73.9278 42.0779 73.8299 41.9439 73.6836 41.845C73.5389 41.7445 73.3678 41.6943 73.1703 41.6943C72.8688 41.6943 72.6396 41.7932 72.4828 41.991C72.3276 42.1888 72.2499 42.4783 72.2499 42.8596C72.2499 43.2472 72.3298 43.5431 72.4896 43.7473C72.6509 43.9515 72.8831 44.0536 73.1861 44.0536Z" fill="white"/>
<path d="M75.045 44.5608V41.1894H75.7121V44.5608H75.045Z" fill="white"/>
<path d="M78.9797 44.5608V42.5174C78.9797 42.4711 78.9797 42.4249 78.9797 42.3786C78.9812 42.3323 78.9888 42.1337 79.0023 41.7828C78.8953 42.2119 78.8161 42.511 78.7649 42.6801L78.1905 44.5608H77.7156L77.1412 42.6801L76.8993 41.7828C76.9174 42.1529 76.9264 42.3977 76.9264 42.5174V44.5608H76.3339V41.1894H77.2272L77.797 43.0749L77.8468 43.2568L77.9553 43.709L78.0978 43.1682L78.6835 41.1894H79.5722V44.5608H78.9797Z" fill="white"/>
<path d="M80.1918 44.5608V41.1894H82.6974V41.7349H80.8589V42.582H82.5594V43.1276H80.8589V44.0153H82.7901V44.5608H80.1918Z" fill="white"/>
<path d="M85.2211 44.5608L83.8326 41.9646C83.8597 42.2167 83.8733 42.4193 83.8733 42.5724V44.5608H83.2808V41.1894H84.0429L85.4517 43.8071C85.4246 43.5662 85.411 43.3469 85.411 43.1491V41.1894H86.0035V44.5608H85.2211Z" fill="white"/>
<path d="M88.0658 41.7349V44.5608H87.3987V41.7349H86.3698V41.1894H89.097V41.7349H88.0658Z" fill="white"/>
<path d="M92.471 42.8596C92.471 43.2105 92.4054 43.5192 92.2742 43.7856C92.1431 44.052 91.9554 44.2562 91.7111 44.3981C91.4669 44.5385 91.182 44.6087 90.8563 44.6087C90.3558 44.6087 89.9631 44.4532 89.6782 44.1421C89.3948 43.8294 89.253 43.4019 89.253 42.8596C89.253 42.3188 89.3948 41.8969 89.6782 41.5938C89.9616 41.2907 90.3558 41.1391 90.8609 41.1391C91.3659 41.1391 91.7601 41.2923 92.0436 41.5985C92.3285 41.9048 92.471 42.3252 92.471 42.8596ZM91.7903 42.8596C91.7903 42.4958 91.7089 42.2111 91.5461 42.0053C91.3832 41.7979 91.1549 41.6943 90.8609 41.6943C90.5624 41.6943 90.3317 41.7972 90.1689 42.0029C90.0061 42.2071 89.9247 42.4927 89.9247 42.8596C89.9247 43.2296 90.0076 43.5216 90.1734 43.7353C90.3408 43.9475 90.5684 44.0536 90.8563 44.0536C91.1549 44.0536 91.3848 43.9499 91.5461 43.7425C91.7089 43.5351 91.7903 43.2408 91.7903 42.8596Z" fill="white"/>
<path d="M94.2665 44.5608V41.1894H96.7721V41.7349H94.9336V42.582H96.6341V43.1276H94.9336V44.0153H96.8648V44.5608H94.2665Z" fill="white"/>
<path d="M99.393 44.5608L98.5924 43.2185L97.7919 44.5608H97.0864L98.1899 42.7878L97.1791 41.1894H97.8846L98.5924 42.381L99.3003 41.1894H100.001L99.0334 42.7878L100.094 44.5608H99.393Z" fill="white"/>
<path d="M103.065 42.2566C103.065 42.4735 103.019 42.6673 102.925 42.838C102.832 43.0087 102.698 43.1411 102.523 43.2352C102.349 43.3277 102.143 43.374 101.903 43.374H101.112V44.5608H100.444V41.1894H101.876C102.257 41.1894 102.551 41.2827 102.756 41.4693C102.962 41.6544 103.065 41.9168 103.065 42.2566ZM102.394 42.2685C102.394 41.9144 102.196 41.7373 101.801 41.7373H101.112V42.8308H101.819C102.003 42.8308 102.145 42.783 102.245 42.6873C102.344 42.59 102.394 42.4504 102.394 42.2685Z" fill="white"/>
<path d="M106.632 42.8596C106.632 43.2105 106.566 43.5192 106.435 43.7856C106.304 44.052 106.116 44.2562 105.872 44.3981C105.628 44.5385 105.343 44.6087 105.017 44.6087C104.516 44.6087 104.124 44.4532 103.839 44.1421C103.555 43.8294 103.414 43.4019 103.414 42.8596C103.414 42.3188 103.555 41.8969 103.839 41.5938C104.122 41.2907 104.516 41.1391 105.021 41.1391C105.527 41.1391 105.921 41.2923 106.204 41.5985C106.489 41.9048 106.632 42.3252 106.632 42.8596ZM105.951 42.8596C105.951 42.4958 105.869 42.2111 105.707 42.0053C105.544 41.7979 105.315 41.6943 105.021 41.6943C104.723 41.6943 104.492 41.7972 104.33 42.0029C104.167 42.2071 104.085 42.4927 104.085 42.8596C104.085 43.2296 104.168 43.5216 104.334 43.7353C104.501 43.9475 104.729 44.0536 105.017 44.0536C105.315 44.0536 105.545 43.9499 105.707 43.7425C105.869 43.5351 105.951 43.2408 105.951 42.8596Z" fill="white"/>
<path d="M109.078 44.5608L107.69 41.9646C107.717 42.2167 107.731 42.4193 107.731 42.5724V44.5608H107.138V41.1894H107.9L109.309 43.8071C109.282 43.5662 109.268 43.3469 109.268 43.1491V41.1894H109.861V44.5608H109.078Z" fill="white"/>
<path d="M110.485 44.5608V41.1894H112.99V41.7349H111.152V42.582H112.853V43.1276H111.152V44.0153H113.083V44.5608H110.485Z" fill="white"/>
<path d="M115.514 44.5608L114.126 41.9646C114.153 42.2167 114.166 42.4193 114.166 42.5724V44.5608H113.574V41.1894H114.336L115.745 43.8071C115.718 43.5662 115.704 43.3469 115.704 43.1491V41.1894H116.297V44.5608H115.514Z" fill="white"/>
<path d="M118.409 44.0536C118.811 44.0536 119.091 43.8398 119.248 43.4123L119.829 43.6444C119.704 43.9698 119.52 44.2123 119.277 44.3718C119.036 44.5297 118.746 44.6087 118.409 44.6087C117.896 44.6087 117.5 44.4556 117.219 44.1493C116.94 43.8414 116.801 43.4115 116.801 42.8596C116.801 42.306 116.936 41.8809 117.206 41.5842C117.476 41.2875 117.867 41.1391 118.379 41.1391C118.753 41.1391 119.058 41.2189 119.293 41.3784C119.528 41.5363 119.693 41.7692 119.788 42.0771L119.2 42.247C119.15 42.0779 119.052 41.9439 118.906 41.845C118.761 41.7445 118.59 41.6943 118.393 41.6943C118.091 41.6943 117.862 41.7932 117.705 41.991C117.55 42.1888 117.472 42.4783 117.472 42.8596C117.472 43.2472 117.552 43.5431 117.712 43.7473C117.874 43.9515 118.106 44.0536 118.409 44.0536Z" fill="white"/>
<path d="M120.268 44.5608V41.1894H120.935V44.5608H120.268Z" fill="white"/>
<path d="M123.809 44.5608L123.526 43.6994H122.312L122.029 44.5608H121.362L122.524 41.1894H123.311L124.469 44.5608H123.809ZM122.918 41.7086L122.904 41.7613C122.889 41.8187 122.871 41.8841 122.85 41.9575C122.829 42.0308 122.699 42.4344 122.461 43.1682H123.377L123.063 42.1991L122.965 41.8737L122.918 41.7086Z" fill="white"/>
<path d="M124.903 44.5608V41.1894H125.57V44.0153H127.28V44.5608H124.903Z" fill="white"/>
</svg>
