<svg width="114" height="110" viewBox="0 0 114 110" fill="none" xmlns="http://www.w3.org/2000/svg">
<g clip-path="url(#clip0_40_4474)">
<path d="M72.1309 24.7386H41.8939C41.2048 24.7395 40.5443 25.0147 40.057 25.504C39.5698 25.9933 39.2957 26.6567 39.2949 27.3487V94.8356L38.9483 94.9418L31.5307 97.223C31.1792 97.3306 30.7995 97.2938 30.4749 97.1205C30.1504 96.9473 29.9076 96.6518 29.7998 96.299L7.73578 23.9225C7.6284 23.5695 7.665 23.1881 7.83752 22.8622C8.01005 22.5362 8.30438 22.2924 8.65584 22.1843L20.0864 18.6694L53.2239 8.48328L64.6544 4.96842C64.8283 4.91466 65.0112 4.89587 65.1923 4.91314C65.3735 4.9304 65.5495 4.98338 65.7103 5.06904C65.8711 5.1547 66.0135 5.27135 66.1293 5.41233C66.2452 5.55331 66.3322 5.71585 66.3854 5.89064L72.0252 24.3906L72.1309 24.7386Z" fill="#3D4353"/>
<path d="M78.7292 24.3906L71.9318 2.09391C71.8187 1.7224 71.6339 1.37692 71.3878 1.07719C71.1417 0.777469 70.8392 0.529382 70.4976 0.347106C70.156 0.164831 69.7819 0.0519389 69.3969 0.0148852C69.0118 -0.0221685 68.6232 0.0173424 68.2534 0.131156L52.1827 5.07109L19.047 15.259L2.97635 20.2006C2.22979 20.4309 1.60469 20.9491 1.23825 21.6417C0.871814 22.3343 0.793977 23.1446 1.02183 23.8947L24.2536 100.096C24.4387 100.701 24.8122 101.231 25.3193 101.608C25.8263 101.985 26.4403 102.188 27.071 102.189C27.363 102.189 27.6532 102.145 27.9321 102.059L38.9485 98.6724L39.2951 98.5645V98.2009L38.9485 98.307L27.8299 101.726C27.171 101.928 26.4592 101.859 25.8508 101.534C25.2424 101.21 24.7871 100.656 24.5846 99.9948L1.35458 23.7921C1.25427 23.4644 1.21931 23.1201 1.2517 22.7788C1.28409 22.4376 1.38318 22.1061 1.54332 21.8034C1.70346 21.5006 1.92149 21.2326 2.18493 21.0146C2.44837 20.7966 2.75203 20.633 3.07854 20.533L19.1492 15.5913L52.285 5.40518L68.3556 0.463505C68.6033 0.387605 68.8608 0.348905 69.1197 0.348662C69.6754 0.349915 70.2161 0.529827 70.6626 0.862044C71.1091 1.19426 71.4379 1.66133 71.601 2.19483L78.367 24.3906L78.4745 24.7386H78.8349L78.7292 24.3906Z" fill="#646D85"/>
<path d="M22.1491 22.2412C21.8152 22.2409 21.4901 22.1332 21.2215 21.9338C20.953 21.7345 20.7552 21.4539 20.657 21.1333L18.4253 13.8127C18.3653 13.6161 18.3445 13.4095 18.364 13.2048C18.3836 13.0001 18.4431 12.8012 18.5392 12.6196C18.6352 12.438 18.766 12.2771 18.924 12.1463C19.082 12.0154 19.2641 11.9171 19.4599 11.8569L49.9445 2.48445C50.34 2.36326 50.7672 2.4046 51.1323 2.59937C51.4975 2.79415 51.7708 3.12646 51.8922 3.52337L54.124 10.8441C54.2446 11.2412 54.2034 11.6702 54.0094 12.0368C53.8155 12.4035 53.4846 12.678 53.0894 12.8L22.6047 22.1724C22.4571 22.2179 22.3035 22.2411 22.1491 22.2412Z" fill="#ADDF45"/>
<path d="M33.8404 7.82223C35.7542 7.82223 37.3057 6.26416 37.3057 4.34218C37.3057 2.4202 35.7542 0.862122 33.8404 0.862122C31.9265 0.862122 30.375 2.4202 30.375 4.34218C30.375 6.26416 31.9265 7.82223 33.8404 7.82223Z" fill="#ADDF45"/>
<path d="M33.8404 6.54585C35.0523 6.54585 36.0347 5.55923 36.0347 4.34217C36.0347 3.12511 35.0523 2.13849 33.8404 2.13849C32.6285 2.13849 31.646 3.12511 31.646 4.34217C31.646 5.55923 32.6285 6.54585 33.8404 6.54585Z" fill="white"/>
<path d="M105.31 101.3H46.7457C46.3553 101.299 45.9809 101.143 45.7048 100.866C45.4287 100.589 45.2734 100.213 45.2729 99.8208V29.3497C45.2734 28.9576 45.4287 28.5816 45.7048 28.3043C45.9809 28.0271 46.3553 27.8711 46.7457 27.8707H105.31C105.701 27.8711 106.075 28.0271 106.351 28.3044C106.627 28.5816 106.783 28.9576 106.783 29.3497V99.8208C106.783 100.213 106.627 100.589 106.351 100.866C106.075 101.143 105.701 101.299 105.31 101.3Z" fill="#4F5667"/>
<path d="M78.3672 24.3906H41.8943C41.1134 24.3917 40.3648 24.7037 39.8127 25.2582C39.2605 25.8127 38.9498 26.5645 38.9487 27.3487V98.307L39.2953 98.2009V27.3487C39.2961 26.6567 39.5702 25.9933 40.0574 25.504C40.5447 25.0147 41.2052 24.7395 41.8943 24.7386H78.4747L78.3672 24.3906ZM110.162 24.3906H41.8943C41.1134 24.3917 40.3648 24.7037 39.8127 25.2582C39.2605 25.8127 38.9498 26.5645 38.9487 27.3487V107.042C38.9498 107.826 39.2605 108.578 39.8127 109.132C40.3648 109.687 41.1134 109.999 41.8943 110H110.162C110.943 109.999 111.691 109.687 112.244 109.132C112.796 108.578 113.106 107.826 113.108 107.042V27.3487C113.106 26.5645 112.796 25.8127 112.244 25.2582C111.691 24.7037 110.943 24.3917 110.162 24.3906ZM112.761 107.042C112.76 107.734 112.486 108.397 111.999 108.887C111.512 109.376 110.851 109.651 110.162 109.652H41.8943C41.2052 109.651 40.5447 109.376 40.0574 108.887C39.5702 108.397 39.2961 107.734 39.2953 107.042V27.3487C39.2961 26.6567 39.5702 25.9933 40.0574 25.504C40.5447 25.0147 41.2052 24.7395 41.8943 24.7386H110.162C110.851 24.7395 111.512 25.0147 111.999 25.504C112.486 25.9933 112.76 26.6567 112.761 27.3487V107.042Z" fill="#646D85"/>
<path d="M91.9686 32.0468H60.0872C59.6738 32.0463 59.2774 31.8812 58.9851 31.5876C58.6927 31.294 58.5283 30.8959 58.5278 30.4808V22.8246C58.5283 22.4094 58.6927 22.0114 58.9851 21.7178C59.2774 21.4242 59.6738 21.2591 60.0872 21.2586H91.9686C92.382 21.2591 92.7784 21.4242 93.0708 21.7178C93.3631 22.0114 93.5275 22.4094 93.528 22.8246V30.4808C93.5275 30.8959 93.3631 31.294 93.0708 31.5876C92.7784 31.8812 92.382 32.0463 91.9686 32.0468Z" fill="#ADDF45"/>
<path d="M76.0279 21.7806C77.9417 21.7806 79.4932 20.2225 79.4932 18.3006C79.4932 16.3786 77.9417 14.8205 76.0279 14.8205C74.114 14.8205 72.5625 16.3786 72.5625 18.3006C72.5625 20.2225 74.114 21.7806 76.0279 21.7806Z" fill="#ADDF45"/>
<path d="M76.0282 20.4202C77.1939 20.4202 78.1389 19.4712 78.1389 18.3005C78.1389 17.1299 77.1939 16.1808 76.0282 16.1808C74.8625 16.1808 73.9175 17.1299 73.9175 18.3005C73.9175 19.4712 74.8625 20.4202 76.0282 20.4202Z" fill="white"/>
</g>
<defs>
<clipPath id="clip0_40_4474">
<rect width="112.215" height="110" fill="white" transform="translate(0.892578)"/>
</clipPath>
</defs>
</svg>
