<svg width="164" height="150" viewBox="0 0 164 150" fill="none" xmlns="http://www.w3.org/2000/svg">
    <g clip-path="url(#clip0_1105_8426)">
        <path d="M11.7243 133.528C9.04591 135.372 6.30701 137.276 4.45236 139.947C2.59783 142.619 1.78826 146.265 3.27843 149.156L3.24 149.336C4.36942 149.733 5.58206 149.832 6.76108 149.625C7.9401 149.417 9.04576 148.909 9.97155 148.15C12.3292 146.171 13.0685 142.911 13.6699 139.892L15.449 130.963L11.7243 133.528Z" fill="#333844"/>
        <path d="M14.304 142.532C12.5174 142.928 10.6867 143.341 9.1546 144.342C7.62262 145.343 6.42927 147.073 6.59501 148.895L6.53687 148.981C7.04184 149.427 7.65313 149.735 8.31185 149.876C8.97057 150.017 9.6545 149.986 10.2978 149.786C11.9457 149.253 13.0206 147.709 13.9726 146.262L16.7886 141.983L14.304 142.532Z" fill="#333844"/>
        <path d="M163.464 7.97097H10.9085C10.8499 7.97077 10.7937 7.94735 10.7524 7.90585C10.711 7.86434 10.6878 7.80814 10.6878 7.74955C10.6878 7.69096 10.711 7.63476 10.7524 7.59326C10.7937 7.55176 10.8499 7.52834 10.9085 7.52814H163.464C163.522 7.52834 163.578 7.55176 163.62 7.59326C163.661 7.63476 163.684 7.69096 163.684 7.74955C163.684 7.80814 163.661 7.86434 163.62 7.90585C163.578 7.94735 163.522 7.97077 163.464 7.97097Z" fill="#3D4353"/>
        <path d="M15.8921 4.87114C17.2372 4.87114 18.3276 3.7807 18.3276 2.43557C18.3276 1.09044 17.2372 0 15.8921 0C14.5469 0 13.4565 1.09044 13.4565 2.43557C13.4565 3.7807 14.5469 4.87114 15.8921 4.87114Z" fill="#ADDF45"/>
        <path d="M24.3058 4.87114C25.6509 4.87114 26.7414 3.7807 26.7414 2.43557C26.7414 1.09044 25.6509 0 24.3058 0C22.9607 0 21.8702 1.09044 21.8702 2.43557C21.8702 3.7807 22.9607 4.87114 24.3058 4.87114Z" fill="#ADDF45"/>
        <path d="M32.7196 4.87114C34.0648 4.87114 35.1552 3.7807 35.1552 2.43557C35.1552 1.09044 34.0648 0 32.7196 0C31.3745 0 30.2841 1.09044 30.2841 2.43557C30.2841 3.7807 31.3745 4.87114 32.7196 4.87114Z" fill="#ADDF45"/>
        <path d="M158.423 1.48975H152.444C152.327 1.48975 152.214 1.4431 152.131 1.36005C152.048 1.277 152.002 1.16437 152.002 1.04692C152.002 0.929479 152.048 0.816842 152.131 0.733795C152.214 0.650749 152.327 0.604095 152.444 0.604095H158.423C158.54 0.604095 158.653 0.650749 158.736 0.733795C158.819 0.816842 158.865 0.929479 158.865 1.04692C158.865 1.16437 158.819 1.277 158.736 1.36005C158.653 1.4431 158.54 1.48975 158.423 1.48975Z" fill="#646D85"/>
        <path d="M158.423 3.15037H152.444C152.327 3.15037 152.214 3.10372 152.131 3.02067C152.048 2.93762 152.002 2.82498 152.002 2.70754C152.002 2.59009 152.048 2.47746 152.131 2.39441C152.214 2.31137 152.327 2.26471 152.444 2.26471H158.423C158.54 2.26471 158.653 2.31137 158.736 2.39441C158.819 2.47746 158.865 2.59009 158.865 2.70754C158.865 2.82498 158.819 2.93762 158.736 3.02067C158.653 3.10372 158.54 3.15037 158.423 3.15037Z" fill="#646D85"/>
        <path d="M158.423 4.81098H152.444C152.327 4.81098 152.214 4.76433 152.131 4.68128C152.048 4.59824 152.002 4.4856 152.002 4.36815C152.002 4.25071 152.048 4.13807 152.131 4.05502C152.214 3.97198 152.327 3.92532 152.444 3.92532H158.423C158.54 3.92573 158.652 3.97256 158.735 4.05556C158.817 4.13857 158.864 4.25097 158.864 4.36815C158.864 4.48533 158.817 4.59774 158.735 4.68074C158.652 4.76375 158.54 4.81058 158.423 4.81098Z" fill="#646D85"/>
        <path d="M114.582 17.4657H13.3954V78.1335H114.582V17.4657Z" fill="#3D4353"/>
        <path d="M158.865 17.4657H126.982V36.582H158.865V17.4657Z" fill="#3D4353"/>
        <path d="M152.504 45.364H133.534C133.297 45.364 133.069 45.2699 132.902 45.1023C132.734 44.9347 132.64 44.7074 132.64 44.4705C132.64 44.2335 132.734 44.0062 132.902 43.8386C133.069 43.6711 133.297 43.5769 133.534 43.5769H152.504C152.741 43.5769 152.969 43.6711 153.136 43.8386C153.304 44.0062 153.398 44.2335 153.398 44.4705C153.398 44.7074 153.304 44.9347 153.136 45.1023C152.969 45.2699 152.741 45.364 152.504 45.364H152.504Z" fill="#7A7F8D"/>
        <path d="M149.446 42.3053H136.592C136.355 42.3053 136.128 42.2112 135.96 42.0436C135.793 41.876 135.699 41.6488 135.699 41.4118C135.699 41.1748 135.793 40.9475 135.96 40.7799C136.128 40.6124 136.355 40.5182 136.592 40.5182H149.446C149.683 40.5182 149.91 40.6124 150.078 40.7799C150.245 40.9475 150.339 41.1748 150.339 41.4118C150.339 41.6488 150.245 41.876 150.078 42.0436C149.91 42.2112 149.683 42.3053 149.446 42.3053Z" fill="#7A7F8D"/>
        <path d="M158.865 52.2279H126.982V71.3442H158.865V52.2279Z" fill="#3D4353"/>
        <path d="M152.504 80.1262H133.534C133.297 80.1262 133.069 80.0321 132.902 79.8645C132.734 79.697 132.64 79.4697 132.64 79.2327C132.64 78.9957 132.734 78.7684 132.902 78.6009C133.069 78.4333 133.297 78.3391 133.534 78.3391H152.504C152.741 78.3391 152.969 78.4333 153.136 78.6009C153.304 78.7684 153.398 78.9957 153.398 79.2327C153.398 79.4697 153.304 79.697 153.136 79.8645C152.969 80.0321 152.741 80.1262 152.504 80.1262H152.504Z" fill="#7A7F8D"/>
        <path d="M149.446 77.0676H136.592C136.355 77.0676 136.128 76.9734 135.96 76.8059C135.793 76.6383 135.699 76.411 135.699 76.174C135.699 75.937 135.793 75.7098 135.96 75.5422C136.128 75.3746 136.355 75.2805 136.592 75.2805H149.446C149.682 75.2809 149.909 75.3752 150.077 75.5427C150.244 75.7102 150.338 75.9373 150.338 76.174C150.338 76.4107 150.244 76.6378 150.077 76.8053C149.909 76.9728 149.682 77.0672 149.446 77.0676Z" fill="#7A7F8D"/>
        <path d="M65.7472 50.1026C69.9174 50.1026 73.298 46.7219 73.298 42.5517C73.298 38.3815 69.9174 35.0009 65.7472 35.0009C61.577 35.0009 58.1964 38.3815 58.1964 42.5517C58.1964 46.7219 61.577 50.1026 65.7472 50.1026Z" fill="#9E616A"/>
        <path d="M78.4695 78.1335H59.5363L60.5989 54.1919L60.7296 54.0545L62.6095 52.0706H68.5878L70.8063 54.2183L70.9812 54.3889L75.7019 58.9123L78.4695 78.1335Z" fill="#ADDF45"/>
        <path d="M64.7771 78.1335H50.3873C50.2922 68.9713 50.2168 62.0587 50.2168 62.0587L50.952 61.6115L50.9564 61.6093L59.0269 56.7093L60.7208 53.9572L60.7297 54.0546L61.2279 59.8557C61.2279 59.8557 63.9357 68.6038 64.7771 78.1335Z" fill="#222429"/>
        <path d="M84.357 78.1335H71.5525C70.8682 75.0293 70.5118 72.0734 70.6668 69.609C71.2956 59.5413 69.8454 53.9572 70.4742 53.9572L70.8063 54.2184L74.7563 57.3382L79.9574 59.2446L83.5664 60.5686L84.1952 60.7989V61.1022C84.1975 62.6256 84.2129 69.6998 84.357 78.1335Z" fill="#222429"/>
        <path d="M58.6037 44.9141C58.6037 44.9141 59.2452 43.7875 59.0961 40.0237C58.9469 36.2599 64.6783 38.3887 69.4674 38.0296C74.2565 37.6706 73.2427 44.3133 73.2427 44.3133C73.2427 44.3133 73.5882 43.9184 74.3279 40.7125C75.0677 37.5065 73.3881 34.3116 73.3881 34.3116C72.8935 30.9427 70.2276 32.0224 70.2276 32.0224C71.5114 32.5222 71.2649 33.5909 71.2649 33.5909C70.1781 31.6855 67.5123 32.7653 67.5123 32.7653C63.9568 30.5341 60.3533 33.4723 60.3533 33.4723C56.0581 34.4471 58.577 37.8629 58.577 37.8629C54.2575 40.0458 58.6037 44.9141 58.6037 44.9141Z" fill="#222429"/>
        <path d="M46.2181 78.1335C46.5856 70.7847 46.8668 65.0191 46.7561 64.574C46.4462 63.3363 50.8191 61.6602 50.952 61.6115L50.9541 61.6093H50.9564L51.7911 62.0587L52.4022 78.1335H46.2181Z" fill="#222429"/>
        <path d="M87.3681 78.1335H80.8697L79.0097 59.7627L79.7758 59.2025C79.7758 59.2025 79.8423 59.218 79.9574 59.2446C80.553 59.3929 82.4749 59.8955 83.5664 60.5686C83.808 60.705 84.0214 60.8861 84.1952 61.1022C84.3016 61.2295 84.3548 61.3929 84.3437 61.5584C84.2883 62.0787 85.7054 69.4341 87.3681 78.1335Z" fill="#222429"/>
        <path d="M98.3083 85.5509H29.6695C29.4055 85.5513 29.1525 85.6565 28.966 85.8433C28.7795 86.0301 28.6747 86.2833 28.6747 86.5473C28.6747 86.8113 28.7795 87.0644 28.966 87.2512C29.1525 87.4381 29.4055 87.5432 29.6695 87.5436H98.3083C98.4393 87.5439 98.569 87.5182 98.6901 87.4683C98.8111 87.4183 98.9212 87.3449 99.0139 87.2524C99.1066 87.1598 99.1801 87.0499 99.2303 86.9289C99.2805 86.808 99.3063 86.6783 99.3063 86.5473C99.3063 86.4163 99.2805 86.2866 99.2303 86.1656C99.1801 86.0446 99.1066 85.9347 99.0139 85.8422C98.9212 85.7496 98.8111 85.6763 98.6901 85.6263C98.569 85.5763 98.4393 85.5507 98.3083 85.5509Z" fill="#3D4353"/>
        <path d="M79.7094 85.5509V87.5436H29.6695C29.4055 87.5432 29.1525 87.4381 28.966 87.2512C28.7795 87.0644 28.6747 86.8113 28.6747 86.5473C28.6747 86.2833 28.7795 86.0301 28.966 85.8433C29.1525 85.6565 29.4055 85.5513 29.6695 85.5509H79.7094Z" fill="#7E90BD"/>
        <path d="M79.7094 88.54C80.81 88.54 81.7022 87.6479 81.7022 86.5473C81.7022 85.4467 80.81 84.5546 79.7094 84.5546C78.6089 84.5546 77.7167 85.4467 77.7167 86.5473C77.7167 87.6479 78.6089 88.54 79.7094 88.54Z" fill="#7E90BD"/>
        <path d="M63.9889 103.153C63.1753 103.153 62.38 102.912 61.7035 102.46C61.0271 102.008 60.4998 101.366 60.1885 100.614C59.8772 99.8624 59.7957 99.0354 59.9544 98.2374C60.1131 97.4395 60.5049 96.7065 61.0802 96.1312C61.6555 95.5559 62.3884 95.1642 63.1864 95.0054C63.9843 94.8467 64.8114 94.9282 65.5631 95.2395C66.3147 95.5509 66.9572 96.0781 67.4092 96.7546C67.8612 97.431 68.1024 98.2263 68.1024 99.0399C68.1012 100.131 67.6674 101.176 66.8962 101.947C66.1251 102.718 65.0795 103.152 63.9889 103.153ZM63.9889 95.2428C63.2379 95.2428 62.5038 95.4655 61.8793 95.8827C61.2549 96.3 60.7682 96.893 60.4808 97.5868C60.1934 98.2807 60.1182 99.0441 60.2648 99.7807C60.4113 100.517 60.7729 101.194 61.3039 101.725C61.835 102.256 62.5115 102.618 63.2481 102.764C63.9847 102.911 64.7481 102.835 65.442 102.548C66.1358 102.261 66.7288 101.774 67.1461 101.149C67.5633 100.525 67.786 99.7909 67.786 99.0399C67.7848 98.0332 67.3844 97.0681 66.6726 96.3562C65.9607 95.6444 64.9956 95.244 63.9889 95.2428V95.2428Z" fill="#ADDF45"/>
        <path d="M63.4456 101.255C63.4037 101.255 63.3634 101.238 63.3338 101.209C63.3041 101.179 63.2874 101.139 63.2874 101.097V96.9832C63.2872 96.9623 63.2911 96.9415 63.299 96.9221C63.3069 96.9027 63.3185 96.8851 63.3332 96.8703C63.3479 96.8554 63.3654 96.8436 63.3847 96.8356C63.404 96.8275 63.4247 96.8234 63.4456 96.8234C63.4665 96.8234 63.4873 96.8275 63.5065 96.8356C63.5258 96.8436 63.5434 96.8554 63.5581 96.8703C63.5728 96.8851 63.5844 96.9027 63.5923 96.9221C63.6001 96.9415 63.6041 96.9623 63.6038 96.9832V101.097C63.6038 101.139 63.5872 101.179 63.5575 101.209C63.5278 101.238 63.4876 101.255 63.4456 101.255Z" fill="#ADDF45"/>
        <path d="M64.5321 101.255C64.4902 101.255 64.4499 101.238 64.4202 101.209C64.3906 101.179 64.3739 101.139 64.3739 101.097V96.9832C64.3737 96.9623 64.3777 96.9416 64.3855 96.9222C64.3934 96.9028 64.405 96.8852 64.4197 96.8704C64.4344 96.8555 64.4519 96.8437 64.4712 96.8357C64.4905 96.8277 64.5112 96.8235 64.5321 96.8235C64.553 96.8235 64.5737 96.8277 64.593 96.8357C64.6123 96.8437 64.6298 96.8555 64.6445 96.8704C64.6592 96.8852 64.6708 96.9028 64.6787 96.9222C64.6866 96.9416 64.6905 96.9623 64.6903 96.9832V101.097C64.6903 101.139 64.6737 101.179 64.644 101.209C64.6143 101.238 64.5741 101.255 64.5321 101.255Z" fill="#ADDF45"/>
        <path d="M45.148 99.0399C45.148 98.2263 45.3893 97.431 45.8413 96.7546C46.2933 96.0781 46.9357 95.5509 47.6874 95.2395C48.439 94.9282 49.2661 94.8467 50.064 95.0054C50.862 95.1642 51.5949 95.5559 52.1702 96.1312C52.7455 96.7065 53.1373 97.4395 53.296 98.2374C53.4547 99.0354 53.3733 99.8624 53.0619 100.614C52.7506 101.366 52.2233 102.008 51.5469 102.46C50.8704 102.912 50.0751 103.153 49.2615 103.153C48.1709 103.152 47.1254 102.718 46.3542 101.947C45.583 101.176 45.1492 100.131 45.148 99.0399ZM45.4644 99.0399C45.4644 99.7909 45.6871 100.525 46.1044 101.149C46.5216 101.774 47.1146 102.261 47.8085 102.548C48.5023 102.835 49.2658 102.911 50.0023 102.764C50.7389 102.618 51.4155 102.256 51.9465 101.725C52.4775 101.194 52.8392 100.517 52.9857 99.7807C53.1322 99.0441 53.057 98.2807 52.7696 97.5868C52.4822 96.893 51.9955 96.3 51.3711 95.8827C50.7467 95.4655 50.0125 95.2428 49.2615 95.2428C48.2548 95.244 47.2897 95.6444 46.5778 96.3562C45.866 97.0681 45.4656 98.0332 45.4644 99.0399H45.4644Z" fill="#E7E7E7"/>
        <path d="M51.0382 100.425C51.0672 100.425 51.0954 100.415 51.1184 100.398C51.1414 100.38 51.1579 100.355 51.1654 100.327C51.173 100.299 51.171 100.27 51.1599 100.243C51.1489 100.216 51.1293 100.194 51.1042 100.179L49.1306 99.0399L51.1042 97.9005C51.1344 97.8831 51.1564 97.8544 51.1655 97.8206C51.1745 97.7869 51.1698 97.751 51.1523 97.7208C51.1349 97.6906 51.1062 97.6685 51.0724 97.6595C51.0387 97.6504 51.0028 97.6551 50.9726 97.6726L48.8017 98.926C48.7817 98.9375 48.7651 98.9541 48.7535 98.9742C48.742 98.9942 48.7359 99.0168 48.7359 99.0399C48.7359 99.063 48.742 99.0857 48.7535 99.1057C48.7651 99.1257 48.7817 99.1424 48.8017 99.1539L50.9726 100.407C50.9925 100.419 51.0152 100.425 51.0382 100.425Z" fill="#E7E7E7"/>
        <path d="M48.1274 100.882C48.1623 100.882 48.1957 100.868 48.2204 100.843C48.2451 100.819 48.2589 100.785 48.2589 100.75V97.3295C48.2589 97.2946 48.2451 97.2612 48.2204 97.2365C48.1957 97.2118 48.1623 97.1979 48.1274 97.1979C48.0925 97.1979 48.059 97.2118 48.0343 97.2365C48.0097 97.2612 47.9958 97.2946 47.9958 97.3295V100.75C47.9958 100.785 48.0097 100.819 48.0343 100.843C48.059 100.868 48.0925 100.882 48.1274 100.882Z" fill="#E7E7E7"/>
        <path d="M78.7162 103.153C77.9027 103.153 77.1073 102.912 76.4309 102.46C75.7544 102.008 75.2272 101.366 74.9158 100.614C74.6045 99.8624 74.523 99.0354 74.6818 98.2374C74.8405 97.4395 75.2322 96.7065 75.8075 96.1312C76.3828 95.5559 77.1158 95.1642 77.9137 95.0054C78.7117 94.8467 79.5388 94.9282 80.2904 95.2395C81.0421 95.5509 81.6845 96.0781 82.1365 96.7546C82.5885 97.431 82.8298 98.2263 82.8298 99.0399C82.8285 100.131 82.3947 101.176 81.6236 101.947C80.8524 102.718 79.8068 103.152 78.7162 103.153ZM78.7162 95.2428C77.9653 95.2428 77.2311 95.4655 76.6067 95.8827C75.9823 96.3 75.4956 96.893 75.2082 97.5868C74.9208 98.2807 74.8456 99.0441 74.9921 99.7807C75.1386 100.517 75.5003 101.194 76.0313 101.725C76.5623 102.256 77.2389 102.618 77.9755 102.764C78.712 102.911 79.4755 102.835 80.1693 102.548C80.8632 102.261 81.4562 101.774 81.8734 101.149C82.2906 100.525 82.5133 99.7909 82.5133 99.0399C82.5122 98.0332 82.1118 97.0681 81.3999 96.3562C80.6881 95.6444 79.7229 95.244 78.7162 95.2428V95.2428Z" fill="#E7E7E7"/>
        <path d="M76.9396 100.425C76.9106 100.425 76.8824 100.415 76.8594 100.398C76.8364 100.38 76.8199 100.355 76.8124 100.327C76.8048 100.299 76.8068 100.27 76.8179 100.243C76.829 100.216 76.8485 100.194 76.8736 100.179L78.8472 99.0399L76.8736 97.9005C76.8435 97.883 76.8216 97.8543 76.8126 97.8206C76.8037 97.787 76.8084 97.7512 76.8259 97.721C76.8433 97.6908 76.8719 97.6688 76.9055 97.6597C76.9391 97.6507 76.975 97.6553 77.0052 97.6726L79.1761 98.926C79.1961 98.9375 79.2127 98.9541 79.2243 98.9741C79.2358 98.9941 79.2419 99.0168 79.2419 99.0399C79.2419 99.063 79.2358 99.0857 79.2243 99.1057C79.2127 99.1257 79.1961 99.1423 79.1761 99.1539L77.0052 100.407C76.9852 100.419 76.9626 100.425 76.9396 100.425Z" fill="#E7E7E7"/>
        <path d="M79.8504 100.882C79.8155 100.882 79.782 100.868 79.7574 100.843C79.7327 100.819 79.7188 100.785 79.7188 100.75V97.3295C79.7188 97.2946 79.7327 97.2612 79.7574 97.2365C79.782 97.2118 79.8155 97.1979 79.8504 97.1979C79.8853 97.1979 79.9187 97.2118 79.9434 97.2365C79.9681 97.2612 79.982 97.2946 79.982 97.3295V100.75C79.9819 100.785 79.9681 100.819 79.9434 100.843C79.9187 100.868 79.8853 100.882 79.8504 100.882Z" fill="#E7E7E7"/>
        <path d="M24.4159 102.14C24.1985 101.922 24.0314 101.66 23.9266 101.37C23.8217 101.081 23.7816 100.772 23.809 100.465C23.8364 100.159 23.9307 99.8621 24.0852 99.596C24.2398 99.3298 24.4508 99.1008 24.7034 98.925L22.6795 91.7228L26.3829 92.9052L27.7371 99.5632C28.0043 100.007 28.0993 100.534 28.0042 101.043C27.9091 101.552 27.6305 102.009 27.2211 102.327C26.8117 102.645 26.3 102.801 25.783 102.767C25.266 102.732 24.7796 102.509 24.4159 102.14Z" fill="#FFB6B6"/>
        <path d="M23.426 66.2574L22.6589 65.459C22.6589 65.459 20.2871 67.0881 20.7889 72.1382C21.1596 75.8684 19.9882 77.4503 20.1192 88.2923L23.426 98.2214L27.2509 96.2165L24.4836 83.9651L23.426 66.2574Z" fill="#ADDF45"/>
        <path d="M26.2954 146.843H29.0379L30.3428 136.265L26.2949 136.265L26.2954 146.843Z" fill="#FFB6B6"/>
        <path d="M25.5958 145.948L30.9969 145.948H30.9971C31.91 145.948 32.7854 146.31 33.4309 146.956C34.0764 147.601 34.4391 148.477 34.4391 149.39V149.501L25.596 149.502L25.5958 145.948Z" fill="#222429"/>
        <path d="M34.2935 145.872L37.0157 146.206L39.5985 135.865L35.5809 135.372L34.2935 145.872Z" fill="#FFB6B6"/>
        <path d="M33.7081 144.898L39.069 145.555L39.0692 145.555C39.9753 145.667 40.8001 146.133 41.3622 146.852C41.9243 147.572 42.1776 148.485 42.0666 149.391L42.053 149.502L33.2756 148.425L33.7081 144.898Z" fill="#222429"/>
        <path d="M24.8738 92.6059C24.8738 92.6059 19.5908 96.2165 22.2322 105.99L25.8043 143.925L30.0482 143.895L31.8458 125.176L33.0674 111.998L37.1493 125.625L33.7919 142.347L38.7471 142.868L44.684 123.423L41.821 95.7373L24.8738 92.6059Z" fill="#222429"/>
        <path d="M37.6212 64.4341L34.9349 62.2735L27.8111 61.9803L22.6589 65.459C22.6589 65.459 22.1271 77.846 25.6135 88.8802L23.7856 93.4895L42.0614 95.7822L37.6212 64.4341Z" fill="#ADDF45"/>
        <path d="M31.8615 59.3292C35.2363 59.3292 37.9721 56.5934 37.9721 53.2186C37.9721 49.8438 35.2363 47.108 31.8615 47.108C28.4867 47.108 25.7509 49.8438 25.7509 53.2186C25.7509 56.5934 28.4867 59.3292 31.8615 59.3292Z" fill="#FFB6B6"/>
        <path d="M33.4644 45.6649H32.1064C31.1602 45.3829 30.1612 45.3258 29.189 45.4981C28.2168 45.6704 27.2983 46.0674 26.5066 46.6574C25.715 47.2475 25.0721 48.0143 24.6291 48.8967C24.1862 49.7791 23.9555 50.7528 23.9554 51.7401L21.8405 58.7192C21.7795 58.9205 21.7665 59.1332 21.8025 59.3404C21.8385 59.5476 21.9225 59.7435 22.0478 59.9124C22.1731 60.0813 22.3362 60.2184 22.5241 60.313C22.7119 60.4075 22.9193 60.4567 23.1296 60.4567H24.1619C24.5941 59.841 24.7827 59.0869 24.6911 58.3402C24.883 58.8077 25.0175 59.2967 25.0916 59.7966C25.1156 60.0163 25.111 60.2382 25.0781 60.4567H34.059C34.1171 59.5759 33.8253 58.7077 33.247 58.0407C33.9706 58.7636 34.5994 59.5754 35.1185 60.4567H35.2872C35.6444 60.4567 35.987 60.3148 36.2396 60.0622C36.4922 59.8096 36.6341 59.4671 36.6341 59.1098V52.2684H40.0679C40.0679 51.4012 39.8971 50.5425 39.5652 49.7414C39.2334 48.9402 38.747 48.2122 38.1338 47.599C37.5206 46.9859 36.7926 46.4994 35.9914 46.1676C35.1903 45.8357 34.3316 45.6649 33.4644 45.6649Z" fill="#222429"/>
        <path d="M40.2642 101.612C40.0468 101.394 39.8798 101.131 39.7749 100.842C39.6701 100.553 39.6299 100.244 39.6573 99.9372C39.6848 99.6307 39.779 99.3339 39.9336 99.0677C40.0881 98.8016 40.2991 98.5725 40.5517 98.3967L38.5278 91.1945L42.2313 92.3769L43.5854 99.035C43.8526 99.479 43.9477 100.006 43.8526 100.515C43.7575 101.024 43.4788 101.481 43.0694 101.799C42.6601 102.116 42.1484 102.273 41.6313 102.238C41.1143 102.204 40.6279 101.981 40.2642 101.612Z" fill="#FFB6B6"/>
        <path d="M35.3047 65.8009L37.6212 64.4341C37.6212 64.4341 41.2648 63.7918 41.6537 68.6462C42.0427 73.5005 42.6029 86.1015 42.6029 86.1015L43.7393 96.724L39.522 97.6232L34.6749 83.0969L35.3047 65.8009Z" fill="#ADDF45"/>
        <path d="M56.5766 150H0.57902C0.508966 150 0.441785 149.972 0.392249 149.923C0.342713 149.873 0.31488 149.806 0.31488 149.736C0.31488 149.666 0.342713 149.599 0.392249 149.549C0.441785 149.5 0.508966 149.472 0.57902 149.472H56.5766C56.6466 149.472 56.7138 149.5 56.7634 149.549C56.8129 149.599 56.8407 149.666 56.8407 149.736C56.8407 149.806 56.8129 149.873 56.7634 149.923C56.7138 149.972 56.6466 150 56.5766 150Z" fill="#3D4353"/>
    </g>
    <defs>
        <clipPath id="clip0_1105_8426">
            <rect width="163.37" height="150" fill="white" transform="translate(0.31488)"/>
        </clipPath>
    </defs>
</svg>
