<svg width="198" height="149" viewBox="0 0 198 149" fill="none" xmlns="http://www.w3.org/2000/svg">
<g clip-path="url(#clip0_94_3700)">
<path d="M186.333 135.176C186.213 139.668 185.463 144.12 184.104 148.401C184.074 148.501 184.041 148.599 184.008 148.698H175.69C175.698 148.609 175.707 148.509 175.716 148.401C176.271 142.008 173.102 103.561 169.279 96.9065C169.614 97.4462 186.978 114.862 186.333 135.176Z" fill="#3D4353"/>
<path d="M185.709 148.401C185.64 148.501 185.567 148.6 185.493 148.698H179.252C179.3 148.613 179.355 148.514 179.418 148.401C180.449 146.536 183.5 140.958 186.333 135.176C189.375 128.962 192.169 122.513 191.934 120.178C192.007 120.705 194.113 136.754 185.709 148.401Z" fill="#3D4353"/>
<path d="M157.038 121.211H0V0H157.038V121.211Z" fill="#333844"/>
<path d="M157.038 121.211H0V0H157.038V121.211ZM2.32023 118.885H154.718V2.32642H2.32023V118.885Z" fill="#3D4353"/>
<path d="M41.0992 91.37H29.2095C28.8876 91.3697 28.5789 91.2413 28.3512 91.013C28.1236 90.7848 27.9955 90.4753 27.9951 90.1525V73.7187C27.9955 73.3959 28.1236 73.0864 28.3512 72.8582C28.5789 72.6299 28.8876 72.5015 29.2095 72.5012H41.0992C41.4212 72.5015 41.7299 72.6299 41.9575 72.8582C42.1852 73.0864 42.3133 73.3959 42.3137 73.7187V90.1525C42.3133 90.4753 42.1852 90.7848 41.9575 91.013C41.7299 91.2413 41.4212 91.3697 41.0992 91.37V91.37Z" fill="#646D85"/>
<path d="M62.7819 91.37H50.8922C50.5702 91.3697 50.2615 91.2413 50.0339 91.013C49.8062 90.7848 49.6781 90.4753 49.6777 90.1525V58.1314C49.6781 57.8086 49.8062 57.4991 50.0339 57.2708C50.2615 57.0426 50.5702 56.9142 50.8922 56.9138H62.7819C63.1038 56.9142 63.4125 57.0426 63.6402 57.2708C63.8678 57.4991 63.9959 57.8086 63.9963 58.1314V90.1525C63.9959 90.4753 63.8678 90.7848 63.6402 91.013C63.4125 91.2413 63.1038 91.3697 62.7819 91.37Z" fill="#646D85"/>
<path d="M84.464 91.37H72.5743C72.2523 91.3697 71.9437 91.2413 71.716 91.013C71.4883 90.7848 71.3602 90.4753 71.3599 90.1525V73.7187C71.3602 73.3959 71.4883 73.0864 71.716 72.8582C71.9437 72.6299 72.2523 72.5015 72.5743 72.5012H84.464C84.7859 72.5015 85.0946 72.6299 85.3223 72.8582C85.5499 73.0864 85.678 73.3959 85.6784 73.7187V90.1525C85.678 90.4753 85.5499 90.7848 85.3223 91.013C85.0946 91.2413 84.7859 91.3697 84.464 91.37V91.37Z" fill="#646D85"/>
<path d="M106.147 91.37H94.2569C93.9423 91.3768 93.6378 91.2583 93.4102 91.0404C93.1825 90.8225 93.0503 90.5231 93.0425 90.2076V51.9233C93.0503 51.6079 93.1825 51.3084 93.4102 51.0905C93.6378 50.8727 93.9423 50.7541 94.2569 50.7609H106.147C106.461 50.7541 106.766 50.8727 106.993 51.0905C107.221 51.3084 107.353 51.6079 107.361 51.9233V90.2076C107.353 90.5231 107.221 90.8225 106.993 91.0404C106.766 91.2583 106.461 91.3768 106.147 91.37Z" fill="#646D85"/>
<path d="M127.829 91.37H115.939C115.617 91.3696 115.308 91.2413 115.081 91.013C114.853 90.7847 114.725 90.4753 114.725 90.1524V40.9033C114.725 40.5804 114.853 40.271 115.081 40.0427C115.308 39.8144 115.617 39.6861 115.939 39.6857H127.829C128.151 39.6861 128.459 39.8144 128.687 40.0427C128.915 40.271 129.043 40.5804 129.043 40.9033V90.1524C129.043 90.4753 128.915 90.7847 128.687 91.013C128.459 91.2413 128.151 91.3696 127.829 91.37Z" fill="#646D85"/>
<path d="M35.1543 67.5788C36.51 67.5788 37.6089 66.4769 37.6089 65.1177C37.6089 63.7584 36.51 62.6565 35.1543 62.6565C33.7987 62.6565 32.6997 63.7584 32.6997 65.1177C32.6997 66.4769 33.7987 67.5788 35.1543 67.5788Z" fill="#93BC1E"/>
<path d="M56.8369 51.5813C58.1926 51.5813 59.2915 50.4794 59.2915 49.1202C59.2915 47.7609 58.1926 46.659 56.8369 46.659C55.4813 46.659 54.3823 47.7609 54.3823 49.1202C54.3823 50.4794 55.4813 51.5813 56.8369 51.5813Z" fill="#93BC1E"/>
<path d="M78.5191 67.5788C79.8747 67.5788 80.9737 66.4769 80.9737 65.1177C80.9737 63.7584 79.8747 62.6565 78.5191 62.6565C77.1634 62.6565 76.0645 63.7584 76.0645 65.1177C76.0645 66.4769 77.1634 67.5788 78.5191 67.5788Z" fill="#93BC1E"/>
<path d="M100.202 43.7876C101.557 43.7876 102.656 42.6857 102.656 41.3265C102.656 39.9672 101.557 38.8653 100.202 38.8653C98.846 38.8653 97.7471 39.9672 97.7471 41.3265C97.7471 42.6857 98.846 43.7876 100.202 43.7876Z" fill="#93BC1E"/>
<path d="M121.884 34.7634C123.239 34.7634 124.338 33.6615 124.338 32.3022C124.338 30.943 123.239 29.8411 121.884 29.8411C120.528 29.8411 119.429 30.943 119.429 32.3022C119.429 33.6615 120.528 34.7634 121.884 34.7634Z" fill="#93BC1E"/>
<path d="M78.571 65.669L56.8367 49.3466L35.3998 65.446L34.9092 64.7893L56.8367 48.3214L78.4673 64.5663L99.9623 40.9809L100.049 40.9458L121.731 32.1864L122.037 32.9475L100.441 41.6719L78.571 65.669Z" fill="#93BC1E"/>
<path d="M152.214 144.981L148.521 144.981L146.764 130.697L152.215 130.698L152.214 144.981Z" fill="#FFB6B6"/>
<path d="M153.156 148.571L141.247 148.57V148.419C141.247 147.187 141.736 146.005 142.605 145.133C143.474 144.261 144.653 143.772 145.882 143.772H145.883L153.156 143.772L153.156 148.571Z" fill="#222429"/>
<path d="M139.015 84.5253L141.112 118.022L148.152 141.6L153.606 141.996L150.867 113.26L152.068 94.1774C152.068 94.1774 157.761 89.9225 154.613 84.8007L139.015 84.5253Z" fill="#222429"/>
<path d="M154.624 144.981L150.931 144.981L149.174 130.697L154.625 130.698L154.624 144.981Z" fill="#FFB6B6"/>
<path d="M155.566 148.571L143.657 148.57V148.419C143.657 147.187 144.146 146.005 145.015 145.133C145.884 144.261 147.063 143.772 148.292 143.772H148.293L155.566 143.772L155.566 148.571Z" fill="#222429"/>
<path d="M141.425 84.5253L143.522 118.022L150.561 141.6L156.016 141.996L153.277 113.26L154.478 94.1774C154.478 94.1774 160.171 89.9225 157.023 84.8007L141.425 84.5253Z" fill="#222429"/>
<path d="M152.791 89.7124C146.502 89.7124 139.1 85.8586 138.671 85.6322L138.551 85.5692L152.986 48.646L160.135 45.2597C160.685 44.999 161.295 44.8903 161.901 44.9448C162.508 44.9994 163.089 45.2152 163.584 45.57C164.079 45.9247 164.471 46.4057 164.72 46.9631C164.968 47.5205 165.063 48.1342 164.995 48.7409L162.159 74.2586L159.197 87.475L159.166 87.506C157.532 89.1251 155.246 89.7124 152.791 89.7124Z" fill="#474F65"/>
<path d="M129.725 65.2699C130.099 65.0321 130.521 64.8794 130.96 64.8226C131.399 64.7658 131.846 64.8063 132.268 64.9411C132.689 65.076 133.077 65.3019 133.402 65.6031C133.728 65.9043 133.983 66.2734 134.151 66.6843L144.9 66.0955L142.08 70.9395L132.305 70.756C131.597 70.9928 130.828 70.9614 130.143 70.6675C129.457 70.3737 128.903 69.8379 128.585 69.1616C128.267 68.4854 128.207 67.7157 128.418 66.9984C128.628 66.2812 129.093 65.6661 129.725 65.2699V65.2699Z" fill="#FFB6B6"/>
<path d="M150.938 72.8525L140.166 72.5768L140.305 65.4323L145.398 63.8067L153.753 52.0567C154.172 51.4683 154.703 50.9701 155.317 50.5913C155.931 50.2126 156.614 49.9611 157.326 49.8517C158.039 49.7422 158.766 49.7772 159.464 49.9543C160.163 50.1315 160.819 50.4473 161.394 50.8832C161.969 51.319 162.451 51.866 162.811 52.4917C163.171 53.1175 163.403 53.8093 163.492 54.5264C163.581 55.2434 163.526 55.971 163.329 56.6663C163.133 57.3615 162.8 58.0103 162.349 58.5741L150.938 72.8525Z" fill="#474F65"/>
<path d="M157.175 43.8992C161.128 43.8992 164.332 40.6861 164.332 36.7225C164.332 32.7588 161.128 29.5457 157.175 29.5457C153.222 29.5457 150.017 32.7588 150.017 36.7225C150.017 40.6861 153.222 43.8992 157.175 43.8992Z" fill="#FFB6B6"/>
<path d="M148.119 30.7418C148.842 29.9992 149.781 29.5053 150.8 29.3312C151.795 29.1167 152.885 29.0503 153.68 28.425C154.584 27.7031 154.982 26.3318 156.09 26.0267C156.573 25.9296 157.072 25.9693 157.533 26.1415C159.305 26.6773 160.878 27.7286 162.052 29.1621C162.329 29.5728 162.682 29.9266 163.091 30.2041C163.336 30.3082 163.576 30.4251 163.808 30.5545C164.064 30.7565 164.265 31.0192 164.393 31.3187C165.192 32.9366 165.376 34.791 164.911 36.5352C164.634 37.5652 164.134 38.5197 163.839 39.5557C163.543 40.5917 162.178 42.5626 161.859 42.0733C161.539 41.584 161.13 41.1279 160.955 40.563C160.614 39.452 160.922 38.3339 160.055 37.5621C159.519 37.0849 158.549 36.7647 158.184 37.3809C158.04 37.6195 158.049 37.9216 157.925 38.1693C157.681 38.6526 156.976 38.7492 156.509 38.4713C156.059 38.1598 155.743 37.6895 155.623 37.1544C154.922 34.7742 153.726 33.276 151.186 34.2939C150.24 34.6745 149.126 34.9312 148.216 34.2788C147.017 33.421 147.261 31.7204 148.119 30.7418Z" fill="#222429"/>
<path d="M132.047 95.2967H120.157C119.835 95.2963 119.526 95.1679 119.299 94.9397C119.071 94.7114 118.943 94.402 118.942 94.0791V44.83C118.943 44.5071 119.071 44.1977 119.299 43.9694C119.526 43.7411 119.835 43.6128 120.157 43.6124H132.047C132.368 43.6128 132.677 43.7411 132.905 43.9694C133.132 44.1977 133.261 44.5071 133.261 44.83V94.0791C133.261 94.402 133.132 94.7114 132.905 94.9397C132.677 95.1679 132.368 95.2963 132.047 95.2967V95.2967Z" fill="#ADDF45"/>
<path d="M129.424 69.4986C129.798 69.2609 130.22 69.1082 130.659 69.0514C131.098 68.9946 131.544 69.035 131.966 69.1699C132.388 69.3047 132.775 69.5307 133.101 69.8319C133.426 70.1331 133.682 70.5021 133.85 70.9131L144.599 70.3243L141.778 75.1683L132.003 74.9848C131.296 75.2216 130.527 75.1901 129.841 74.8963C129.156 74.6024 128.601 74.0666 128.283 73.3904C127.966 72.7142 127.906 71.9445 128.116 71.2272C128.326 70.5099 128.792 69.8949 129.424 69.4986H129.424Z" fill="#FFB6B6"/>
<path d="M150.636 77.0812L139.864 76.8056L140.003 69.661L145.097 68.0354L153.452 56.2854C153.87 55.6971 154.402 55.1988 155.016 54.82C155.63 54.4413 156.313 54.1898 157.025 54.0804C157.738 53.971 158.465 54.0059 159.163 54.1831C159.862 54.3602 160.518 54.6761 161.093 55.1119C161.668 55.5477 162.149 56.0947 162.51 56.7205C162.87 57.3462 163.102 58.0381 163.191 58.7551C163.28 59.4721 163.224 60.1998 163.028 60.895C162.832 61.5903 162.499 62.239 162.048 62.8029L150.636 77.0812Z" fill="#474F65"/>
<path d="M197.699 149H82.9227C82.8831 149 82.8438 148.992 82.8072 148.977C82.7705 148.962 82.7372 148.94 82.7091 148.912C82.6811 148.884 82.6588 148.85 82.6436 148.814C82.6284 148.777 82.6206 148.738 82.6206 148.698C82.6206 148.658 82.6284 148.619 82.6436 148.582C82.6588 148.545 82.6811 148.512 82.7091 148.484C82.7372 148.456 82.7705 148.434 82.8072 148.419C82.8438 148.404 82.8831 148.396 82.9227 148.396H197.699C197.738 148.396 197.777 148.404 197.814 148.419C197.851 148.434 197.884 148.456 197.912 148.484C197.94 148.512 197.962 148.545 197.978 148.582C197.993 148.619 198.001 148.658 198.001 148.698C198.001 148.738 197.993 148.777 197.978 148.814C197.962 148.85 197.94 148.884 197.912 148.912C197.884 148.94 197.851 148.962 197.814 148.977C197.777 148.992 197.738 149 197.699 149V149Z" fill="#333844"/>
</g>
<defs>
<clipPath id="clip0_94_3700">
<rect width="198" height="149" fill="white"/>
</clipPath>
</defs>
</svg>
