<svg width="200" height="239" viewBox="0 0 200 239" fill="none" xmlns="http://www.w3.org/2000/svg">
<rect width="200" height="174" fill="#DFDFDF"/>
<rect y="180" width="60.4651" height="58.7209" fill="#DFDFDF"/>
<rect x="4.65137" y="184.651" width="51.1628" height="23.2558" fill="#4B4B4B"/>
<rect x="4.65137" y="212.558" width="51.1628" height="4.65116" fill="#4B4B4B"/>
<rect x="4.65137" y="221.86" width="27.907" height="4.65116" fill="#4B4B4B"/>
<rect x="69.7676" y="180" width="60.4651" height="58.7209" fill="#DFDFDF"/>
<rect x="74.4189" y="184.651" width="51.1628" height="23.2558" fill="#4B4B4B"/>
<rect x="74.4189" y="212.558" width="51.1628" height="4.65116" fill="#4B4B4B"/>
<rect x="74.4189" y="221.86" width="27.907" height="4.65116" fill="#4B4B4B"/>
<rect x="139.535" y="180" width="60.4651" height="58.7209" fill="#DFDFDF"/>
<rect x="144.187" y="184.651" width="51.1628" height="23.2558" fill="#4B4B4B"/>
<rect x="144.187" y="212.558" width="51.1628" height="4.65116" fill="#4B4B4B"/>
<rect x="144.187" y="221.86" width="27.907" height="4.65116" fill="#4B4B4B"/>
<rect x="5" y="7" width="187" height="53" fill="#4B4B4B"/>
<rect x="5" y="66" width="151" height="5" fill="#4B4B4B"/>
<rect x="5" y="120" width="151" height="5" fill="#4B4B4B"/>
<rect x="5" y="77" width="155" height="2" fill="#4B4B4B"/>
<rect x="5" y="84" width="131" height="2" fill="#4B4B4B"/>
<rect x="5" y="91" width="174" height="2" fill="#4B4B4B"/>
<rect x="5" y="98" width="96" height="2" fill="#4B4B4B"/>
<rect x="23" y="137" width="75" height="2" fill="#4B4B4B"/>
<rect x="23" y="154" width="75" height="2" fill="#4B4B4B"/>
<rect x="23" y="142" width="54" height="2" fill="#4B4B4B"/>
<rect x="23" y="159" width="54" height="2" fill="#4B4B4B"/>
<circle cx="13.5" cy="140.5" r="5.5" fill="#9B9B9B"/>
<circle cx="13.5" cy="157.5" r="5.5" fill="#9B9B9B"/>
</svg>
