<svg width="200" height="124" viewBox="0 0 200 124" fill="none" xmlns="http://www.w3.org/2000/svg">
<rect width="60.4651" height="58.7209" fill="#DFDFDF"/>
<rect x="4.65137" y="4.65116" width="51.1628" height="23.2558" fill="#4B4B4B"/>
<rect x="4.65137" y="32.5581" width="51.1628" height="4.65116" fill="#4B4B4B"/>
<rect x="4.65137" y="41.8605" width="27.907" height="4.65116" fill="#4B4B4B"/>
<rect y="65.1163" width="60.4651" height="58.7209" fill="#DFDFDF"/>
<rect x="4.65137" y="69.7675" width="51.1628" height="23.2558" fill="#4B4B4B"/>
<rect x="4.65137" y="97.6744" width="51.1628" height="4.65116" fill="#4B4B4B"/>
<rect x="4.65137" y="106.977" width="27.907" height="4.65116" fill="#4B4B4B"/>
<rect x="69.7676" width="60.4651" height="58.7209" fill="#DFDFDF"/>
<rect x="74.4189" y="4.65116" width="51.1628" height="23.2558" fill="#4B4B4B"/>
<rect x="74.4189" y="32.5581" width="51.1628" height="4.65116" fill="#4B4B4B"/>
<rect x="74.4189" y="41.8605" width="27.907" height="4.65116" fill="#4B4B4B"/>
<rect x="69.7676" y="65.1163" width="60.4651" height="58.7209" fill="#DFDFDF"/>
<rect x="74.4189" y="69.7675" width="51.1628" height="23.2558" fill="#4B4B4B"/>
<rect x="74.4189" y="97.6744" width="51.1628" height="4.65116" fill="#4B4B4B"/>
<rect x="74.4189" y="106.977" width="27.907" height="4.65116" fill="#4B4B4B"/>
<rect x="139.535" width="60.4651" height="58.7209" fill="#DFDFDF"/>
<rect x="144.186" y="4.65116" width="51.1628" height="23.2558" fill="#4B4B4B"/>
<rect x="144.186" y="32.5581" width="51.1628" height="4.65116" fill="#4B4B4B"/>
<rect x="144.186" y="41.8605" width="27.907" height="4.65116" fill="#4B4B4B"/>
<rect x="139.535" y="65.1163" width="60.4651" height="58.7209" fill="#DFDFDF"/>
<rect x="144.186" y="69.7675" width="51.1628" height="23.2558" fill="#4B4B4B"/>
<rect x="144.186" y="97.6744" width="51.1628" height="4.65116" fill="#4B4B4B"/>
<rect x="144.186" y="106.977" width="27.907" height="4.65116" fill="#4B4B4B"/>
</svg>
