<svg width="200" height="239" viewBox="0 0 200 239" fill="none" xmlns="http://www.w3.org/2000/svg">
<rect width="200" height="108" fill="#DFDFDF"/>
<rect y="180" width="60.4651" height="58.7209" fill="#DFDFDF"/>
<rect x="4.65137" y="184.651" width="51.1628" height="23.2558" fill="#4B4B4B"/>
<rect x="4.65137" y="212.558" width="51.1628" height="4.65116" fill="#4B4B4B"/>
<rect x="4.65137" y="221.86" width="27.907" height="4.65116" fill="#4B4B4B"/>
<rect y="180" width="60.4651" height="58.7209" fill="#DFDFDF"/>
<rect x="4.65137" y="184.651" width="51.1628" height="23.2558" fill="#4B4B4B"/>
<rect x="4.65137" y="212.558" width="51.1628" height="4.65116" fill="#4B4B4B"/>
<rect x="4.65137" y="221.86" width="27.907" height="4.65116" fill="#4B4B4B"/>
<rect y="115" width="60.4651" height="58.7209" fill="#DFDFDF"/>
<rect x="4.65137" y="119.651" width="51.1628" height="23.2558" fill="#4B4B4B"/>
<rect x="4.65137" y="147.558" width="51.1628" height="4.65116" fill="#4B4B4B"/>
<rect x="4.65137" y="156.86" width="27.907" height="4.65116" fill="#4B4B4B"/>
<rect x="69.7676" y="180" width="60.4651" height="58.7209" fill="#DFDFDF"/>
<rect x="74.4189" y="184.651" width="51.1628" height="23.2558" fill="#4B4B4B"/>
<rect x="74.4189" y="212.558" width="51.1628" height="4.65116" fill="#4B4B4B"/>
<rect x="74.4189" y="221.86" width="27.907" height="4.65116" fill="#4B4B4B"/>
<rect x="69.4648" y="180" width="60.4651" height="58.7209" fill="#DFDFDF"/>
<rect x="74.1162" y="184.651" width="51.1628" height="23.2558" fill="#4B4B4B"/>
<rect x="74.1162" y="212.558" width="51.1628" height="4.65116" fill="#4B4B4B"/>
<rect x="74.1162" y="221.86" width="27.907" height="4.65116" fill="#4B4B4B"/>
<rect x="69.4648" y="115" width="60.4651" height="58.7209" fill="#DFDFDF"/>
<rect x="74.1162" y="119.651" width="51.1628" height="23.2558" fill="#4B4B4B"/>
<rect x="74.1162" y="147.558" width="51.1628" height="4.65116" fill="#4B4B4B"/>
<rect x="74.1162" y="156.86" width="27.907" height="4.65116" fill="#4B4B4B"/>
<rect x="139.535" y="180" width="60.4651" height="58.7209" fill="#DFDFDF"/>
<rect x="144.187" y="184.651" width="51.1628" height="23.2558" fill="#4B4B4B"/>
<rect x="144.187" y="212.558" width="51.1628" height="4.65116" fill="#4B4B4B"/>
<rect x="144.187" y="221.86" width="27.907" height="4.65116" fill="#4B4B4B"/>
<rect x="138.93" y="180" width="60.4651" height="58.7209" fill="#DFDFDF"/>
<rect x="143.582" y="184.651" width="51.1628" height="23.2558" fill="#4B4B4B"/>
<rect x="143.582" y="212.558" width="51.1628" height="4.65116" fill="#4B4B4B"/>
<rect x="143.582" y="221.86" width="27.907" height="4.65116" fill="#4B4B4B"/>
<rect x="138.93" y="115" width="60.4651" height="58.7209" fill="#DFDFDF"/>
<rect x="143.582" y="119.651" width="51.1628" height="23.2558" fill="#4B4B4B"/>
<rect x="143.582" y="147.558" width="51.1628" height="4.65116" fill="#4B4B4B"/>
<rect x="143.582" y="156.86" width="27.907" height="4.65116" fill="#4B4B4B"/>
<rect x="5" y="7" width="116" height="79" fill="#4B4B4B"/>
<path d="M72.5879 41.1912C72.3575 40.3344 71.6819 39.6589 70.8252 39.4282C69.2602 39 62.9998 39 62.9998 39C62.9998 39 56.7396 39 55.1746 39.412C54.3344 39.6425 53.6423 40.3345 53.4119 41.1912C53 42.7561 53 46.0016 53 46.0016C53 46.0016 53 49.2634 53.4119 50.812C53.6426 51.6687 54.3179 52.3441 55.1747 52.5749C56.7561 53.0032 63 53.0032 63 53.0032C63 53.0032 69.2602 53.0032 70.8252 52.5912C71.682 52.3606 72.3575 51.6852 72.5882 50.8285C72.9999 49.2634 72.9999 46.0181 72.9999 46.0181C72.9999 46.0181 73.0164 42.7561 72.5879 41.1912ZM61.0066 48.9999V43.0033L66.2124 46.0016L61.0066 48.9999Z" fill="white"/>
<rect x="147" y="15" width="43" height="2" fill="#4B4B4B"/>
<rect x="147" y="32" width="43" height="2" fill="#4B4B4B"/>
<rect x="147" y="49" width="43" height="2" fill="#4B4B4B"/>
<rect x="147" y="66" width="43" height="2" fill="#4B4B4B"/>
<rect x="147" y="20" width="31" height="2" fill="#4B4B4B"/>
<rect x="147" y="37" width="31" height="2" fill="#4B4B4B"/>
<rect x="147" y="54" width="31" height="2" fill="#4B4B4B"/>
<rect x="147" y="71" width="31" height="2" fill="#4B4B4B"/>
<circle cx="137.5" cy="18.5" r="5.5" fill="#9B9B9B"/>
<circle cx="137.5" cy="35.5" r="5.5" fill="#9B9B9B"/>
<circle cx="137.5" cy="52.5" r="5.5" fill="#9B9B9B"/>
<circle cx="137.5" cy="69.5" r="5.5" fill="#9B9B9B"/>
</svg>
