<svg width="200" height="124" viewBox="0 0 200 124" fill="none" xmlns="http://www.w3.org/2000/svg">
<rect width="35.5286" height="58.7209" fill="#DFDFDF"/>
<rect x="2.73291" y="4.65116" width="30.0626" height="23.2558" fill="#4B4B4B"/>
<rect x="2.73291" y="32.5581" width="30.0626" height="4.65116" fill="#4B4B4B"/>
<rect x="2.73291" y="41.8605" width="16.3978" height="4.65116" fill="#4B4B4B"/>
<rect x="40.9946" width="35.5286" height="58.7209" fill="#DFDFDF"/>
<rect x="43.7275" y="4.65116" width="30.0626" height="23.2558" fill="#4B4B4B"/>
<rect x="43.7275" y="32.5581" width="30.0626" height="4.65116" fill="#4B4B4B"/>
<rect x="43.7275" y="41.8605" width="16.3978" height="4.65116" fill="#4B4B4B"/>
<rect x="81.9893" width="35.5286" height="58.7209" fill="#DFDFDF"/>
<rect x="84.7222" y="4.65116" width="30.0626" height="23.2558" fill="#4B4B4B"/>
<rect x="84.7222" y="32.5581" width="30.0626" height="4.65116" fill="#4B4B4B"/>
<rect x="84.7222" y="41.8605" width="16.3978" height="4.65116" fill="#4B4B4B"/>
<rect x="123.23" width="35.5286" height="58.7209" fill="#DFDFDF"/>
<rect x="125.963" y="4.65116" width="30.0626" height="23.2558" fill="#4B4B4B"/>
<rect x="125.963" y="32.5581" width="30.0626" height="4.65116" fill="#4B4B4B"/>
<rect x="125.963" y="41.8605" width="16.3978" height="4.65116" fill="#4B4B4B"/>
<rect x="164.472" width="35.5286" height="58.7209" fill="#DFDFDF"/>
<rect x="167.205" y="4.65116" width="30.0626" height="23.2558" fill="#4B4B4B"/>
<rect x="167.205" y="32.5581" width="30.0626" height="4.65116" fill="#4B4B4B"/>
<rect x="167.205" y="41.8605" width="16.3978" height="4.65116" fill="#4B4B4B"/>
<rect y="65" width="35.5286" height="58.7209" fill="#DFDFDF"/>
<rect x="2.73291" y="69.6512" width="30.0626" height="23.2558" fill="#4B4B4B"/>
<rect x="2.73291" y="97.5581" width="30.0626" height="4.65116" fill="#4B4B4B"/>
<rect x="2.73291" y="106.86" width="16.3978" height="4.65116" fill="#4B4B4B"/>
<rect x="40.9946" y="65" width="35.5286" height="58.7209" fill="#DFDFDF"/>
<rect x="43.7275" y="69.6512" width="30.0626" height="23.2558" fill="#4B4B4B"/>
<rect x="43.7275" y="97.5581" width="30.0626" height="4.65116" fill="#4B4B4B"/>
<rect x="43.7275" y="106.86" width="16.3978" height="4.65116" fill="#4B4B4B"/>
<rect x="81.9893" y="65" width="35.5286" height="58.7209" fill="#DFDFDF"/>
<rect x="84.7222" y="69.6512" width="30.0626" height="23.2558" fill="#4B4B4B"/>
<rect x="84.7222" y="97.5581" width="30.0626" height="4.65116" fill="#4B4B4B"/>
<rect x="84.7222" y="106.86" width="16.3978" height="4.65116" fill="#4B4B4B"/>
<rect x="123.23" y="65" width="35.5286" height="58.7209" fill="#DFDFDF"/>
<rect x="125.963" y="69.6512" width="30.0626" height="23.2558" fill="#4B4B4B"/>
<rect x="125.963" y="97.5581" width="30.0626" height="4.65116" fill="#4B4B4B"/>
<rect x="125.963" y="106.86" width="16.3978" height="4.65116" fill="#4B4B4B"/>
<rect x="164.472" y="65" width="35.5286" height="58.7209" fill="#DFDFDF"/>
<rect x="167.205" y="69.6512" width="30.0626" height="23.2558" fill="#4B4B4B"/>
<rect x="167.205" y="97.5581" width="30.0626" height="4.65116" fill="#4B4B4B"/>
<rect x="167.205" y="106.86" width="16.3978" height="4.65116" fill="#4B4B4B"/>
</svg>
