<svg width="40" height="40" viewBox="0 0 40 40" fill="none" xmlns="http://www.w3.org/2000/svg">
<path d="M34.4719 0.55957H5.52827C2.78875 0.55957 0.560059 2.78834 0.560059 5.52786V34.4714C0.560059 37.2108 2.78875 39.4396 5.52827 39.4396H34.4719C37.2114 39.4396 39.4401 37.2108 39.4401 34.4713V5.52786C39.4401 2.78834 37.2114 0.55957 34.4719 0.55957ZM37.1499 34.4714C37.1499 35.9481 35.9485 37.1494 34.4719 37.1494H5.52827C4.05151 37.1494 2.85011 35.948 2.85011 34.4714V30.2943L10.3873 23.8813C10.6623 23.6472 11.0636 23.645 11.3412 23.8756L16.0625 27.7961C16.5178 28.174 17.186 28.143 17.6044 27.7242L28.8226 16.489C29.0253 16.2858 29.2617 16.2661 29.3851 16.2724C29.5081 16.2787 29.7416 16.3226 29.9226 16.5455L37.15 25.4446V34.4714H37.1499ZM37.1499 21.8118L31.7002 15.1015C31.1598 14.436 30.3587 14.0291 29.5024 13.9852C28.6468 13.9419 27.8077 14.264 27.202 14.8708L16.722 25.3669L12.8044 22.1138C11.6684 21.1705 10.0279 21.1803 8.90324 22.1372L2.85011 27.2874V5.52786C2.85011 4.0511 4.05151 2.84969 5.52827 2.84969H34.4719C35.9486 2.84969 37.1499 4.0511 37.1499 5.52786V21.8118Z" fill="#ADDF45"/>
<path d="M12.7995 5.34375C9.75476 5.34375 7.27783 7.82083 7.27783 10.8654C7.27783 13.91 9.75484 16.387 12.7995 16.387C15.8441 16.387 18.3211 13.91 18.3211 10.8654C18.3211 7.82075 15.8442 5.34375 12.7995 5.34375ZM12.7995 14.097C11.0175 14.097 9.56788 12.6473 9.56788 10.8654C9.56788 9.08344 11.0175 7.6338 12.7995 7.6338C14.5814 7.6338 16.0311 9.08352 16.0311 10.8654C16.0311 12.6473 14.5814 14.097 12.7995 14.097Z" fill="#ADDF45"/>
</svg>
