<svg width="12" height="12" viewBox="0 0 12 12" fill="none" xmlns="http://www.w3.org/2000/svg">
<path fill-rule="evenodd" clip-rule="evenodd" d="M6 12C9.31371 12 12 9.31371 12 6C12 2.68629 9.31371 0 6 0C2.68629 0 0 2.68629 0 6C0 9.31371 2.68629 12 6 12ZM4.72033 4.56746L5.6046 2.77454C5.76439 2.45089 6.22346 2.45496 6.38189 2.77454L7.26616 4.56746L9.2446 4.85589C9.59939 4.90735 9.74158 5.34475 9.48429 5.59527L8.05294 6.99006L8.39148 8.96037C8.45242 9.31652 8.07731 9.58194 7.76314 9.41673L5.99325 8.48641L4.22335 9.41673C3.90919 9.58329 3.53408 9.31652 3.59502 8.96037L3.93356 6.99006L2.50221 5.59527C2.24491 5.34475 2.3871 4.90735 2.74189 4.85589L4.72033 4.56746Z" fill="#ADDF45"/>
</svg>
