<svg width="23" height="23" viewBox="0 0 23 23" fill="none" xmlns="http://www.w3.org/2000/svg">
<path d="M11.5 0.359375C5.3457 0.359375 0.359375 5.3457 0.359375 11.5C0.359375 17.6543 5.3457 22.6406 11.5 22.6406C17.6543 22.6406 22.6406 17.6543 22.6406 11.5C22.6406 5.3457 17.6543 0.359375 11.5 0.359375ZM11.5 4.67188C13.6832 4.67188 15.4531 6.4418 15.4531 8.625C15.4531 10.8082 13.6832 12.5781 11.5 12.5781C9.3168 12.5781 7.54688 10.8082 7.54688 8.625C7.54688 6.4418 9.3168 4.67188 11.5 4.67188ZM11.5 20.125C8.86309 20.125 6.5002 18.9301 4.91895 17.0613C5.76348 15.4711 7.4166 14.375 9.34375 14.375C9.45156 14.375 9.55937 14.393 9.6627 14.4244C10.2467 14.6131 10.8576 14.7344 11.5 14.7344C12.1424 14.7344 12.7578 14.6131 13.3373 14.4244C13.4406 14.393 13.5484 14.375 13.6562 14.375C15.5834 14.375 17.2365 15.4711 18.0811 17.0613C16.4998 18.9301 14.1369 20.125 11.5 20.125Z" fill="#2A2E39"/>
</svg>
