<svg width="40" height="29" viewBox="0 0 40 29" fill="none" xmlns="http://www.w3.org/2000/svg">
<path d="M12.6437 14.2929C16.6344 14.2929 19.8687 11.0937 19.8687 7.14644C19.8687 3.19915 16.6344 0 12.6437 0C8.65303 0 5.41873 3.19915 5.41873 7.14644C5.41873 11.0937 8.65303 14.2929 12.6437 14.2929ZM17.7012 16.0795H16.7586C15.5055 16.649 14.1113 16.9728 12.6437 16.9728C11.1761 16.9728 9.78758 16.649 8.52886 16.0795H7.58622C3.39799 16.0795 0 19.4406 0 23.5833V25.9058C0 27.3854 1.21357 28.5858 2.70936 28.5858H22.578C24.0738 28.5858 25.2874 27.3854 25.2874 25.9058V23.5833C25.2874 19.4406 21.8894 16.0795 17.7012 16.0795Z" fill="#D5E145"/>
<path fill-rule="evenodd" clip-rule="evenodd" d="M32.3038 19.45C36.5543 19.45 40 16.0043 40 11.7538C40 7.50331 36.5543 4.05762 32.3038 4.05762C28.0533 4.05762 24.6076 7.50331 24.6076 11.7538C24.6076 16.0043 28.0533 19.45 32.3038 19.45ZM30.6624 9.91627L31.7966 7.61651C32.0016 7.20137 32.5904 7.20658 32.7937 7.61651L33.9279 9.91627L36.4657 10.2862C36.9207 10.3523 37.1031 10.9133 36.7731 11.2346L34.9371 13.0237L35.3714 15.551C35.4495 16.0079 34.9684 16.3483 34.5654 16.1364L32.2951 14.9431L30.0249 16.1364C29.6219 16.35 29.1408 16.0079 29.2189 15.551L29.6532 13.0237L27.8172 11.2346C27.4872 10.9133 27.6696 10.3523 28.1246 10.2862L30.6624 9.91627Z" fill="#D5E145"/>
</svg>
