<svg width="1280" height="848" viewBox="0 0 1280 848" fill="none" xmlns="http://www.w3.org/2000/svg">
<rect width="1280" height="848" fill="#222429"/>
<g clip-path="url(#clip0_547_3641)">
<path d="M626.137 460.499L599.712 434.616C596.869 431.818 595.275 428.029 595.28 424.081C595.285 420.133 596.888 416.348 599.738 413.557L737.951 278.178C739.027 277.124 740.305 276.288 741.711 275.717C743.118 275.147 744.625 274.853 746.147 274.853C747.67 274.853 749.177 275.147 750.583 275.717C751.99 276.288 753.268 277.124 754.344 278.178L785.922 309.109C788.096 311.238 789.317 314.126 789.317 317.138C789.317 320.149 788.096 323.037 785.922 325.166L647.71 460.544C646.292 461.932 644.609 463.033 642.757 463.782C640.904 464.532 638.918 464.915 636.914 464.911C634.91 464.907 632.926 464.515 631.076 463.758C629.227 463.001 627.549 461.894 626.137 460.499Z" fill="url(#paint0_linear_547_3641)"/>
<path d="M757.708 567.752L783.885 542.111C789.898 536.222 789.898 526.673 783.885 520.783L648.488 388.162C642.475 382.273 632.726 382.273 626.713 388.162L600.536 413.802C594.523 419.692 594.523 429.241 600.536 435.131L735.933 567.752C741.946 573.641 751.695 573.641 757.708 567.752Z" fill="url(#paint1_linear_547_3641)"/>
<path d="M786.654 539.612L754.926 570.69C752.762 572.809 749.828 574 746.768 574C743.709 574 740.775 572.809 738.611 570.69L600.359 435.273C597.505 432.477 595.901 428.685 595.901 424.731C595.901 420.777 597.505 416.984 600.359 414.188L626.785 388.305C629.639 385.509 633.511 383.938 637.548 383.938C641.585 383.938 645.457 385.509 648.311 388.305L786.654 523.811C788.793 525.906 789.995 528.748 789.995 531.712C789.995 534.675 788.793 537.517 786.654 539.612Z" fill="url(#paint2_linear_547_3641)"/>
<path d="M493.3 308.45L525.088 277.315C526.163 276.262 527.439 275.426 528.844 274.857C530.249 274.287 531.755 273.994 533.276 273.995C534.796 273.995 536.302 274.289 537.706 274.86C539.111 275.431 540.387 276.267 541.461 277.321L679.654 412.68C681.072 414.069 682.196 415.717 682.964 417.532C683.731 419.346 684.126 421.291 684.126 423.255C684.126 425.219 683.731 427.163 682.964 428.978C682.196 430.792 681.072 432.441 679.654 433.829L653.294 459.649C650.431 462.453 646.548 464.029 642.498 464.029C638.449 464.029 634.565 462.453 631.702 459.649L493.3 324.085C492.251 323.059 491.419 321.84 490.851 320.499C490.283 319.158 489.991 317.72 489.991 316.268C489.991 314.815 490.283 313.378 490.851 312.036C491.419 310.695 492.251 309.476 493.3 308.45Z" fill="#B6D319"/>
<path d="M653.474 387.237L684.17 417.304C685.882 418.98 686.843 421.254 686.843 423.624C686.843 425.995 685.882 428.269 684.17 429.945L541.589 569.603C539.43 571.717 536.503 572.904 533.451 572.904C530.399 572.904 527.471 571.717 525.313 569.603L493.735 538.672C492.653 537.613 491.795 536.355 491.21 534.971C490.625 533.587 490.323 532.103 490.323 530.605C490.323 529.107 490.625 527.624 491.21 526.239C491.795 524.855 492.653 523.598 493.735 522.538L631.849 387.256C634.717 384.45 638.604 382.873 642.658 382.869C646.711 382.866 650.601 384.436 653.474 387.237Z" fill="#B6D319"/>
</g>
<defs>
<linearGradient id="paint0_linear_547_3641" x1="623.395" y1="412.092" x2="785.496" y2="308.211" gradientUnits="userSpaceOnUse">
<stop offset="0.22" stop-color="#5E921C"/>
<stop offset="0.85" stop-color="#76B224"/>
</linearGradient>
<linearGradient id="paint1_linear_547_3641" x1="596.028" y1="477.954" x2="788.395" y2="477.954" gradientUnits="userSpaceOnUse">
<stop stop-color="#5E921C"/>
<stop offset="1" stop-color="#76B224"/>
</linearGradient>
<linearGradient id="paint2_linear_547_3641" x1="624.565" y1="438.265" x2="787.357" y2="542.59" gradientUnits="userSpaceOnUse">
<stop offset="0.22" stop-color="#5E921C"/>
<stop offset="0.85" stop-color="#76B224"/>
</linearGradient>
<clipPath id="clip0_547_3641">
<rect width="300" height="300" fill="white" transform="translate(490 274)"/>
</clipPath>
</defs>
</svg>
