<?xml version="1.0" encoding="UTF-8" standalone="no"?>
<!-- Created with Inkscape (http://www.inkscape.org/) -->

<svg
   version="1.1"
   id="svg2"
   xml:space="preserve"
   width="945.56305"
   height="236.31985"
   viewBox="0 0 945.56301 236.31986"
   sodipodi:docname="363bbc4206694a49a587465061395f87.eps"
   xmlns:inkscape="http://www.inkscape.org/namespaces/inkscape"
   xmlns:sodipodi="http://sodipodi.sourceforge.net/DTD/sodipodi-0.dtd"
   xmlns="http://www.w3.org/2000/svg"
   xmlns:svg="http://www.w3.org/2000/svg"><defs
     id="defs6"><clipPath
       clipPathUnits="userSpaceOnUse"
       id="clipPath20"><path
         d="m 2169.47,319.25 c 11.97,11.969 19.03,28.281 21.19,48.91 -1.07,18.5 -7.59,36.442 -19.56,53.809 L 1598.78,994.289 2136.85,1534 c 13.05,13.05 25.28,26.09 36.69,39.14 11.42,13.04 17.12,28.28 17.12,45.65 0,18.5 -6.52,35.06 -19.56,49.73 -13.05,14.68 -25.53,28 -37.51,39.95 l -128.81,123.92 c -11.95,11.98 -23.36,23.93 -34.24,35.88 -10.85,11.97 -24.46,17.93 -40.76,17.93 -14.12,0 -27.72,-4.33 -40.77,-13.04 -13.04,-8.69 -25.53,-19.01 -37.5,-30.98 l -797.34,-798.97 c -14.11,-19.57 15.83,-35.87 15.83,-48.921 0,-17.367 -29.41,-33.68 -14.2,-48.91 131.54,-129.348 261.99,-258.699 391.34,-388.07 129.37,-129.348 258.72,-259.258 388.06,-389.7 11.98,-8.687 25.02,-19.82 39.14,-33.429 14.14,-13.578 28.28,-20.379 42.39,-20.379 20.66,0 41.33,7.898 61.96,23.64 20.66,15.77 39.14,31.797 55.44,48.098 z"
         id="path18" /></clipPath><linearGradient
       x1="0"
       y1="0"
       x2="1"
       y2="0"
       gradientUnits="userSpaceOnUse"
       gradientTransform="matrix(-1157.69,0,0,1157.69,2190.66,1886.2)"
       spreadMethod="pad"
       id="linearGradient30"><stop
         style="stop-opacity:1;stop-color:#83c428"
         offset="0"
         id="stop22" /><stop
         style="stop-opacity:1;stop-color:#4c7a16"
         offset="0.857143"
         id="stop24" /><stop
         style="stop-opacity:1;stop-color:#4c7a16"
         offset="0.86771451"
         id="stop26" /><stop
         style="stop-opacity:1;stop-color:#4c7a16"
         offset="1"
         id="stop28" /></linearGradient></defs><sodipodi:namedview
     id="namedview4"
     pagecolor="#ffffff"
     bordercolor="#666666"
     borderopacity="1.0"
     inkscape:pageshadow="2"
     inkscape:pageopacity="0.0"
     inkscape:pagecheckerboard="0" /><g
     id="g8"
     inkscape:groupmode="layer"
     inkscape:label="ink_ext_XXXXXX"
     transform="matrix(1.3333333,0,0,-1.3333333,-60.551598,251.49333)"><g
       id="g10"
       transform="scale(0.1)"><path
         d="M 3295.85,480.34 V 1093.5 H 2634.86 V 938.391 h 475.45 V 664.43 H 2659.5 c -47.36,0 -91.09,8.699 -131.18,26.09 -40.11,17.402 -74.65,41.32 -103.64,71.761 -28.99,30.438 -51.71,66.899 -68.13,109.438 -16.44,42.511 -24.64,88.422 -24.64,137.701 0,50.24 8.2,96.15 24.64,137.71 16.42,41.54 39.14,77.3 68.13,107.26 28.99,29.95 63.53,53.39 103.64,70.31 40.09,16.89 83.82,25.36 131.18,25.36 h 571.12 v 184.1 H 2659.5 c -73.45,0 -141.33,-12.32 -203.66,-36.97 -62.33,-24.64 -116.46,-59.43 -162.35,-104.37 -45.9,-44.93 -81.67,-99.29 -107.26,-163.07 -25.62,-63.78 -38.41,-134.33 -38.41,-211.63 0,-76.35 12.79,-147.382 38.41,-213.081 25.59,-65.73 61.36,-122.488 107.26,-170.32 45.89,-47.84 100.02,-85.528 162.35,-113.071 62.33,-27.539 130.21,-41.308 203.66,-41.308 z m 1336.45,0 -317.45,320.351 c 68.61,26.09 121.99,68.848 160.18,128.278 38.16,59.429 57.25,133.111 57.25,221.061 0,58.93 -8.69,112.09 -26.09,159.45 -17.39,47.33 -42.53,87.69 -75.37,121.03 -32.87,33.34 -72.98,58.94 -120.31,76.83 -47.36,17.87 -101,26.82 -160.9,26.82 H 3392.95 V 480.34 h 182.64 v 869.72 h 574.02 c 63.78,0 113.29,-16.67 148.57,-50.01 35.27,-33.34 52.91,-84.32 52.91,-152.92 0,-68.63 -16.92,-121.04 -50.73,-157.278 C 4266.52,953.609 4216.29,935.5 4149.61,935.5 H 3710.4 V 773.148 h 394.27 L 4371.39,480.34 Z m 736.36,0 c 75.37,0 144.45,13.769 207.28,41.308 62.81,27.543 117.16,65.231 163.07,113.071 45.89,47.832 81.65,104.59 107.27,170.32 25.59,65.699 38.41,136.731 38.41,213.081 0,76.33 -12.57,146.15 -37.69,209.46 -25.14,63.28 -60.4,117.64 -105.81,163.07 -45.44,45.41 -99.79,80.67 -163.08,105.82 -63.3,25.12 -133.13,37.69 -209.45,37.69 h -256.57 c -73.45,0 -141.33,-12.32 -203.66,-36.97 -62.33,-24.64 -116.46,-59.43 -162.35,-104.37 -45.91,-44.93 -81.67,-99.29 -107.27,-163.07 -25.61,-63.78 -38.41,-134.33 -38.41,-211.63 0,-76.35 12.8,-147.382 38.41,-213.081 25.6,-65.73 61.36,-122.488 107.27,-170.32 45.89,-47.84 100.02,-85.528 162.35,-113.071 62.33,-27.539 130.21,-41.308 203.66,-41.308 z m -256.57,184.09 c -47.36,0 -91.1,8.699 -131.18,26.09 -40.12,17.402 -74.66,41.32 -103.65,71.761 -28.99,30.438 -51.7,66.899 -68.13,109.438 -16.44,42.511 -24.64,88.422 -24.64,137.701 0,50.24 8.2,96.15 24.64,137.71 16.43,41.54 39.14,77.3 68.13,107.26 28.99,29.95 63.53,53.39 103.65,70.31 40.08,16.89 83.82,25.36 131.18,25.36 h 256.57 c 48.31,0 92.77,-8.47 133.35,-25.36 40.59,-16.92 75.61,-40.36 105.1,-70.31 29.46,-29.96 52.4,-65.95 68.85,-107.99 16.42,-42.03 24.64,-87.69 24.64,-136.98 0,-49.279 -8.22,-95.19 -24.64,-137.701 -16.45,-42.539 -39.39,-79 -68.85,-109.438 -29.49,-30.441 -64.51,-54.359 -105.1,-71.761 -40.58,-17.391 -85.04,-26.09 -133.35,-26.09 z M 6810.95,523.828 c 10.62,-19.348 24.14,-33.84 40.59,-43.488 16.42,-9.649 34.29,-14.488 53.63,-14.488 19.32,0 37.44,4.839 54.36,14.488 16.89,9.648 30.66,24.14 41.31,43.488 L 7545.86,1534.16 H 7340.03 L 6910.97,723.859 6503.65,1534.16 H 6281.87 L 6555.83,1010.87 6396.38,723.859 5970.22,1534.16 H 5749.89 L 6294.91,523.828 c 21.25,-38.668 53.14,-57.976 95.67,-57.976 19.32,0 37.19,4.839 53.64,14.488 16.42,9.648 29.94,24.14 40.58,43.488 l 163.8,308.754 162.35,-308.754"
         style="fill:#011720;fill-opacity:1;fill-rule:nonzero;stroke:none"
         id="path12" /><g
         id="g14"><g
           id="g16"
           clip-path="url(#clipPath20)"><path
             d="m 2169.47,319.25 c 11.97,11.969 19.03,28.281 21.19,48.91 -1.07,18.5 -7.59,36.442 -19.56,53.809 L 1598.78,994.289 2136.85,1534 c 13.05,13.05 25.28,26.09 36.69,39.14 11.42,13.04 17.12,28.28 17.12,45.65 0,18.5 -6.52,35.06 -19.56,49.73 -13.05,14.68 -25.53,28 -37.51,39.95 l -128.81,123.92 c -11.95,11.98 -23.36,23.93 -34.24,35.88 -10.85,11.97 -24.46,17.93 -40.76,17.93 -14.12,0 -27.72,-4.33 -40.77,-13.04 -13.04,-8.69 -25.53,-19.01 -37.5,-30.98 l -797.34,-798.97 c -14.11,-19.57 15.83,-35.87 15.83,-48.921 0,-17.367 -29.41,-33.68 -14.2,-48.91 131.54,-129.348 261.99,-258.699 391.34,-388.07 129.37,-129.348 258.72,-259.258 388.06,-389.7 11.98,-8.687 25.02,-19.82 39.14,-33.429 14.14,-13.578 28.28,-20.379 42.39,-20.379 20.66,0 41.33,7.898 61.96,23.64 20.66,15.77 39.14,31.797 55.44,48.098 l 135.34,133.711"
             style="fill:url(#linearGradient30);fill-opacity:1;fill-rule:nonzero;stroke:none"
             id="path32" /></g></g><path
         d="m 475.332,319.25 c -11.977,11.969 -19.031,28.281 -21.195,48.91 1.066,18.5 7.59,36.442 19.562,53.809 L 1046.02,994.289 507.941,1534 c -13.043,13.05 -25.273,26.09 -36.687,39.14 -11.414,13.04 -17.117,28.28 -17.117,45.65 0,18.5 6.519,35.06 19.562,49.73 13.047,14.68 25.531,28 37.504,39.95 l 128.813,123.92 c 11.949,11.98 23.363,23.93 34.242,35.88 10.851,11.97 24.457,17.93 40.762,17.93 14.117,0 27.722,-4.33 40.765,-13.04 13.043,-8.69 25.528,-19.01 37.504,-30.98 l 797.331,-798.97 c 14.12,-19.57 21.2,-35.87 21.2,-48.921 0,-17.367 -7.62,-33.68 -22.83,-48.91 C 1457.45,816.031 1327.01,686.68 1197.66,557.309 1068.29,427.961 938.941,298.051 809.594,167.609 c -11.977,-8.687 -25.02,-19.82 -39.133,-33.429 -14.141,-13.578 -28.281,-20.379 -42.395,-20.379 -20.664,0 -41.324,7.898 -61.961,23.64 -20.664,15.77 -39.132,31.797 -55.437,48.098 L 475.332,319.25"
         style="fill:#b7d418;fill-opacity:1;fill-rule:nonzero;stroke:none"
         id="path34" /></g></g></svg>
