<svg width="1000" height="1000" viewBox="0 0 1000 1000" fill="none" xmlns="http://www.w3.org/2000/svg">
<rect width="1000" height="1000" fill="#1E2025"/>
<path d="M710.125 668.869C713.096 665.898 714.847 661.854 715.384 656.735C715.118 652.146 713.5 647.697 710.53 643.387L568.559 501.415L702.036 367.533C705.272 364.298 708.305 361.062 711.137 357.826C713.968 354.59 715.384 350.811 715.384 346.502C715.384 341.913 713.766 337.805 710.53 334.165C707.295 330.524 704.198 327.219 701.228 324.255L669.273 293.514C666.31 290.544 663.478 287.58 660.779 284.616C658.087 281.645 654.712 280.167 650.668 280.167C647.167 280.167 643.792 281.241 640.555 283.403C637.32 285.558 634.223 288.117 631.253 291.087L433.464 489.281C429.962 494.135 437.389 498.18 437.389 501.415C437.389 505.726 430.095 509.771 433.868 513.549C466.498 545.637 498.856 577.723 530.942 609.816C563.035 641.902 595.122 674.128 627.208 706.485C630.178 708.64 633.414 711.402 636.916 714.777C640.422 718.145 643.93 719.833 647.431 719.833C652.557 719.833 657.682 717.874 662.802 713.968C667.928 710.057 672.51 706.081 676.554 702.036L710.125 668.869" fill="url(#paint0_linear_2_11)"/>
<path d="M289.875 668.869C286.904 665.898 285.154 661.854 284.616 656.735C284.882 652.146 286.5 647.697 289.47 643.387L431.441 501.415L297.964 367.534C294.728 364.298 291.694 361.063 288.863 357.826C286.032 354.59 284.616 350.812 284.616 346.502C284.616 341.913 286.234 337.805 289.47 334.165C292.706 330.524 295.802 327.219 298.773 324.255L330.727 293.514C333.691 290.544 336.522 287.58 339.221 284.617C341.913 281.645 345.288 280.167 349.333 280.167C352.834 280.167 356.209 281.242 359.444 283.403C362.68 285.558 365.777 288.118 368.747 291.088L566.536 489.281C570.038 494.135 571.794 498.18 571.794 501.415C571.794 505.726 569.905 509.771 566.132 513.549C533.503 545.637 501.144 577.723 469.058 609.816C436.965 641.902 404.879 674.128 372.792 706.485C369.822 708.64 366.586 711.402 363.085 714.777C359.577 718.145 356.069 719.833 352.568 719.833C347.443 719.833 342.318 717.874 337.198 713.968C332.073 710.057 327.491 706.081 323.446 702.036L289.875 668.869Z" fill="#B7D418"/>
<defs>
<linearGradient id="paint0_linear_2_11" x1="715.383" y1="280.167" x2="428.205" y2="280.167" gradientUnits="userSpaceOnUse">
<stop stop-color="#83C428"/>
<stop offset="0.857143" stop-color="#4C7A16"/>
<stop offset="0.867715" stop-color="#4C7A16"/>
<stop offset="1" stop-color="#4C7A16"/>
</linearGradient>
</defs>
</svg>
