<?xml version="1.0" encoding="UTF-8" standalone="no"?>
<svg
   xmlns:dc="http://purl.org/dc/elements/1.1/"
   xmlns:cc="http://creativecommons.org/ns#"
   xmlns:rdf="http://www.w3.org/1999/02/22-rdf-syntax-ns#"
   xmlns:svg="http://www.w3.org/2000/svg"
   xmlns="http://www.w3.org/2000/svg"
   viewBox="0 0 533.33331 533.33331"
   height="533.33331"
   width="533.33331"
   xml:space="preserve"
   id="svg2"
   version="1.1"><metadata
     id="metadata8"><rdf:RDF><cc:Work
         rdf:about=""><dc:format>image/svg+xml</dc:format><dc:type
           rdf:resource="http://purl.org/dc/dcmitype/StillImage" /></cc:Work></rdf:RDF></metadata><defs
     id="defs6"><clipPath
       id="clipPath20"
       clipPathUnits="userSpaceOnUse"><path
         id="path18"
         d="m 3867.78,498.941 c 26.41,26.411 41.97,62.36 46.74,107.86 -2.36,40.789 -16.74,80.34 -43.14,118.648 L 2609.41,1987.42 3795.88,3177.48 c 28.76,28.76 55.72,57.52 80.89,86.29 25.17,28.76 37.75,62.35 37.75,100.66 0,40.79 -14.38,77.3 -43.14,109.66 -28.76,32.36 -56.29,61.74 -82.69,88.09 l -284.04,273.25 c -26.34,26.4 -51.51,52.75 -75.5,79.09 -23.93,26.41 -53.93,39.55 -89.88,39.55 -31.12,0 -61.12,-9.55 -89.89,-28.76 -28.76,-19.16 -56.29,-41.91 -82.69,-68.31 L 1408.57,2095.28 c -31.13,-43.15 34.89,-79.1 34.89,-107.86 0,-38.32 -64.84,-74.27 -31.3,-107.86 290.04,-285.22 577.67,-570.43 862.88,-855.7 285.27,-285.212 570.49,-571.661 855.7,-859.278 26.4,-19.16 55.16,-43.711 86.29,-73.7109 31.17,-29.9414 62.35,-44.9414 93.47,-44.9414 45.56,0 91.12,17.4101 136.63,52.1289 45.56,34.7694 86.29,70.1134 122.24,106.0624 z" /></clipPath><linearGradient
       id="linearGradient30"
       spreadMethod="pad"
       gradientTransform="matrix(-2552.7,0,0,2552.7,3914.52,3954.07)"
       gradientUnits="userSpaceOnUse"
       y2="0"
       x2="1"
       y1="0"
       x1="0"><stop
         id="stop22"
         offset="0"
         style="stop-opacity:1;stop-color:#83c428" /><stop
         id="stop24"
         offset="0.857143"
         style="stop-opacity:1;stop-color:#4c7a16" /><stop
         id="stop26"
         offset="0.86771451"
         style="stop-opacity:1;stop-color:#4c7a16" /><stop
         id="stop28"
         offset="1"
         style="stop-opacity:1;stop-color:#4c7a16" /></linearGradient></defs><g
     transform="matrix(1.3333333,0,0,-1.3333333,0,533.33333)"
     id="g10"><g
       transform="scale(0.1)"
       id="g12"><g
         id="g14"><g
           clip-path="url(#clipPath20)"
           id="g16"><path
             id="path32"
             style="fill:url(#linearGradient30);fill-opacity:1;fill-rule:nonzero;stroke:none"
             d="m 3867.78,498.941 c 26.41,26.411 41.97,62.36 46.74,107.86 -2.36,40.789 -16.74,80.34 -43.14,118.648 L 2609.41,1987.42 3795.88,3177.48 c 28.76,28.76 55.72,57.52 80.89,86.29 25.17,28.76 37.75,62.35 37.75,100.66 0,40.79 -14.38,77.3 -43.14,109.66 -28.76,32.36 -56.29,61.74 -82.69,88.09 l -284.04,273.25 c -26.34,26.4 -51.51,52.75 -75.5,79.09 -23.93,26.41 -53.93,39.55 -89.88,39.55 -31.12,0 -61.12,-9.55 -89.89,-28.76 -28.76,-19.16 -56.29,-41.91 -82.69,-68.31 L 1408.57,2095.28 c -31.13,-43.15 34.89,-79.1 34.89,-107.86 0,-38.32 -64.84,-74.27 -31.3,-107.86 290.04,-285.22 577.67,-570.43 862.88,-855.7 285.27,-285.212 570.49,-571.661 855.7,-859.278 26.4,-19.16 55.16,-43.711 86.29,-73.7109 31.17,-29.9414 62.35,-44.9414 93.47,-44.9414 45.56,0 91.12,17.4101 136.63,52.1289 45.56,34.7694 86.29,70.1134 122.24,106.0624 l 298.41,294.82" /></g></g><path
         id="path34"
         style="fill:#b7d418;fill-opacity:1;fill-rule:nonzero;stroke:none"
         d="m 132.219,498.941 c -26.406,26.411 -41.9651,62.36 -46.7424,107.86 2.3593,40.789 16.7424,80.34 43.1444,118.648 L 1390.59,1987.42 204.125,3177.48 c -28.762,28.76 -55.73,57.52 -80.895,86.29 -25.1675,28.76 -37.7534,62.35 -37.7534,100.66 0,40.79 14.3828,77.3 43.1444,109.66 28.766,32.36 56.289,61.74 82.695,88.09 l 284.032,273.25 c 26.347,26.4 51.515,52.75 75.504,79.09 23.929,26.41 53.929,39.55 89.882,39.55 31.121,0 61.121,-9.55 89.883,-28.76 28.762,-19.16 56.289,-41.91 82.692,-68.31 L 2591.43,2095.28 c 31.13,-43.15 46.74,-79.1 46.74,-107.86 0,-38.32 -16.79,-74.27 -50.33,-107.86 C 2297.8,1594.34 2010.17,1309.13 1724.96,1023.86 1439.69,738.648 1154.48,452.199 869.266,164.582 842.859,145.422 814.098,120.871 782.977,90.8711 751.797,60.9297 720.617,45.9297 689.496,45.9297 c -45.558,0 -91.117,17.4101 -136.625,52.1289 -45.558,34.7694 -86.285,70.1134 -122.238,106.0624 l -298.414,294.82" /></g></g></svg>