<svg width="848" height="1280" viewBox="0 0 848 1280" fill="none" xmlns="http://www.w3.org/2000/svg">
<rect width="848" height="1280" fill="#222429"/>
<g clip-path="url(#clip0_547_3629)">
<path d="M410.137 676.499L383.712 650.616C380.869 647.818 379.275 644.029 379.28 640.081C379.285 636.133 380.888 632.348 383.738 629.557L521.951 494.178C523.027 493.124 524.305 492.288 525.711 491.717C527.118 491.147 528.625 490.853 530.147 490.853C531.67 490.853 533.177 491.147 534.583 491.717C535.99 492.288 537.268 493.124 538.344 494.178L569.922 525.109C572.096 527.238 573.317 530.126 573.317 533.138C573.317 536.149 572.096 539.037 569.922 541.166L431.71 676.544C430.292 677.932 428.609 679.033 426.757 679.782C424.904 680.532 422.918 680.915 420.914 680.911C418.91 680.907 416.926 680.515 415.076 679.758C413.227 679.001 411.549 677.894 410.137 676.499Z" fill="url(#paint0_linear_547_3629)"/>
<path d="M541.708 783.752L567.885 758.111C573.898 752.222 573.898 742.673 567.885 736.783L432.488 604.162C426.475 598.273 416.726 598.273 410.713 604.162L384.536 629.802C378.523 635.692 378.523 645.241 384.536 651.131L519.933 783.752C525.946 789.641 535.695 789.641 541.708 783.752Z" fill="url(#paint1_linear_547_3629)"/>
<path d="M570.654 755.612L538.926 786.69C536.762 788.809 533.828 790 530.768 790C527.709 790 524.775 788.809 522.611 786.69L384.359 651.273C381.505 648.477 379.901 644.685 379.901 640.731C379.901 636.777 381.505 632.984 384.359 630.188L410.785 604.305C413.639 601.509 417.511 599.938 421.548 599.938C425.585 599.938 429.457 601.509 432.311 604.305L570.654 739.811C572.793 741.906 573.995 744.748 573.995 747.712C573.995 750.675 572.793 753.517 570.654 755.612Z" fill="url(#paint2_linear_547_3629)"/>
<path d="M277.3 524.45L309.088 493.315C310.163 492.262 311.439 491.426 312.844 490.857C314.249 490.287 315.755 489.994 317.276 489.995C318.796 489.995 320.302 490.289 321.706 490.86C323.111 491.431 324.387 492.267 325.461 493.321L463.654 628.68C465.072 630.069 466.196 631.717 466.964 633.532C467.731 635.346 468.126 637.291 468.126 639.255C468.126 641.219 467.731 643.163 466.964 644.978C466.196 646.792 465.072 648.441 463.654 649.829L437.294 675.649C434.431 678.453 430.548 680.029 426.498 680.029C422.449 680.029 418.565 678.453 415.702 675.649L277.3 540.085C276.251 539.059 275.419 537.84 274.851 536.499C274.283 535.158 273.991 533.72 273.991 532.268C273.991 530.815 274.283 529.378 274.851 528.036C275.419 526.695 276.251 525.476 277.3 524.45Z" fill="#B6D319"/>
<path d="M437.474 603.237L468.17 633.304C469.882 634.98 470.843 637.254 470.843 639.624C470.843 641.995 469.882 644.269 468.17 645.945L325.589 785.603C323.43 787.717 320.503 788.904 317.451 788.904C314.399 788.904 311.471 787.717 309.313 785.603L277.735 754.672C276.653 753.613 275.795 752.355 275.21 750.971C274.625 749.587 274.323 748.103 274.323 746.605C274.323 745.107 274.625 743.624 275.21 742.239C275.795 740.855 276.653 739.598 277.735 738.538L415.849 603.256C418.717 600.45 422.604 598.873 426.658 598.869C430.711 598.866 434.601 600.436 437.474 603.237Z" fill="#B6D319"/>
</g>
<defs>
<linearGradient id="paint0_linear_547_3629" x1="407.395" y1="628.092" x2="569.496" y2="524.211" gradientUnits="userSpaceOnUse">
<stop offset="0.22" stop-color="#5E921C"/>
<stop offset="0.85" stop-color="#76B224"/>
</linearGradient>
<linearGradient id="paint1_linear_547_3629" x1="380.028" y1="693.954" x2="572.395" y2="693.954" gradientUnits="userSpaceOnUse">
<stop stop-color="#5E921C"/>
<stop offset="1" stop-color="#76B224"/>
</linearGradient>
<linearGradient id="paint2_linear_547_3629" x1="408.565" y1="654.265" x2="571.357" y2="758.59" gradientUnits="userSpaceOnUse">
<stop offset="0.22" stop-color="#5E921C"/>
<stop offset="0.85" stop-color="#76B224"/>
</linearGradient>
<clipPath id="clip0_547_3629">
<rect width="300" height="300" fill="white" transform="translate(274 490)"/>
</clipPath>
</defs>
</svg>
