<svg width="48" height="48" viewBox="0 0 48 48" fill="none" xmlns="http://www.w3.org/2000/svg">
<path fill-rule="evenodd" clip-rule="evenodd" d="M26.8571 5.7239C25.0746 4.7587 22.9254 4.7587 21.1429 5.7239L13.7272 9.73958L24.3554 19.708L34.7236 9.98368L26.8571 5.7239ZM40.3039 13.3175L28.9092 24.0046L39.9638 34.3486C41.2422 33.2236 42 31.5895 42 29.8442V17.4981C42 15.9137 41.3755 14.4209 40.3039 13.3175ZM34.2728 37.6027L24.3554 28.301L14.178 37.8468L21.1429 41.6184C22.9254 42.5836 25.0746 42.5836 26.8571 41.6184L34.2728 37.6027ZM8.4171 34.6571L19.748 23.9793L8.1345 13.0868C8.10198 13.0549 8.07116 13.0222 8.04205 12.9885C6.76009 14.1136 6 15.7501 6 17.4981V29.8441C6 31.7564 6.90966 33.5352 8.4171 34.6571Z" fill="#88A846"/>
</svg>
