<svg width="300" height="115" viewBox="0 0 300 115" fill="none" xmlns="http://www.w3.org/2000/svg">
<path fill-rule="evenodd" clip-rule="evenodd" d="M72 16.7321C70.1436 15.6603 67.8564 15.6603 66 16.7321L48.2413 26.9851L69.7177 48.4615L90.6691 27.5106L72 16.7321ZM102.338 34.2477C102.239 34.3817 102.128 34.5104 102.006 34.6325L78.9196 57.7185L101.494 80.2397L102.373 79.7321C104.229 78.6603 105.373 76.6795 105.373 74.5359V39.4641C105.373 37.3205 104.229 35.3398 102.373 34.268L102.338 34.2477ZM89.7581 87.0153L69.7177 66.9749L49.1522 87.5409L66 97.268C67.8564 98.3398 70.1436 98.3398 72 97.268L89.7581 87.0153ZM37.4154 80.7647L60.4074 57.664L36.9397 34.1963C36.7983 34.0489 36.673 33.8918 36.5635 33.7272L35.627 34.268C33.7705 35.3398 32.627 37.3205 32.627 39.4641V74.5359C32.627 76.6795 33.7705 78.6603 35.627 79.7321L37.4154 80.7647Z" fill="#88A846"/>
<path d="M130.71 68.3638C132.395 68.3638 134.028 68.1221 135.61 67.6387C137.192 67.1406 138.415 66.5107 139.279 65.749V61.4644H131.721V56.6743H145.212V68.0562C143.571 69.7407 141.433 71.0591 138.796 72.0112C136.174 72.9634 133.42 73.4395 130.534 73.4395C125.495 73.4395 121.621 72.0479 118.911 69.2646C116.201 66.4668 114.846 62.5044 114.846 57.3774C114.846 52.2798 116.208 48.376 118.933 45.666C121.657 42.9414 125.576 41.5791 130.688 41.5791C137.954 41.5791 142.575 44.2671 144.553 49.6431L138.576 51.4448C137.932 49.8774 136.921 48.6909 135.544 47.8853C134.167 47.0796 132.548 46.6768 130.688 46.6768C127.641 46.6768 125.327 47.5996 123.745 49.4453C122.163 51.291 121.372 53.9351 121.372 57.3774C121.372 60.8784 122.185 63.5884 123.811 65.5073C125.451 67.4116 127.751 68.3638 130.71 68.3638Z" fill="#4B4B4B"/>
<path d="M172.304 73L165.119 61.2446H157.517V73H151.035V42.0405H166.503C170.195 42.0405 173.044 42.8389 175.051 44.4355C177.058 46.0176 178.061 48.2954 178.061 51.269C178.061 53.437 177.446 55.312 176.215 56.894C174.985 58.4614 173.322 59.4941 171.228 59.9922L179.599 73H172.304ZM171.535 51.5327C171.535 48.5591 169.631 47.0723 165.822 47.0723H157.517V56.2129H165.998C167.814 56.2129 169.191 55.8027 170.129 54.9824C171.066 54.1621 171.535 53.0122 171.535 51.5327Z" fill="#4B4B4B"/>
<path d="M213.657 57.3774C213.657 60.6001 213.02 63.4346 211.745 65.8809C210.471 68.3271 208.647 70.2021 206.274 71.5059C203.901 72.7949 201.132 73.4395 197.968 73.4395C193.105 73.4395 189.289 72.0112 186.521 69.1548C183.767 66.2837 182.39 62.3579 182.39 57.3774C182.39 52.4116 183.767 48.5371 186.521 45.7539C189.274 42.9707 193.105 41.5791 198.012 41.5791C202.919 41.5791 206.75 42.9854 209.504 45.7979C212.272 48.6104 213.657 52.4702 213.657 57.3774ZM207.043 57.3774C207.043 54.0376 206.252 51.4229 204.67 49.5332C203.088 47.6289 200.869 46.6768 198.012 46.6768C195.112 46.6768 192.871 47.6216 191.289 49.5112C189.707 51.3862 188.916 54.0083 188.916 57.3774C188.916 60.7759 189.721 63.4565 191.333 65.4194C192.958 67.3677 195.17 68.3418 197.968 68.3418C200.869 68.3418 203.103 67.3896 204.67 65.4854C206.252 63.5811 207.043 60.8784 207.043 57.3774Z" fill="#4B4B4B"/>
<path d="M250 73H242.309L238.112 55.0923C237.6 52.9829 237.167 50.7783 236.816 48.4785C236.464 50.3975 236.179 51.8623 235.959 52.873C235.739 53.8691 234.179 60.5781 231.279 73H223.588L215.612 42.0405H222.182L226.665 62.0356L227.675 66.8696C228.085 64.8335 228.481 62.8926 228.862 61.0469C229.257 59.1865 230.722 52.8511 233.256 42.0405H240.507L244.418 58.52C244.726 59.7505 245.246 62.5337 245.979 66.8696L246.528 64.3208L247.692 59.2671L251.428 42.0405H257.998L250 73Z" fill="#4B4B4B"/>
<path d="M122.259 88.88C123.075 88.88 123.642 88.4487 123.96 87.5862L125.138 88.0545C124.884 88.711 124.511 89.2002 124.019 89.5221C123.53 89.8407 122.944 90 122.259 90C121.22 90 120.416 89.691 119.848 89.0731C119.283 88.452 119 87.5846 119 86.471C119 85.3543 119.274 84.4966 119.821 83.8979C120.368 83.2993 121.161 83 122.2 83C122.957 83 123.575 83.1609 124.051 83.4828C124.528 83.8014 124.863 84.2713 125.055 84.8924L123.863 85.2352C123.763 84.894 123.564 84.6237 123.268 84.4241C122.974 84.2214 122.627 84.12 122.227 84.12C121.616 84.12 121.151 84.3195 120.834 84.7186C120.519 85.1177 120.361 85.7018 120.361 86.471C120.361 87.2531 120.523 87.8501 120.847 88.2621C121.174 88.674 121.645 88.88 122.259 88.88Z" fill="#4B4B4B"/>
<path d="M130.464 89.9034L128.965 87.3207H127.379V89.9034H126.027V83.1014H129.254C130.024 83.1014 130.618 83.2768 131.037 83.6276C131.456 83.9752 131.665 84.4756 131.665 85.129C131.665 85.6053 131.537 86.0172 131.28 86.3648C131.023 86.7092 130.677 86.9361 130.24 87.0455L131.986 89.9034H130.464ZM130.304 85.1869C130.304 84.5336 129.906 84.2069 129.112 84.2069H127.379V86.2152H129.149C129.528 86.2152 129.815 86.1251 130.01 85.9448C130.206 85.7646 130.304 85.512 130.304 85.1869Z" fill="#4B4B4B"/>
<path d="M132.811 89.9034V83.1014H137.89V84.2021H134.163V85.911H137.61V87.0117H134.163V88.8028H138.078V89.9034H132.811Z" fill="#4B4B4B"/>
<path d="M144.339 87.9434C144.339 88.6097 144.104 89.1198 143.633 89.4738C143.166 89.8246 142.478 90 141.571 90C140.743 90 140.093 89.8455 139.623 89.5366C139.152 89.2276 138.85 88.7593 138.715 88.1317L140.021 87.9048C140.11 88.2653 140.283 88.5276 140.539 88.6917C140.796 88.8526 141.152 88.9331 141.607 88.9331C142.552 88.9331 143.024 88.6306 143.024 88.0255C143.024 87.8324 142.969 87.6731 142.859 87.5476C142.752 87.4221 142.599 87.3175 142.4 87.2338C142.205 87.1501 141.827 87.0487 141.268 86.9297C140.785 86.8106 140.449 86.7156 140.26 86.6448C140.07 86.5708 139.899 86.4855 139.746 86.389C139.594 86.2892 139.464 86.1701 139.357 86.0317C139.25 85.8933 139.166 85.7308 139.105 85.5441C139.047 85.3575 139.018 85.1434 139.018 84.9021C139.018 84.2874 139.236 83.8175 139.673 83.4924C140.113 83.1641 140.752 83 141.589 83C142.39 83 142.99 83.132 143.391 83.3959C143.794 83.6598 144.054 84.0959 144.17 84.7041L142.859 84.8924C142.792 84.5995 142.654 84.3791 142.446 84.231C142.242 84.083 141.947 84.009 141.562 84.009C140.743 84.009 140.333 84.2793 140.333 84.82C140.333 84.997 140.376 85.1418 140.461 85.2545C140.55 85.3671 140.68 85.4637 140.851 85.5441C141.022 85.6214 141.369 85.7195 141.892 85.8386C142.512 85.977 142.955 86.1057 143.221 86.2248C143.49 86.3407 143.702 86.4775 143.858 86.6352C144.014 86.7897 144.133 86.9763 144.216 87.1952C144.298 87.4108 144.339 87.6602 144.339 87.9434Z" fill="#4B4B4B"/>
<path d="M148.35 88.88C149.166 88.88 149.733 88.4487 150.051 87.5862L151.229 88.0545C150.975 88.711 150.602 89.2002 150.11 89.5221C149.621 89.8407 149.035 90 148.35 90C147.311 90 146.508 89.691 145.939 89.0731C145.374 88.452 145.091 87.5846 145.091 86.471C145.091 85.3543 145.365 84.4966 145.912 83.8979C146.459 83.2993 147.252 83 148.291 83C149.049 83 149.666 83.1609 150.143 83.4828C150.619 83.8014 150.954 84.2713 151.146 84.8924L149.955 85.2352C149.854 84.894 149.655 84.6237 149.359 84.4241C149.065 84.2214 148.718 84.12 148.318 84.12C147.707 84.12 147.242 84.3195 146.925 84.7186C146.61 85.1177 146.453 85.7018 146.453 86.471C146.453 87.2531 146.615 87.8501 146.938 88.2621C147.265 88.674 147.736 88.88 148.35 88.88Z" fill="#4B4B4B"/>
<path d="M152.118 89.9034V83.1014H153.47V89.9034H152.118Z" fill="#4B4B4B"/>
<path d="M160.094 89.9034V85.7807C160.094 85.6874 160.094 85.594 160.094 85.5007C160.097 85.4074 160.112 85.0067 160.14 84.2986C159.923 85.1644 159.762 85.7678 159.659 86.109L158.494 89.9034H157.532L156.367 86.109L155.877 84.2986C155.914 85.0453 155.932 85.5393 155.932 85.7807V89.9034H154.731V83.1014H156.542L157.697 86.9055L157.798 87.2724L158.018 88.1848L158.306 87.0938L159.494 83.1014H161.295V89.9034H160.094Z" fill="#4B4B4B"/>
<path d="M162.551 89.9034V83.1014H167.63V84.2021H163.903V85.911H167.35V87.0117H163.903V88.8028H167.818V89.9034H162.551Z" fill="#4B4B4B"/>
<path d="M172.745 89.9034L169.931 84.6655C169.986 85.174 170.013 85.5828 170.013 85.8917V89.9034H168.812V83.1014H170.357L173.213 88.3828C173.158 87.8968 173.13 87.4543 173.13 87.0552V83.1014H174.331V89.9034H172.745Z" fill="#4B4B4B"/>
<path d="M178.512 84.2021V89.9034H177.16V84.2021H175.074V83.1014H180.602V84.2021H178.512Z" fill="#4B4B4B"/>
<path d="M187.441 86.471C187.441 87.1791 187.308 87.8018 187.042 88.3393C186.776 88.8768 186.396 89.2887 185.901 89.5752C185.406 89.8584 184.828 90 184.168 90C183.154 90 182.358 89.6862 181.78 89.0586C181.206 88.4278 180.918 87.5653 180.918 86.471C180.918 85.38 181.206 84.5287 181.78 83.9172C182.355 83.3057 183.154 83 184.177 83C185.201 83 186 83.309 186.575 83.9269C187.152 84.5448 187.441 85.3929 187.441 86.471ZM186.061 86.471C186.061 85.7372 185.896 85.1628 185.566 84.7476C185.236 84.3292 184.773 84.12 184.177 84.12C183.572 84.12 183.105 84.3276 182.775 84.7428C182.445 85.1547 182.28 85.7308 182.28 86.471C182.28 87.2177 182.448 87.8067 182.784 88.2379C183.123 88.666 183.585 88.88 184.168 88.88C184.773 88.88 185.239 88.6708 185.566 88.2524C185.896 87.834 186.061 87.2402 186.061 86.471Z" fill="#4B4B4B"/>
<path d="M191.081 89.9034V83.1014H196.16V84.2021H192.433V85.911H195.88V87.0117H192.433V88.8028H196.348V89.9034H191.081Z" fill="#4B4B4B"/>
<path d="M201.472 89.9034L199.85 87.1952L198.227 89.9034H196.797L199.034 86.3262L196.985 83.1014H198.415L199.85 85.5055L201.284 83.1014H202.705L200.743 86.3262L202.893 89.9034H201.472Z" fill="#4B4B4B"/>
<path d="M208.916 85.2545C208.916 85.6922 208.822 86.0832 208.632 86.4276C208.443 86.772 208.171 87.0391 207.816 87.229C207.465 87.4156 207.046 87.509 206.56 87.509H204.956V89.9034H203.604V83.1014H206.505C207.278 83.1014 207.873 83.2897 208.288 83.6662C208.707 84.0395 208.916 84.569 208.916 85.2545ZM207.555 85.2786C207.555 84.5641 207.155 84.2069 206.354 84.2069H204.956V86.4131H206.391C206.763 86.4131 207.051 86.3166 207.252 86.1234C207.454 85.9271 207.555 85.6455 207.555 85.2786Z" fill="#4B4B4B"/>
<path d="M216.145 86.471C216.145 87.1791 216.012 87.8018 215.746 88.3393C215.48 88.8768 215.1 89.2887 214.605 89.5752C214.11 89.8584 213.532 90 212.872 90C211.858 90 211.062 89.6862 210.484 89.0586C209.91 88.4278 209.622 87.5653 209.622 86.471C209.622 85.38 209.91 84.5287 210.484 83.9172C211.059 83.3057 211.858 83 212.881 83C213.905 83 214.704 83.309 215.279 83.9269C215.856 84.5448 216.145 85.3929 216.145 86.471ZM214.765 86.471C214.765 85.7372 214.6 85.1628 214.27 84.7476C213.94 84.3292 213.477 84.12 212.881 84.12C212.276 84.12 211.809 84.3276 211.479 84.7428C211.149 85.1547 210.984 85.7308 210.984 86.471C210.984 87.2177 211.152 87.8067 211.488 88.2379C211.827 88.666 212.289 88.88 212.872 88.88C213.477 88.88 213.943 88.6708 214.27 88.2524C214.6 87.834 214.765 87.2402 214.765 86.471Z" fill="#4B4B4B"/>
<path d="M221.105 89.9034L218.29 84.6655C218.345 85.174 218.373 85.5828 218.373 85.8917V89.9034H217.172V83.1014H218.717L221.572 88.3828C221.517 87.8968 221.49 87.4543 221.49 87.0552V83.1014H222.691V89.9034H221.105Z" fill="#4B4B4B"/>
<path d="M223.956 89.9034V83.1014H229.035V84.2021H225.308V85.911H228.755V87.0117H225.308V88.8028H229.223V89.9034H223.956Z" fill="#4B4B4B"/>
<path d="M234.15 89.9034L231.336 84.6655C231.391 85.174 231.418 85.5828 231.418 85.8917V89.9034H230.217V83.1014H231.762L234.618 88.3828C234.563 87.8968 234.535 87.4543 234.535 87.0552V83.1014H235.736V89.9034H234.15Z" fill="#4B4B4B"/>
<path d="M240.018 88.88C240.834 88.88 241.4 88.4487 241.718 87.5862L242.896 88.0545C242.643 88.711 242.27 89.2002 241.778 89.5221C241.289 89.8407 240.702 90 240.018 90C238.979 90 238.175 89.691 237.607 89.0731C237.041 88.452 236.759 87.5846 236.759 86.471C236.759 85.3543 237.032 84.4966 237.579 83.8979C238.126 83.2993 238.919 83 239.958 83C240.716 83 241.333 83.1609 241.81 83.4828C242.287 83.8014 242.621 84.2713 242.814 84.8924L241.622 85.2352C241.521 84.894 241.323 84.6237 241.026 84.4241C240.733 84.2214 240.386 84.12 239.986 84.12C239.374 84.12 238.91 84.3195 238.592 84.7186C238.277 85.1177 238.12 85.7018 238.12 86.471C238.12 87.2531 238.282 87.8501 238.606 88.2621C238.933 88.674 239.403 88.88 240.018 88.88Z" fill="#4B4B4B"/>
<path d="M243.786 89.9034V83.1014H245.138V89.9034H243.786Z" fill="#4B4B4B"/>
<path d="M250.964 89.9034L250.391 88.1655H247.929L247.356 89.9034H246.004L248.36 83.1014H249.955L252.302 89.9034H250.964ZM249.158 84.149L249.13 84.2552C249.1 84.371 249.063 84.503 249.02 84.651C248.977 84.7991 248.715 85.6133 248.232 87.0938H250.088L249.451 85.1386L249.254 84.4821L249.158 84.149Z" fill="#4B4B4B"/>
<path d="M253.182 89.9034V83.1014H254.535V88.8028H258V89.9034H253.182Z" fill="#4B4B4B"/>
</svg>
