<svg width="18" height="12" viewBox="0 0 18 12" fill="none" xmlns="http://www.w3.org/2000/svg">
    <path d="M13.5977 4.625L17.25 0.972656V11.0273L13.5977 7.375V10.5977C13.5977 10.8555 13.4974 11.0703 13.2969 11.2422C13.125 11.4141 12.9102 11.5 12.6523 11.5H1.65234C1.39453 11.5 1.17969 11.4141 1.00781 11.2422C0.835938 11.0703 0.75 10.8555 0.75 10.5977V1.40234C0.75 1.14453 0.835938 0.929688 1.00781 0.757812C1.17969 0.585938 1.39453 0.5 1.65234 0.5H12.6523C12.9102 0.5 13.125 0.585938 13.2969 0.757812C13.4974 0.929688 13.5977 1.14453 13.5977 1.40234V4.625Z" fill="white"/>
</svg>
