<svg width="18" height="15" viewBox="0 0 18 15" fill="none" xmlns="http://www.w3.org/2000/svg">
    <path d="M0.75 4.15234H10.8477V6H0.75V4.15234ZM0.75 2.34766H10.8477V0.5H0.75V2.34766ZM0.75 9.65234H7.15234V7.84766H0.75V9.65234ZM14.5 6.81641L15.1445 6.12891C15.3451 5.95703 15.5599 5.87109 15.7891 5.87109C16.0469 5.87109 16.2617 5.95703 16.4336 6.12891L17.1211 6.81641C17.293 6.98828 17.3789 7.20312 17.3789 7.46094C17.3789 7.6901 17.293 7.90495 17.1211 8.10547L16.4336 8.75L14.5 6.81641ZM13.8555 7.46094L9 12.3164V14.25H10.9336L15.7891 9.39453L13.8555 7.46094Z" fill="#E7E7E7"/>
</svg>
