<svg width="97" height="98" viewBox="0 0 97 98" fill="none" xmlns="http://www.w3.org/2000/svg">
    <g clip-path="url(#clip0_1867_10774)">
        <path
            d="M84.5101 39.7604H69.434C64.4468 39.7604 60.3883 35.7019 60.3883 30.7147V18.6538C60.3883 10.3439 53.6222 3.57776 45.3122 3.57776C40.3251 3.57776 36.2666 7.63624 36.2666 12.6234V21.0178C36.2666 24.8411 35.2294 28.598 33.2574 31.8786L31.1648 35.3642C29.5366 38.0779 26.5697 39.7604 23.4097 39.7604H21.1905C19.5261 39.7604 18.1753 41.1112 18.1753 42.7756V81.9734C18.1753 83.0348 18.7301 84.0177 19.6407 84.5605L31.1347 91.4593C33.9449 93.1478 37.1651 94.0403 40.4397 94.0403H77.7499C80.922 94.0403 84.0337 92.7498 86.277 90.5065L93.0371 83.7463C95.2804 81.497 96.5709 78.3853 96.5709 75.2133V51.8212C96.5709 45.1697 91.1616 39.7604 84.5101 39.7604Z"
            fill="#F2F9FF" />
        <path
            d="M21.1905 39.7604H3.0992C1.4348 39.7604 0.0839844 41.1112 0.0839844 42.7756V91.0191C0.0839844 92.6835 1.4348 94.0343 3.0992 94.0343H21.1905C22.8549 94.0343 24.2057 92.6835 24.2057 91.0191V42.7756C24.2057 41.1112 22.8549 39.7604 21.1905 39.7604Z"
            fill="#1976D2" />
    </g>
    <defs>
        <clipPath id="clip0_1867_10774">
            <rect width="96.4869" height="96.4869" fill="white" transform="translate(0.0839844 0.565552)" />
        </clipPath>
    </defs>
</svg>