<svg width="18" height="18" viewBox="0 0 18 18" fill="none" xmlns="http://www.w3.org/2000/svg">
    <path d="M12.375 15.75V17.1562C12.375 17.6222 11.9972 18 11.5312 18H1.96875C1.50275 18 1.125 17.6222 1.125 17.1562V4.21875C1.125 3.75275 1.50275 3.375 1.96875 3.375H4.5V13.7812C4.5 14.8668 5.38316 15.75 6.46875 15.75H12.375ZM12.375 3.65625V0H6.46875C6.00275 0 5.625 0.377754 5.625 0.84375V13.7812C5.625 14.2472 6.00275 14.625 6.46875 14.625H16.0312C16.4972 14.625 16.875 14.2472 16.875 13.7812V4.5H13.2188C12.7547 4.5 12.375 4.12031 12.375 3.65625ZM16.6279 2.56539L14.3096 0.247113C14.1514 0.0888899 13.9368 1.16999e-06 13.713 0L13.5 0V3.375H16.875V3.16199C16.875 2.93822 16.7861 2.72362 16.6279 2.56539Z" fill="white"/>
</svg>
