<svg width="20" height="20" viewBox="0 0 20 20" fill="none" xmlns="http://www.w3.org/2000/svg">
<path d="M15.5 6.34766V4.5H4.5V6.34766H15.5ZM15.5 9.09766V7.25H4.5V9.09766H15.5ZM15.5 11.8477V10H4.5V11.8477H15.5ZM17.3477 0.847656C17.8346 0.847656 18.25 1.03385 18.5938 1.40625C18.9661 1.75 19.1523 2.16536 19.1523 2.65234V13.6523C19.1523 14.1393 18.9661 14.569 18.5938 14.9414C18.25 15.3138 17.8346 15.5 17.3477 15.5H4.5L0.847656 19.1523V2.65234C0.847656 2.16536 1.01953 1.75 1.36328 1.40625C1.73568 1.03385 2.16536 0.847656 2.65234 0.847656H17.3477Z" fill="white"/>
</svg>
