<svg width="16" height="20" viewBox="0 0 16 20" fill="none" xmlns="http://www.w3.org/2000/svg">
    <path d="M8.90234 7.25H13.9727L8.90234 2.22266V7.25ZM11.6523 11.8477V10H4.34766V11.8477H11.6523ZM11.6523 15.5V13.6523H4.34766V15.5H11.6523ZM9.84766 0.847656L15.3477 6.34766V17.3477C15.3477 17.8346 15.1615 18.2643 14.7891 18.6367C14.4167 18.9805 13.987 19.1523 13.5 19.1523H2.5C2.01302 19.1523 1.58333 18.9805 1.21094 18.6367C0.838542 18.2643 0.652344 17.8346 0.652344 17.3477L0.695312 2.65234C0.695312 2.16536 0.867188 1.75 1.21094 1.40625C1.58333 1.03385 2.01302 0.847656 2.5 0.847656H9.84766Z" fill="white"/>
</svg>
