<svg width="18" height="14" viewBox="0 0 18 14" fill="none" xmlns="http://www.w3.org/2000/svg">
    <path d="M12.9102 7.64453C13.1107 7.81641 13.3398 7.90234 13.5977 7.90234C13.8555 7.90234 14.0703 7.81641 14.2422 7.64453C14.4141 7.47266 14.5 7.25781 14.5 7C14.5 6.74219 14.4141 6.52734 14.2422 6.35547C14.0703 6.18359 13.8555 6.09766 13.5977 6.09766C13.3398 6.09766 13.1107 6.18359 12.9102 6.35547C12.7383 6.52734 12.6523 6.74219 12.6523 7C12.6523 7.25781 12.7383 7.47266 12.9102 7.64453ZM11.1055 4.89453C11.2773 5.06641 11.4922 5.15234 11.75 5.15234C12.0078 5.15234 12.2227 5.06641 12.3945 4.89453C12.5664 4.72266 12.6523 4.50781 12.6523 4.25C12.6523 3.99219 12.5664 3.77734 12.3945 3.60547C12.2227 3.43359 12.0078 3.34766 11.75 3.34766C11.4922 3.34766 11.2773 3.43359 11.1055 3.60547C10.9336 3.77734 10.8477 3.99219 10.8477 4.25C10.8477 4.50781 10.9336 4.72266 11.1055 4.89453ZM8.09766 6.09766V5.15234H6.25V3.34766H5.34766V5.15234H3.5V6.09766H5.34766V7.90234H6.25V6.09766H8.09766ZM17.7656 10.7383C17.8802 11.4544 17.694 12.0846 17.207 12.6289C16.7487 13.1445 16.1615 13.4023 15.4453 13.4023C14.8151 13.4023 14.2708 13.1732 13.8125 12.7148L11.75 10.6523H6.25L4.1875 12.7148C3.72917 13.1732 3.17057 13.4023 2.51172 13.4023C1.85286 13.4023 1.29427 13.1875 0.835938 12.7578C0.40625 12.2995 0.191406 11.7409 0.191406 11.082C0.191406 11.0534 0.191406 10.9961 0.191406 10.9102C0.220052 10.8242 0.234375 10.7669 0.234375 10.7383L1.22266 3.73438C1.33724 2.84635 1.73828 2.10156 2.42578 1.5C3.11328 0.898438 3.91536 0.597656 4.83203 0.597656H13.168C14.056 0.597656 14.8438 0.91276 15.5312 1.54297C16.2188 2.14453 16.6341 2.875 16.7773 3.73438L17.7656 10.7383Z" fill="white"/>
</svg>
