<svg width="18" height="18" viewBox="0 0 18 18" fill="none" xmlns="http://www.w3.org/2000/svg">
    <path d="M13.5977 13.5977V9.90234H11.75V13.5977H13.5977ZM9.90234 13.5977V4.40234H8.09766V13.5977H9.90234ZM6.25 13.5977V7.15234H4.40234V13.5977H6.25ZM15.4023 0.75C15.8893 0.75 16.319 0.936198 16.6914 1.30859C17.0638 1.68099 17.25 2.11068 17.25 2.59766V15.4023C17.25 15.8893 17.0638 16.319 16.6914 16.6914C16.319 17.0638 15.8893 17.25 15.4023 17.25H2.59766C2.11068 17.25 1.68099 17.0638 1.30859 16.6914C0.936198 16.319 0.75 15.8893 0.75 15.4023V2.59766C0.75 2.11068 0.936198 1.68099 1.30859 1.30859C1.68099 0.936198 2.11068 0.75 2.59766 0.75H15.4023Z" fill="white"/>
</svg>
