<svg width="101" height="100" viewBox="0 0 101 100" fill="none" xmlns="http://www.w3.org/2000/svg">
    <path
        d="M44.25 18.75L47.375 12.5L53.625 9.375L47.375 6.25L44.25 0L41.125 6.25L34.875 9.375L41.125 12.5L44.25 18.75ZM16.125 31.25L21.332 20.834L31.75 15.625L21.332 10.416L16.125 0L10.918 10.416L0.5 15.625L10.918 20.834L16.125 31.25ZM84.875 56.25L79.668 66.666L69.25 71.875L79.668 77.084L84.875 87.5L90.082 77.084L100.5 71.875L90.082 66.666L84.875 56.25ZM98.668 18.4043L82.0957 1.83203C80.877 0.609375 79.2773 0 77.6777 0C76.0781 0 74.4785 0.609375 73.2578 1.83203L2.33203 72.7578C-0.109375 75.1992 -0.109375 79.1562 2.33203 81.5957L18.9043 98.168C20.125 99.3887 21.7246 99.998 23.3223 99.998C24.9219 99.998 26.5215 99.3887 27.7422 98.168L98.668 27.2402C101.109 24.8027 101.109 20.8438 98.668 18.4043ZM70.7051 39.7383L60.7617 29.7949L77.6758 12.8809L87.6191 22.8242L70.7051 39.7383Z"
        fill="#FFFFFF"/>
</svg>
