<svg width="15" height="15" viewBox="0 0 15 15" fill="none" xmlns="http://www.w3.org/2000/svg">
    <path
        d="M7.5 0.625C4.375 0.625 1.875 3.125 1.875 6.25V10.625C1.875 11.1223 2.07254 11.5992 2.42417 11.9508C2.77581 12.3025 3.25272 12.5 3.75 12.5H5.625V7.5H3.125V6.25C3.125 5.08968 3.58594 3.97688 4.40641 3.15641C5.22688 2.33594 6.33968 1.875 7.5 1.875C8.66032 1.875 9.77312 2.33594 10.5936 3.15641C11.4141 3.97688 11.875 5.08968 11.875 6.25V7.5H9.375V12.5H11.875V13.125H7.5V14.375H11.25C11.7473 14.375 12.2242 14.1775 12.5758 13.8258C12.9275 13.4742 13.125 12.9973 13.125 12.5V6.25C13.125 3.125 10.6062 0.625 7.5 0.625Z"
        fill="#FFFFFF" />
</svg>
