<svg width="22" height="22" viewBox="0 0 22 22" fill="none" xmlns="http://www.w3.org/2000/svg">
    <path
        d="M17.4167 17.4167H4.58333V7.33334H17.4167V17.4167ZM14.6667 0.916672V2.75001H7.33333V0.916672H5.5V2.75001H4.58333C3.56583 2.75001 2.75 3.56584 2.75 4.58334V17.4167C2.75 17.9029 2.94315 18.3692 3.28697 18.713C3.63079 19.0569 4.0971 19.25 4.58333 19.25H17.4167C17.9029 19.25 18.3692 19.0569 18.713 18.713C19.0568 18.3692 19.25 17.9029 19.25 17.4167V4.58334C19.25 4.09711 19.0568 3.63079 18.713 3.28698C18.3692 2.94316 17.9029 2.75001 17.4167 2.75001H16.5V0.916672"
        fill="#FFFFFF"/>
</svg>
