<svg width="16" height="16" viewBox="0 0 16 16" fill="none" xmlns="http://www.w3.org/2000/svg">
    <path d="M1.33398 2V6.66667L7.33398 8L1.33398 9.33333V14L6.18065 11.9267C6.45521 12.9058 7.04207 13.7684 7.85196 14.3834C8.66185 14.9983 9.65043 15.3319 10.6673 15.3333C11.905 15.3333 13.092 14.8417 13.9671 13.9665C14.8423 13.0913 15.334 11.9043 15.334 10.6667C15.334 9.42899 14.8423 8.242 13.9671 7.36684C13.092 6.49167 11.905 6 10.6673 6L1.33398 2ZM10.6673 7.33333C11.5514 7.33333 12.3992 7.68452 13.0243 8.30964C13.6495 8.93476 14.0007 9.78261 14.0007 10.6667C14.0007 11.5507 13.6495 12.3986 13.0243 13.0237C12.3992 13.6488 11.5514 14 10.6673 14C9.78326 14 8.93542 13.6488 8.3103 13.0237C7.68517 12.3986 7.33398 11.5507 7.33398 10.6667C7.33398 9.78261 7.68517 8.93476 8.3103 8.30964C8.93542 7.68452 9.78326 7.33333 10.6673 7.33333ZM10.0007 8.33333V11L12.0007 12.3333L12.5007 11.5L11.0007 10.5V8.33333H10.0007Z" fill="white"/>
</svg>
