<svg width="19" height="16" viewBox="0 0 19 16" fill="none" xmlns="http://www.w3.org/2000/svg">
<path d="M4.5 1H18.5V3H4.5V1ZM4.5 9V7H18.5V9H4.5ZM1.5 0.5C1.89782 0.5 2.27936 0.658035 2.56066 0.93934C2.84196 1.22064 3 1.60218 3 2C3 2.39782 2.84196 2.77936 2.56066 3.06066C2.27936 3.34196 1.89782 3.5 1.5 3.5C1.10218 3.5 0.720644 3.34196 0.43934 3.06066C0.158035 2.77936 0 2.39782 0 2C0 1.60218 0.158035 1.22064 0.43934 0.93934C0.720644 0.658035 1.10218 0.5 1.5 0.5ZM1.5 6.5C1.89782 6.5 2.27936 6.65804 2.56066 6.93934C2.84196 7.22064 3 7.60218 3 8C3 8.39782 2.84196 8.77936 2.56066 9.06066C2.27936 9.34196 1.89782 9.5 1.5 9.5C1.10218 9.5 0.720644 9.34196 0.43934 9.06066C0.158035 8.77936 0 8.39782 0 8C0 7.60218 0.158035 7.22064 0.43934 6.93934C0.720644 6.65804 1.10218 6.5 1.5 6.5ZM4.5 15V13H18.5V15H4.5ZM1.5 12.5C1.89782 12.5 2.27936 12.658 2.56066 12.9393C2.84196 13.2206 3 13.6022 3 14C3 14.3978 2.84196 14.7794 2.56066 15.0607C2.27936 15.342 1.89782 15.5 1.5 15.5C1.10218 15.5 0.720644 15.342 0.43934 15.0607C0.158035 14.7794 0 14.3978 0 14C0 13.6022 0.158035 13.2206 0.43934 12.9393C0.720644 12.658 1.10218 12.5 1.5 12.5Z" fill="#E7E7E7"/>
</svg>
