<svg width="15" height="15" viewBox="0 0 15 15" fill="none" xmlns="http://www.w3.org/2000/svg">
    <path
        d="M6.61858 8.38124C6.87483 8.62499 6.87483 9.02499 6.61858 9.26874C6.37483 9.51249 5.97483 9.51249 5.73108 9.26874C5.14569 8.68248 4.81689 7.88786 4.81689 7.05937C4.81689 6.23088 5.14569 5.43626 5.73108 4.84999L7.94358 2.63749C8.52984 2.05211 9.32447 1.72331 10.153 1.72331C10.9814 1.72331 11.7761 2.05211 12.3623 2.63749C12.9477 3.22376 13.2765 4.01838 13.2765 4.84687C13.2765 5.67536 12.9477 6.46998 12.3623 7.05624L11.4311 7.98749C11.4373 7.47499 11.3561 6.96249 11.1811 6.47499L11.4748 6.17499C11.65 6.00167 11.7891 5.79532 11.8841 5.56789C11.979 5.34045 12.0279 5.09645 12.0279 4.84999C12.0279 4.60354 11.979 4.35954 11.8841 4.1321C11.7891 3.90466 11.65 3.69831 11.4748 3.52499C11.3015 3.34978 11.0952 3.21069 10.8677 3.11576C10.6403 3.02083 10.3963 2.97195 10.1498 2.97195C9.90337 2.97195 9.65937 3.02083 9.43193 3.11576C9.2045 3.21069 8.99815 3.34978 8.82483 3.52499L6.61858 5.73124C6.44337 5.90456 6.30427 6.11091 6.20934 6.33835C6.11441 6.56579 6.06553 6.80979 6.06553 7.05624C6.06553 7.3027 6.11441 7.5467 6.20934 7.77414C6.30427 8.00157 6.44337 8.20792 6.61858 8.38124ZM8.38108 5.73124C8.62483 5.48749 9.02483 5.48749 9.26858 5.73124C9.85396 6.31751 10.1828 7.11213 10.1828 7.94062C10.1828 8.7691 9.85396 9.56373 9.26858 10.15L7.05608 12.3625C6.46981 12.9479 5.67519 13.2767 4.8467 13.2767C4.01822 13.2767 3.22359 12.9479 2.63733 12.3625C2.05194 11.7762 1.72314 10.9816 1.72314 10.1531C1.72314 9.32463 2.05194 8.53001 2.63733 7.94374L3.56858 7.0125C3.56233 7.52499 3.64358 8.03749 3.81858 8.53124L3.52483 8.825C3.34962 8.99832 3.21052 9.20466 3.11559 9.4321C3.02066 9.65954 2.97178 9.90354 2.97178 10.15C2.97178 10.3964 3.02066 10.6405 3.11559 10.8679C3.21052 11.0953 3.34962 11.3017 3.52483 11.475C3.69815 11.6502 3.9045 11.7893 4.13193 11.8842C4.35937 11.9792 4.60337 12.028 4.84983 12.028C5.09628 12.028 5.34028 11.9792 5.56772 11.8842C5.79516 11.7893 6.00151 11.6502 6.17483 11.475L8.38108 9.26874C8.55629 9.09542 8.69538 8.88907 8.79031 8.66164C8.88525 8.4342 8.93412 8.1902 8.93412 7.94374C8.93412 7.69729 8.88525 7.45329 8.79031 7.22585C8.69538 6.99841 8.55629 6.79207 8.38108 6.61874C8.32038 6.56186 8.27199 6.49314 8.23891 6.41681C8.20583 6.34048 8.18877 6.25818 8.18877 6.17499C8.18877 6.09181 8.20583 6.00951 8.23891 5.93318C8.27199 5.85685 8.32038 5.78812 8.38108 5.73124Z"
        fill="#FFFFFF" />
</svg>
