<svg width="19" height="16" viewBox="0 0 19 16" fill="none" xmlns="http://www.w3.org/2000/svg">
<path d="M2.5 0H16.5C17.0304 0 17.5391 0.210714 17.9142 0.585786C18.2893 0.960859 18.5 1.46957 18.5 2V14C18.5 14.5304 18.2893 15.0391 17.9142 15.4142C17.5391 15.7893 17.0304 16 16.5 16H2.5C1.96957 16 1.46086 15.7893 1.08579 15.4142C0.710714 15.0391 0.5 14.5304 0.5 14V2C0.5 1.46957 0.710714 0.960859 1.08579 0.585786C1.46086 0.210714 1.96957 0 2.5 0ZM2.5 4V8H8.5V4H2.5ZM10.5 4V8H16.5V4H10.5ZM2.5 10V14H8.5V10H2.5ZM10.5 10V14H16.5V10H10.5Z" fill="#E7E7E7"/>
</svg>
