<svg width="22" height="16" viewBox="0 0 22 16" fill="none" xmlns="http://www.w3.org/2000/svg">
    <path
        d="M16.0273 9.14844C16.7721 9.14844 17.5456 9.22005 18.3477 9.36328V10.7383C17.7747 10.5951 17.0013 10.5234 16.0273 10.5234C14.3086 10.5234 12.9336 10.8242 11.9023 11.4258V9.87891C12.9909 9.39193 14.3659 9.14844 16.0273 9.14844ZM11.9023 7.42969C13.1055 6.94271 14.4805 6.69922 16.0273 6.69922C16.7721 6.69922 17.5456 6.77083 18.3477 6.91406V8.28906C17.7747 8.14583 17.0013 8.07422 16.0273 8.07422C14.3086 8.07422 12.9336 8.375 11.9023 8.97656V7.42969ZM16.0273 5.625C14.3086 5.625 12.9336 5.92578 11.9023 6.52734V5.02344C13.0482 4.50781 14.4232 4.25 16.0273 4.25C16.7721 4.25 17.5456 4.32161 18.3477 4.46484V5.88281C17.6602 5.71094 16.8867 5.625 16.0273 5.625ZM19.25 12.9727V2.40234C18.3047 2.11589 17.2305 1.97266 16.0273 1.97266C14.1654 1.97266 12.4896 2.43099 11 3.34766V13.875C12.4896 12.9583 14.1654 12.5 16.0273 12.5C17.1445 12.5 18.2188 12.6576 19.25 12.9727ZM16.0273 0.125C18.2044 0.125 19.8945 0.583333 21.0977 1.5V14.8633C21.0977 14.9779 21.0404 15.0924 20.9258 15.207C20.8398 15.293 20.7396 15.3359 20.625 15.3359C20.5391 15.3359 20.4674 15.3216 20.4102 15.293C19.2357 14.6628 17.7747 14.3477 16.0273 14.3477C14.1654 14.3477 12.4896 14.806 11 15.7227C9.76823 14.806 8.09245 14.3477 5.97266 14.3477C4.42578 14.3477 2.96484 14.6771 1.58984 15.3359C1.5612 15.3359 1.51823 15.3503 1.46094 15.3789C1.43229 15.3789 1.40365 15.3789 1.375 15.3789C1.26042 15.3789 1.14583 15.3359 1.03125 15.25C0.945312 15.1641 0.902344 15.0638 0.902344 14.9492V1.5C2.13411 0.583333 3.82422 0.125 5.97266 0.125C8.09245 0.125 9.76823 0.583333 11 1.5C12.2318 0.583333 13.9076 0.125 16.0273 0.125Z"
        fill="#FFFFFF"/>
</svg>
