<svg width="20" height="20" viewBox="0 0 20 20" fill="none" xmlns="http://www.w3.org/2000/svg">
    <path d="M10 0.847656C8.73958 0.847656 7.55078 1.09115 6.43359 1.57812C5.34505 2.03646 4.37109 2.69531 3.51172 3.55469C2.68099 4.38542 2.02214 5.35938 1.53516 6.47656C1.07682 7.5651 0.847656 8.73958 0.847656 10C0.847656 11.2604 1.07682 12.4492 1.53516 13.5664C2.02214 14.6549 2.68099 15.6289 3.51172 16.4883C4.37109 17.319 5.34505 17.9779 6.43359 18.4648C7.55078 18.9232 8.73958 19.1523 10 19.1523C10.6302 19.1523 11.1602 18.9375 11.5898 18.5078C12.0482 18.0495 12.2773 17.5052 12.2773 16.875C12.2773 16.3021 12.0911 15.7865 11.7188 15.3281C11.6328 15.2422 11.5898 15.1419 11.5898 15.0273C11.5898 14.9128 11.6328 14.8125 11.7188 14.7266C11.8047 14.6406 11.9193 14.5977 12.0625 14.5977H13.6523C14.6836 14.5977 15.6146 14.3542 16.4453 13.8672C17.276 13.3516 17.9349 12.6784 18.4219 11.8477C18.9089 11.0169 19.1523 10.1003 19.1523 9.09766C19.1523 7.95182 18.9089 6.8776 18.4219 5.875C17.9635 4.8724 17.3047 3.9987 16.4453 3.25391C15.6146 2.50911 14.6406 1.92188 13.5234 1.49219C12.4349 1.0625 11.2604 0.847656 10 0.847656ZM15.0273 10.9023C14.6549 10.9023 14.3255 10.7734 14.0391 10.5156C13.7812 10.2578 13.6523 9.92839 13.6523 9.52734C13.6523 9.15495 13.7812 8.83984 14.0391 8.58203C14.3255 8.29557 14.6549 8.15234 15.0273 8.15234C15.4284 8.15234 15.7578 8.29557 16.0156 8.58203C16.2734 8.83984 16.4023 9.15495 16.4023 9.52734C16.4023 9.92839 16.2734 10.2578 16.0156 10.5156C15.7578 10.7734 15.4284 10.9023 15.0273 10.9023ZM12.2773 7.25C11.9049 7.25 11.5755 7.12109 11.2891 6.86328C11.0312 6.57682 10.9023 6.2474 10.9023 5.875C10.9023 5.5026 11.0312 5.1875 11.2891 4.92969C11.5755 4.64323 11.9049 4.5 12.2773 4.5C12.6784 4.5 13.0078 4.64323 13.2656 4.92969C13.5234 5.1875 13.6523 5.5026 13.6523 5.875C13.6523 6.2474 13.5234 6.57682 13.2656 6.86328C13.0078 7.12109 12.6784 7.25 12.2773 7.25ZM3.59766 9.52734C3.59766 9.15495 3.72656 8.83984 3.98438 8.58203C4.24219 8.29557 4.57161 8.15234 4.97266 8.15234C5.34505 8.15234 5.66016 8.29557 5.91797 8.58203C6.20443 8.83984 6.34766 9.15495 6.34766 9.52734C6.34766 9.92839 6.20443 10.2578 5.91797 10.5156C5.66016 10.7734 5.34505 10.9023 4.97266 10.9023C4.57161 10.9023 4.24219 10.7734 3.98438 10.5156C3.72656 10.2578 3.59766 9.92839 3.59766 9.52734ZM9.09766 5.875C9.09766 6.2474 8.95443 6.57682 8.66797 6.86328C8.41016 7.12109 8.09505 7.25 7.72266 7.25C7.32161 7.25 6.99219 7.12109 6.73438 6.86328C6.47656 6.57682 6.34766 6.2474 6.34766 5.875C6.34766 5.5026 6.47656 5.1875 6.73438 4.92969C6.99219 4.64323 7.32161 4.5 7.72266 4.5C8.09505 4.5 8.41016 4.64323 8.66797 4.92969C8.95443 5.1875 9.09766 5.5026 9.09766 5.875Z" fill="white"/>
</svg>
