<svg width="16" height="17" viewBox="0 0 16 17" fill="none" xmlns="http://www.w3.org/2000/svg">
<path d="M7.99985 8.83338L12.9999 16.3334H2.99985L7.99985 8.83338ZM7.11652 6.80005C6.99371 6.68561 6.8952 6.54761 6.82688 6.39428C6.75856 6.24094 6.72183 6.07542 6.71887 5.90758C6.7159 5.73975 6.74678 5.57303 6.80965 5.41738C6.87251 5.26174 6.96609 5.12035 7.08479 5.00165C7.20349 4.88295 7.34487 4.78938 7.50052 4.72651C7.65617 4.66364 7.82288 4.63277 7.99072 4.63573C8.15856 4.63869 8.32408 4.67543 8.47741 4.74375C8.63075 4.81207 8.76875 4.91057 8.88318 5.03338C9.10398 5.27034 9.22419 5.58375 9.21848 5.90758C9.21276 6.23142 9.08158 6.5404 8.85255 6.76942C8.62353 6.99844 8.31456 7.12962 7.99072 7.13534C7.66689 7.14105 7.35348 7.02085 7.11652 6.80005ZM2.40069 0.319214L3.57985 1.49838C2.4079 2.67046 1.74952 4.26007 1.74952 5.91755C1.74952 7.57503 2.4079 9.16463 3.57985 10.3367L2.40069 11.5159C1.66543 10.7807 1.08219 9.90796 0.684273 8.94739C0.286352 7.98682 0.081543 6.95728 0.081543 5.91755C0.081543 4.87782 0.286352 3.84827 0.684273 2.88771C1.08219 1.92714 1.66543 1.05436 2.40069 0.319214ZM13.5974 0.319214C14.3326 1.05436 14.9158 1.92714 15.3138 2.88771C15.7117 3.84827 15.9165 4.87782 15.9165 5.91755C15.9165 6.95728 15.7117 7.98682 15.3138 8.94739C14.9158 9.90796 14.3326 10.7807 13.5974 11.5159L12.4182 10.3367C13.5901 9.16463 14.2485 7.57503 14.2485 5.91755C14.2485 4.26007 13.5901 2.67046 12.4182 1.49838L13.5974 0.319214ZM4.75818 2.67588L5.93652 3.85421C5.66565 4.12506 5.45078 4.4466 5.30419 4.80048C5.15759 5.15437 5.08214 5.53367 5.08214 5.91671C5.08214 6.29976 5.15759 6.67906 5.30419 7.03294C5.45078 7.38683 5.66565 7.70837 5.93652 7.97921L4.75818 9.15755C3.89869 8.29801 3.41583 7.13225 3.41583 5.91671C3.41583 4.70117 3.89869 3.53542 4.75818 2.67588ZM11.2399 2.67588C12.0993 3.53542 12.5822 4.70117 12.5822 5.91671C12.5822 7.13225 12.0993 8.29801 11.2399 9.15755L10.0615 7.97921C10.3324 7.70837 10.5473 7.38683 10.6938 7.03294C10.8404 6.67906 10.9159 6.29976 10.9159 5.91671C10.9159 5.53367 10.8404 5.15437 10.6938 4.80048C10.5473 4.4466 10.3324 4.12506 10.0615 3.85421L11.2399 2.67588Z" fill="white"/>
</svg>
