<svg width="20" height="20" viewBox="0 0 20 20" fill="none" xmlns="http://www.w3.org/2000/svg">
    <path d="M13.9961 11.8477H17.0898C17.2617 11.0456 17.3477 10.4297 17.3477 10C17.3477 9.57031 17.2617 8.95443 17.0898 8.15234H13.9961C14.082 8.75391 14.125 9.36979 14.125 10C14.125 10.6302 14.082 11.2461 13.9961 11.8477ZM12.3633 16.918C13.0794 16.6888 13.8242 16.2591 14.5977 15.6289C15.3711 14.9701 15.9583 14.3112 16.3594 13.6523H13.6523C13.3659 14.7982 12.9362 15.8867 12.3633 16.918ZM12.1484 11.8477C12.2344 11.2461 12.2773 10.6302 12.2773 10C12.2773 9.36979 12.2344 8.75391 12.1484 8.15234H7.85156C7.76562 8.75391 7.72266 9.36979 7.72266 10C7.72266 10.6302 7.76562 11.2461 7.85156 11.8477H12.1484ZM10 17.3047C10.8021 16.1302 11.3893 14.9128 11.7617 13.6523H8.23828C8.61068 14.9128 9.19792 16.1302 10 17.3047ZM6.34766 6.34766C6.69141 5.11589 7.12109 4.02734 7.63672 3.08203C6.92057 3.3112 6.16146 3.75521 5.35938 4.41406C4.58594 5.04427 4.01302 5.6888 3.64062 6.34766H6.34766ZM3.64062 13.6523C4.01302 14.3112 4.58594 14.9701 5.35938 15.6289C6.16146 16.2591 6.92057 16.6888 7.63672 16.918C7.0638 15.8867 6.63411 14.7982 6.34766 13.6523H3.64062ZM2.91016 11.8477H6.00391C5.91797 11.2461 5.875 10.6302 5.875 10C5.875 9.36979 5.91797 8.75391 6.00391 8.15234H2.91016C2.73828 8.95443 2.65234 9.57031 2.65234 10C2.65234 10.4297 2.73828 11.0456 2.91016 11.8477ZM10 2.69531C9.19792 3.86979 8.61068 5.08724 8.23828 6.34766H11.7617C11.3893 5.08724 10.8021 3.86979 10 2.69531ZM16.3594 6.34766C15.9583 5.6888 15.3711 5.04427 14.5977 4.41406C13.8242 3.75521 13.0794 3.3112 12.3633 3.08203C12.8789 4.02734 13.3086 5.11589 13.6523 6.34766H16.3594ZM3.51172 3.55469C5.31641 1.75 7.47917 0.847656 10 0.847656C12.5208 0.847656 14.6693 1.75 16.4453 3.55469C18.25 5.33073 19.1523 7.47917 19.1523 10C19.1523 12.5208 18.25 14.6836 16.4453 16.4883C14.6693 18.2643 12.5208 19.1523 10 19.1523C7.47917 19.1523 5.31641 18.2643 3.51172 16.4883C1.73568 14.6836 0.847656 12.5208 0.847656 10C0.847656 7.47917 1.73568 5.33073 3.51172 3.55469Z" fill="#FFFFFF"/>
</svg>
